<?xml version="1.0" standalone="no"?>
<!DOCTYPE svg PUBLIC "-//W3C//DTD SVG 20010904//EN"
 "http://www.w3.org/TR/2001/REC-SVG-20010904/DTD/svg10.dtd">
<svg version="1.0" xmlns="http://www.w3.org/2000/svg"
 width="349.000000pt" height="349.000000pt" viewBox="0 0 349.000000 349.000000"
 preserveAspectRatio="xMidYMid meet">
<metadata>
Created by potrace 1.14, written by Peter Selinger 2001-2017
</metadata>
<g transform="translate(0.000000,349.000000) scale(0.100000,-0.100000)"
fill="#000000" stroke="none">
<path d="M820 3480 c-12 -8 -14 -163 -12 -1191 0 -650 3 -1184 6 -1186 2 -2
65 -6 140 -8 l136 -3 1 77 c0 42 1 497 2 1011 l2 935 340 0 c513 -1 624 -13
808 -89 50 -21 123 -40 187 -50 222 -36 345 -90 457 -203 23 -24 44 -43 47
-43 11 0 -67 144 -120 222 -166 244 -331 378 -557 452 -91 30 -251 63 -337 71
-119 10 -1084 15 -1100 5z"/>
<path d="M340 1745 l0 -1135 23 -1 c12 0 310 -1 662 -1 697 0 890 5 994 27
293 61 463 236 581 595 52 159 69 303 65 540 -3 223 -5 236 -41 389 -37 160
-42 166 -133 195 -43 14 -115 27 -162 31 -46 3 -94 8 -106 11 -29 6 -29 -4 2
-46 53 -72 128 -257 140 -347 3 -18 8 -50 11 -70 6 -43 7 -347 0 -378 -2 -11
-7 -42 -10 -70 -14 -98 -68 -235 -128 -322 -63 -92 -124 -133 -234 -157 -117
-25 -152 -27 -771 -33 l-603 -5 0 766 c0 605 3 766 13 768 6 0 17 2 22 3 6 2
19 3 30 4 19 1 20 8 20 186 l1 185 -188 0 -188 0 0 -1135z"/>
<path d="M1184 2698 l1 -183 50 -1 c28 -1 295 -5 595 -8 554 -7 583 -8 651
-26 114 -31 166 -67 228 -160 72 -106 105 -197 132 -365 10 -63 14 -365 5
-406 -3 -13 -8 -51 -11 -84 -3 -33 -7 -70 -9 -81 -3 -12 -7 -39 -10 -60 -11
-67 -54 -219 -85 -301 -97 -249 -286 -474 -465 -554 -66 -29 -195 -66 -257
-74 -28 -4 -61 -9 -73 -11 -49 -10 -629 -20 -829 -15 -15 1 -18 8 -17 39 3 64
0 93 -8 88 -5 -3 -68 -6 -140 -7 l-132 -1 -1 -127 c0 -69 -1 -177 -2 -238 -1
-68 2 -114 8 -116 20 -6 1002 0 1090 7 475 37 781 245 1008 683 94 183 176
451 202 668 4 33 9 74 12 90 12 90 11 457 -2 547 -43 298 -145 526 -305 687
-102 102 -252 160 -465 179 -55 5 -341 10 -637 11 l-536 2 2 -183z"/>
</g>
</svg>
