<svg width="31" height="31" viewBox="0 0 31 31" fill="none" xmlns="http://www.w3.org/2000/svg">
<path d="M19.375 17.3083C18.7455 16.7999 17.948 16.5464 17.1404 16.5979H11.625V22.2425H17.2308C18.0134 22.2655 18.777 21.9987 19.375 21.4933C19.6585 21.2203 19.881 20.8905 20.0279 20.5254C20.1748 20.1603 20.2428 19.7682 20.2275 19.375C20.2413 18.9896 20.1723 18.6058 20.0252 18.2493C19.8782 17.8928 19.6565 17.5719 19.375 17.3083V17.3083ZM18.6 13.6658C18.8604 13.4338 19.0653 13.1461 19.1995 12.8242C19.3336 12.5022 19.3936 12.1541 19.375 11.8058C19.413 11.4542 19.3712 11.0985 19.2527 10.7653C19.1341 10.4321 18.9419 10.1299 18.6904 9.88125C18.1377 9.48836 17.469 9.29273 16.7917 9.32583H11.625V14.3117H16.7917C17.4688 14.3249 18.1284 14.0959 18.6517 13.6658H18.6ZM25.8333 0H5.16667C3.79638 0 2.48222 0.544343 1.51328 1.51328C0.544343 2.48222 0 3.79638 0 5.16667V25.8333C0 27.2036 0.544343 28.5178 1.51328 29.4867C2.48222 30.4557 3.79638 31 5.16667 31H25.8333C27.2036 31 28.5178 30.4557 29.4867 29.4867C30.4557 28.5178 31 27.2036 31 25.8333V5.16667C31 3.79638 30.4557 2.48222 29.4867 1.51328C28.5178 0.544343 27.2036 0 25.8333 0V0ZM23.0046 21.7646C22.755 22.393 22.3453 22.9452 21.8162 23.3662C21.2014 23.8557 20.4941 24.2159 19.7367 24.4254C18.7601 24.7131 17.7449 24.8482 16.7271 24.8258H8.42167V6.7425H17.205C18.584 6.67378 19.9468 7.06446 21.08 7.85333C21.5812 8.25305 21.9773 8.76904 22.2339 9.35653C22.4905 9.94402 22.5999 10.5853 22.5525 11.2246C22.6003 12.0465 22.3928 12.8631 21.9583 13.5625C21.478 14.238 20.8148 14.7623 20.0467 15.0737C20.5599 15.1532 21.0523 15.3333 21.4957 15.6037C21.939 15.8742 22.3245 16.2296 22.63 16.6496C23.2295 17.5601 23.5319 18.6342 23.4954 19.7237C23.4762 20.4308 23.309 21.1261 23.0046 21.7646Z" fill="#FABF4A"/>
</svg>
