<svg width="35" height="33" viewBox="0 0 35 33" fill="none" xmlns="http://www.w3.org/2000/svg">
<path d="M29.875 1H5.125C2.84697 1 1 3.64533 1 6.90476V26.0952C1 29.3561 2.84697 32 5.125 32H29.875C32.153 32 34 29.3561 34 26.0952V6.90476C34 3.64533 32.153 1 29.875 1ZM3.0625 8.75L10.2802 16.5L3.0625 24.25V8.75ZM31.9375 26.0952C31.9375 27.725 31.0114 29.0476 29.875 29.0476H5.125C3.98753 29.0476 3.0625 27.725 3.0625 26.0952L11.1392 17.4226L15.6438 22.2601C16.1934 22.8476 16.8462 23.1458 17.5 23.1458C18.1528 23.1458 18.8056 22.8491 19.3552 22.2601L23.8607 17.4226L31.9375 26.0952ZM31.9375 24.25L24.7188 16.5L31.9375 8.75V24.25ZM18.7365 21.0791C18.3766 21.4659 17.9496 21.6696 17.5 21.6696C17.0504 21.6696 16.6224 21.4644 16.2625 21.0791L11.9983 16.5L11.1392 15.5774L3.0625 6.90624V6.90476C3.0625 5.27652 3.98753 3.95238 5.125 3.95238H29.875C31.0114 3.95238 31.9375 5.27652 31.9375 6.90476L18.7365 21.0791Z" fill="#73105A" stroke="#73105A"/>
</svg>
