<svg width="31" height="31" viewBox="0 0 31 31" fill="none" xmlns="http://www.w3.org/2000/svg">
<circle cx="15.5" cy="15.5" r="15.5" fill="#73105A"/>
<path d="M21.875 7H9.125C7.95147 7 7 8.36533 7 10.0476V19.9524C7 21.6354 7.95147 23 9.125 23H21.875C23.0485 23 24 21.6354 24 19.9524V10.0476C24 8.36533 23.0485 7 21.875 7ZM8.0625 11L11.7807 15L8.0625 19V11ZM22.9375 19.9524C22.9375 20.7935 22.4604 21.4762 21.875 21.4762H9.125C8.53903 21.4762 8.0625 20.7935 8.0625 19.9524L12.2232 15.4762L14.5437 17.973C14.8269 18.2762 15.1632 18.4301 15.5 18.4301C15.8363 18.4301 16.1726 18.277 16.4557 17.973L18.7767 15.4762L22.9375 19.9524ZM22.9375 19L19.2187 15L22.9375 11V19ZM16.137 17.3634C15.9516 17.563 15.7316 17.6682 15.5 17.6682C15.2684 17.6682 15.0479 17.5623 14.8625 17.3634L12.6658 15L12.2232 14.5238L8.0625 10.0484V10.0476C8.0625 9.20724 8.53903 8.52381 9.125 8.52381H21.875C22.4604 8.52381 22.9375 9.20724 22.9375 10.0476L16.137 17.3634Z" fill="white" stroke="white"/>
</svg>
