<svg width="24" height="31" viewBox="0 0 24 31" fill="none" xmlns="http://www.w3.org/2000/svg">
<path d="M16.2522 12.3553V12.3555L16.2619 12.3551C17.7427 12.2974 19.1435 11.6686 20.1708 10.6005C21.198 9.5325 21.7717 8.1082 21.7717 6.62635C21.7717 5.14449 21.198 3.7202 20.1708 2.65216C19.1435 1.58412 17.7427 0.955304 16.2619 0.89759L16.2619 0.8974H16.2522H7.23294V0.89721L7.2232 0.89759C5.74247 0.955304 4.3416 1.58412 3.31438 2.65216C2.28716 3.7202 1.71338 5.14449 1.71338 6.62635C1.71338 8.1082 2.28716 9.5325 3.31438 10.6005C4.3416 11.6686 5.74247 12.2974 7.2232 12.3551L7.22319 12.3553H7.23294H16.2522ZM5.11719 4.45263C5.6737 3.86789 6.43323 3.51893 7.23924 3.47749H16.2459C17.0519 3.51893 17.8114 3.86789 18.3679 4.45263C18.9258 5.03883 19.237 5.8171 19.237 6.62635C19.237 7.4356 18.9258 8.21387 18.3679 8.80007C17.8114 9.38481 17.0519 9.73377 16.2459 9.77521H7.23925C6.43323 9.73377 5.6737 9.38481 5.11719 8.80007C4.55929 8.21387 4.24813 7.4356 4.24813 6.62635C4.24813 5.8171 4.55929 5.03883 5.11719 4.45263Z" stroke-width="0.5"/>
<path d="M7.2326 21.2248H11.6757C12.0178 21.2248 12.3459 21.0889 12.5879 20.8469C12.8298 20.605 12.9657 20.2769 12.9657 19.9347V11.0653C12.9657 10.7231 12.8298 10.395 12.5879 10.1531C12.3459 9.91112 12.0178 9.77521 11.6757 9.77521C11.3335 9.77521 11.0054 9.91112 10.7635 10.1531C10.5215 10.395 10.3856 10.7231 10.3856 11.0653V18.6447H7.2326C6.39857 18.6447 5.59871 18.3134 5.00896 17.7236C4.41921 17.1339 4.0879 16.334 4.0879 15.5C4.0879 14.666 4.41921 13.8661 5.00896 13.2764C5.59871 12.6866 6.39857 12.3553 7.2326 12.3553C7.57474 12.3553 7.90287 12.2194 8.1448 11.9774C8.38673 11.7355 8.52264 11.4074 8.52264 11.0653C8.52264 10.7231 8.38673 10.395 8.1448 10.1531C7.90287 9.91112 7.57474 9.77521 7.2326 9.77521C5.71429 9.77521 4.25817 10.3784 3.18456 11.452C2.11096 12.5256 1.50781 13.9817 1.50781 15.5C1.50781 17.0183 2.11096 18.4744 3.18456 19.548C4.25817 20.6216 5.71429 21.2248 7.2326 21.2248Z" fill="#FABF4A" stroke="#FABF4A" stroke-width="0.5"/>
<path d="M5.04735 29.7322C5.76716 30.006 6.53474 30.132 7.30427 30.1026C8.82008 30.0991 10.2729 29.4954 11.3448 28.4234C12.4178 27.3504 13.0217 25.8957 13.024 24.3782V24.3778V19.9348C13.024 19.5926 12.8881 19.2645 12.6461 19.0226C12.4042 18.7806 12.0761 18.6447 11.7339 18.6447C11.3918 18.6447 11.0637 18.7806 10.8217 19.0226C10.5798 19.2645 10.4439 19.5926 10.4439 19.9348V24.3778C10.4439 25.0018 10.2588 25.6117 9.91198 26.1304C9.56518 26.649 9.07229 27.0532 8.4957 27.2916C7.91911 27.53 7.28475 27.592 6.67291 27.4697C6.06108 27.3474 5.49928 27.0463 5.05863 26.6046C4.61798 26.1629 4.31829 25.6003 4.1975 24.9882C4.07672 24.3761 4.14026 23.7419 4.38008 23.1659C4.61991 22.5899 5.02524 22.098 5.54477 21.7524C6.06429 21.4069 6.67465 21.2233 7.29859 21.2248H7.2992C7.64134 21.2248 7.96946 21.0889 8.21139 20.847C8.45333 20.605 8.58924 20.2769 8.58924 19.9348C8.58924 19.5926 8.45332 19.2645 8.21139 19.0226C7.97066 18.7818 7.64458 18.6461 7.30427 18.6447C6.53474 18.6154 5.76716 18.7413 5.04735 19.0151C4.32609 19.2895 3.66764 19.7066 3.11146 20.2416C2.55527 20.7765 2.1128 21.4182 1.81056 22.1282C1.50833 22.8383 1.35254 23.602 1.35254 24.3737C1.35254 25.1454 1.50833 25.9091 1.81056 26.6191C2.1128 27.3291 2.55527 27.9709 3.11146 28.5058C3.66764 29.0407 4.32609 29.4579 5.04735 29.7322Z" fill="#FABF4A" stroke="#FABF4A" stroke-width="0.5"/>
<path d="M12.955 20.3888C13.9087 21.0261 15.03 21.3663 16.1771 21.3663C16.9387 21.3663 17.6929 21.2162 18.3966 20.9248C19.1002 20.6333 19.7396 20.2061 20.2781 19.6676C20.8167 19.129 21.2439 18.4897 21.5353 17.786C21.8268 17.0824 21.9768 16.3282 21.9768 15.5666C21.9768 14.4195 21.6366 13.2982 20.9994 12.3445C20.3621 11.3907 19.4563 10.6473 18.3966 10.2084C17.3368 9.76942 16.1707 9.65457 15.0457 9.87835C13.9206 10.1021 12.8872 10.6545 12.0761 11.4656C11.265 12.2767 10.7127 13.3101 10.4889 14.4351C10.2651 15.5601 10.38 16.7263 10.8189 17.786C11.2579 18.8458 12.0012 19.7516 12.955 20.3888ZM14.3876 12.8985C14.9172 12.5443 15.54 12.3553 16.1771 12.3553C17.0297 12.3553 17.8474 12.6935 18.451 13.2956C19.0545 13.8977 19.3947 14.7146 19.3967 15.5672C19.3982 16.2043 19.2107 16.8275 18.8579 17.358C18.505 17.8885 18.0027 18.3023 17.4146 18.5472C16.8264 18.7921 16.1788 18.8569 15.5538 18.7336C14.9287 18.6102 14.3543 18.3042 13.9033 17.8542C13.4522 17.4043 13.1448 16.8306 13.02 16.2059C12.8951 15.5811 12.9584 14.9334 13.2019 14.3446C13.4453 13.7559 13.858 13.2526 14.3876 12.8985Z" fill="#FABF4A" stroke="#FABF4A" stroke-width="0.5"/>
<path d="M11.7444 0.897408L11.7424 1.1474L11.7404 0.897408C11.4018 0.900106 11.0779 1.0358 10.8385 1.27521C10.599 1.51462 10.4633 1.83856 10.4606 2.17713L10.4606 2.17725L10.3941 11.0549C10.3941 11.055 10.3941 11.055 10.3941 11.0551C10.3927 11.2244 10.4248 11.3924 10.4883 11.5494C10.5519 11.7064 10.6458 11.8494 10.7646 11.9702C10.8835 12.0909 11.0249 12.1871 11.1809 12.2532C11.3369 12.3192 11.5044 12.3539 11.6738 12.3553L11.6758 12.1053L11.6797 12.3553C12.017 12.35 12.3389 12.2136 12.5774 11.9751C12.8159 11.7367 12.9522 11.4147 12.9575 11.0775H12.9575L12.9575 11.0754L13.0241 2.19777C13.0241 2.19773 13.0241 2.19768 13.0241 2.19764C13.0254 2.02827 12.9934 1.8603 12.9298 1.7033C12.8663 1.54626 12.7724 1.40329 12.6535 1.28254C12.5347 1.16179 12.3933 1.06563 12.2373 0.999545C12.0813 0.933464 11.9138 0.898758 11.7444 0.897408Z" fill="#FABF4A" stroke="#FABF4A" stroke-width="0.5"/>
</svg>
