<svg width="32" height="31" viewBox="0 0 32 31" fill="none" xmlns="http://www.w3.org/2000/svg">
<path d="M30.4525 14.1431L16.8569 0.547529C16.4864 0.19598 15.9951 0 15.4843 0C14.9736 0 14.4823 0.19598 14.1118 0.547529L11.5222 3.13717C11.4615 3.19736 11.4133 3.26896 11.3805 3.34785C11.3476 3.42675 11.3307 3.51137 11.3307 3.59683C11.3307 3.6823 11.3476 3.76692 11.3805 3.84581C11.4133 3.9247 11.4615 3.99631 11.5222 4.05649L13.8529 6.46486C13.9426 6.55449 14.0568 6.61578 14.1811 6.6411C14.3054 6.66642 14.4344 6.65466 14.5521 6.60729C14.9469 6.45491 15.373 6.40161 15.7932 6.45204C16.2133 6.50247 16.6147 6.65511 16.9622 6.89658C17.3098 7.13806 17.5928 7.46102 17.7866 7.83721C17.9804 8.2134 18.0791 8.63135 18.074 9.0545C18.0707 9.38332 18.0048 9.70851 17.8798 10.0127C17.8324 10.1303 17.8206 10.2594 17.846 10.3837C17.8713 10.508 17.9326 10.6221 18.0222 10.7119L20.3011 12.939C20.3909 13.0286 20.505 13.0899 20.6293 13.1152C20.7536 13.1405 20.8826 13.1288 21.0003 13.0814C21.5134 12.8771 22.0784 12.8422 22.6127 12.9818C23.1471 13.1214 23.6228 13.4282 23.9704 13.8574C24.318 14.2865 24.5193 14.8155 24.545 15.3672C24.5706 15.9189 24.4192 16.4643 24.1128 16.9239C23.8065 17.3834 23.3612 17.7329 22.8421 17.9215C22.323 18.11 21.7573 18.1276 21.2274 17.9718C20.6976 17.816 20.2315 17.4948 19.8971 17.0553C19.5627 16.6157 19.3776 16.0808 19.3688 15.5286C19.3728 15.2137 19.4343 14.9021 19.5501 14.6093C19.5947 14.4933 19.605 14.3669 19.5798 14.2452C19.5545 14.1235 19.4948 14.0117 19.4077 13.923L17.2324 11.7348C17.1419 11.6461 17.0273 11.5858 16.9029 11.5616C16.7785 11.5374 16.6498 11.5502 16.5326 11.5984C16.4154 11.6467 16.315 11.7282 16.2437 11.833C16.1725 11.9378 16.1335 12.0613 16.1318 12.188V19.0246C16.1313 19.151 16.1679 19.2747 16.2369 19.3805C16.3059 19.4864 16.4044 19.5697 16.5202 19.6202C17.0655 19.8582 17.5122 20.2767 17.7852 20.8053C18.0582 21.3339 18.1409 21.9404 18.0194 22.5228C17.8978 23.1052 17.5794 23.6279 17.1178 24.0032C16.6561 24.3785 16.0793 24.5833 15.4843 24.5833C14.8894 24.5833 14.3126 24.3785 13.8509 24.0032C13.3893 23.6279 13.0709 23.1052 12.9493 22.5228C12.8278 21.9404 12.9105 21.3339 13.1835 20.8053C13.4565 20.2767 13.9032 19.8582 14.4485 19.6202C14.5643 19.5697 14.6628 19.4864 14.7318 19.3805C14.8008 19.2747 14.8374 19.151 14.8369 19.0246V12.0067C14.8374 11.8803 14.8008 11.7566 14.7318 11.6508C14.6628 11.5449 14.5643 11.4616 14.4485 11.4111C13.836 11.1427 13.3511 10.6477 13.0952 10.0299C12.8394 9.41203 12.8325 8.71916 13.076 8.09633C13.1159 7.97672 13.12 7.84806 13.0878 7.72615C13.0556 7.60424 12.9885 7.49439 12.8947 7.41008L10.5511 5.01466C10.4909 4.95398 10.4193 4.90582 10.3404 4.87295C10.2615 4.84008 10.1769 4.82316 10.0914 4.82316C10.006 4.82316 9.92133 4.84008 9.84244 4.87295C9.76355 4.90582 9.69194 4.95398 9.63176 5.01466L0.568012 14.0784C0.204296 14.4426 0 14.9362 0 15.4509C0 15.9656 0.204296 16.4593 0.568012 16.8234L14.1636 30.432C14.5278 30.7957 15.0214 31 15.5361 31C16.0508 31 16.5445 30.7957 16.9086 30.432L30.5043 16.8234C30.868 16.4593 31.0723 15.9656 31.0723 15.4509C31.0723 14.9362 30.868 14.4426 30.5043 14.0784L30.4525 14.1431Z" />
</svg>
