<svg width="33" height="31" viewBox="0 0 33 31" fill="none" xmlns="http://www.w3.org/2000/svg">
<path d="M10.8242 24.9611C10.8242 25.0893 10.6741 25.1919 10.485 25.1919C10.2695 25.211 10.1196 25.1086 10.1196 24.9611C10.1196 24.8329 10.2696 24.7302 10.4589 24.7302C10.6546 24.7111 10.8242 24.8136 10.8242 24.9611ZM8.79517 24.6725C8.74951 24.8009 8.87994 24.9482 9.07566 24.9866C9.24528 25.0507 9.44107 24.9866 9.48019 24.8585C9.51944 24.7302 9.39541 24.5829 9.19969 24.5251C9.03 24.4804 8.84082 24.5444 8.79517 24.6725ZM11.679 24.5636C11.4898 24.6085 11.3593 24.7302 11.3788 24.8777C11.3984 25.0058 11.568 25.0894 11.7638 25.0444C11.9531 24.9995 12.0835 24.8777 12.0639 24.7495C12.0443 24.6277 11.8682 24.5444 11.679 24.5636ZM15.9722 0C6.92246 0 0 6.7498 0 15.6408C0 22.7497 4.55405 28.8328 11.0592 30.9739C11.8943 31.1213 12.1879 30.6149 12.1879 30.1982C12.1879 29.8007 12.1684 27.6084 12.1684 26.2624C12.1684 26.2624 7.60108 27.224 6.64196 24.3521C6.64196 24.3521 5.8982 22.4867 4.82814 22.006C4.82814 22.006 3.334 20.9996 4.93254 21.0189C4.93254 21.0189 6.55726 21.1472 7.45109 22.6727C8.87994 25.1471 11.2745 24.4356 12.2074 24.0124C12.3575 22.9868 12.7816 22.2753 13.2514 21.8522C9.60415 21.4548 5.9243 20.9355 5.9243 14.7691C5.9243 13.0063 6.42014 12.1217 7.46417 10.9935C7.29455 10.5769 6.73989 8.859 7.63379 6.641C8.99743 6.22436 12.1356 8.37179 12.1356 8.37179C13.4407 8.01279 14.8434 7.82693 16.2331 7.82693C17.6229 7.82693 19.0257 8.01279 20.3305 8.37179C20.3305 8.37179 23.469 6.218 24.8325 6.641C25.7264 8.86529 25.1718 10.5769 25.0022 10.9935C26.0463 12.1281 26.6855 13.0126 26.6855 14.7691C26.6855 20.9549 22.8425 21.4484 19.1953 21.8522C19.7956 22.3585 20.3045 23.3202 20.3045 24.8265C20.3045 26.9867 20.285 29.6598 20.285 30.1853C20.285 30.602 20.5851 31.1084 21.4137 30.961C27.9383 28.8329 32.3619 22.7497 32.3619 15.6409C32.3619 6.7498 25.0218 0 15.9722 0ZM6.34191 22.1086C6.25707 22.1727 6.27662 22.3202 6.38743 22.4417C6.49183 22.5444 6.64189 22.5892 6.72674 22.506C6.81151 22.4417 6.79195 22.2944 6.68108 22.1727C6.57675 22.0701 6.42676 22.0252 6.34191 22.1086ZM5.63719 21.5894C5.5916 21.6727 5.65675 21.7752 5.78732 21.8393C5.89166 21.9035 6.02223 21.8842 6.06789 21.7944C6.11348 21.7112 6.04833 21.6087 5.91783 21.5444C5.78732 21.5059 5.68278 21.5252 5.63719 21.5894ZM7.75121 23.8712C7.64688 23.9546 7.68599 24.147 7.83598 24.2687C7.98604 24.4162 8.17522 24.4355 8.26007 24.3327C8.34484 24.2495 8.30573 24.0572 8.17522 23.9355C8.0317 23.788 7.83598 23.7687 7.75121 23.8712ZM7.00737 22.9291C6.90297 22.9931 6.90297 23.1597 7.00737 23.3072C7.11178 23.4547 7.28794 23.5187 7.37271 23.4547C7.47705 23.3713 7.47705 23.2047 7.37271 23.0572C7.2814 22.9099 7.11185 22.8457 7.00737 22.9291Z" fill="#FABF4A"/>
</svg>
