<svg width="31" height="31" viewBox="0 0 31 31" fill="none" xmlns="http://www.w3.org/2000/svg">
<path d="M1.57422 1.57428V29.4257H29.4255V1.57428H1.57422ZM16.7309 23.296C16.7309 26.0065 15.1393 27.2436 12.8204 27.2436C10.7254 27.2436 9.51312 26.1619 8.89137 24.8503L11.0237 23.5633C11.434 24.2907 11.8071 24.9061 12.7085 24.9061C13.5664 24.9061 14.1136 24.5704 14.1136 23.2587V14.3623H16.7309V23.296ZM22.9228 27.2436C20.492 27.2436 18.9192 26.0872 18.1545 24.5704L20.2869 23.3394C20.8464 24.2533 21.5799 24.9309 22.8669 24.9309C23.9486 24.9309 24.6448 24.3901 24.6448 23.6379C24.6448 22.7426 23.9361 22.4257 22.7363 21.8972L22.0836 21.6175C20.1937 20.8155 18.944 19.8021 18.944 17.6698C18.944 15.7053 20.4423 14.2132 22.7735 14.2132C24.4396 14.2132 25.6332 14.7914 26.4912 16.3083L24.452 17.6138C24.0045 16.8118 23.5196 16.4948 22.7673 16.4948C22.0026 16.4948 21.5177 16.9798 21.5177 17.6138C21.5177 18.3972 22.0026 18.7143 23.1279 19.2053L23.7806 19.4851C26.0062 20.4363 27.2558 21.4124 27.2558 23.6007C27.2559 25.9505 25.4032 27.2436 22.9228 27.2436Z" fill="#FABF4A"/>
</svg>
