<svg width="31" height="31" viewBox="0 0 31 31" fill="none" xmlns="http://www.w3.org/2000/svg">
<path d="M27.3095 0H3.69048C1.65333 0 0 1.65333 0 3.69048V27.3095C0 29.3467 1.65333 31 3.69048 31H27.3095C29.3467 31 31 29.3467 31 27.3095V3.69048C31 1.65333 29.3467 0 27.3095 0ZM9.59524 11.8095V25.8333H5.16667V11.8095H9.59524ZM5.16667 7.72786C5.16667 6.69452 6.05238 5.90476 7.38095 5.90476C8.70952 5.90476 9.54357 6.69452 9.59524 7.72786C9.59524 8.76119 8.76857 9.59524 7.38095 9.59524C6.05238 9.59524 5.16667 8.76119 5.16667 7.72786ZM25.8333 25.8333H21.4048C21.4048 25.8333 21.4048 18.9986 21.4048 18.4524C21.4048 16.9762 20.6667 15.5 18.8214 15.4705H18.7624C16.9762 15.4705 16.2381 16.991 16.2381 18.4524C16.2381 19.124 16.2381 25.8333 16.2381 25.8333H11.8095V11.8095H16.2381V13.699C16.2381 13.699 17.6626 11.8095 20.5264 11.8095C23.4567 11.8095 25.8333 13.8245 25.8333 17.9062V25.8333Z" />
</svg>
