<svg width="31" height="31" viewBox="0 0 31 31" fill="none" xmlns="http://www.w3.org/2000/svg">
<circle cx="15.5" cy="15.5" r="15.5" fill="#73105A"/>
<path d="M24 9.2381C24 7.45714 22.0875 6 19.75 6H11.25C8.9125 6 7 7.45714 7 9.2381V22.1905C7 23.9714 8.9125 25.4286 11.25 25.4286H19.75C22.0875 25.4286 24 23.9714 24 22.1905V9.2381ZM16.5625 23.8095H14.4375C13.8 23.8095 13.375 23.4857 13.375 23C13.375 22.5143 13.8 22.1905 14.4375 22.1905H16.5625C17.2 22.1905 17.625 22.5143 17.625 23C17.625 23.4857 17.2 23.8095 16.5625 23.8095ZM21.875 19.7619C21.875 20.2476 21.45 20.5714 20.8125 20.5714H10.1875C9.55 20.5714 9.125 20.2476 9.125 19.7619V10.0476C9.125 9.5619 9.55 9.2381 10.1875 9.2381H20.8125C21.45 9.2381 21.875 9.5619 21.875 10.0476V19.7619Z" fill="white"/>
</svg>
