<svg width="28" height="32" viewBox="0 0 28 32" fill="none" xmlns="http://www.w3.org/2000/svg">
<path d="M28 5.33333C28 2.4 24.85 0 21 0H7C3.15 0 0 2.4 0 5.33333V26.6667C0 29.6 3.15 32 7 32H21C24.85 32 28 29.6 28 26.6667V5.33333ZM15.75 29.3333H12.25C11.2 29.3333 10.5 28.8 10.5 28C10.5 27.2 11.2 26.6667 12.25 26.6667H15.75C16.8 26.6667 17.5 27.2 17.5 28C17.5 28.8 16.8 29.3333 15.75 29.3333ZM24.5 22.6667C24.5 23.4667 23.8 24 22.75 24H5.25C4.2 24 3.5 23.4667 3.5 22.6667V6.66667C3.5 5.86667 4.2 5.33333 5.25 5.33333H22.75C23.8 5.33333 24.5 5.86667 24.5 6.66667V22.6667Z" fill="#73105A"/>
</svg>
