<svg width="31" height="31" viewBox="0 0 31 31" fill="none" xmlns="http://www.w3.org/2000/svg">
<path d="M10.7029 8.80957C9.92012 8.80957 9.32422 8.83282 9.20312 8.85625V14.3739C9.32422 14.3971 9.66001 14.4203 10.5031 14.4203C12.0883 14.4203 13.611 13.9685 13.611 11.6351C13.611 9.76833 12.5894 8.80957 10.7029 8.80957Z" />
<path d="M0 0V31H31V0H0ZM10.4362 16.6504C9.87423 16.6504 9.32422 16.6504 9.20312 16.6504V21.9376C9.20312 22.0778 9.15178 22.0996 9.05127 22.0996H6.9239C6.82369 22.0996 6.78125 22.0779 6.78125 21.9611V6.73511C6.78125 6.6182 6.8025 6.57448 6.90271 6.57448C7.66529 6.55099 9.1651 6.53053 10.6904 6.53053C14.6239 6.53053 16.1277 8.82041 16.1478 11.5273C16.1477 15.2371 13.3862 16.6504 10.4362 16.6504ZM20.8907 22.4254C19.8456 22.4254 18.5431 22.3258 17.7147 21.7191C17.6357 21.6724 17.6191 21.6025 17.6191 21.4856V19.339C17.6191 19.2223 17.6752 19.1757 17.7343 19.2223C18.7597 19.9923 19.8849 20.2112 20.9102 20.2112C21.8175 20.2112 22.1301 19.6065 22.1301 19.0932C22.1301 18.4866 21.9088 18.1363 20.4888 17.4598C18.4577 16.4798 17.6095 15.6376 17.6095 13.9343C17.6095 12.0441 19.0227 10.4829 21.3496 10.4829C22.5524 10.4829 23.3873 10.5152 23.9395 10.8883C24.0381 10.9817 24.037 11.0516 24.037 11.1918V13.1051C24.037 13.245 23.9789 13.3152 23.8805 13.245C23.1705 12.7784 22.1835 12.6298 21.1582 12.6298C20.1917 12.6298 19.9372 13.2342 19.9372 13.6775C19.9372 14.2377 20.1949 14.5409 21.674 15.241C23.7051 16.2211 24.5747 17.0845 24.5747 18.7643C24.5748 21.0977 23.06 22.4254 20.8907 22.4254Z" />
</svg>
