<svg width="33" height="32" viewBox="0 0 33 32" fill="none" xmlns="http://www.w3.org/2000/svg">
<path d="M16.308 19.172C17.892 19.172 19.1761 17.781 19.1761 16.0652C19.1761 14.3494 17.892 12.9585 16.308 12.9585C14.724 12.9585 13.4399 14.3494 13.4399 16.0652C13.4399 17.781 14.724 19.172 16.308 19.172Z" />
<path d="M8.27721 22.2421L7.64254 22.0663C2.9283 20.7766 0.224121 18.5836 0.224121 16.0582C0.224121 13.5311 2.92991 11.3398 7.64254 10.0501L8.27721 9.87607L8.45557 10.5566C8.93204 12.3383 9.54251 14.0747 10.2808 15.7484L10.4174 16.0582L10.2808 16.368C9.54174 18.0441 8.92956 19.7811 8.45557 21.5633L8.27721 22.2421V22.2421ZM7.35011 11.6339C3.76864 12.727 1.56898 14.3943 1.56898 16.0582C1.56898 17.7186 3.76703 19.3877 7.35011 20.479C7.78876 18.9683 8.31899 17.4906 8.93277 16.0582C8.31454 14.6234 7.7858 13.1454 7.35011 11.6339V11.6339ZM24.3368 22.2421L24.1601 21.5598C23.6823 19.7778 23.0713 18.0408 22.3332 16.3663L22.1966 16.0582L22.3332 15.7467C23.0723 14.0741 23.6812 12.3354 24.1601 10.5531L24.3368 9.87433L24.9715 10.0484C29.6873 11.3381 32.3899 13.5293 32.3899 16.0582C32.3899 18.5854 29.6857 20.7766 24.9715 22.0663L24.3368 22.2421V22.2421ZM23.678 16.0582C24.3207 17.5655 24.8558 19.0483 25.2639 20.479C28.847 19.3877 31.0466 17.7186 31.0466 16.0582C31.0466 14.3943 28.8486 12.7287 25.2639 11.6339C24.8257 13.1449 24.2959 14.6228 23.678 16.0582V16.0582Z" />
<path d="M7.34073 11.627L7.16398 10.9482C5.8368 5.88696 6.23849 2.26157 8.26783 0.997996C10.2522 -0.246435 13.4448 1.22426 16.7885 4.94015L17.2448 5.44836L16.7885 5.95483C15.6009 7.29271 14.5154 8.73273 13.5428 10.2607L13.3613 10.5427L13.0463 10.5705C11.3361 10.716 9.63961 11.0123 7.97379 11.4564L7.34073 11.627V11.627ZM9.88262 2.00398C9.52271 2.00398 9.20457 2.08927 8.93624 2.25635C7.60584 3.08655 7.37126 5.97746 8.28711 9.87958C9.71873 9.53671 11.1632 9.2913 12.6189 9.15381C13.4617 7.859 14.3811 6.62474 15.3713 5.4588C13.2777 3.25364 11.3014 2.00398 9.88262 2.00398V2.00398ZM22.7319 31.564C20.8231 31.564 18.3711 30.0046 15.826 27.1746L15.3713 26.6681L15.826 26.1634C17.0138 24.8233 18.0998 23.3816 19.0733 21.8522L19.2533 21.5737L19.565 21.5407C21.2758 21.3978 22.9729 21.1026 24.6391 20.6583L25.2738 20.4842L25.4521 21.1647C26.7729 26.2225 26.3728 29.8531 24.3467 31.1167C23.8547 31.4188 23.2973 31.5732 22.7319 31.564V31.564ZM17.2448 26.6559C19.3368 28.8611 21.3147 30.1125 22.7319 30.1125C23.0934 30.1125 23.4116 30.0254 23.6783 29.8601C25.0103 29.0282 25.2465 26.132 24.3274 22.2299C22.8974 22.5745 21.4513 22.8217 19.9924 22.9592C19.1532 24.256 18.2353 25.491 17.2448 26.6559V26.6559Z" />
<path d="M25.2737 11.627L24.639 11.4547C22.9729 11.0092 21.2758 10.7129 19.5648 10.5688L19.2531 10.5392L19.0732 10.2573C18.101 8.72841 17.015 7.2883 15.8259 5.95135L15.3712 5.44487L15.8259 4.94013C19.168 1.22598 22.359 -0.244716 24.3466 0.997977C26.3743 2.2633 26.7776 5.88869 25.452 10.9482L25.2737 11.627ZM19.9922 9.15381C21.5251 9.30174 22.9776 9.55063 24.3273 9.87958C25.2447 5.97745 25.0102 3.08654 23.6781 2.25459C22.3542 1.42439 19.8621 2.69493 17.2447 5.45879C18.2344 6.62491 19.1535 7.85716 19.9922 9.15381ZM9.8825 31.5641C9.31713 31.5728 8.7598 31.4184 8.26771 31.1168C6.23837 29.8532 5.83668 26.2243 7.16226 21.1648L7.33579 20.4842L7.97046 20.6583C9.51937 21.0812 11.2258 21.3788 13.0446 21.5407L13.3563 21.5738L13.5379 21.8523C14.5084 23.3804 15.5945 24.8232 16.7835 26.1634L17.2399 26.6681L16.7835 27.1746C14.24 30.0063 11.7881 31.5641 9.8825 31.5641V31.5641ZM8.28699 22.2317C7.37114 26.1338 7.60572 29.0299 8.93612 29.8619C10.2617 30.6799 12.7458 29.4181 15.3712 26.6559C14.3814 25.4896 13.462 24.2554 12.6188 22.9609C11.1616 22.8213 9.71455 22.5777 8.28699 22.2317V22.2317Z" />
<path d="M16.3076 23.1454C15.2038 23.1454 14.071 23.0949 12.9334 22.9923L12.6185 22.9627L12.437 22.6807C11.7955 21.6815 11.1919 20.6543 10.6277 19.6018C10.0678 18.5464 9.5473 17.467 9.06759 16.3663L8.93262 16.0582L9.06759 15.7466C9.54801 14.6467 10.067 13.5676 10.6277 12.5128C11.1853 11.4755 11.7943 10.4382 12.437 9.4322L12.6185 9.15372L12.9334 9.12239C15.1779 8.91876 17.4342 8.91876 19.6786 9.12239L19.9903 9.15546L20.1719 9.43394C21.457 11.4333 22.5856 13.5455 23.5461 15.7484L23.6794 16.0599L23.5461 16.368C22.5883 18.5724 21.4595 20.6848 20.1719 22.6824L19.9903 22.9644L19.6786 22.994C18.5442 23.0932 17.4099 23.1454 16.3076 23.1454V23.1454ZM13.3608 21.572C15.3452 21.7339 17.2701 21.7339 19.2528 21.572C20.3597 19.8162 21.3437 17.9731 22.1964 16.0582C21.3467 14.1415 20.3626 12.2982 19.2528 10.5444C17.2917 10.3808 15.3219 10.3808 13.3608 10.5444C12.2502 12.2975 11.266 14.141 10.4173 16.0582C11.2719 17.9721 12.2557 19.815 13.3608 21.572V21.572Z" />
</svg>
