<svg width="33" height="31" viewBox="0 0 33 31" fill="none" xmlns="http://www.w3.org/2000/svg">
<path d="M22.6554 21.6342C23.839 21.5321 24.7571 20.49 24.6972 19.2451C24.6345 18.0001 23.6143 17.0004 22.3707 17.0004H22.2876C21.0031 17.0426 20.002 18.1227 20.0429 19.4099C20.0837 20.0623 20.3507 20.5936 20.7157 20.9804C19.2883 23.7564 17.1457 25.7968 13.8998 27.5117C11.7164 28.6531 9.41033 29.0835 7.16559 28.7771C5.28862 28.5128 3.82028 27.6738 2.92129 26.328C1.57554 24.2862 1.45295 22.0837 2.57396 19.8798C3.39258 18.2875 4.61574 17.1243 5.433 16.5522C5.22869 16.0224 4.98351 15.1247 4.86092 14.4519C-1.18135 18.7793 -0.567043 24.6962 1.26907 27.4926C2.63661 29.533 5.433 30.8379 8.49364 30.8379C9.30953 30.8379 10.1677 30.778 11.004 30.5737C16.3107 29.5535 20.3303 26.3702 22.6363 21.6764L22.6554 21.6342V21.6342ZM29.9399 16.5318C26.7784 12.8173 22.1242 10.7769 16.8174 10.7769H16.1228C15.7781 10.0223 14.9827 9.5524 14.0837 9.5524H14.0224C12.7379 9.5524 11.7368 10.6557 11.779 11.9402C11.8199 13.1633 12.8605 14.1849 14.1055 14.1849H14.2063C15.1257 14.144 15.9212 13.5719 16.2467 12.7561H17.0027C20.1478 12.7561 23.1253 13.6741 25.84 15.4694C27.9199 16.8369 29.4114 18.6321 30.2477 20.7761C30.9805 22.5305 30.941 24.2454 30.1864 25.6756C29.0232 27.9189 27.0631 29.104 24.4724 29.104C22.8393 29.104 21.2483 28.5932 20.4311 28.2268C19.9421 28.6327 19.1248 29.3069 18.5323 29.7155C20.3275 30.5301 22.1446 31 23.899 31C27.879 31 30.8361 28.7566 31.9599 26.5922C33.183 24.1432 33.0822 20.0215 29.9589 16.4909L29.9399 16.5318V16.5318ZM8.83961 22.367C8.87911 23.5915 9.91975 24.6118 11.1661 24.6118H11.2478C12.5541 24.5709 13.5538 23.4908 13.4925 22.2036C13.4925 20.979 12.4315 19.9602 11.1865 19.9602H11.1034C11.0217 19.9602 10.9005 19.9602 10.7969 19.9997C9.10386 17.142 8.38875 14.08 8.65573 10.7769C8.81782 8.28701 9.63508 6.12263 11.1034 4.32739C12.3279 2.79639 14.634 2.04042 16.2058 2.00092C20.6136 1.91783 22.4511 7.40982 22.5927 9.59326L24.6331 10.2048C24.1632 3.51149 20.002 0 16.022 0C12.2871 0 8.83961 2.71466 7.45027 6.69471C5.55287 12.0015 6.79782 17.1025 9.12429 21.1847C8.92133 21.4503 8.79875 21.9189 8.83961 22.367V22.367Z" fill="#FABF4A"/>
</svg>
