<svg width="39" height="32" viewBox="0 0 39 32" fill="none" xmlns="http://www.w3.org/2000/svg">
<path d="M18.2844 23.5425C18.2667 23.5813 18.2489 23.6123 18.2844 23.5425V23.5425ZM33.0162 17.9242C31.8264 17.9242 30.6532 18.2213 29.5864 18.7961C29.2375 18.0276 28.8768 17.356 28.8176 16.8523C28.7467 16.2646 28.6698 15.9159 28.7526 15.2184C28.8354 14.521 29.2079 13.5329 29.202 13.4619C29.1961 13.3909 29.1192 13.0357 28.3564 13.0292C27.5935 13.0228 26.9371 13.1907 26.8602 13.4102C26.7253 13.8114 26.6204 14.2239 26.5468 14.6437C26.4108 15.3992 25.0223 18.0986 24.2358 19.5064C23.9756 18.9575 23.7568 18.4732 23.7095 18.0857C23.6385 17.498 23.5617 17.1493 23.6445 16.4519C23.7273 15.7544 24.0998 14.7664 24.0939 14.6953C24.088 14.6243 24.0111 14.2691 23.2494 14.2627C22.4878 14.2562 21.8302 14.4241 21.7533 14.6437C21.6764 14.8632 21.5936 15.3799 21.4399 15.8771C21.2861 16.3744 19.4352 20.869 18.9515 22.0379C18.7031 22.632 18.4902 23.1099 18.3365 23.4328C18.3128 23.4844 18.2951 23.5167 18.2832 23.5425C18.301 23.5103 18.3128 23.478 18.3128 23.4909C18.1827 23.7686 18.1058 23.9236 18.1058 23.9236V23.93C18.0053 24.1367 17.8929 24.3239 17.8397 24.3239C17.8042 24.3239 17.7274 23.7815 17.8575 23.0388C18.1354 21.476 18.7918 19.0479 18.7859 18.964C18.78 18.9187 18.9101 18.499 18.3542 18.273C17.8161 18.0599 17.6209 18.415 17.5736 18.415C17.5263 18.415 17.4908 18.5442 17.4908 18.5442C17.4908 18.5442 18.0881 15.8061 16.3436 15.8061C15.2555 15.8061 13.7416 17.1106 12.9977 18.2923C12.5305 18.57 11.5193 19.1706 10.4549 19.8099L9.23078 20.5461C9.20122 20.5138 9.17756 20.4815 9.14799 20.4492C7.03094 17.9824 3.12327 16.2388 3.28885 12.9259C3.34799 11.7183 3.73237 8.54751 10.8038 4.69866C16.5991 1.54725 21.2317 2.41259 22.0301 4.33702C23.1773 7.08159 19.5523 12.1897 13.5347 12.9259C11.2402 13.2036 10.035 12.2349 9.73344 11.8733C9.42002 11.4923 9.37271 11.4729 9.25444 11.5439C9.05929 11.6602 9.18348 11.996 9.25444 12.1962C9.43184 12.7063 10.171 13.6104 11.4306 14.0625C12.5365 14.4564 15.2259 14.676 18.4772 13.3005C22.1306 11.7635 24.975 7.48197 24.14 3.89789C23.2908 0.255687 17.7605 -0.939007 12.5317 1.08874C9.41529 2.29635 6.04575 4.19495 3.62238 6.66829C0.742479 9.61305 0.282406 12.1768 0.471639 13.2488C1.14578 17.0524 5.9464 19.5322 7.86712 21.3663L7.60101 21.5277C6.6371 22.0508 2.9778 24.1431 2.0612 26.3517C1.02633 28.8573 2.23269 30.6526 3.02393 30.898C5.49579 31.6471 8.0256 30.2974 9.38572 28.0824C10.7458 25.8674 10.5803 22.9743 9.95342 21.6569C9.94751 21.6375 9.93568 21.6246 9.92976 21.6052C10.6394 21.1462 11.355 20.6984 12.0764 20.262C11.8398 20.9594 11.6683 21.7989 11.5796 23.013C11.4732 24.4337 12.0113 26.2742 12.7091 26.9975C13.0166 27.3139 13.388 27.3204 13.6198 27.3204C14.4359 27.3204 14.8025 26.5842 15.2106 25.7059C15.7132 24.6339 16.1567 23.3876 16.1567 23.3876C16.1567 23.3876 15.6009 26.7585 17.1206 26.7585C17.6765 26.7585 18.2324 25.9771 18.4808 25.5768V25.5832C18.4808 25.5832 18.4926 25.5574 18.5221 25.5057C18.5813 25.4088 18.6109 25.3507 18.6109 25.3507V25.3314C18.8356 24.9116 19.3264 23.9494 20.0656 22.3608C21.0236 20.3072 21.939 17.7434 21.939 17.7434C22.0277 18.3066 22.1507 18.8632 22.3056 19.4095C22.4712 20.023 22.8201 20.6946 23.098 21.3469C22.8733 21.6827 22.7373 21.8764 22.7373 21.8764C22.7373 21.8816 22.7397 21.8855 22.7432 21.8893C22.5658 22.1477 22.3648 22.4253 22.1578 22.6966C21.402 23.6782 20.502 24.8018 20.3837 25.1247C20.2418 25.5057 20.2773 25.7899 20.5493 26.0094C20.7504 26.1773 21.1052 26.2032 21.4777 26.1709C22.1578 26.1192 22.6368 25.9384 22.8674 25.8221C23.2928 25.6557 23.6948 25.4253 24.062 25.1376C24.8011 24.5435 25.2506 23.6911 25.2092 22.5674C25.1855 21.9475 25.0022 21.3275 24.7775 20.7463C24.8425 20.643 24.9135 20.5332 24.9786 20.4234C25.7481 19.1695 26.4415 17.8618 27.0542 16.5087C27.1429 17.0718 27.2647 17.6285 27.4208 18.1748C27.5628 18.6979 27.8407 19.2726 28.095 19.8345C26.9951 20.8096 26.315 21.9397 26.0797 22.6824C25.6421 24.0579 25.985 24.6778 26.6296 24.8199C26.9194 24.8845 27.3333 24.7359 27.6408 24.5939C28.0974 24.4273 28.5279 24.1857 28.917 23.8771C29.6562 23.2829 30.3717 22.4499 30.3232 21.3198C30.3055 20.8096 30.1754 20.2994 30.0039 19.8086C30.9323 19.3824 32.1387 19.1499 33.6762 19.3437C36.9689 19.7634 37.6134 22.0107 37.4893 22.9471C37.3651 23.8835 36.6732 24.4066 36.4426 24.5616C36.2119 24.7166 36.141 24.7747 36.1587 24.8909C36.1883 25.0588 36.2947 25.0524 36.4899 25.0136C36.7619 24.962 38.2166 24.2516 38.2817 22.5145C38.3763 20.3188 36.4426 17.9036 33.0186 17.923L33.0162 17.9242ZM7.63649 27.2687C6.5484 28.5667 5.02389 29.0575 4.36748 28.6442C3.66377 28.1973 3.94171 26.2871 5.2829 24.9038C6.09897 24.0643 7.15158 23.2894 7.84938 22.8115C8.00905 22.7082 8.23967 22.5532 8.52352 22.3659C8.54659 22.3498 8.57026 22.3347 8.59449 22.3207C8.64771 22.282 8.70684 22.2497 8.76598 22.2109C9.25562 24.1741 8.78372 25.9048 7.63649 27.2674V27.2687ZM15.5819 21.3663C15.2035 22.3801 14.4063 24.9633 13.9202 24.8276C13.5063 24.7114 13.252 22.7418 13.8374 20.8044C14.1331 19.8293 14.7599 18.6669 15.1325 18.2148C15.7298 17.4851 16.3862 17.2526 16.5399 17.5432C16.7469 17.9242 15.8185 20.7334 15.5819 21.3663ZM22.146 24.7889C21.9863 24.8793 21.8385 24.9374 21.7675 24.8922C21.7143 24.8599 21.8325 24.7372 21.8325 24.7372C21.8325 24.7372 22.6545 23.775 22.9798 23.3359C23.169 23.0776 23.3878 22.7741 23.6244 22.4383C23.6244 22.4705 23.6303 22.5028 23.6303 22.5416C23.6232 23.6975 22.606 24.4789 22.1448 24.7889H22.146ZM27.208 23.5296C27.0897 23.4392 27.1074 23.1357 27.5036 22.1929C27.6574 21.8248 28.0122 21.2048 28.6272 20.6107C28.697 20.8354 28.7348 21.0705 28.7396 21.3081C28.7337 22.7611 27.7816 23.3036 27.208 23.5296V23.5296Z" fill="#FABF4A"/>
</svg>
