<svg  viewBox="0 0 31 31" xmlns="http://www.w3.org/2000/svg">
<path fill-rule="evenodd" clip-rule="evenodd" d="M27.2126 0C29.3029 0 31 1.69713 31 3.78745V27.2126C31 29.3029 29.3029 31 27.2126 31H3.78745C1.69713 31 0 29.3029 0 27.2126V3.78745C0 1.69713 1.69707 0 3.78745 0H27.2126V0ZM11.8381 25.7048C20.0687 25.7048 24.5691 18.8846 24.5691 12.9737C24.5691 12.7789 24.5691 12.584 24.5599 12.3984C25.4321 11.7675 26.193 10.9787 26.7962 10.0786C25.9982 10.4313 25.1352 10.6725 24.2258 10.7839C25.1538 10.2271 25.859 9.35486 26.193 8.3063C25.3301 8.81665 24.3743 9.18787 23.3536 9.39197C22.537 8.51973 21.3771 7.98153 20.0873 7.98153C17.619 7.98153 15.6147 9.98588 15.6147 12.4541C15.6147 12.8068 15.6519 13.1501 15.7353 13.4748C12.0144 13.2893 8.72026 11.5077 6.51182 8.79813C6.13134 9.45694 5.90865 10.2271 5.90865 11.0437C5.90865 12.5933 6.69739 13.9667 7.90367 14.7647C7.17063 14.7461 6.48396 14.542 5.8808 14.2079V14.2636C5.8808 16.4349 7.42117 18.2351 9.47189 18.6526C9.10074 18.7547 8.70174 18.8104 8.29341 18.8104C8.00575 18.8104 7.72742 18.7825 7.44902 18.7268C8.01507 20.5085 9.66673 21.7983 11.6246 21.8354C10.0936 23.0325 8.16354 23.7469 6.06643 23.7469C5.70455 23.7469 5.35192 23.7284 4.99929 23.6819C6.9572 24.9625 9.31411 25.7048 11.8381 25.7048Z" />
</svg>
