<svg width="31" height="31" viewBox="0 0 31 31" fill="none" xmlns="http://www.w3.org/2000/svg">
<path d="M28.4167 6.96274V24.0147C28.4167 24.7554 27.995 25.431 27.3291 25.7558C25.8127 26.4947 23.2009 27.7663 22.776 27.9601C22.1715 28.2365 21.7917 28.4167 21.317 28.4167C20.8424 28.4167 20.5285 28.1073 20.3102 27.8768C20.0919 27.6456 21.9584 21.3125 21.9584 21.3125V4.02355C21.9584 4.02355 19.9033 3.59343 20.2921 3.16007C20.6815 2.72672 21.007 2.57947 21.4133 2.57947C21.8815 2.57947 22.26 2.78807 22.6862 2.99345C22.9885 3.13876 25.7423 4.46013 27.3194 5.21705C27.9917 5.53932 28.4167 6.21745 28.4167 6.96274Z" fill="#8ABFC7"/>
<path d="M2.5835 20.6667C2.5835 21.9118 2.75206 22.0965 3.9617 22.6222C4.90204 23.031 5.27662 23.25 5.52785 23.25C5.83075 23.25 6.11556 23.0414 6.38487 22.8212C6.65418 22.6009 21.9585 10.0265 21.9585 10.0265V3.58178C21.9585 2.80807 20.8774 2.49936 20.3652 3.07932C20.3652 3.07932 4.35437 20.8598 3.87516 21.3202C3.39595 21.7807 3.72468 20.0977 2.5835 20.6667Z" fill="#0F555F"/>
<path d="M2.98391 8.83565C3.18864 8.73748 4.87879 7.98185 5.08675 7.89079C5.33087 7.78423 5.4187 7.75 5.59889 7.75C5.79781 7.75 5.93343 7.82556 6.24537 8.08196C6.68131 8.43975 21.9585 20.9786 21.9585 20.9786V27.2813C21.9585 28.3631 20.8322 28.4741 20.1967 27.7599C19.7459 27.2535 4.12639 9.96779 4.12639 9.96779C4.12639 9.96779 2.5835 10.7473 2.5835 10.0666C2.5835 9.14887 2.76175 8.94285 2.98391 8.83565Z" fill="#357E88"/>
<path d="M5.81266 11.8336V19.2038C5.81266 19.2038 4.04954 21.1407 3.65558 21.5669C3.30554 21.946 2.5835 21.8272 2.5835 20.7622V9.96388C2.5835 9.15594 3.31393 9.07392 3.93845 9.75527C4.05148 9.87863 5.81266 11.8336 5.81266 11.8336Z" fill="#0F555F"/>
</svg>
