<svg width="31" height="31" viewBox="0 0 31 31" fill="none" xmlns="http://www.w3.org/2000/svg">
<path d="M15.5 0C6.93928 0 0 6.93928 0 15.5C0 24.0607 6.93928 31 15.5 31C24.0607 31 31 24.0607 31 15.5C31 6.93928 24.0607 0 15.5 0ZM21.1649 18.4416C20.464 20.1069 19.1647 21.6319 16.7602 21.6319C16.7602 21.6319 15.7406 14.5269 15.7251 14.3638C15.6624 14.535 14.2229 18.2705 14.2229 18.2705C13.5457 19.9977 12.2538 21.6238 9.84924 21.6319L7.96633 10.1458C9.53048 10.1458 11.4606 11.4296 11.6007 13.5463C11.6007 13.5463 11.842 17.7563 11.8501 18.0912C11.9822 17.7333 13.6164 13.4998 13.6164 13.4998C14.2627 11.7645 15.4845 10.1383 17.7798 10.1383C17.7798 10.1383 18.7604 17.7178 18.7995 18.0757C18.9006 17.7178 20.247 13.4998 20.247 13.4998C20.8927 11.7645 22.1455 10.1383 24.5264 10.1383L21.1649 18.4416Z" />
</svg>
