<svg width="514" height="223" viewBox="0 0 514 223" fill="none" xmlns="http://www.w3.org/2000/svg">
<path d="M438.071 191.998C480.005 191.998 514 188.902 514 185.084C514 181.265 480.005 178.17 438.071 178.17C396.137 178.17 362.143 181.265 362.143 185.084C362.143 188.902 396.137 191.998 438.071 191.998Z" fill="#E6E7E8"/>
<path d="M471.512 181.063H401.81C399.528 181.063 397.661 179.161 397.661 176.835V125.398C397.661 123.072 399.528 121.17 401.81 121.17H471.512C473.795 121.17 475.661 123.072 475.661 125.398V176.837C475.661 179.161 473.795 181.063 471.512 181.063Z" fill="#082D32"/>
<path d="M469.948 178.691H403.044C400.816 178.691 398.993 176.748 398.993 174.374V127.551C398.993 125.177 400.816 123.234 403.044 123.234H469.95C472.178 123.234 474 125.177 474 127.551V174.374C473.999 176.748 472.176 178.691 469.948 178.691Z" fill="#E6E7E8"/>
<path d="M401.345 122.608C401.65 122.608 401.897 122.345 401.897 122.02C401.897 121.695 401.65 121.431 401.345 121.431C401.04 121.431 400.793 121.695 400.793 122.02C400.793 122.345 401.04 122.608 401.345 122.608Z" fill="#E3E5FC"/>
<path d="M403.721 122.608C404.026 122.608 404.273 122.345 404.273 122.02C404.273 121.695 404.026 121.431 403.721 121.431C403.416 121.431 403.168 121.695 403.168 122.02C403.168 122.345 403.416 122.608 403.721 122.608Z" fill="white"/>
<path d="M406.119 122.608C406.424 122.608 406.671 122.345 406.671 122.02C406.671 121.695 406.424 121.431 406.119 121.431C405.814 121.431 405.566 121.695 405.566 122.02C405.566 122.345 405.814 122.608 406.119 122.608Z" fill="#4B369D"/>
<path d="M439.795 154.652H406.224C405.864 154.652 405.568 154.338 405.568 153.954V153.954C405.568 153.57 405.864 153.255 406.224 153.255H439.795C440.155 153.255 440.451 153.57 440.451 153.954V153.954C440.451 154.338 440.157 154.652 439.795 154.652Z" fill="white"/>
<path d="M439.795 157.854H406.223C405.863 157.854 405.568 157.539 405.568 157.156V157.156C405.568 156.772 405.863 156.457 406.223 156.457H439.795C440.155 156.457 440.45 156.772 440.45 157.156V157.156C440.45 157.539 440.157 157.854 439.795 157.854Z" fill="white"/>
<path d="M439.795 161.056H406.223C405.863 161.056 405.568 160.741 405.568 160.358V160.358C405.568 159.974 405.863 159.659 406.223 159.659H439.795C440.155 159.659 440.45 159.974 440.45 160.358V160.358C440.45 160.741 440.157 161.056 439.795 161.056Z" fill="white"/>
<path d="M439.795 164.666H406.223C405.863 164.666 405.568 164.351 405.568 163.967V163.967C405.568 163.584 405.863 163.269 406.223 163.269H439.795C440.155 163.269 440.45 163.584 440.45 163.967V163.967C440.45 164.351 440.157 164.666 439.795 164.666Z" fill="white"/>
<path d="M439.795 167.868H406.223C405.863 167.868 405.568 167.553 405.568 167.169V167.169C405.568 166.785 405.863 166.471 406.223 166.471H439.795C440.155 166.471 440.45 166.785 440.45 167.169V167.169C440.45 167.553 440.157 167.868 439.795 167.868Z" fill="white"/>
<path d="M439.795 171.069H406.223C405.863 171.069 405.568 170.755 405.568 170.371V170.371C405.568 169.987 405.863 169.672 406.223 169.672H439.795C440.155 169.672 440.45 169.987 440.45 170.371V170.371C440.45 170.755 440.157 171.069 439.795 171.069Z" fill="white"/>
<path d="M413.425 147.085H432.593C436.915 147.085 440.45 143.317 440.45 138.71V137.213C440.45 132.607 436.915 128.839 432.593 128.839H413.425C409.103 128.839 405.568 132.607 405.568 137.213V138.71C405.566 143.317 409.103 147.085 413.425 147.085Z" fill="white"/>
<path d="M455.687 160.786H459.546C463.868 160.786 467.403 157.018 467.403 152.412V137.213C467.403 132.607 463.868 128.839 459.546 128.839H455.687C451.365 128.839 447.83 132.607 447.83 137.213V152.412C447.828 157.018 451.365 160.786 455.687 160.786Z" fill="white"/>
<path d="M451.364 170.235H463.871C465.815 170.235 467.405 168.54 467.405 166.469C467.405 164.397 465.815 162.703 463.871 162.703H451.364C449.42 162.703 447.83 164.397 447.83 166.469C447.828 168.54 449.419 170.235 451.364 170.235Z" fill="#9A3C81"/>
<path d="M3.93732 173.509C-8.26974 153.136 3.9373 41.6607 97.7728 41.6607C191.609 41.6607 262.2 -26.4124 328.388 15.9895C372.783 44.4296 359.055 66.0704 352.285 92.2378C331.47 175.639 319.83 232.643 212.27 219.223C138.504 210.336 51.0253 252.099 3.93732 173.509Z" fill="#EBF6F8"/>
<path d="M147.856 146.925C147.856 138.725 141.324 119.268 133.265 119.268C125.207 119.268 118.674 138.725 118.674 146.925C118.677 150.863 120.216 154.639 122.952 157.423C125.688 160.206 129.397 161.77 133.265 161.77C137.133 161.77 140.843 160.206 143.579 157.423C146.315 154.639 147.853 150.863 147.856 146.925V146.925Z" fill="#CCD3D3"/>
<path d="M133.265 184.14C133.336 184.14 133.407 184.137 133.472 184.13C133.538 184.124 133.597 184.115 133.648 184.103C133.698 184.092 133.738 184.078 133.765 184.063C133.792 184.048 133.806 184.031 133.806 184.015V131.696C133.805 131.663 133.748 131.631 133.647 131.608C133.546 131.584 133.408 131.571 133.265 131.571C133.123 131.571 132.985 131.584 132.884 131.608C132.783 131.631 132.726 131.663 132.725 131.696V184.015C132.725 184.031 132.739 184.048 132.766 184.063C132.793 184.078 132.833 184.092 132.883 184.103C132.934 184.115 132.993 184.124 133.059 184.13C133.124 184.137 133.195 184.14 133.265 184.14V184.14Z" fill="#3F3D56"/>
<path d="M132.854 141.637C132.871 141.637 132.888 141.634 132.904 141.627C132.92 141.621 132.934 141.611 132.946 141.598L139.172 135.155C139.196 135.13 139.21 135.096 139.21 135.06C139.21 135.025 139.196 134.991 139.172 134.966C139.148 134.941 139.115 134.927 139.081 134.927C139.046 134.927 139.013 134.941 138.989 134.966L132.763 141.409C132.745 141.428 132.733 141.452 132.728 141.478C132.723 141.503 132.725 141.53 132.735 141.555C132.745 141.579 132.761 141.6 132.783 141.615C132.804 141.63 132.829 141.637 132.854 141.637L132.854 141.637Z" fill="#3F3D56"/>
<path d="M133.675 151.704C133.701 151.704 133.726 151.697 133.748 151.683C133.769 151.67 133.786 151.651 133.796 151.629C133.806 151.606 133.808 151.582 133.803 151.558C133.798 151.535 133.786 151.513 133.767 151.496L123.221 141.673C123.196 141.65 123.163 141.638 123.128 141.638C123.094 141.638 123.06 141.65 123.036 141.673C123.011 141.696 122.998 141.727 122.998 141.759C122.998 141.792 123.011 141.823 123.036 141.846L133.582 151.668C133.595 151.68 133.609 151.689 133.625 151.695C133.641 151.701 133.658 151.704 133.675 151.704V151.704Z" fill="#3F3D56"/>
<path d="M142.361 187.447C142.34 187.464 142.318 187.479 142.297 187.495H124.383C124.032 186.012 123.908 184.528 124.432 183.239C125.179 181.402 127.39 180.255 129.148 181.044C129.564 181.236 129.927 181.535 130.202 181.914C130.889 180.631 132.121 179.665 133.543 179.666C135.325 179.667 136.807 181.187 137.29 182.942C138.069 181.571 139.606 180.614 141.109 181.026C143.623 181.715 144.417 185.79 142.361 187.447Z" fill="#CCD3D3"/>
<path d="M314.929 120.761L309.329 114.758L314.916 108.461L315.952 109.581L311.386 114.729L315.94 119.612L314.929 120.761Z" fill="#9A3C81"/>
<path d="M326.933 120.747L325.897 119.626L330.464 114.478L325.91 109.596L326.92 108.447L332.521 114.45L326.933 120.747Z" fill="#9A3C81"/>
<rect width="21.2561" height="1.4676" transform="matrix(0.284518 -0.958671 0.940577 0.339579 317.21 124.81)" fill="#9A3C81"/>
<path d="M115.078 188.318H85.5995C83.5502 188.318 81.8726 186.469 81.8726 184.208V182.363C81.8726 180.102 83.5493 178.252 85.5995 178.252H115.078C117.127 178.252 118.805 180.101 118.805 182.363V184.208C118.804 186.468 117.127 188.318 115.078 188.318Z" fill="#A1A7A7"/>
<path d="M110.544 182.303H95.6373C95.1871 182.303 94.8193 181.897 94.8193 181.401V181.401C94.8193 180.904 95.1871 180.499 95.6373 180.499H110.544C110.995 180.499 111.362 180.904 111.362 181.401V181.401C111.362 181.897 110.995 182.303 110.544 182.303Z" fill="white"/>
<path d="M103.584 185.812H95.6373C95.1871 185.812 94.8193 185.406 94.8193 184.91V184.91C94.8193 184.413 95.1871 184.008 95.6373 184.008H103.584C104.034 184.008 104.402 184.413 104.402 184.91V184.91C104.402 185.405 104.034 185.812 103.584 185.812Z" fill="white"/>
<path d="M88.593 186.614C90.124 186.614 91.3652 185.245 91.3652 183.556C91.3652 181.867 90.124 180.499 88.593 180.499C87.062 180.499 85.8208 181.867 85.8208 183.556C85.8208 185.245 87.062 186.614 88.593 186.614Z" fill="white"/>
<path fill-rule="evenodd" clip-rule="evenodd" d="M103.563 108.833H110.386V101.308H103.563V108.833ZM109.858 108.25H104.092V101.891H109.858V108.25Z" fill="#A1A7A7"/>
<rect width="9.37022" height="0.555961" transform="matrix(0.670973 -0.741481 0.670973 0.741481 103.64 108.336)" fill="#A1A7A7"/>
<rect width="0.555961" height="9.37022" transform="matrix(0.670973 -0.741481 0.670973 0.741481 103.64 101.806)" fill="#A1A7A7"/>
<path fill-rule="evenodd" clip-rule="evenodd" d="M109.858 108.833H116.68V101.308H109.858V108.833ZM116.152 108.25H110.386V101.891H116.152V108.25Z" fill="#A1A7A7"/>
<rect width="9.37022" height="0.555961" transform="matrix(0.670973 -0.741481 0.670973 0.741481 109.934 108.336)" fill="#A1A7A7"/>
<rect width="0.555961" height="9.37022" transform="matrix(0.670973 -0.741481 0.670973 0.741481 109.934 101.806)" fill="#A1A7A7"/>
<path fill-rule="evenodd" clip-rule="evenodd" d="M90.9751 178.252H97.7974V170.728H90.9751V178.252ZM97.2704 177.67H91.5043V171.31H97.2704V177.67Z" fill="#A1A7A7"/>
<rect width="9.37022" height="0.555961" transform="matrix(0.670973 -0.741481 0.670973 0.741481 91.0513 177.756)" fill="#A1A7A7"/>
<rect width="0.555961" height="9.37022" transform="matrix(0.670973 -0.741481 0.670973 0.741481 91.0518 171.225)" fill="#A1A7A7"/>
<path fill-rule="evenodd" clip-rule="evenodd" d="M90.9751 171.311H97.7974V163.786H90.9751V171.311ZM97.2704 170.727H91.5043V164.368H97.2704V170.727Z" fill="#A1A7A7"/>
<rect width="9.37022" height="0.555961" transform="matrix(0.670973 -0.741481 0.670973 0.741481 91.0518 170.814)" fill="#A1A7A7"/>
<rect width="0.555961" height="9.37022" transform="matrix(0.670973 -0.741481 0.670973 0.741481 91.0522 164.284)" fill="#A1A7A7"/>
<path fill-rule="evenodd" clip-rule="evenodd" d="M90.9751 164.369H97.7974V156.844H90.9751V164.369ZM97.2704 163.786H91.5043V157.427H97.2704V163.786Z" fill="#A1A7A7"/>
<rect width="9.37022" height="0.555961" transform="matrix(0.670973 -0.741481 0.670973 0.741481 91.0513 163.872)" fill="#A1A7A7"/>
<rect width="0.555961" height="9.37022" transform="matrix(0.670973 -0.741481 0.670973 0.741481 91.0522 157.342)" fill="#A1A7A7"/>
<path fill-rule="evenodd" clip-rule="evenodd" d="M90.9751 157.427H97.7974V149.902H90.9751V157.427ZM97.2704 156.844H91.5043V150.485H97.2704V156.844Z" fill="#A1A7A7"/>
<rect width="9.37022" height="0.555961" transform="matrix(0.670973 -0.741481 0.670973 0.741481 91.0513 156.93)" fill="#A1A7A7"/>
<rect width="0.555961" height="9.37022" transform="matrix(0.670973 -0.741481 0.670973 0.741481 91.0522 150.4)" fill="#A1A7A7"/>
<path fill-rule="evenodd" clip-rule="evenodd" d="M90.9751 150.484H97.7974V142.96H90.9751V150.484ZM97.2704 149.902H91.5043V143.542H97.2704V149.902Z" fill="#A1A7A7"/>
<rect width="9.37022" height="0.555961" transform="matrix(0.670973 -0.741481 0.670973 0.741481 91.0513 149.988)" fill="#A1A7A7"/>
<rect width="0.555961" height="9.37022" transform="matrix(0.670973 -0.741481 0.670973 0.741481 91.0522 143.458)" fill="#A1A7A7"/>
<path fill-rule="evenodd" clip-rule="evenodd" d="M90.9751 143.542H97.7974V136.018H90.9751V143.542ZM97.2704 142.96H91.5043V136.6H97.2704V142.96Z" fill="#A1A7A7"/>
<rect width="9.37022" height="0.555961" transform="matrix(0.670973 -0.741481 0.670973 0.741481 91.0513 143.046)" fill="#A1A7A7"/>
<rect width="0.555961" height="9.37022" transform="matrix(0.670973 -0.741481 0.670973 0.741481 91.0522 136.515)" fill="#A1A7A7"/>
<path fill-rule="evenodd" clip-rule="evenodd" d="M90.9751 136.6H97.7974V129.076H90.9751V136.6ZM97.2704 136.018H91.5043V129.658H97.2704V136.018Z" fill="#A1A7A7"/>
<rect width="9.37022" height="0.555961" transform="matrix(0.670973 -0.741481 0.670973 0.741481 91.0518 136.105)" fill="#A1A7A7"/>
<rect width="0.555961" height="9.37022" transform="matrix(0.670973 -0.741481 0.670973 0.741481 91.0518 129.573)" fill="#A1A7A7"/>
<path fill-rule="evenodd" clip-rule="evenodd" d="M90.9751 129.659H97.7974V122.134H90.9751V129.659ZM97.2704 129.077H91.5043V122.717H97.2704V129.077Z" fill="#A1A7A7"/>
<rect width="9.37022" height="0.555961" transform="matrix(0.670973 -0.741481 0.670973 0.741481 91.0518 129.163)" fill="#A1A7A7"/>
<rect width="0.555961" height="9.37022" transform="matrix(0.670973 -0.741481 0.670973 0.741481 91.0522 122.632)" fill="#A1A7A7"/>
<path fill-rule="evenodd" clip-rule="evenodd" d="M90.9751 122.717H97.7974V115.192H90.9751V122.717ZM97.2704 122.135H91.5043V115.775H97.2704V122.135Z" fill="#A1A7A7"/>
<rect width="9.37022" height="0.555961" transform="matrix(0.670973 -0.741481 0.670973 0.741481 91.0518 122.221)" fill="#A1A7A7"/>
<rect width="0.555961" height="9.37022" transform="matrix(0.670973 -0.741481 0.670973 0.741481 91.0522 115.69)" fill="#A1A7A7"/>
<path fill-rule="evenodd" clip-rule="evenodd" d="M90.9751 115.775H97.7974V108.25H90.9751V115.775ZM97.2704 115.192H91.5043V108.833H97.2704V115.192Z" fill="#A1A7A7"/>
<rect width="9.37022" height="0.555961" transform="matrix(0.670973 -0.741481 0.670973 0.741481 91.0518 115.279)" fill="#A1A7A7"/>
<rect width="0.555961" height="9.37022" transform="matrix(0.670973 -0.741481 0.670973 0.741481 91.0522 108.748)" fill="#A1A7A7"/>
<path fill-rule="evenodd" clip-rule="evenodd" d="M90.9751 108.833H97.7974V101.308H90.9751V108.833ZM97.2704 108.25H91.5043V101.891H97.2704V108.25Z" fill="#A1A7A7"/>
<rect width="9.37022" height="0.555961" transform="matrix(0.670973 -0.741481 0.670973 0.741481 91.0513 108.336)" fill="#A1A7A7"/>
<rect width="0.555961" height="9.37022" transform="matrix(0.670973 -0.741481 0.670973 0.741481 91.0522 101.806)" fill="#A1A7A7"/>
<path fill-rule="evenodd" clip-rule="evenodd" d="M90.9761 101.891H97.7984V94.366H90.9761V101.891ZM97.2704 101.308H91.5043V94.9483H97.2704V101.308Z" fill="#A1A7A7"/>
<rect width="9.37022" height="0.555961" transform="matrix(0.670973 -0.741481 0.670973 0.741481 91.0518 101.395)" fill="#A1A7A7"/>
<rect width="0.555961" height="9.37022" transform="matrix(0.670973 -0.741481 0.670973 0.741481 91.0518 94.8636)" fill="#A1A7A7"/>
<path fill-rule="evenodd" clip-rule="evenodd" d="M97.2695 108.833H104.092V101.308H97.2695V108.833ZM103.564 108.25H97.7977V101.891H103.564V108.25Z" fill="#A1A7A7"/>
<rect width="9.37022" height="0.555961" transform="matrix(0.670973 -0.741481 0.670973 0.741481 97.3462 108.336)" fill="#A1A7A7"/>
<rect width="0.555961" height="9.37022" transform="matrix(0.670973 -0.741481 0.670973 0.741481 97.3462 101.807)" fill="#A1A7A7"/>
<path fill-rule="evenodd" clip-rule="evenodd" d="M84.6821 108.833H91.5044V101.308H84.6821V108.833ZM90.9763 108.25H85.2103V101.891H90.9763V108.25Z" fill="#A1A7A7"/>
<rect width="9.37022" height="0.555961" transform="matrix(0.670973 -0.741481 0.670973 0.741481 84.7583 108.336)" fill="#A1A7A7"/>
<rect width="0.555961" height="9.37022" transform="matrix(0.670973 -0.741481 0.670973 0.741481 84.7583 101.806)" fill="#A1A7A7"/>
<path fill-rule="evenodd" clip-rule="evenodd" d="M78.3877 108.833H85.21V101.308H78.3877V108.833ZM84.682 108.25H78.9159V101.891H84.682V108.25Z" fill="#A1A7A7"/>
<rect width="9.37022" height="0.555961" transform="matrix(0.670973 -0.741481 0.670973 0.741481 78.4639 108.336)" fill="#A1A7A7"/>
<rect width="0.555961" height="9.37022" transform="matrix(0.670973 -0.741481 0.670973 0.741481 78.4639 101.806)" fill="#A1A7A7"/>
<path fill-rule="evenodd" clip-rule="evenodd" d="M71.7646 108.833H78.96V100.896L71.7646 108.833ZM78.4311 108.25H73.0391L78.4311 102.303V108.25Z" fill="#A1A7A7"/>
<rect width="9.37022" height="0.555961" transform="matrix(0.671688 -0.740834 0.671688 0.740834 72.2144 108.336)" fill="#A1A7A7"/>
<rect x="72.1377" y="112.013" width="0.528118" height="24.4778" fill="#A1A7A7"/>
<path d="M73.6313 138.357H71.4173C70.7849 138.357 70.2671 137.786 70.2671 137.088V134.647C70.2671 133.949 70.7849 133.378 71.4173 133.378H73.6313C74.2637 133.378 74.7815 133.949 74.7815 134.647V137.088C74.7815 137.786 74.2637 138.357 73.6313 138.357Z" fill="#A1A7A7"/>
<path d="M71.7497 143.752C70.3363 143.752 69.4483 142.404 69.3008 141.068L69.8251 140.998C69.9407 142.046 70.5919 143.169 71.7497 143.169C71.7544 143.169 71.7581 143.169 71.7628 143.169C72.6706 143.163 73.6423 142.43 73.6423 141.351C73.6423 140.059 72.4761 139.522 72.4263 139.499L72.2618 139.426L72.2609 137.557H72.789V139.045C73.1903 139.275 74.1704 139.977 74.1704 141.352C74.1704 142.825 72.9224 143.745 71.7666 143.753C71.7609 143.752 71.7553 143.752 71.7497 143.752Z" fill="#A1A7A7"/>
<path d="M85.0307 114.036H66.7721C65.5956 114.036 64.6333 112.974 64.6333 111.677V111.677C64.6333 110.379 65.5956 109.318 66.7721 109.318H85.0307C86.2072 109.318 87.1695 110.379 87.1695 111.677V111.677C87.1685 112.974 86.2063 114.036 85.0307 114.036Z" fill="#A1A7A7"/>
<path d="M304.607 188.027H141.108C140.994 188.027 140.885 188.064 140.804 188.129C140.724 188.195 140.679 188.283 140.679 188.376C140.679 188.468 140.724 188.557 140.804 188.622C140.885 188.687 140.994 188.724 141.108 188.724H304.607C304.721 188.724 304.83 188.687 304.91 188.622C304.991 188.557 305.036 188.468 305.036 188.376C305.036 188.283 304.991 188.195 304.91 188.129C304.83 188.064 304.721 188.027 304.607 188.027Z" fill="#357E88"/>
<path d="M381.958 116.775C384.808 115.161 387.659 113.547 390.509 111.933C398.934 107.163 407.495 102.29 414.157 95.2652C416.79 92.4874 419.134 89.3319 420.333 85.6978C420.58 84.9497 420.771 84.1109 420.439 83.3967C419.873 82.1851 418.223 82.0582 416.889 82.161C412.888 82.4717 408.925 83.2675 405.112 84.5218C408.284 76.7739 418.249 74.1106 422.799 67.0831C423.536 65.9426 424.133 64.6067 423.923 63.2658C423.787 62.4044 423.325 61.6188 422.738 60.9728C420.743 58.7767 417.438 58.185 414.524 58.7299C411.61 59.2768 408.979 60.7875 406.414 62.2735C409.936 60.3287 412.888 57.3638 414.818 53.8315C415.617 52.3675 416.255 50.64 415.727 49.059C414.834 46.3773 411.125 45.7595 408.511 46.8326C403.465 48.9016 401.218 54.6411 399.217 59.7143C397.216 64.7875 394.164 70.3977 388.797 71.3632C388.153 71.4788 387.461 71.5353 386.945 71.9368C385.939 72.7206 386.193 74.3635 386.954 75.387C387.715 76.4105 388.845 77.1203 389.572 78.1682C391.202 80.5169 390.352 83.7673 389 86.2865C387.648 88.8057 385.813 91.2133 385.546 94.0605C385.215 97.601 383.738 101.677 383.114 105.176C382.829 106.766 385.659 107.597 385.085 109.105C384.512 110.614 384.232 112.39 385.045 113.786C385.858 115.182 388.118 115.71 389.091 114.423" fill="#357E88"/>
<path d="M381.958 116.775C384.808 115.161 387.659 113.547 390.509 111.933C398.934 107.163 407.495 102.29 414.157 95.2652C416.79 92.4874 419.134 89.3319 420.333 85.6978C420.58 84.9497 420.771 84.1109 420.439 83.3967C419.873 82.1851 418.223 82.0582 416.889 82.161C412.888 82.4717 408.925 83.2675 405.112 84.5218C408.284 76.7739 418.249 74.1106 422.799 67.0831C423.536 65.9426 424.133 64.6067 423.923 63.2658C423.787 62.4044 423.325 61.6188 422.738 60.9728C420.743 58.7767 417.438 58.185 414.524 58.7299C411.61 59.2768 408.979 60.7875 406.414 62.2735C409.936 60.3287 412.888 57.3638 414.818 53.8315C415.617 52.3675 416.255 50.64 415.727 49.059C414.834 46.3773 411.125 45.7595 408.511 46.8326C403.465 48.9016 401.218 54.6411 399.217 59.7143C397.216 64.7875 394.164 70.3977 388.797 71.3632C388.153 71.4788 387.461 71.5353 386.945 71.9368C385.939 72.7206 386.193 74.3635 386.954 75.387C387.715 76.4105 388.845 77.1203 389.572 78.1682C391.202 80.5169 390.352 83.7673 389 86.2865C387.648 88.8057 385.813 91.2133 385.546 94.0605C385.215 97.601 383.738 101.677 383.114 105.176C382.829 106.766 385.659 107.597 385.085 109.105C384.512 110.614 384.232 112.39 385.045 113.786C385.858 115.182 388.118 115.71 389.091 114.423" stroke="#0F555F"/>
<path d="M377.65 111.991C377.845 112.016 378.049 111.939 378.176 111.769C386.087 101.312 406.731 74.0689 407.751 72.9577C407.932 72.8045 408.003 72.5456 407.912 72.3133C407.795 72.0207 407.468 71.8774 407.171 71.9936C406.979 72.0698 406.687 72.1845 377.269 111.081C377.078 111.331 377.129 111.689 377.379 111.88C377.459 111.943 377.555 111.979 377.65 111.991Z" fill="white"/>
<path d="M390.269 95.3387C390.299 95.3425 390.329 95.3443 390.36 95.342L406.622 94.7715C406.936 94.7597 407.183 94.4964 407.172 94.1821C407.16 93.8658 406.897 93.6202 406.582 93.6319L390.321 94.2024C390.007 94.2142 389.759 94.4776 389.771 94.7919C389.78 95.0772 389.997 95.3047 390.269 95.3387Z" fill="white"/>
<path d="M394.31 162.869C393.906 163.069 393.276 163.184 392.355 163.184C367.573 163.181 342.798 163.174 318.012 163.242C305.599 163.275 293.183 163.186 280.77 163.214C274.501 163.228 268.231 163.272 261.964 163.377C258.829 163.431 255.694 163.498 252.56 163.585C250.255 163.648 247.459 164.077 245.264 163.118C244.515 162.792 243.808 162.353 243.51 161.549C243.461 161.357 243.449 161.166 243.473 160.97C243.715 159.3 246.274 156.497 247.279 155.113C249.343 152.275 251.454 149.187 255.156 148.202C257.308 147.631 259.58 147.64 261.815 147.654C301.02 147.654 340.228 147.871 379.431 147.993C381.889 148 384.924 148.361 386.634 150.239C388.807 152.625 390.72 155.207 392.479 157.88C393.54 159.477 396.082 161.989 394.31 162.869Z" fill="#E0E2E3"/>
<path d="M377.444 149.67H260.014C254.246 149.67 249.527 144.951 249.527 139.183V55.8577C249.527 50.0897 254.246 45.3712 260.014 45.3712H377.446C383.214 45.3712 387.933 50.0897 387.933 55.8577V139.181C387.933 144.951 383.212 149.67 377.444 149.67Z" fill="#E6E7E8"/>
<path fill-rule="evenodd" clip-rule="evenodd" d="M260.014 150.325H377.444C383.59 150.325 388.588 145.327 388.588 139.181V55.8577C388.588 49.7141 383.59 44.7158 377.446 44.7158H260.014C253.87 44.7158 248.872 49.7141 248.872 55.8577V139.183C248.872 145.327 253.87 150.325 260.014 150.325ZM250.183 55.8577C250.183 50.4372 254.593 46.0266 260.014 46.0266H377.446C382.867 46.0266 387.277 50.4372 387.277 55.8577V139.181C387.277 144.601 382.867 149.012 377.446 149.012H260.014C254.593 149.012 250.183 144.601 250.183 139.181V55.8577Z" fill="#082D32"/>
<path d="M263.669 49.9054C257.688 49.9054 252.795 54.7988 252.795 60.7791V117.776C288.187 96.5373 322.802 74.0925 356.228 49.9054H263.669Z" fill="#E8EFF0"/>
<path d="M373.192 49.9054H356.228C322.8 74.0902 288.187 96.5373 252.795 117.776V130.096C252.795 136.076 257.688 140.97 263.669 140.97H373.192C379.172 140.97 384.065 136.076 384.065 130.096V60.7791C384.065 54.7988 379.172 49.9054 373.192 49.9054Z" fill="white"/>
<path d="M326.147 144.911H316.228C316.05 144.911 315.906 144.767 315.906 144.59V144.375C315.906 144.198 316.05 144.053 316.228 144.053H326.147C326.325 144.053 326.469 144.198 326.469 144.375V144.59C326.469 144.767 326.325 144.911 326.147 144.911Z" fill="#1E6F7A"/>
<path d="M262.724 48.8745C263.258 48.8745 263.69 48.4422 263.69 47.9089C263.69 47.3756 263.258 46.9432 262.724 46.9432C262.191 46.9432 261.759 47.3756 261.759 47.9089C261.759 48.4422 262.191 48.8745 262.724 48.8745Z" fill="#1E6F7A"/>
<path d="M266.883 48.8745C267.416 48.8745 267.848 48.4422 267.848 47.9089C267.848 47.3756 267.416 46.9432 266.883 46.9432C266.349 46.9432 265.917 47.3756 265.917 47.9089C265.917 48.4422 266.349 48.8745 266.883 48.8745Z" fill="white"/>
<path d="M271.078 48.8745C271.612 48.8745 272.044 48.4422 272.044 47.9089C272.044 47.3756 271.612 46.9432 271.078 46.9432C270.545 46.9432 270.113 47.3756 270.113 47.9089C270.113 48.4422 270.545 48.8745 271.078 48.8745Z" fill="#0A191B"/>
<path d="M261.533 154.895H257.095C256.511 154.895 256.034 154.418 256.034 153.834V153.133C256.034 152.549 256.511 152.072 257.095 152.072H261.533C262.117 152.072 262.594 152.549 262.594 153.133V153.834C262.594 154.418 262.117 154.895 261.533 154.895Z" fill="#8ABFC7"/>
<path d="M272.441 154.895H268.004C267.42 154.895 266.943 154.418 266.943 153.834V153.132C266.943 152.548 267.42 152.071 268.004 152.071H272.441C273.025 152.071 273.503 152.548 273.503 153.132V153.834C273.505 154.418 273.025 154.895 272.441 154.895Z" fill="#8ABFC7"/>
<path d="M283.352 154.895H278.915C278.331 154.895 277.854 154.418 277.854 153.834V153.132C277.854 152.548 278.331 152.071 278.915 152.071H283.352C283.936 152.071 284.414 152.548 284.414 153.132V153.834C284.414 154.418 283.936 154.895 283.352 154.895Z" fill="#8ABFC7"/>
<path d="M294.261 154.895H289.824C289.24 154.895 288.763 154.418 288.763 153.834V153.132C288.763 152.548 289.24 152.071 289.824 152.071H294.261C294.845 152.071 295.322 152.548 295.322 153.132V153.834C295.322 154.418 294.845 154.895 294.261 154.895Z" fill="#8ABFC7"/>
<path d="M305.17 154.895H300.733C300.149 154.895 299.672 154.418 299.672 153.834V153.132C299.672 152.548 300.149 152.071 300.733 152.071H305.17C305.754 152.071 306.232 152.548 306.232 153.132V153.834C306.234 154.418 305.754 154.895 305.17 154.895Z" fill="#8ABFC7"/>
<path d="M316.081 154.895H311.644C311.06 154.895 310.583 154.418 310.583 153.834V153.132C310.583 152.548 311.06 152.071 311.644 152.071H316.081C316.665 152.071 317.143 152.548 317.143 153.132V153.834C317.143 154.418 316.665 154.895 316.081 154.895Z" fill="#8ABFC7"/>
<path d="M326.991 154.895H322.553C321.969 154.895 321.492 154.418 321.492 153.834V153.132C321.492 152.548 321.969 152.071 322.553 152.071H326.991C327.575 152.071 328.052 152.548 328.052 153.132V153.834C328.052 154.418 327.575 154.895 326.991 154.895Z" fill="#8ABFC7"/>
<path d="M337.902 154.895H333.465C332.881 154.895 332.404 154.418 332.404 153.834V153.132C332.404 152.548 332.881 152.071 333.465 152.071H337.902C338.486 152.071 338.964 152.548 338.964 153.132V153.834C338.964 154.418 338.486 154.895 337.902 154.895Z" fill="#8ABFC7"/>
<path d="M348.81 154.895H344.373C343.789 154.895 343.312 154.418 343.312 153.834V153.132C343.312 152.548 343.789 152.071 344.373 152.071H348.81C349.394 152.071 349.872 152.548 349.872 153.132V153.834C349.872 154.418 349.394 154.895 348.81 154.895Z" fill="#8ABFC7"/>
<path d="M359.72 154.895H355.282C354.699 154.895 354.221 154.418 354.221 153.834V153.132C354.221 152.548 354.699 152.071 355.282 152.071H359.72C360.304 152.071 360.781 152.548 360.781 153.132V153.834C360.784 154.418 360.304 154.895 359.72 154.895Z" fill="#8ABFC7"/>
<path d="M370.631 154.895H366.194C365.61 154.895 365.133 154.418 365.133 153.834V153.132C365.133 152.548 365.61 152.071 366.194 152.071H370.631C371.215 152.071 371.693 152.548 371.693 153.132V153.834C371.693 154.418 371.215 154.895 370.631 154.895Z" fill="#8ABFC7"/>
<path d="M381.54 154.895H377.103C376.519 154.895 376.042 154.418 376.042 153.834V153.132C376.042 152.548 376.519 152.071 377.103 152.071H381.54C382.124 152.071 382.601 152.548 382.601 153.132V153.834C382.601 154.418 382.124 154.895 381.54 154.895Z" fill="#8ABFC7"/>
<path d="M261.533 159.074H257.095C256.511 159.074 256.034 158.597 256.034 158.013V157.311C256.034 156.727 256.511 156.25 257.095 156.25H261.533C262.117 156.25 262.594 156.727 262.594 157.311V158.013C262.594 158.597 262.117 159.074 261.533 159.074Z" fill="#8ABFC7"/>
<path d="M272.441 159.074H268.004C267.42 159.074 266.943 158.596 266.943 158.012V157.311C266.943 156.727 267.42 156.25 268.004 156.25H272.441C273.025 156.25 273.503 156.727 273.503 157.311V158.012C273.505 158.596 273.025 159.074 272.441 159.074Z" fill="#8ABFC7"/>
<path d="M283.352 159.074H278.915C278.331 159.074 277.854 158.596 277.854 158.012V157.311C277.854 156.727 278.331 156.25 278.915 156.25H283.352C283.936 156.25 284.414 156.727 284.414 157.311V158.012C284.414 158.596 283.936 159.074 283.352 159.074Z" fill="#8ABFC7"/>
<path d="M294.261 159.074H289.824C289.24 159.074 288.763 158.596 288.763 158.012V157.311C288.763 156.727 289.24 156.25 289.824 156.25H294.261C294.845 156.25 295.322 156.727 295.322 157.311V158.012C295.322 158.596 294.845 159.074 294.261 159.074Z" fill="#8ABFC7"/>
<path d="M305.17 159.074H300.733C300.149 159.074 299.672 158.596 299.672 158.012V157.311C299.672 156.727 300.149 156.25 300.733 156.25H305.17C305.754 156.25 306.232 156.727 306.232 157.311V158.012C306.234 158.596 305.754 159.074 305.17 159.074Z" fill="#8ABFC7"/>
<path d="M316.081 159.074H311.644C311.06 159.074 310.583 158.596 310.583 158.012V157.311C310.583 156.727 311.06 156.25 311.644 156.25H316.081C316.665 156.25 317.143 156.727 317.143 157.311V158.012C317.143 158.596 316.665 159.074 316.081 159.074Z" fill="#8ABFC7"/>
<path d="M326.991 159.074H322.553C321.969 159.074 321.492 158.596 321.492 158.012V157.311C321.492 156.727 321.969 156.25 322.553 156.25H326.991C327.575 156.25 328.052 156.727 328.052 157.311V158.012C328.052 158.596 327.575 159.074 326.991 159.074Z" fill="#8ABFC7"/>
<path d="M337.902 159.074H333.465C332.881 159.074 332.404 158.596 332.404 158.012V157.311C332.404 156.727 332.881 156.25 333.465 156.25H337.902C338.486 156.25 338.964 156.727 338.964 157.311V158.012C338.964 158.596 338.486 159.074 337.902 159.074Z" fill="#8ABFC7"/>
<path d="M348.81 159.074H344.373C343.789 159.074 343.312 158.596 343.312 158.012V157.311C343.312 156.727 343.789 156.25 344.373 156.25H348.81C349.394 156.25 349.872 156.727 349.872 157.311V158.012C349.872 158.596 349.394 159.074 348.81 159.074Z" fill="#8ABFC7"/>
<path d="M359.72 159.074H355.282C354.699 159.074 354.221 158.596 354.221 158.012V157.311C354.221 156.727 354.699 156.25 355.282 156.25H359.72C360.304 156.25 360.781 156.727 360.781 157.311V158.012C360.784 158.596 360.304 159.074 359.72 159.074Z" fill="#8ABFC7"/>
<path d="M370.631 159.074H366.194C365.61 159.074 365.133 158.596 365.133 158.012V157.311C365.133 156.727 365.61 156.25 366.194 156.25H370.631C371.215 156.25 371.693 156.727 371.693 157.311V158.012C371.693 158.596 371.215 159.074 370.631 159.074Z" fill="#8ABFC7"/>
<path d="M381.54 159.074H377.103C376.519 159.074 376.042 158.596 376.042 158.012V157.311C376.042 156.727 376.519 156.25 377.103 156.25H381.54C382.124 156.25 382.601 156.727 382.601 157.311V158.012C382.601 158.596 382.124 159.074 381.54 159.074Z" fill="#8ABFC7"/>
<path d="M497.849 159.91C499.379 158.84 501.018 157.375 500.886 155.513C498.556 155.456 496.215 155.945 494.102 156.928C493.357 155.941 494.565 154.675 495.624 154.038C497.919 152.657 500.216 151.276 502.511 149.896C501.706 149.149 500.616 148.717 499.517 148.71C498.664 146.644 502.748 145.271 502.38 143.066C502.187 141.909 500.734 141.334 499.6 141.637C498.467 141.94 497.602 142.834 496.8 143.69C497.308 142.234 498.246 140.975 498.992 139.625C499.738 138.275 500.307 136.714 499.978 135.208C499.648 133.701 498.122 132.386 496.628 132.772C495.596 133.038 494.896 133.98 494.355 134.899C493.178 136.899 492.339 139.095 491.883 141.37C491.609 142.727 490.814 144.56 489.5 144.122C488.79 143.886 488.493 143.069 488.03 142.482C486.733 140.836 483.889 141.177 482.558 142.795C481.228 144.412 481.191 146.787 481.864 148.771C482.279 149.996 482.836 151.591 481.81 152.38C480.801 153.157 479.19 152.268 478.114 152.948C476.813 153.771 477.538 155.732 477.693 157.264C477.878 159.089 477.003 160.83 476.279 162.514C475.556 164.199 474.966 166.144 475.695 167.825C477.889 172.88 494.796 162.043 497.849 159.91Z" fill="#8ABFC7"/>
<path fill-rule="evenodd" clip-rule="evenodd" d="M477.009 169.397C477.375 169.501 477.787 169.549 478.237 169.549C484.406 169.549 497.739 160.467 498.072 160.24L498.077 160.237C499.526 159.224 501.435 157.63 501.282 155.486L501.256 155.127L500.897 155.118C498.625 155.066 496.359 155.511 494.286 156.414C494.264 156.317 494.264 156.214 494.285 156.103C494.404 155.482 495.147 154.79 495.829 154.379L503.168 149.965L502.783 149.607C501.977 148.862 500.91 148.405 499.816 148.327C499.692 147.654 500.247 147.03 501.134 146.136L501.138 146.132C502.003 145.258 502.984 144.268 502.773 143.003C502.68 142.446 502.341 141.953 501.818 141.616C501.155 141.189 500.266 141.053 499.5 141.257C498.967 141.399 498.491 141.66 498.061 141.972C498.205 141.723 498.357 141.473 498.511 141.22C498.541 141.171 498.571 141.122 498.601 141.073L498.617 141.046C498.864 140.641 499.111 140.234 499.34 139.819C500.328 138.03 500.663 136.495 500.365 135.128C500.155 134.167 499.526 133.283 498.681 132.763C497.998 132.344 497.233 132.21 496.531 132.393C495.323 132.704 494.552 133.791 494.016 134.702C492.81 136.75 491.963 138.969 491.495 141.297C491.318 142.174 490.89 143.328 490.262 143.692C490.058 143.81 489.856 143.828 489.625 143.752C489.251 143.627 488.999 143.231 488.733 142.813C488.607 142.616 488.482 142.419 488.341 142.241C487.727 141.46 486.775 141.023 485.663 141.011H485.617C484.321 141.011 483.037 141.596 482.254 142.547C480.73 144.399 480.861 147.043 481.505 148.944C481.886 150.066 482.36 151.463 481.571 152.07C481.168 152.378 480.578 152.343 479.955 152.305L479.947 152.305C479.284 152.265 478.533 152.221 477.904 152.618C476.657 153.405 476.92 154.948 477.152 156.308L477.157 156.333C477.214 156.676 477.269 157 477.3 157.307C477.456 158.834 476.793 160.352 476.151 161.821L476.146 161.834L475.917 162.36C475.216 163.991 474.516 166.104 475.333 167.986C475.64 168.694 476.205 169.168 477.009 169.397ZM478.324 153.285C478.597 153.113 478.934 153.068 479.303 153.068C479.497 153.068 479.7 153.081 479.902 153.095C480.611 153.139 481.412 153.186 482.048 152.696C483.286 151.745 482.688 149.977 482.236 148.647C481.674 146.989 481.543 144.649 482.861 143.048C483.504 142.267 484.573 141.777 485.65 141.801C486.518 141.809 487.251 142.139 487.716 142.729C487.84 142.886 487.951 143.061 488.062 143.235L488.062 143.235C488.375 143.728 488.731 144.286 489.372 144.5C489.815 144.648 490.259 144.603 490.656 144.373C491.732 143.749 492.163 141.977 492.268 141.449C492.718 139.208 493.534 137.072 494.695 135.101C495.154 134.322 495.799 133.396 496.725 133.156C497.356 132.994 497.911 133.218 498.264 133.435C498.92 133.838 499.427 134.55 499.591 135.294C499.847 136.467 499.537 137.82 498.646 139.435C498.416 139.849 498.17 140.254 497.922 140.66C497.366 141.572 496.79 142.517 496.425 143.561L495.808 145.325L497.088 143.962C497.97 143.023 498.723 142.282 499.703 142.02C500.252 141.872 500.914 141.975 501.387 142.279C501.622 142.431 501.918 142.702 501.99 143.131C502.135 143.998 501.376 144.763 500.572 145.575L500.569 145.577C499.651 146.502 498.612 147.551 499.151 148.859L499.251 149.102L499.513 149.103C500.333 149.109 501.149 149.375 501.821 149.845L495.417 153.698C494.609 154.185 493.681 155.031 493.503 155.949C493.419 156.39 493.515 156.811 493.784 157.166L493.976 157.421L494.266 157.285C496.204 156.383 498.347 155.908 500.487 155.903C500.375 157.477 498.819 158.746 497.619 159.585C494.657 161.656 483.393 168.766 478.279 168.764C477.889 168.764 477.534 168.723 477.221 168.635C476.648 168.473 476.268 168.157 476.057 167.67C475.36 166.066 476.003 164.157 476.641 162.671L476.868 162.15L476.869 162.148C477.553 160.583 478.261 158.964 478.085 157.226C478.052 156.895 477.992 156.543 477.934 156.202L477.93 156.174C477.685 154.735 477.579 153.755 478.324 153.285Z" fill="#0F555F"/>
<path d="M500.93 172.062C501.438 171.576 501.961 170.964 501.875 170.265C501.785 169.536 501.026 169.04 500.294 168.991C499.56 168.942 498.852 169.23 498.174 169.512C497.763 168.961 498.377 168.233 498.949 167.853C501.499 166.155 504.743 164.65 505.364 161.649C505.416 161.398 505.442 161.118 505.298 160.906C505.156 160.694 504.885 160.613 504.633 160.582C503.106 160.389 501.714 161.46 500.196 161.718C498.526 162.001 496.842 161.279 495.148 161.328C493.784 161.367 492.49 161.903 491.232 162.429C488.895 163.408 486.497 164.426 484.689 166.2C481.973 168.866 478.124 176.605 483.84 178.11C489.365 179.567 497.062 175.753 500.93 172.062Z" fill="#357E88"/>
<path d="M480.35 163.87C480.256 163.87 480.161 163.836 480.087 163.768C479.924 163.623 479.909 163.373 480.056 163.209L493.302 148.389C493.448 148.226 493.698 148.212 493.861 148.358C494.024 148.503 494.038 148.754 493.892 148.917L480.646 163.737C480.567 163.825 480.459 163.87 480.35 163.87Z" fill="white"/>
<path d="M487.607 155.746C487.412 155.746 487.241 155.6 487.216 155.401L486.14 146.994C486.112 146.777 486.265 146.578 486.482 146.55C486.695 146.523 486.896 146.675 486.924 146.892L488 155.3C488.028 155.517 487.875 155.715 487.658 155.744C487.641 155.746 487.624 155.746 487.607 155.746Z" fill="white"/>
<path d="M479.556 178.717C479.428 178.717 479.303 178.655 479.225 178.539C479.104 178.358 479.154 178.111 479.337 177.99L494.327 168.046C494.51 167.925 494.755 167.976 494.877 168.157C494.998 168.339 494.948 168.585 494.765 168.707L479.775 178.651C479.707 178.696 479.631 178.717 479.556 178.717Z" fill="white"/>
<path d="M488.438 172.956C488.404 172.956 488.371 172.952 488.338 172.944C488.127 172.889 488 172.673 488.055 172.461L489.738 165.996C489.793 165.783 490.013 165.658 490.22 165.713C490.431 165.768 490.557 165.983 490.503 166.196L488.82 172.66C488.775 172.838 488.614 172.956 488.438 172.956Z" fill="white"/>
<g clip-path="url(#clip0_941:27)">
<path d="M369.22 23.118H368.709V9.10935C368.709 8.04462 368.5 6.99031 368.093 6.00662C367.686 5.02294 367.09 4.12914 366.338 3.37625C365.587 2.62337 364.694 2.02615 363.712 1.6187C362.73 1.21124 361.677 1.00153 360.614 1.00153H330.98C329.917 1.00152 328.864 1.21124 327.882 1.61869C326.9 2.02614 326.008 2.62336 325.256 3.37624C324.504 4.12912 323.908 5.02291 323.501 6.0066C323.094 6.99028 322.885 8.04459 322.885 9.10932V85.9618C322.885 87.0266 323.094 88.0809 323.501 89.0645C323.908 90.0482 324.504 90.942 325.256 91.6949C326.008 92.4478 326.9 93.045 327.882 93.4525C328.864 93.8599 329.917 94.0696 330.98 94.0696H360.614C361.677 94.0696 362.73 93.8599 363.712 93.4525C364.694 93.045 365.587 92.4478 366.338 91.6949C367.09 90.9421 367.686 90.0483 368.093 89.0646C368.5 88.0809 368.709 87.0266 368.709 85.9619V33.0896H369.22V23.118Z" fill="#082D32"/>
<path d="M366.986 9.16503V85.9056C366.986 86.7008 366.83 87.4882 366.526 88.2227C366.222 88.9573 365.776 89.6248 365.215 90.1869C364.653 90.7491 363.987 91.1949 363.253 91.499C362.52 91.8031 361.733 91.9595 360.94 91.9592H331.163C330.369 91.9593 329.583 91.8027 328.85 91.4985C328.117 91.1943 327.45 90.7484 326.889 90.1863C326.328 89.6242 325.882 88.9568 325.579 88.2223C325.275 87.4878 325.119 86.7006 325.119 85.9056V9.16503C325.119 8.37005 325.275 7.58284 325.579 6.84835C325.882 6.11387 326.328 5.44651 326.889 4.88437C327.45 4.32223 328.117 3.87633 328.85 3.57213C329.583 3.26793 330.369 3.11139 331.163 3.11145H334.777C334.599 3.54826 334.532 4.02203 334.58 4.49109C334.628 4.96015 334.791 5.41013 335.054 5.80145C335.316 6.19278 335.671 6.51345 336.087 6.73528C336.502 6.9571 336.966 7.07328 337.436 7.0736H354.413C354.884 7.07405 355.348 6.95836 355.764 6.73674C356.18 6.51512 356.535 6.19439 356.798 5.80285C357.061 5.4113 357.223 4.96097 357.271 4.4916C357.319 4.02223 357.251 3.54824 357.073 3.11145H360.94C361.733 3.11116 362.52 3.26753 363.253 3.57162C363.987 3.87571 364.653 4.32157 365.215 4.88373C365.776 5.44588 366.222 6.11332 366.526 6.84792C366.83 7.58252 366.986 8.36988 366.986 9.16503V9.16503Z" fill="white"/>
<path d="M357.724 49.0436H331.551C331.093 49.0431 330.653 48.8605 330.329 48.5358C330.005 48.2112 329.823 47.771 329.822 47.3119V46.4499C329.823 45.9908 330.005 45.5506 330.329 45.2259C330.653 44.9013 331.093 44.7187 331.551 44.7181H357.724C358.182 44.7187 358.622 44.9013 358.946 45.2259C359.27 45.5506 359.453 45.9908 359.453 46.4499V47.3119C359.453 47.771 359.27 48.2112 358.946 48.5358C358.622 48.8605 358.182 49.0431 357.724 49.0436Z" fill="#F0F0F0"/>
<path d="M357.724 56.4739H331.551C331.093 56.4734 330.653 56.2908 330.329 55.9662C330.005 55.6415 329.823 55.2013 329.822 54.7422V53.8802C329.823 53.4211 330.005 52.9809 330.329 52.6563C330.653 52.3316 331.093 52.149 331.551 52.1485H357.724C358.182 52.149 358.622 52.3316 358.946 52.6563C359.27 52.9809 359.453 53.4211 359.453 53.8802V54.7422C359.453 55.2013 359.27 55.6415 358.946 55.9662C358.622 56.2908 358.182 56.4734 357.724 56.4739V56.4739Z" fill="#F0F0F0"/>
<path d="M359.033 47.3818H332.86C332.379 47.3812 331.918 47.1895 331.577 46.8486C331.237 46.5077 331.045 46.0455 331.045 45.5634V44.7014C331.045 44.2194 331.237 43.7572 331.577 43.4163C331.918 43.0754 332.379 42.8837 332.86 42.8831H359.033C359.514 42.8837 359.976 43.0754 360.316 43.4163C360.657 43.7572 360.848 44.2194 360.849 44.7014V45.5634C360.848 46.0455 360.657 46.5077 360.316 46.8486C359.976 47.1895 359.514 47.3812 359.033 47.3818V47.3818ZM332.86 43.2295C332.471 43.2299 332.097 43.3851 331.822 43.6611C331.546 43.937 331.391 44.3112 331.391 44.7014V45.5634C331.391 45.9537 331.546 46.3278 331.822 46.6038C332.097 46.8797 332.471 47.035 332.86 47.0354H359.033C359.423 47.035 359.796 46.8797 360.072 46.6038C360.347 46.3278 360.502 45.9537 360.503 45.5634V44.7014C360.502 44.3112 360.347 43.937 360.072 43.6611C359.796 43.3851 359.423 43.2299 359.033 43.2295H332.86Z" fill="#3F3D56"/>
<path d="M359.033 54.8122H332.86C332.379 54.8116 331.918 54.6199 331.577 54.279C331.237 53.9381 331.045 53.4759 331.045 52.9938V52.1319C331.045 51.6498 331.237 51.1876 331.577 50.8467C331.918 50.5058 332.379 50.3141 332.86 50.3135H359.033C359.514 50.3141 359.976 50.5058 360.316 50.8467C360.657 51.1876 360.848 51.6498 360.849 52.1319V52.9938C360.848 53.4759 360.657 53.9381 360.316 54.279C359.976 54.6199 359.514 54.8116 359.033 54.8122V54.8122ZM332.86 50.6599C332.471 50.6603 332.097 50.8155 331.822 51.0915C331.546 51.3675 331.391 51.7416 331.391 52.1319V52.9938C331.391 53.3841 331.546 53.7582 331.822 54.0342C332.097 54.3102 332.471 54.4654 332.86 54.4658H359.033C359.423 54.4654 359.796 54.3102 360.072 54.0342C360.347 53.7582 360.502 53.3841 360.503 52.9938V52.1319C360.502 51.7416 360.347 51.3675 360.072 51.0915C359.796 50.8155 359.423 50.6603 359.033 50.6599H332.86Z" fill="#3F3D56"/>
<path d="M366.986 9.16503V25.8572C364.338 26.555 361.565 26.635 358.881 26.0912C356.197 25.5474 353.673 24.3941 351.504 22.7202C349.335 21.0463 347.578 18.8964 346.369 16.4357C345.159 13.9751 344.53 11.2695 344.528 8.5269C344.528 8.03737 344.548 7.55294 344.587 7.0736H354.413C354.884 7.07405 355.348 6.95836 355.764 6.73674C356.18 6.51512 356.535 6.19439 356.798 5.80285C357.061 5.4113 357.223 4.96097 357.271 4.4916C357.319 4.02223 357.251 3.54824 357.073 3.11145H360.94C361.734 3.11116 362.52 3.26753 363.253 3.57162C363.987 3.87571 364.654 4.32157 365.215 4.88373C365.777 5.44588 366.222 6.11333 366.526 6.84792C366.83 7.58252 366.986 8.36988 366.986 9.16503V9.16503Z" fill="#F0F0F0"/>
<path d="M340.164 90.9168C340.164 91.2687 340.151 91.6162 340.123 91.9593H331.163C330.369 91.9593 329.583 91.8028 328.85 91.4986C328.117 91.1944 327.45 90.7485 326.889 90.1864C326.328 89.6242 325.882 88.9569 325.579 88.2224C325.275 87.4879 325.119 86.7007 325.119 85.9057V77.6973C326.997 77.4527 328.905 77.6117 330.717 78.1639C332.529 78.7161 334.202 79.6487 335.626 80.8996C337.05 82.1505 338.191 83.691 338.973 85.4183C339.756 87.1456 340.162 89.0201 340.164 90.9168H340.164Z" fill="#922276"/>
<path d="M350.305 65.4341H337.879C337.421 65.4336 336.981 65.251 336.657 64.9264C336.333 64.6017 336.15 64.1615 336.15 63.7024V62.8404C336.15 62.3813 336.333 61.9411 336.657 61.6165C336.981 61.2918 337.421 61.1092 337.879 61.1087H350.305C350.763 61.1092 351.203 61.2918 351.527 61.6165C351.851 61.9411 352.033 62.3813 352.034 62.8404V63.7024C352.033 64.1615 351.851 64.6017 351.527 64.9264C351.203 65.251 350.763 65.4336 350.305 65.4341V65.4341Z" fill="#922276"/>
<path d="M351.614 63.7724H339.189C338.707 63.7718 338.246 63.5801 337.905 63.2392C337.565 62.8983 337.374 62.4361 337.373 61.954V61.0921C337.374 60.61 337.565 60.1478 337.905 59.8069C338.246 59.466 338.707 59.2743 339.189 59.2737H351.614C352.096 59.2743 352.557 59.466 352.897 59.8069C353.238 60.1478 353.429 60.61 353.43 61.0921V61.954C353.429 62.4361 353.238 62.8983 352.897 63.2392C352.557 63.5801 352.096 63.7718 351.614 63.7724ZM339.189 59.6201C338.799 59.6205 338.425 59.7757 338.15 60.0517C337.874 60.3277 337.719 60.7018 337.719 61.0921V61.954C337.719 62.3443 337.874 62.7184 338.15 62.9944C338.425 63.2704 338.799 63.4256 339.189 63.426H351.614C352.004 63.4256 352.377 63.2704 352.653 62.9944C352.929 62.7184 353.084 62.3443 353.084 61.954V61.0921C353.084 60.7018 352.929 60.3277 352.653 60.0517C352.377 59.7757 352.004 59.6205 351.614 59.6201H339.189Z" fill="#3F3D56"/>
</g>
<path d="M30.0475 175.476C30.222 175.55 30.3956 175.623 30.5701 175.697C30.2996 173.541 30.2914 171.365 30.2047 169.197C30.1771 168.51 30.3894 167.059 29.7718 166.755C28.9725 166.361 28.0251 167.175 27.2155 166.809C26.3008 166.396 26.4713 165.329 26.2947 164.514C26.1467 163.833 25.2218 160.519 24.1989 162.17C22.6553 161.181 21.3353 158.969 19.4089 158.679C19.0577 158.626 18.6524 158.755 18.4922 159.073C18.3982 159.26 18.4013 159.479 18.4248 159.687C18.4799 160.184 18.6402 160.667 18.8913 161.098C19.0588 161.386 19.2691 161.655 19.3701 161.972C19.4712 162.29 19.4334 162.684 19.1721 162.89C18.9444 163.07 18.6269 163.056 18.3421 163.106C18.0573 163.157 17.7367 163.356 17.7663 163.644C17.7776 163.759 17.8439 163.859 17.9082 163.955C20.8024 168.235 22.1643 173.457 26.261 176.832C26.8817 177.343 27.578 177.825 28.3773 177.915C29.3124 178.02 30.2394 177.557 30.907 176.893C31.5747 176.231 32.0239 175.384 32.4526 174.547" fill="#A1A7A7"/>
<path d="M19.5213 182.679C17.7052 182.301 15.7808 181.824 14.516 180.468C15.5685 180.299 16.621 180.131 17.6735 179.962C17.8154 179.94 17.9737 179.907 18.0564 179.789C18.1911 179.596 18.0308 179.336 17.8614 179.173C16.7782 178.127 15.1775 177.873 13.8187 177.225C13.4165 177.033 12.9908 176.747 12.9203 176.306C12.8468 175.843 13.2266 175.404 13.6697 175.246C14.1117 175.088 14.5987 175.141 15.0652 175.196C14.1607 174.078 13.2562 172.96 12.3507 171.842C12.1843 171.636 12.0107 171.413 11.9883 171.15C11.9413 170.6 12.611 170.214 13.1521 170.325C13.6932 170.436 14.1046 170.863 14.4792 171.268C13.6513 169.55 13.0296 167.732 12.6314 165.867C12.5089 165.296 12.4446 164.606 12.8805 164.218C13.3093 163.837 14.0188 163.987 14.4394 164.375C14.861 164.764 15.0724 165.322 15.299 165.849C15.9289 167.308 16.7813 168.672 17.8175 169.879C17.9359 170.017 18.0635 170.158 18.234 170.218C18.7567 170.404 19.1957 169.746 19.2385 169.194C19.2814 168.641 19.1834 168.011 19.552 167.596C19.9726 167.123 20.7933 167.252 21.2466 167.694C21.6999 168.135 21.8806 168.78 22.0439 169.391C22.3175 170.419 22.5911 171.446 22.8647 172.474C23.3078 172.095 23.7702 171.706 24.3307 171.545C24.8911 171.384 25.5812 171.518 25.8947 172.01C26.0539 172.26 26.0968 172.563 26.155 172.853C26.6634 175.397 28.5571 177.474 29.2013 179.988C29.6831 181.867 29.0236 184.343 26.6848 184.137C24.3593 183.927 21.8265 183.159 19.5213 182.679Z" fill="#CCD3D3"/>
<path fill-rule="evenodd" clip-rule="evenodd" d="M28.8633 183.584C28.3886 184.142 27.7322 184.433 26.9522 184.433C26.8563 184.433 26.7593 184.428 26.6582 184.422C25.0411 184.279 23.3312 183.869 21.6784 183.472L21.6468 183.464C20.8877 183.282 20.1709 183.11 19.461 182.962C17.5673 182.568 15.6093 182.067 14.3036 180.665L13.9371 180.271L17.6265 179.68C17.7654 179.658 17.8083 179.638 17.8174 179.63C17.8215 179.601 17.7786 179.494 17.6602 179.38C16.9797 178.722 16.076 178.396 15.1191 178.052L15.1172 178.051L15.0971 178.044C14.6307 177.875 14.149 177.702 13.6941 177.484C13.054 177.179 12.709 176.809 12.6365 176.351C12.5365 175.711 13.0438 175.165 13.5726 174.976C13.8503 174.877 14.1372 174.85 14.42 174.856L12.1281 172.024L12.1278 172.023C11.9614 171.818 11.733 171.536 11.7024 171.175C11.6759 170.871 11.7984 170.582 12.0475 170.361C12.3558 170.086 12.8111 169.962 13.2092 170.044C13.3828 170.08 13.5451 170.143 13.6951 170.224C13.1153 168.838 12.6651 167.397 12.3507 165.927C12.2251 165.342 12.124 164.506 12.6896 164.004C13.2541 163.502 14.1219 163.692 14.6344 164.165C15.0611 164.56 15.2846 165.083 15.5001 165.589L15.5623 165.735C16.182 167.172 17.014 168.504 18.0349 169.692C18.1329 169.805 18.2289 169.911 18.3299 169.947C18.381 169.965 18.4616 169.981 18.5708 169.91C18.7648 169.784 18.9292 169.465 18.9527 169.17C18.9629 169.048 18.9649 168.92 18.9669 168.793V168.793L18.9669 168.792C18.9751 168.328 18.9844 167.802 19.3375 167.405C19.5519 167.163 19.8643 167.023 20.2175 167.01C20.6524 166.997 21.1271 167.178 21.4466 167.488C21.9693 167.997 22.1643 168.728 22.3205 169.316L23.0249 171.963C23.3812 171.677 23.7804 171.403 24.251 171.268C24.8676 171.091 25.72 171.2 26.1365 171.854C26.305 172.12 26.3642 172.424 26.4152 172.691L26.4357 172.795C26.6939 174.088 27.3136 175.241 27.97 176.463L27.9711 176.465C28.5578 177.558 29.1636 178.687 29.4789 179.915C29.8311 181.288 29.5902 182.729 28.8633 183.584ZM25.6533 172.161C25.4757 171.884 25.1367 171.764 24.7999 171.764C24.6661 171.764 24.5324 171.784 24.4068 171.817C23.8964 171.964 23.4452 172.349 23.048 172.689L22.702 172.985L21.7648 169.462C21.6198 168.916 21.4545 168.296 21.0451 167.898C20.8378 167.696 20.5112 167.573 20.2376 167.583C20.0987 167.588 19.9058 167.627 19.7649 167.785C19.5536 168.024 19.5464 168.402 19.5393 168.802C19.5372 168.941 19.5342 169.079 19.524 169.214C19.4862 169.693 19.2279 170.166 18.8818 170.39C18.6501 170.541 18.3847 170.575 18.1366 170.486C17.9028 170.403 17.7415 170.231 17.5976 170.064C16.5389 168.83 15.6763 167.45 15.0331 165.96L14.9688 165.811C14.7687 165.339 14.5789 164.894 14.242 164.584C13.9235 164.289 13.3763 164.157 13.068 164.429C12.8087 164.66 12.7576 165.096 12.9087 165.803C13.3028 167.646 13.9173 169.442 14.7351 171.141L15.563 172.861L14.2665 171.46C13.8816 171.045 13.5274 170.693 13.0914 170.604C12.872 170.558 12.5984 170.633 12.4269 170.786C12.3482 170.856 12.2584 170.971 12.2717 171.123C12.286 171.296 12.4166 171.468 12.5718 171.66L15.7294 175.563L15.0291 175.48C14.6187 175.431 14.1532 175.376 13.7642 175.515C13.4549 175.626 13.1527 175.943 13.2027 176.261C13.2425 176.518 13.4845 176.747 13.9408 176.966C14.3767 177.173 14.8525 177.344 15.3118 177.51L15.3217 177.513C16.2915 177.863 17.2929 178.225 18.059 178.967C18.398 179.293 18.4868 179.671 18.2908 179.953C18.1331 180.179 17.8651 180.222 17.7197 180.246L17.7181 180.246L15.1332 180.659C16.3174 181.652 17.9702 182.065 19.5781 182.399C20.3069 182.55 21.0726 182.734 21.8126 182.911L21.8128 182.911L21.8343 182.916C23.461 183.307 25.1416 183.71 26.7099 183.848C27.4368 183.913 28.0136 183.698 28.426 183.212C29.0263 182.505 29.2254 181.237 28.9232 180.057C28.6263 178.896 28.0368 177.798 27.4665 176.736L27.4654 176.734C26.8181 175.529 26.1495 174.283 25.8738 172.907L25.8524 172.799C25.8075 172.561 25.7636 172.335 25.6533 172.161Z" fill="#A1A7A7"/>
<path d="M28.0509 183.545C28.1265 183.545 28.202 183.516 28.2582 183.456C28.3684 183.342 28.3643 183.16 28.25 183.051L17.3032 172.559C17.1899 172.449 17.0071 172.452 16.8979 172.567C16.7876 172.681 16.7917 172.863 16.906 172.972L27.8519 183.466C27.908 183.519 27.9795 183.545 28.0509 183.545Z" fill="white"/>
<path d="M24.2589 179.912C24.2721 179.912 24.2854 179.911 24.2987 179.909C24.4559 179.887 24.5651 179.742 24.5437 179.585L23.8505 174.613C23.8281 174.455 23.6862 174.346 23.5269 174.369C23.3697 174.39 23.2605 174.535 23.2819 174.692L23.9751 179.665C23.9945 179.808 24.118 179.912 24.2589 179.912Z" fill="white"/>
<path d="M21.2873 177.063C21.4252 177.063 21.5466 176.964 21.5701 176.824C21.5967 176.668 21.4915 176.52 21.3353 176.493L17.1508 175.783C16.9946 175.755 16.8465 175.861 16.82 176.017C16.7934 176.174 16.8986 176.322 17.0548 176.348L21.2394 177.059C21.2557 177.062 21.272 177.063 21.2873 177.063Z" fill="white"/>
<path d="M29.3494 174.939C29.4086 174.939 29.4679 174.921 29.5189 174.883C29.6465 174.789 29.673 174.61 29.5791 174.482L22.3023 164.605C22.2094 164.477 22.0298 164.45 21.9011 164.544C21.7735 164.638 21.747 164.817 21.8409 164.945L29.1177 174.822C29.1749 174.899 29.2616 174.939 29.3494 174.939Z" fill="white"/>
<path d="M24.6994 168.629C24.7239 168.629 24.7484 168.626 24.7718 168.62C24.925 168.58 25.0169 168.424 24.977 168.27L23.8428 163.918C23.803 163.764 23.6448 163.673 23.4927 163.713C23.3396 163.753 23.2477 163.909 23.2875 164.063L24.4217 168.415C24.4564 168.544 24.5728 168.629 24.6994 168.629Z" fill="white"/>
<path d="M41.9317 127.711H36.5746C36.1751 127.71 35.7921 127.545 35.5097 127.25C35.2272 126.956 35.0683 126.557 35.0679 126.141V118.817C35.0683 118.401 35.2272 118.002 35.5097 117.708C35.7921 117.413 36.1751 117.248 36.5746 117.247H41.9317C42.3312 117.248 42.7142 117.413 42.9966 117.708C43.2791 118.002 43.438 118.401 43.4384 118.817V126.141C43.438 126.557 43.2791 126.956 42.9966 127.25C42.7142 127.545 42.3312 127.71 41.9317 127.711Z" fill="#E6E6E6"/>
<path d="M64.3319 187.351H28.8228C28.2593 187.35 27.719 187.041 27.3205 186.491C26.922 185.942 26.6979 185.197 26.6973 184.42V129.595C26.6979 128.818 26.922 128.073 27.3205 127.524C27.719 126.974 28.2593 126.665 28.8228 126.664H64.3319C64.8955 126.665 65.4357 126.974 65.8342 127.524C66.2327 128.073 66.4568 128.818 66.4575 129.595V184.42C66.4568 185.197 66.2327 185.942 65.8342 186.491C65.4357 187.041 64.8955 187.35 64.3319 187.351V187.351Z" fill="#F2F2F2"/>
<path d="M40.8854 127.711H35.5282C35.1287 127.71 34.7458 127.545 34.4633 127.25C34.1808 126.956 34.0219 126.557 34.0215 126.141V118.817C34.0219 118.401 34.1808 118.002 34.4633 117.708C34.7458 117.413 35.1287 117.248 35.5282 117.247H40.8854C41.2848 117.248 41.6678 117.413 41.9502 117.708C42.2327 118.002 42.3916 118.401 42.3921 118.817V126.141C42.3916 126.557 42.2327 126.956 41.9502 127.25C41.6678 127.545 41.2848 127.71 40.8854 127.711V127.711Z" fill="#F2F2F2"/>
<path d="M43.6129 161.193H36.9862C36.755 161.193 36.5334 161.103 36.3699 160.945C36.2065 160.786 36.1145 160.571 36.1143 160.347V150.53C36.1145 150.305 36.2065 150.09 36.3699 149.932C36.5334 149.773 36.755 149.684 36.9862 149.683H43.6129C43.8441 149.684 44.0657 149.773 44.2291 149.932C44.3926 150.09 44.4846 150.305 44.4848 150.53V160.347C44.4846 160.571 44.3926 160.786 44.2291 160.945C44.0657 161.103 43.8441 161.193 43.6129 161.193V161.193Z" fill="white"/>
<path d="M56.2776 161.193H50.4793C50.277 161.193 50.0831 161.103 49.94 160.945C49.797 160.786 49.7165 160.571 49.7163 160.347V150.53C49.7165 150.305 49.797 150.09 49.94 149.932C50.0831 149.773 50.277 149.684 50.4793 149.683H56.2776C56.4799 149.684 56.6738 149.773 56.8168 149.932C56.9599 150.09 57.0403 150.305 57.0406 150.53V160.347C57.0403 160.571 56.9599 160.786 56.8168 160.945C56.6738 161.103 56.4799 161.193 56.2776 161.193V161.193Z" fill="white"/>
<path d="M64.3319 187.351H28.8228C28.2593 187.35 27.719 187.036 27.3205 186.477C26.922 185.918 26.6979 185.16 26.6973 184.369V128.599C26.6979 127.809 26.922 127.051 27.3205 126.492C27.719 125.933 28.2593 125.619 28.8228 125.618H64.3319C64.8955 125.619 65.4357 125.933 65.8342 126.492C66.2327 127.051 66.4568 127.809 66.4575 128.599V184.369C66.4568 185.16 66.2327 185.918 65.8342 186.477C65.4357 187.036 64.8955 187.35 64.3319 187.351V187.351Z" fill="#CCD3D3"/>
<path d="M43.6129 164.332H36.9862C36.755 164.331 36.5334 164.242 36.3699 164.084C36.2065 163.925 36.1145 163.71 36.1143 163.485V153.668C36.1145 153.444 36.2065 153.229 36.3699 153.07C36.5334 152.912 36.755 152.822 36.9862 152.822H43.6129C43.8441 152.822 44.0657 152.912 44.2291 153.07C44.3926 153.229 44.4846 153.444 44.4848 153.668V163.485C44.4846 163.71 44.3926 163.925 44.2291 164.084C44.0657 164.242 43.8441 164.331 43.6129 164.332V164.332Z" fill="white"/>
<path d="M56.2776 164.332H50.4793C50.277 164.331 50.0831 164.242 49.94 164.084C49.797 163.925 49.7165 163.71 49.7163 163.485V153.668C49.7165 153.444 49.797 153.229 49.94 153.07C50.0831 152.912 50.277 152.822 50.4793 152.822H56.2776C56.4799 152.822 56.6738 152.912 56.8168 153.07C56.9599 153.229 57.0403 153.444 57.0406 153.668V163.485C57.0403 163.71 56.9599 163.925 56.8168 164.084C56.6738 164.242 56.4799 164.331 56.2776 164.332V164.332Z" fill="white"/>
<path d="M43.6129 145.498H36.9862C36.755 145.498 36.5334 145.4 36.3699 145.227C36.2065 145.054 36.1145 144.819 36.1143 144.575V133.865C36.1145 133.621 36.2065 133.386 36.3699 133.213C36.5334 133.04 36.755 132.942 36.9862 132.942H43.6129C43.8441 132.942 44.0657 133.04 44.2291 133.213C44.3926 133.386 44.4846 133.621 44.4848 133.865V144.575C44.4846 144.819 44.3926 145.054 44.2291 145.227C44.0657 145.4 43.8441 145.498 43.6129 145.498V145.498Z" fill="white"/>
<path d="M56.2776 145.498H50.4793C50.277 145.498 50.0831 145.4 49.94 145.227C49.797 145.054 49.7165 144.819 49.7163 144.575V133.865C49.7165 133.621 49.797 133.386 49.94 133.213C50.0831 133.04 50.277 132.942 50.4793 132.942H56.2776C56.4799 132.942 56.6738 133.04 56.8168 133.213C56.9599 133.386 57.0403 133.621 57.0406 133.865V144.575C57.0403 144.819 56.9599 145.054 56.8168 145.227C56.6738 145.4 56.4799 145.498 56.2776 145.498V145.498Z" fill="white"/>
<path d="M43.6129 182.119H36.9862C36.755 182.119 36.5334 182.038 36.3699 181.894C36.2065 181.749 36.1145 181.554 36.1143 181.35V172.425C36.1145 172.221 36.2065 172.026 36.3699 171.882C36.5334 171.737 36.755 171.656 36.9862 171.656H43.6129C43.8441 171.656 44.0657 171.737 44.2291 171.882C44.3926 172.026 44.4846 172.221 44.4848 172.425V181.35C44.4846 181.554 44.3926 181.749 44.2291 181.894C44.0657 182.038 43.8441 182.119 43.6129 182.119V182.119Z" fill="white"/>
<path d="M56.2776 182.119H50.4793C50.277 182.119 50.0831 182.038 49.94 181.894C49.797 181.749 49.7165 181.554 49.7163 181.35V172.425C49.7165 172.221 49.797 172.026 49.94 171.882C50.0831 171.737 50.277 171.656 50.4793 171.656H56.2776C56.4799 171.656 56.6738 171.737 56.8168 171.882C56.9599 172.026 57.0403 172.221 57.0406 172.425V181.35C57.0403 181.554 56.9599 181.749 56.8168 181.894C56.6738 182.038 56.4799 182.119 56.2776 182.119Z" fill="white"/>
<path d="M273.636 129.845L272.681 129.906L272.178 129.939V128.766L272.839 128.651L273.248 128.579C273.248 128.579 274.513 124.97 275.727 125.626C276.941 126.282 273.636 129.845 273.636 129.845Z" fill="#714B4F"/>
<path opacity="0.1" d="M272.681 129.906L272.178 129.939V128.766L272.839 128.651C272.608 128.945 272.617 129.466 272.681 129.906Z" fill="black"/>
<path d="M288.884 110.76L286.742 133.898L277.115 136.474L267.515 133.898L265.376 110.76H288.884Z" fill="#E44D26"/>
<path d="M277.129 134.506L284.908 132.426L286.735 112.653H277.129V134.506Z" fill="#F16529"/>
<path d="M272.966 118.329H277.129V115.491H269.751L269.821 116.253L270.545 124.074H277.13V121.236H273.236L272.966 118.329ZM273.635 125.493H270.684L271.096 129.95L277.116 131.568H277.13V128.607H277.118L273.841 127.753L273.635 125.493Z" fill="#EBEBEB"/>
<path d="M262.926 101.401H265.356V103.696H267.578V101.401H270.008V108.355H267.578V106.027H265.356V108.355H262.926V101.401ZM273.203 103.707H271.063V101.401H277.773V103.707H275.633V108.355H273.205V103.707H273.203ZM278.839 101.401H281.374L282.934 103.845L284.491 101.401H287.026V108.355H284.606V104.908L282.934 107.381H282.893L281.219 104.908V108.355H278.839V101.401ZM288.234 101.401H290.664V106.055H294.09V108.353H288.241V101.401H288.234Z" fill="black"/>
<path d="M277.12 124.074H280.743L280.401 127.755L277.12 128.609V131.568L283.153 129.955L283.196 129.475L283.888 122.003L283.959 121.241H277.12V124.079V124.074ZM277.12 118.323V118.329H284.228L284.287 117.691L284.427 116.251L284.498 115.49H277.12V118.321V118.323Z" fill="white"/>
<path d="M348.454 108.785H373.066V133.397H348.454V108.785Z" fill="#F7DF1E"/>
<path d="M354.314 128.859L356.274 127.675C356.652 128.344 356.996 128.91 357.821 128.91C358.612 128.91 359.11 128.602 359.11 127.402V119.238H361.516V127.435C361.516 129.921 360.056 131.053 357.924 131.053C355.999 131.053 354.883 130.058 354.315 128.858L354.314 128.859ZM362.822 128.601L364.78 127.469C365.296 128.309 365.966 128.925 367.152 128.925C368.149 128.925 368.785 128.428 368.785 127.741C368.785 126.918 368.132 126.627 367.034 126.146L366.432 125.889C364.697 125.152 363.545 124.226 363.545 122.271C363.545 120.47 364.92 119.098 367.068 119.098C368.597 119.098 369.694 119.63 370.487 121.019L368.614 122.219C368.202 121.482 367.755 121.19 367.068 121.19C366.363 121.19 365.916 121.636 365.916 122.219C365.916 122.94 366.362 123.231 367.393 123.676L367.995 123.933C370.038 124.807 371.191 125.699 371.191 127.706C371.191 129.867 369.49 131.05 367.203 131.05C364.965 131.05 363.525 129.982 362.825 128.598" fill="black"/>
<path d="M334.568 132.852L333.806 132.989L334.29 133.924L334.81 134.2L335.294 134.545L335.432 134.166L335.086 133.439L334.568 132.852Z" fill="#FDC2CC"/>
<path d="M334.013 132.921H333.599V133.509L334.013 134.442C334.013 134.442 334.567 134.546 334.602 134.546C334.637 134.546 335.086 134.442 335.086 134.442L335.225 134.201C335.225 134.201 333.702 133.611 334.013 132.921Z" fill="#E6E6F0"/>
<path d="M321.831 135.858L312.405 133.247L310.305 109.712H333.384L331.282 133.243L321.831 135.858Z" fill="#264DE4"/>
<path d="M329.482 131.746L331.279 111.638H321.847V133.857L329.482 131.746Z" fill="#2965F1"/>
<path d="M315.126 120.362L315.385 123.248H321.851V120.362H315.126ZM314.605 114.52L314.868 117.406H321.85V114.52H314.6H314.605ZM321.85 127.859H321.837L318.619 126.99L318.413 124.688H315.508L315.912 129.22L321.831 130.865H321.844L321.85 127.859Z" fill="#EBEBEB"/>
<path d="M311.492 100.786H317.422V103.126H313.971V105.466H317.422V107.806H311.492V100.786ZM318.618 100.786H324.548V102.821H321.089V103.228H324.54V107.908H318.608V105.771H322.059V105.364H318.608V100.786H318.618ZM325.744 100.786H331.673V102.821H328.205V103.228H331.656V107.908H325.724V105.771H329.175V105.364H325.724V100.786H325.744Z" fill="black"/>
<path d="M328.551 120.362L329.073 114.52H321.831V117.406H325.902L325.64 120.358H321.831V123.244H325.389L325.048 126.99L321.831 127.861V130.864L327.753 129.223L327.797 128.735L328.479 121.136L328.549 120.36L328.551 120.362Z" fill="white"/>
<g clip-path="url(#clip1_941:27)">
<path d="M286.476 67.1382C286.167 67.0306 285.855 66.9309 285.54 66.8391C285.592 66.6241 285.64 66.408 285.685 66.1908C286.394 62.6998 285.93 59.8874 284.348 58.9619C282.831 58.0738 280.35 58.9998 277.843 61.2124C277.596 61.4315 277.355 61.6563 277.119 61.8868C276.961 61.7332 276.8 61.5827 276.637 61.4351C274.011 59.0687 271.381 58.0719 269.798 59.0003C268.282 59.8908 267.833 62.5345 268.471 65.8432C268.534 66.1709 268.605 66.4967 268.686 66.8205C268.314 66.9279 267.954 67.0423 267.61 67.1644C264.531 68.2514 262.564 69.9611 262.564 71.732C262.564 73.5608 264.676 75.3954 267.883 76.5076C268.143 76.5972 268.405 76.6805 268.669 76.7574C268.583 77.1056 268.507 77.4568 268.44 77.8107C267.832 81.0619 268.308 83.6435 269.819 84.5282C271.381 85.4429 274.001 84.5026 276.553 82.2392C276.755 82.0601 276.957 81.8702 277.161 81.6717C277.416 81.9215 277.678 82.164 277.947 82.3992C280.419 84.5577 282.861 85.4296 284.371 84.542C285.93 83.6259 286.437 80.8525 285.779 77.4788C285.729 77.221 285.671 76.9581 285.605 76.69C285.789 76.6349 285.969 76.5777 286.146 76.5185C289.479 75.3977 291.649 73.5855 291.649 71.732C291.649 69.9544 289.619 68.2357 286.478 67.1382H286.476Z" fill="#53C1DE"/>
<path d="M270.06 77.3616C270.004 77.6041 269.953 77.8476 269.907 78.0921C269.65 79.4615 269.619 80.6451 269.758 81.5429C269.9 82.4574 270.208 83.0109 270.566 83.2201L270.06 77.3616ZM270.06 77.3616C271.247 77.6097 272.447 77.7835 273.655 77.882C274.36 78.8868 275.123 79.8479 275.942 80.7601C275.819 80.8766 275.695 80.9909 275.569 81.103C274.457 82.0899 273.353 82.7781 272.395 83.1228C271.52 83.4362 270.899 83.415 270.566 83.2202L270.06 77.3616ZM269.941 65.5775C269.982 65.7904 270.027 66.0025 270.076 66.2137C271.25 65.9587 272.437 65.774 273.633 65.6606C274.331 64.6616 275.088 63.7063 275.9 62.7999C275.815 62.7194 275.73 62.6409 275.645 62.5646L275.645 62.5645C274.526 61.5564 273.445 60.8604 272.536 60.4867C271.608 60.1055 270.926 60.0855 270.547 60.3078L269.941 65.5775ZM269.941 65.5775V65.5771L269.936 65.5536C269.666 64.1555 269.624 62.9411 269.755 62.0198C269.89 61.0794 270.194 60.5145 270.547 60.3078L269.941 65.5775ZM283.602 60.2699L283.602 60.2699C283.25 60.0642 282.619 60.078 281.75 60.4289C280.899 60.7727 279.884 61.4159 278.826 62.3507C278.661 62.4969 278.498 62.6462 278.338 62.7987C279.145 63.7055 279.897 64.6617 280.589 65.6617C281.786 65.7768 282.976 65.9648 284.151 66.2248C284.176 66.1123 284.201 65.9998 284.224 65.887L283.602 60.2699ZM283.602 60.2699C283.983 60.493 284.308 61.1051 284.445 62.1127M283.602 60.2699L284.445 62.1127M265.056 73.2976C265.828 73.9679 266.968 74.5934 268.366 75.0783L265.056 73.2976ZM265.056 73.2976C264.352 72.6856 264.057 72.1263 264.057 71.732C264.057 71.3106 264.376 70.7633 265.084 70.183C265.779 69.6126 266.805 69.0494 268.102 68.5906C268.351 68.5027 268.602 68.4206 268.854 68.3445C269.222 69.5093 269.659 70.6507 270.162 71.7624C269.652 72.8911 269.21 74.0498 268.837 75.2322C268.679 75.1836 268.522 75.1323 268.366 75.0784L265.056 73.2976ZM281.846 67.5884C282.054 67.9293 282.257 68.2733 282.455 68.6203C282.455 68.6204 282.455 68.6204 282.455 68.6205L282.238 68.7443L281.846 67.5884ZM281.846 67.5884C282.482 67.6816 283.096 67.7934 283.685 67.9229C283.493 68.5199 283.28 69.1097 283.047 69.6914L281.846 67.5884ZM284.445 62.1127C284.581 63.1004 284.526 64.3992 284.224 65.8864L284.445 62.1127ZM285.673 75.0848L285.673 75.0849C285.592 75.1122 285.51 75.1389 285.427 75.1653C285.044 73.9951 284.59 72.85 284.068 71.7368C284.569 70.6404 285.005 69.5142 285.372 68.3643C285.583 68.4292 285.789 68.4966 285.989 68.5667L285.989 68.5667C287.316 69.03 288.372 69.6004 289.091 70.177C289.824 70.7649 290.155 71.3156 290.155 71.732C290.155 72.181 289.793 72.7717 289.004 73.3951C288.229 74.0069 287.093 74.6074 285.673 75.0848ZM284.216 77.3057C284.247 77.4439 284.277 77.5801 284.304 77.7143L284.303 77.7175L284.313 77.7717C284.601 79.2428 284.638 80.5587 284.453 81.573C284.284 82.4997 283.955 83.0381 283.621 83.2346C283.265 83.4433 282.642 83.4385 281.792 83.1075C280.957 82.7824 279.963 82.1642 278.921 81.2544C278.739 81.0951 278.555 80.9277 278.371 80.7521C279.173 79.8366 279.918 78.872 280.603 77.8636C281.818 77.7541 283.024 77.5678 284.216 77.3057ZM275.914 65.513C276.312 65.0003 276.714 64.5152 277.119 64.0622C277.534 64.5315 277.933 65.0154 278.315 65.5132C277.515 65.4866 276.715 65.4866 275.914 65.513ZM271.541 69.0029H271.545C271.421 69.228 271.298 69.4544 271.178 69.682C270.941 69.081 270.73 68.4888 270.546 67.9107C271.13 67.7845 271.74 67.6762 272.37 67.5852C272.159 67.93 271.953 68.278 271.754 68.6294L271.541 69.0029ZM272.4 75.9764C271.773 75.8946 271.15 75.7897 270.531 75.6621C270.719 75.069 270.937 74.4597 271.181 73.8409C271.369 74.1956 271.562 74.5472 271.76 74.8956C271.967 75.2596 272.18 75.6199 272.4 75.9764ZM278.353 78.0034C277.97 78.513 277.57 79.0085 277.152 79.4888C276.739 79.0277 276.327 78.5324 275.922 78.0071C276.312 78.0178 276.707 78.0232 277.107 78.0232C277.526 78.0232 277.941 78.0166 278.353 78.0034ZM280.956 73.9946L280.955 73.9966L280.948 74.0097C280.53 74.7455 280.09 75.4678 279.629 76.1767C278.81 76.2332 277.966 76.2623 277.107 76.2623C276.247 76.2623 275.416 76.2367 274.612 76.1862C274.139 75.4796 273.691 74.7563 273.268 74.0162C272.845 73.2753 272.451 72.5238 272.087 71.7619C272.453 70.9962 272.846 70.2442 273.265 69.5061L273.265 69.506C273.683 68.769 274.127 68.0481 274.597 67.3433C275.418 67.2832 276.257 67.2519 277.106 67.2519C277.954 67.2519 278.798 67.2836 279.618 67.3437C280.083 68.0465 280.526 68.7647 280.946 69.4982C281.366 70.2324 281.763 70.9808 282.138 71.7434C281.77 72.5072 281.376 73.2575 280.956 73.9946ZM283.061 73.7856C283.31 74.3854 283.536 74.9942 283.74 75.611C283.109 75.748 282.474 75.8611 281.835 75.9501C282.047 75.5984 282.255 75.2438 282.459 74.8863C282.665 74.5226 282.866 74.1556 283.061 73.7856Z" fill="#E8EFF0" stroke="#53C1DE" stroke-width="0.5"/>
<path d="M277.106 69.0963C277.619 69.0963 278.121 69.2509 278.549 69.5405C278.976 69.8301 279.309 70.2418 279.505 70.7234C279.702 71.205 279.753 71.7349 279.653 72.2462C279.553 72.7575 279.305 73.2271 278.942 73.5957C278.579 73.9644 278.116 74.2154 277.612 74.3171C277.108 74.4188 276.586 74.3666 276.112 74.1671C275.637 73.9676 275.231 73.6298 274.946 73.1963C274.661 72.7629 274.508 72.2533 274.508 71.732C274.508 71.3859 274.575 71.0431 274.706 70.7233C274.836 70.4035 275.028 70.1129 275.269 69.8682C275.51 69.6234 275.796 69.4293 276.112 69.2968C276.427 69.1644 276.764 69.0963 277.106 69.0963" fill="#53C1DE"/>
</g>
<path d="M182.992 116.075C182.992 116.075 186.88 122.257 185.492 123.931C184.103 125.605 195.909 125.646 195.909 125.646C195.909 125.646 194.135 116.654 194.657 114.584L182.992 116.075Z" fill="#FFB8B8"/>
<path d="M188.254 118.44C194.691 118.44 199.91 113.597 199.91 107.623C199.91 101.649 194.691 96.8062 188.254 96.8062C181.817 96.8062 176.599 101.649 176.599 107.623C176.599 113.597 181.817 118.44 188.254 118.44Z" fill="#2F2E41"/>
<path d="M217.878 172.341V179.586L225.105 178.077L224.503 172.945L217.878 172.341Z" fill="#FFB8B8"/>
<path d="M243.474 173.548L259.768 178.277L258.724 182.456C258.724 182.456 244.378 179.586 240.764 179.586C237.151 179.586 243.474 173.548 243.474 173.548Z" fill="#FFB8B8"/>
<path d="M197.703 159.057C197.703 159.057 212.759 141.547 217.577 142.453C222.395 143.359 224.503 148.793 224.503 148.793L227.213 175.662C227.213 175.662 217.577 176.567 217.577 175.662C217.577 174.756 215.77 155.434 215.77 155.434C215.77 155.434 201.618 186.832 194.089 166.001L197.703 159.057Z" fill="#515978"/>
<path d="M173.312 170.831C173.312 170.831 173.613 186.648 182.646 187.553C191.68 188.459 201.617 180.794 201.617 180.794L217.878 172.984C217.878 172.984 237.15 183.209 242.872 180.492C242.872 180.492 248.894 174.152 244.98 172.341C241.065 170.53 244.679 172.341 244.679 172.341L221.492 160.265C221.492 160.265 216.975 159.057 209.146 162.378C201.316 165.699 190.777 167.209 190.777 167.209L173.312 170.831Z" fill="#515978"/>
<path d="M201.316 135.509L200.714 148.189C200.714 148.189 201.015 164.793 198.305 166.001C196.935 166.611 194.183 167.836 191.638 169.177C189.729 170.179 187.937 171.242 186.937 172.157C186.672 172.383 186.444 172.648 186.26 172.945C185.055 175.058 177.226 174.756 175.419 173.246C173.613 171.737 174.817 175.058 173.311 175.662C171.854 176.247 169.833 171.459 171.071 164.31C171.11 164.072 171.155 163.83 171.203 163.586C172.586 156.657 170.415 140.062 170.749 133.65C170.768 133.16 170.82 132.672 170.902 132.188C171.806 127.358 183.333 117.528 185.489 121.716C188.145 126.884 194.246 122.162 195.294 119.811C201.316 119.509 203.424 126.754 203.424 126.754L201.316 135.509Z" fill="#A43E8A"/>
<path d="M224.364 178.277C224.364 178.277 220.252 179.858 218.967 179.594C217.682 179.331 216.397 180.385 216.397 181.965C216.397 183.546 214.855 187.234 217.168 187.497C219.481 187.76 228.99 187.234 231.046 188.024C231.046 188.024 240.297 188.287 239.527 184.336C238.756 180.385 234.901 180.648 234.901 180.648C234.901 180.648 224.364 180.121 224.364 178.277Z" fill="#082D32"/>
<path d="M249.22 176.304C249.22 176.304 249.758 174.795 250.565 174.795C251.372 174.795 257.828 175.801 258.635 175.55C259.442 175.298 268.857 174.795 267.243 179.071C265.629 183.346 260.249 183.849 260.249 183.849C260.249 183.849 256.634 183.501 249.22 182.456C247.796 182.255 245.381 181.624 246.188 180.367C246.995 179.109 249.758 178.316 249.22 176.304Z" fill="#082D32"/>
<path d="M234.405 134.411L236.245 141.243C236.265 141.32 236.262 141.399 236.235 141.474L227.891 164.953C227.858 165.046 227.791 165.126 227.7 165.179C227.609 165.233 227.501 165.257 227.393 165.247C227.285 165.238 227.184 165.195 227.107 165.126C227.03 165.058 226.981 164.968 226.969 164.871L225.815 155.724C225.807 155.664 225.814 155.602 225.835 155.544L233.494 134.38C233.526 134.291 233.589 134.215 233.674 134.162C233.758 134.109 233.86 134.082 233.963 134.085C234.066 134.089 234.165 134.123 234.245 134.182C234.325 134.24 234.381 134.321 234.405 134.411V134.411Z" fill="#082D32"/>
<path d="M234.082 135.73L235.123 141.255L228.454 160.912L227.449 154.676L234.082 135.73Z" fill="white"/>
<path d="M199.619 166.846C199.874 167.611 226.058 166.591 226.312 166.337C226.533 166.017 226.721 165.676 226.871 165.317C227.11 164.807 227.329 164.298 227.329 164.298L226.312 156.045L200.382 155.123C200.382 155.123 199.734 162.116 199.602 165.317C199.557 165.826 199.563 166.338 199.619 166.846V166.846Z" fill="#082D32"/>
<path opacity="0.1" d="M223.007 157.161L223.516 164.298H212.076V157.161H223.007Z" fill="#011012"/>
<path opacity="0.1" d="M208.263 159.455L208.331 159.442L208.009 162.513H201.653V159.455H208.263Z" fill="black"/>
<path opacity="0.1" d="M199.619 166.846C199.874 167.611 226.058 166.591 226.312 166.336C226.533 166.017 226.721 165.676 226.871 165.317H199.602C199.557 165.826 199.563 166.338 199.619 166.846V166.846Z" fill="black"/>
<path opacity="0.1" d="M191.638 169.177C190.894 170.587 190.021 172.051 189.873 172.643C189.774 173.044 188.672 172.812 186.937 172.157C183.459 170.837 177.431 167.815 171.806 164.793C171.547 164.655 171.301 164.494 171.071 164.31C171.11 164.072 171.155 163.83 171.204 163.586C172.586 156.657 170.415 140.062 170.749 133.649L173.311 132.792L178.431 137.622V158.152C178.431 158.152 191.68 165.397 192.584 166.001C193.044 166.309 192.409 167.713 191.638 169.177Z" fill="black"/>
<path d="M202.822 152.717L210.953 156.944C210.953 156.944 215.771 151.812 218.782 155.736C221.793 159.661 210.049 160.869 210.049 160.869C210.049 160.869 199.811 158.453 199.51 155.132C199.209 151.812 202.822 152.717 202.822 152.717Z" fill="#FFB8B8"/>
<path d="M189.272 163.888L194.09 165.095C194.09 165.095 199.51 158.453 205.231 160.869C210.953 163.284 198.004 168.114 198.004 168.114C198.004 168.114 191.078 171.737 188.368 168.718C185.658 165.699 189.272 163.888 189.272 163.888Z" fill="#FFB8B8"/>
<path d="M199.811 124.037C200.112 124.339 203.424 126.754 203.424 126.754C203.424 126.754 204.328 138.226 203.123 140.642C201.919 143.057 201.015 143.057 201.919 144.264C202.822 145.472 204.027 144.566 202.822 146.679C201.618 148.793 200.413 148.491 201.316 149.397C202.22 150.302 201.919 150.604 201.919 150.604L205.532 153.623C205.532 153.623 203.315 157.163 200.509 156.903C197.703 156.642 195.294 143.057 195.294 143.057L199.811 124.037Z" fill="#922276"/>
<path d="M173.312 131.283L170.602 132.188C170.602 132.188 163.375 158.755 171.806 163.284C180.238 167.812 189.573 172.341 189.874 171.133C190.175 169.925 193.487 165.095 192.584 164.491C191.68 163.887 178.431 156.642 178.431 156.642V136.113L173.312 131.283Z" fill="#922276"/>
<path opacity="0.1" d="M177.377 142.302L176.775 156.793L192.735 164.341L177.979 156.793L177.377 142.302Z" fill="black"/>
<path d="M189.358 118.504C193.804 118.504 197.409 114.499 197.409 109.558C197.409 104.618 193.804 100.613 189.358 100.613C184.912 100.613 181.307 104.618 181.307 109.558C181.307 114.499 184.912 118.504 189.358 118.504Z" fill="#FFB8B8"/>
<path d="M185.021 117.441C186.007 116.554 184.138 113.706 184.004 111.944C183.87 110.182 185.62 108.927 186.284 107.487C187.077 105.767 188.67 105.733 190.028 105.677C191.385 105.621 193.039 105.001 193.39 102.956C193.623 101.604 193.126 100.154 192.412 99.3057C191.698 98.4574 190.805 98.0823 189.938 97.7259C187.996 96.9285 185.992 96.1245 184.004 96.5627C182.035 96.9968 180.255 98.622 179.049 101.087C177.843 103.552 177.308 106.658 177.559 109.733C177.881 113.667 178.348 115.385 178.041 117.119C177.471 120.35 175.011 122.425 174.962 125.776C174.924 128.396 176.408 130.418 177.857 131.748C179.006 132.804 180.246 133.699 181.57 133.946C182.894 134.193 184.319 133.72 185.305 132.321C186.578 130.516 186.892 127.501 186.527 124.881C186.163 122.26 185.227 119.933 184.301 117.673" fill="#2F2E41"/>
<defs>
<clipPath id="clip0_941:27">
<rect width="75.3351" height="94.1689" fill="white" transform="translate(304.937)"/>
</clipPath>
<clipPath id="clip1_941:27">
<rect width="29.25" height="26.4643" fill="white" transform="translate(262.554 58.4915)"/>
</clipPath>
</defs>
</svg>
