<svg width="471" height="215" viewBox="0 0 471 215" fill="none" xmlns="http://www.w3.org/2000/svg">
<path d="M3.04008 168.325C-6.38523 150.103 3.04007 50.4002 75.4923 50.4002C147.945 50.4002 202.45 -10.4841 253.555 27.44C287.833 52.8767 277.234 72.2322 272.006 95.6363C255.935 170.23 246.947 221.214 163.898 209.211C106.942 201.263 40.9251 244.034 3.04008 168.325Z" fill="#EBF6F8"/>
<path d="M107.895 150.727C107.895 143.396 101.851 126 94.395 126C86.9392 126 80.895 143.396 80.895 150.727C80.8977 154.248 82.3212 157.624 84.8527 160.113C87.3841 162.602 90.8164 164 94.395 164C97.9737 164 101.406 162.602 103.937 160.113C106.469 157.624 107.892 154.248 107.895 150.727Z" fill="#CCD3D3"/>
<path d="M94.395 184C94.4606 184 94.5257 183.997 94.5863 183.992C94.647 183.986 94.7021 183.978 94.7485 183.967C94.7949 183.957 94.8318 183.945 94.8569 183.931C94.882 183.918 94.895 183.903 94.895 183.889V137.111C94.8945 137.082 94.8416 137.053 94.7479 137.033C94.6542 137.012 94.5273 137 94.395 137C94.2627 137 94.1358 137.012 94.0421 137.033C93.9484 137.053 93.8955 137.082 93.895 137.111V183.889C93.895 183.903 93.908 183.918 93.9331 183.931C93.9583 183.945 93.9951 183.957 94.0415 183.967C94.088 183.978 94.1431 183.986 94.2037 183.992C94.2644 183.997 94.3294 184 94.395 184Z" fill="#3F3D56"/>
<path d="M94.0147 146C94.0304 146 94.046 145.997 94.0605 145.991C94.075 145.985 94.0882 145.976 94.0993 145.965L99.86 140.204C99.8824 140.182 99.895 140.151 99.895 140.12C99.895 140.088 99.8824 140.058 99.8599 140.035C99.8375 140.013 99.8071 140 99.7753 140C99.7436 140 99.7132 140.013 99.6908 140.035L93.93 145.796C93.9133 145.813 93.9019 145.834 93.8973 145.857C93.8927 145.88 93.8951 145.904 93.9041 145.926C93.9132 145.948 93.9285 145.967 93.9482 145.98C93.9679 145.993 93.991 146 94.0147 146L94.0147 146Z" fill="#3F3D56"/>
<path d="M94.774 155C94.7979 155 94.8213 154.994 94.8412 154.982C94.8611 154.97 94.8766 154.953 94.8858 154.933C94.895 154.913 94.8974 154.891 94.8927 154.87C94.888 154.849 94.8765 154.829 94.8596 154.814L85.1016 146.032C85.079 146.012 85.0482 146 85.0161 146C84.984 146 84.9532 146.012 84.9305 146.032C84.9078 146.052 84.895 146.08 84.895 146.109C84.895 146.138 84.9077 146.166 84.9304 146.186L94.6884 154.968C94.6996 154.978 94.713 154.986 94.7277 154.992C94.7423 154.997 94.7581 155 94.774 155Z" fill="#3F3D56"/>
<path d="M102.81 186.957C102.791 186.972 102.77 186.985 102.751 187H86.1764C85.8517 185.674 85.737 184.347 86.2221 183.194C86.9133 181.552 88.9589 180.527 90.5851 181.232C90.9704 181.404 91.306 181.671 91.5605 182.01C92.196 180.863 93.336 179.999 94.6519 180C96.3005 180.001 97.6712 181.36 98.1185 182.929C98.8389 181.704 100.262 180.848 101.652 181.216C103.978 181.832 104.713 185.475 102.81 186.957Z" fill="#F2F2F2"/>
<mask id="mask0" mask-type="alpha" maskUnits="userSpaceOnUse" x="274" y="0" width="179" height="142">
<path fill-rule="evenodd" clip-rule="evenodd" d="M421.512 120.807C385.769 143.917 313.699 152.033 285.689 122.678C257.68 93.3203 284.331 37.6086 320.055 14.4978C355.798 -8.61291 407.479 -3.54948 435.488 25.8063C463.498 55.1637 457.236 97.6959 421.512 120.807Z" fill="white"/>
</mask>
<g mask="url(#mask0)">
<path fill-rule="evenodd" clip-rule="evenodd" d="M282.917 6.64108C282.917 8.43913 280.238 9.89714 278.05 9.89714C275.863 9.89714 274.108 8.43913 274.108 6.64108C274.108 4.84303 275.863 2.24066 278.05 2.24066C280.238 2.24066 282.917 4.84303 282.917 6.64108Z" fill="#FFB017"/>
<path fill-rule="evenodd" clip-rule="evenodd" d="M301.137 6.64108C301.137 8.43913 298.459 9.89714 296.29 9.89714C294.102 9.89714 292.329 8.43913 292.329 6.64108C292.329 4.84303 294.102 2.24066 296.29 2.24066C298.459 2.24066 301.137 4.84303 301.137 6.64108Z" fill="#FFB017"/>
<path fill-rule="evenodd" clip-rule="evenodd" d="M319.358 6.64108C319.358 8.43913 316.698 9.89714 314.51 9.89714C312.322 9.89714 310.549 8.43913 310.549 6.64108C310.549 4.84303 312.322 2.24066 314.51 2.24066C316.698 2.24066 319.358 4.84303 319.358 6.64108Z" fill="#FFB017"/>
<path fill-rule="evenodd" clip-rule="evenodd" d="M374.056 6.64108C374.056 8.43913 371.377 9.89714 369.189 9.89714C367.002 9.89714 365.229 8.43913 365.229 6.64108C365.229 4.84303 367.002 2.24066 369.189 2.24066C371.377 2.24066 374.056 4.84303 374.056 6.64108Z" fill="#FFB017"/>
<path fill-rule="evenodd" clip-rule="evenodd" d="M428.736 6.64108C428.736 8.43913 426.057 9.89714 423.869 9.89714C421.7 9.89714 419.927 8.43913 419.927 6.64108C419.927 4.84303 421.7 2.24066 423.869 2.24066C426.057 2.24066 428.736 4.84303 428.736 6.64108Z" fill="#FFB017"/>
<path fill-rule="evenodd" clip-rule="evenodd" d="M446.956 6.64108C446.956 8.43913 444.296 9.89714 442.108 9.89714C439.92 9.89714 438.147 8.43913 438.147 6.64108C438.147 4.84303 439.92 2.24066 442.108 2.24066C444.296 2.24066 446.956 4.84303 446.956 6.64108Z" fill="#FFB017"/>
<path fill-rule="evenodd" clip-rule="evenodd" d="M282.917 20.4231C282.917 22.2212 280.238 23.6792 278.05 23.6792C275.863 23.6792 274.108 22.2212 274.108 20.4231C274.108 18.6251 275.863 16.0227 278.05 16.0227C280.238 16.0227 282.917 18.6251 282.917 20.4231Z" fill="#FFB017"/>
<path fill-rule="evenodd" clip-rule="evenodd" d="M301.137 20.4231C301.137 22.2212 298.459 23.6792 296.29 23.6792C294.102 23.6792 292.329 22.2212 292.329 20.4231C292.329 18.6251 294.102 16.0227 296.29 16.0227C298.459 16.0227 301.137 18.6251 301.137 20.4231Z" fill="#FFB017"/>
<path fill-rule="evenodd" clip-rule="evenodd" d="M337.597 20.4231C337.597 22.2212 334.919 23.6792 332.731 23.6792C330.562 23.6792 328.789 22.2212 328.789 20.4231C328.789 18.6251 330.562 16.0227 332.731 16.0227C334.919 16.0227 337.597 18.6251 337.597 20.4231Z" fill="#FFB017"/>
<path fill-rule="evenodd" clip-rule="evenodd" d="M355.817 20.4231C355.817 22.2212 353.158 23.6792 350.97 23.6792C348.782 23.6792 347.009 22.2212 347.009 20.4231C347.009 18.6251 348.782 16.0227 350.97 16.0227C353.158 16.0227 355.817 18.6251 355.817 20.4231Z" fill="#FFB017"/>
<path fill-rule="evenodd" clip-rule="evenodd" d="M374.056 20.4231C374.056 22.2212 371.377 23.6792 369.189 23.6792C367.002 23.6792 365.229 22.2212 365.229 20.4231C365.229 18.6251 367.002 16.0227 369.189 16.0227C371.377 16.0227 374.056 18.6251 374.056 20.4231Z" fill="#FFB017"/>
<path fill-rule="evenodd" clip-rule="evenodd" d="M446.956 20.4231C446.956 22.2212 444.296 23.6792 442.108 23.6792C439.92 23.6792 438.147 22.2212 438.147 20.4231C438.147 18.6251 439.92 16.0227 442.108 16.0227C444.296 16.0227 446.956 18.6251 446.956 20.4231Z" fill="#FFB017"/>
<path fill-rule="evenodd" clip-rule="evenodd" d="M282.917 34.205C282.917 36.0031 280.238 37.4611 278.05 37.4611C275.863 37.4611 274.108 36.0031 274.108 34.205C274.108 32.407 275.863 29.8046 278.05 29.8046C280.238 29.8046 282.917 32.407 282.917 34.205Z" fill="#FFB017"/>
<path fill-rule="evenodd" clip-rule="evenodd" d="M319.358 34.205C319.358 36.0031 316.698 37.4611 314.51 37.4611C312.322 37.4611 310.549 36.0031 310.549 34.205C310.549 32.407 312.322 29.8046 314.51 29.8046C316.698 29.8046 319.358 32.407 319.358 34.205Z" fill="#FFB017"/>
<path fill-rule="evenodd" clip-rule="evenodd" d="M337.597 34.205C337.597 36.0031 334.919 37.4611 332.731 37.4611C330.562 37.4611 328.789 36.0031 328.789 34.205C328.789 32.407 330.562 29.8046 332.731 29.8046C334.919 29.8046 337.597 32.407 337.597 34.205Z" fill="#FFB017"/>
<path fill-rule="evenodd" clip-rule="evenodd" d="M355.817 34.205C355.817 36.0031 353.158 37.4611 350.97 37.4611C348.782 37.4611 347.009 36.0031 347.009 34.205C347.009 32.407 348.782 29.8046 350.97 29.8046C353.158 29.8046 355.817 32.407 355.817 34.205Z" fill="#FFB017"/>
<path fill-rule="evenodd" clip-rule="evenodd" d="M374.056 34.205C374.056 36.0031 371.377 37.4611 369.189 37.4611C367.002 37.4611 365.229 36.0031 365.229 34.205C365.229 32.407 367.002 29.8046 369.189 29.8046C371.377 29.8046 374.056 32.407 374.056 34.205Z" fill="#FFB017"/>
<path fill-rule="evenodd" clip-rule="evenodd" d="M392.277 34.205C392.277 36.0031 389.598 37.4611 387.429 37.4611C385.241 37.4611 383.468 36.0031 383.468 34.205C383.468 32.407 385.241 29.8046 387.429 29.8046C389.598 29.8046 392.277 32.407 392.277 34.205Z" fill="#FFB017"/>
<path fill-rule="evenodd" clip-rule="evenodd" d="M410.496 34.205C410.496 36.0031 407.837 37.4611 405.649 37.4611C403.461 37.4611 401.688 36.0031 401.688 34.205C401.688 32.407 403.461 29.8046 405.649 29.8046C407.837 29.8046 410.496 32.407 410.496 34.205Z" fill="#FFB017"/>
<path fill-rule="evenodd" clip-rule="evenodd" d="M282.917 47.987C282.917 49.7851 280.238 51.2431 278.05 51.2431C275.863 51.2431 274.108 49.7851 274.108 47.987C274.108 46.189 275.863 43.5866 278.05 43.5866C280.238 43.5866 282.917 46.189 282.917 47.987Z" fill="#FFB017"/>
<path fill-rule="evenodd" clip-rule="evenodd" d="M301.137 47.987C301.137 49.7851 298.459 51.2431 296.29 51.2431C294.102 51.2431 292.329 49.7851 292.329 47.987C292.329 46.189 294.102 43.5866 296.29 43.5866C298.459 43.5866 301.137 46.189 301.137 47.987Z" fill="#FFB017"/>
<path fill-rule="evenodd" clip-rule="evenodd" d="M319.358 47.987C319.358 49.7851 316.698 51.2431 314.51 51.2431C312.322 51.2431 310.549 49.7851 310.549 47.987C310.549 46.189 312.322 43.5866 314.51 43.5866C316.698 43.5866 319.358 46.189 319.358 47.987Z" fill="#FFB017"/>
<path fill-rule="evenodd" clip-rule="evenodd" d="M337.597 47.987C337.597 49.7851 334.919 51.2431 332.731 51.2431C330.562 51.2431 328.789 49.7851 328.789 47.987C328.789 46.189 330.562 43.5866 332.731 43.5866C334.919 43.5866 337.597 46.189 337.597 47.987Z" fill="#FFB017"/>
<path fill-rule="evenodd" clip-rule="evenodd" d="M355.817 47.987C355.817 49.7851 353.158 51.2431 350.97 51.2431C348.782 51.2431 347.009 49.7851 347.009 47.987C347.009 46.189 348.782 43.5866 350.97 43.5866C353.158 43.5866 355.817 46.189 355.817 47.987Z" fill="#FFB017"/>
<path fill-rule="evenodd" clip-rule="evenodd" d="M374.056 47.987C374.056 49.7851 371.377 51.2431 369.189 51.2431C367.002 51.2431 365.229 49.7851 365.229 47.987C365.229 46.189 367.002 43.5866 369.189 43.5866C371.377 43.5866 374.056 46.189 374.056 47.987Z" fill="#FFB017"/>
<path fill-rule="evenodd" clip-rule="evenodd" d="M392.277 47.987C392.277 49.7851 389.598 51.2431 387.429 51.2431C385.241 51.2431 383.468 49.7851 383.468 47.987C383.468 46.189 385.241 43.5866 387.429 43.5866C389.598 43.5866 392.277 46.189 392.277 47.987Z" fill="#FFB017"/>
<path fill-rule="evenodd" clip-rule="evenodd" d="M410.496 47.987C410.496 49.7851 407.837 51.2431 405.649 51.2431C403.461 51.2431 401.688 49.7851 401.688 47.987C401.688 46.189 403.461 43.5866 405.649 43.5866C407.837 43.5866 410.496 46.189 410.496 47.987Z" fill="#FFB017"/>
<path fill-rule="evenodd" clip-rule="evenodd" d="M428.736 47.987C428.736 49.7851 426.057 51.2431 423.869 51.2431C421.7 51.2431 419.927 49.7851 419.927 47.987C419.927 46.189 421.7 43.5866 423.869 43.5866C426.057 43.5866 428.736 46.189 428.736 47.987Z" fill="#FFB017"/>
<path fill-rule="evenodd" clip-rule="evenodd" d="M446.956 47.987C446.956 49.7851 444.296 51.2431 442.108 51.2431C439.92 51.2431 438.147 49.7851 438.147 47.987C438.147 46.189 439.92 43.5866 442.108 43.5866C444.296 43.5866 446.956 46.189 446.956 47.987Z" fill="#FFB017"/>
<path fill-rule="evenodd" clip-rule="evenodd" d="M392.277 20.9882C392.277 22.7863 389.598 24.2443 387.429 24.2443C385.241 24.2443 383.468 22.7863 383.468 20.9882C383.468 19.1902 385.241 16.5878 387.429 16.5878C389.598 16.5878 392.277 19.1902 392.277 20.9882Z" fill="#FFB017"/>
<path fill-rule="evenodd" clip-rule="evenodd" d="M410.496 20.9882C410.496 22.7863 407.837 24.2443 405.649 24.2443C403.461 24.2443 401.688 22.7863 401.688 20.9882C401.688 19.1902 403.461 16.5878 405.649 16.5878C407.837 16.5878 410.496 19.1902 410.496 20.9882Z" fill="#FFB017"/>
<path fill-rule="evenodd" clip-rule="evenodd" d="M428.736 34.7702C428.736 36.5683 426.057 38.0263 423.869 38.0263C421.7 38.0263 419.927 36.5683 419.927 34.7702C419.927 32.9722 421.7 30.3698 423.869 30.3698C426.057 30.3698 428.736 32.9722 428.736 34.7702Z" fill="#FFB017"/>
<path fill-rule="evenodd" clip-rule="evenodd" d="M301.137 61.769C301.137 63.567 298.459 65.025 296.29 65.025C294.102 65.025 292.329 63.567 292.329 61.769C292.329 59.9709 294.102 57.367 296.29 57.367C298.459 57.367 301.137 59.9709 301.137 61.769Z" fill="#FFB017"/>
<path fill-rule="evenodd" clip-rule="evenodd" d="M319.358 61.769C319.358 63.567 316.698 65.025 314.51 65.025C312.322 65.025 310.549 63.567 310.549 61.769C310.549 59.9709 312.322 57.367 314.51 57.367C316.698 57.367 319.358 59.9709 319.358 61.769Z" fill="#FFB017"/>
<path fill-rule="evenodd" clip-rule="evenodd" d="M337.597 61.769C337.597 63.567 334.919 65.025 332.731 65.025C330.562 65.025 328.789 63.567 328.789 61.769C328.789 59.9709 330.562 57.367 332.731 57.367C334.919 57.367 337.597 59.9709 337.597 61.769Z" fill="#FFB017"/>
<path fill-rule="evenodd" clip-rule="evenodd" d="M355.817 61.769C355.817 63.567 353.158 65.025 350.97 65.025C348.782 65.025 347.009 63.567 347.009 61.769C347.009 59.9709 348.782 57.367 350.97 57.367C353.158 57.367 355.817 59.9709 355.817 61.769Z" fill="#FFB017"/>
<path fill-rule="evenodd" clip-rule="evenodd" d="M374.056 61.769C374.056 63.567 371.377 65.025 369.189 65.025C367.002 65.025 365.229 63.567 365.229 61.769C365.229 59.9709 367.002 57.367 369.189 57.367C371.377 57.367 374.056 59.9709 374.056 61.769Z" fill="#FFB017"/>
<path fill-rule="evenodd" clip-rule="evenodd" d="M392.277 61.769C392.277 63.567 389.598 65.025 387.429 65.025C385.241 65.025 383.468 63.567 383.468 61.769C383.468 59.9709 385.241 57.367 387.429 57.367C389.598 57.367 392.277 59.9709 392.277 61.769Z" fill="#FFB017"/>
<path fill-rule="evenodd" clip-rule="evenodd" d="M410.496 61.769C410.496 63.567 407.837 65.025 405.649 65.025C403.461 65.025 401.688 63.567 401.688 61.769C401.688 59.9709 403.461 57.367 405.649 57.367C407.837 57.367 410.496 59.9709 410.496 61.769Z" fill="#FFB017"/>
<path fill-rule="evenodd" clip-rule="evenodd" d="M428.736 61.769C428.736 63.567 426.057 65.025 423.869 65.025C421.7 65.025 419.927 63.567 419.927 61.769C419.927 59.9709 421.7 57.367 423.869 57.367C426.057 57.367 428.736 59.9709 428.736 61.769Z" fill="#FFB017"/>
<path fill-rule="evenodd" clip-rule="evenodd" d="M446.956 61.769C446.956 63.567 444.296 65.025 442.108 65.025C439.92 65.025 438.147 63.567 438.147 61.769C438.147 59.9709 439.92 57.367 442.108 57.367C444.296 57.367 446.956 59.9709 446.956 61.769Z" fill="#FFB017"/>
<path fill-rule="evenodd" clip-rule="evenodd" d="M301.137 75.551C301.137 77.349 298.459 78.807 296.29 78.807C294.102 78.807 292.329 77.349 292.329 75.551C292.329 73.7529 294.102 71.149 296.29 71.149C298.459 71.149 301.137 73.7529 301.137 75.551Z" fill="#FFB017"/>
<path fill-rule="evenodd" clip-rule="evenodd" d="M319.358 75.551C319.358 77.349 316.698 78.807 314.51 78.807C312.322 78.807 310.549 77.349 310.549 75.551C310.549 73.7529 312.322 71.149 314.51 71.149C316.698 71.149 319.358 73.7529 319.358 75.551Z" fill="#FFB017"/>
<path fill-rule="evenodd" clip-rule="evenodd" d="M337.597 75.551C337.597 77.349 334.919 78.807 332.731 78.807C330.562 78.807 328.789 77.349 328.789 75.551C328.789 73.7529 330.562 71.149 332.731 71.149C334.919 71.149 337.597 73.7529 337.597 75.551Z" fill="#FFB017"/>
<path fill-rule="evenodd" clip-rule="evenodd" d="M355.817 75.551C355.817 77.349 353.158 78.807 350.97 78.807C348.782 78.807 347.009 77.349 347.009 75.551C347.009 73.7529 348.782 71.149 350.97 71.149C353.158 71.149 355.817 73.7529 355.817 75.551Z" fill="#FFB017"/>
<path fill-rule="evenodd" clip-rule="evenodd" d="M374.056 75.551C374.056 77.349 371.377 78.807 369.189 78.807C367.002 78.807 365.229 77.349 365.229 75.551C365.229 73.7529 367.002 71.149 369.189 71.149C371.377 71.149 374.056 73.7529 374.056 75.551Z" fill="#FFB017"/>
<path fill-rule="evenodd" clip-rule="evenodd" d="M392.277 75.551C392.277 77.349 389.598 78.807 387.429 78.807C385.241 78.807 383.468 77.349 383.468 75.551C383.468 73.7529 385.241 71.149 387.429 71.149C389.598 71.149 392.277 73.7529 392.277 75.551Z" fill="#FFB017"/>
<path fill-rule="evenodd" clip-rule="evenodd" d="M410.496 75.551C410.496 77.349 407.837 78.807 405.649 78.807C403.461 78.807 401.688 77.349 401.688 75.551C401.688 73.7529 403.461 71.149 405.649 71.149C407.837 71.149 410.496 73.7529 410.496 75.551Z" fill="#FFB017"/>
<path fill-rule="evenodd" clip-rule="evenodd" d="M428.736 75.551C428.736 77.349 426.057 78.807 423.869 78.807C421.7 78.807 419.927 77.349 419.927 75.551C419.927 73.7529 421.7 71.149 423.869 71.149C426.057 71.149 428.736 73.7529 428.736 75.551Z" fill="#FFB017"/>
<path fill-rule="evenodd" clip-rule="evenodd" d="M446.956 75.551C446.956 77.349 444.296 78.807 442.108 78.807C439.92 78.807 438.147 77.349 438.147 75.551C438.147 73.7529 439.92 71.149 442.108 71.149C444.296 71.149 446.956 73.7529 446.956 75.551Z" fill="#FFB017"/>
<path fill-rule="evenodd" clip-rule="evenodd" d="M282.917 89.3329C282.917 91.131 280.238 92.589 278.05 92.589C275.863 92.589 274.108 91.131 274.108 89.3329C274.108 87.5349 275.863 84.931 278.05 84.931C280.238 84.931 282.917 87.5349 282.917 89.3329Z" fill="#FFB017"/>
<path fill-rule="evenodd" clip-rule="evenodd" d="M301.137 89.3329C301.137 91.131 298.459 92.589 296.29 92.589C294.102 92.589 292.329 91.131 292.329 89.3329C292.329 87.5349 294.102 84.931 296.29 84.931C298.459 84.931 301.137 87.5349 301.137 89.3329Z" fill="#FFB017"/>
<path fill-rule="evenodd" clip-rule="evenodd" d="M319.358 89.3329C319.358 91.131 316.698 92.589 314.51 92.589C312.322 92.589 310.549 91.131 310.549 89.3329C310.549 87.5349 312.322 84.931 314.51 84.931C316.698 84.931 319.358 87.5349 319.358 89.3329Z" fill="#FFB017"/>
<path fill-rule="evenodd" clip-rule="evenodd" d="M337.597 89.3329C337.597 91.131 334.919 92.589 332.731 92.589C330.562 92.589 328.789 91.131 328.789 89.3329C328.789 87.5349 330.562 84.931 332.731 84.931C334.919 84.931 337.597 87.5349 337.597 89.3329Z" fill="#FFB017"/>
<path fill-rule="evenodd" clip-rule="evenodd" d="M355.817 89.3329C355.817 91.131 353.158 92.589 350.97 92.589C348.782 92.589 347.009 91.131 347.009 89.3329C347.009 87.5349 348.782 84.931 350.97 84.931C353.158 84.931 355.817 87.5349 355.817 89.3329Z" fill="#FFB017"/>
<path fill-rule="evenodd" clip-rule="evenodd" d="M374.056 89.3329C374.056 91.131 371.377 92.589 369.189 92.589C367.002 92.589 365.229 91.131 365.229 89.3329C365.229 87.5349 367.002 84.931 369.189 84.931C371.377 84.931 374.056 87.5349 374.056 89.3329Z" fill="#FFB017"/>
<path fill-rule="evenodd" clip-rule="evenodd" d="M392.277 89.3329C392.277 91.131 389.598 92.589 387.429 92.589C385.241 92.589 383.468 91.131 383.468 89.3329C383.468 87.5349 385.241 84.931 387.429 84.931C389.598 84.931 392.277 87.5349 392.277 89.3329Z" fill="#FFB017"/>
<path fill-rule="evenodd" clip-rule="evenodd" d="M410.496 89.3329C410.496 91.131 407.837 92.589 405.649 92.589C403.461 92.589 401.688 91.131 401.688 89.3329C401.688 87.5349 403.461 84.931 405.649 84.931C407.837 84.931 410.496 87.5349 410.496 89.3329Z" fill="#FFB017"/>
<path fill-rule="evenodd" clip-rule="evenodd" d="M428.736 89.3329C428.736 91.131 426.057 92.589 423.869 92.589C421.7 92.589 419.927 91.131 419.927 89.3329C419.927 87.5349 421.7 84.931 423.869 84.931C426.057 84.931 428.736 87.5349 428.736 89.3329Z" fill="#FFB017"/>
<path fill-rule="evenodd" clip-rule="evenodd" d="M446.956 89.3329C446.956 91.131 444.296 92.589 442.108 92.589C439.92 92.589 438.147 91.131 438.147 89.3329C438.147 87.5349 439.92 84.931 442.108 84.931C444.296 84.931 446.956 87.5349 446.956 89.3329Z" fill="#FFB017"/>
<path fill-rule="evenodd" clip-rule="evenodd" d="M301.137 103.115C301.137 104.913 298.459 106.371 296.29 106.371C294.102 106.371 292.329 104.913 292.329 103.115C292.329 101.317 294.102 98.713 296.29 98.713C298.459 98.713 301.137 101.317 301.137 103.115Z" fill="#FFB017"/>
<path fill-rule="evenodd" clip-rule="evenodd" d="M319.358 103.115C319.358 104.913 316.698 106.371 314.51 106.371C312.322 106.371 310.549 104.913 310.549 103.115C310.549 101.317 312.322 98.713 314.51 98.713C316.698 98.713 319.358 101.317 319.358 103.115Z" fill="#FFB017"/>
<path fill-rule="evenodd" clip-rule="evenodd" d="M337.597 103.115C337.597 104.913 334.919 106.371 332.731 106.371C330.562 106.371 328.789 104.913 328.789 103.115C328.789 101.317 330.562 98.713 332.731 98.713C334.919 98.713 337.597 101.317 337.597 103.115Z" fill="#FFB017"/>
<path fill-rule="evenodd" clip-rule="evenodd" d="M355.817 103.115C355.817 104.913 353.158 106.371 350.97 106.371C348.782 106.371 347.009 104.913 347.009 103.115C347.009 101.317 348.782 98.713 350.97 98.713C353.158 98.713 355.817 101.317 355.817 103.115Z" fill="#FFB017"/>
<path fill-rule="evenodd" clip-rule="evenodd" d="M374.056 103.115C374.056 104.913 371.377 106.371 369.189 106.371C367.002 106.371 365.229 104.913 365.229 103.115C365.229 101.317 367.002 98.713 369.189 98.713C371.377 98.713 374.056 101.317 374.056 103.115Z" fill="#FFB017"/>
<path fill-rule="evenodd" clip-rule="evenodd" d="M392.277 103.115C392.277 104.913 389.598 106.371 387.429 106.371C385.241 106.371 383.468 104.913 383.468 103.115C383.468 101.317 385.241 98.713 387.429 98.713C389.598 98.713 392.277 101.317 392.277 103.115Z" fill="#FFB017"/>
<path fill-rule="evenodd" clip-rule="evenodd" d="M410.496 103.115C410.496 104.913 407.837 106.371 405.649 106.371C403.461 106.371 401.688 104.913 401.688 103.115C401.688 101.317 403.461 98.713 405.649 98.713C407.837 98.713 410.496 101.317 410.496 103.115Z" fill="#FFB017"/>
<path fill-rule="evenodd" clip-rule="evenodd" d="M428.736 103.115C428.736 104.913 426.057 106.371 423.869 106.371C421.7 106.371 419.927 104.913 419.927 103.115C419.927 101.317 421.7 98.713 423.869 98.713C426.057 98.713 428.736 101.317 428.736 103.115Z" fill="#FFB017"/>
<path fill-rule="evenodd" clip-rule="evenodd" d="M301.137 116.895C301.137 118.693 298.459 120.151 296.29 120.151C294.102 120.151 292.329 118.693 292.329 116.895C292.329 115.097 294.102 112.493 296.29 112.493C298.459 112.493 301.137 115.097 301.137 116.895Z" fill="#FFB017"/>
<path fill-rule="evenodd" clip-rule="evenodd" d="M319.358 116.895C319.358 118.693 316.698 120.151 314.51 120.151C312.322 120.151 310.549 118.693 310.549 116.895C310.549 115.097 312.322 112.493 314.51 112.493C316.698 112.493 319.358 115.097 319.358 116.895Z" fill="#FFB017"/>
<path fill-rule="evenodd" clip-rule="evenodd" d="M337.597 116.895C337.597 118.693 334.919 120.151 332.731 120.151C330.562 120.151 328.789 118.693 328.789 116.895C328.789 115.097 330.562 112.493 332.731 112.493C334.919 112.493 337.597 115.097 337.597 116.895Z" fill="#FFB017"/>
<path fill-rule="evenodd" clip-rule="evenodd" d="M355.817 116.895C355.817 118.693 353.158 120.151 350.97 120.151C348.782 120.151 347.009 118.693 347.009 116.895C347.009 115.097 348.782 112.493 350.97 112.493C353.158 112.493 355.817 115.097 355.817 116.895Z" fill="#FFB017"/>
<path fill-rule="evenodd" clip-rule="evenodd" d="M374.056 116.895C374.056 118.693 371.377 120.151 369.189 120.151C367.002 120.151 365.229 118.693 365.229 116.895C365.229 115.097 367.002 112.493 369.189 112.493C371.377 112.493 374.056 115.097 374.056 116.895Z" fill="#FFB017"/>
<path fill-rule="evenodd" clip-rule="evenodd" d="M392.277 116.895C392.277 118.693 389.598 120.151 387.429 120.151C385.241 120.151 383.468 118.693 383.468 116.895C383.468 115.097 385.241 112.493 387.429 112.493C389.598 112.493 392.277 115.097 392.277 116.895Z" fill="#FFB017"/>
<path fill-rule="evenodd" clip-rule="evenodd" d="M410.496 116.895C410.496 118.693 407.837 120.151 405.649 120.151C403.461 120.151 401.688 118.693 401.688 116.895C401.688 115.097 403.461 112.493 405.649 112.493C407.837 112.493 410.496 115.097 410.496 116.895Z" fill="#FFB017"/>
<path fill-rule="evenodd" clip-rule="evenodd" d="M282.917 130.677C282.917 132.475 280.238 133.932 278.05 133.932C275.863 133.932 274.108 132.475 274.108 130.677C274.108 128.879 275.863 126.275 278.05 126.275C280.238 126.275 282.917 128.879 282.917 130.677Z" fill="#FFB017"/>
<path fill-rule="evenodd" clip-rule="evenodd" d="M319.358 130.677C319.358 132.475 316.698 133.932 314.51 133.932C312.322 133.932 310.549 132.475 310.549 130.677C310.549 128.879 312.322 126.275 314.51 126.275C316.698 126.275 319.358 128.879 319.358 130.677Z" fill="#FFB017"/>
<path fill-rule="evenodd" clip-rule="evenodd" d="M337.597 130.677C337.597 132.475 334.919 133.932 332.731 133.932C330.562 133.932 328.789 132.475 328.789 130.677C328.789 128.879 330.562 126.275 332.731 126.275C334.919 126.275 337.597 128.879 337.597 130.677Z" fill="#FFB017"/>
<path fill-rule="evenodd" clip-rule="evenodd" d="M355.817 130.677C355.817 132.475 353.158 133.932 350.97 133.932C348.782 133.932 347.009 132.475 347.009 130.677C347.009 128.879 348.782 126.275 350.97 126.275C353.158 126.275 355.817 128.879 355.817 130.677Z" fill="#FFB017"/>
<path fill-rule="evenodd" clip-rule="evenodd" d="M374.056 130.677C374.056 132.475 371.377 133.932 369.189 133.932C367.002 133.932 365.229 132.475 365.229 130.677C365.229 128.879 367.002 126.275 369.189 126.275C371.377 126.275 374.056 128.879 374.056 130.677Z" fill="#FFB017"/>
<path fill-rule="evenodd" clip-rule="evenodd" d="M392.277 130.677C392.277 132.475 389.598 133.932 387.429 133.932C385.241 133.932 383.468 132.475 383.468 130.677C383.468 128.879 385.241 126.275 387.429 126.275C389.598 126.275 392.277 128.879 392.277 130.677Z" fill="#FFB017"/>
<path fill-rule="evenodd" clip-rule="evenodd" d="M446.956 130.677C446.956 132.475 444.296 133.932 442.108 133.932C439.92 133.932 438.147 132.475 438.147 130.677C438.147 128.879 439.92 126.275 442.108 126.275C444.296 126.275 446.956 128.879 446.956 130.677Z" fill="#FFB017"/>
<path fill-rule="evenodd" clip-rule="evenodd" d="M282.917 144.459C282.917 146.257 280.238 147.714 278.05 147.714C275.863 147.714 274.108 146.257 274.108 144.459C274.108 142.661 275.863 140.057 278.05 140.057C280.238 140.057 282.917 142.661 282.917 144.459Z" fill="#FFB017"/>
<path fill-rule="evenodd" clip-rule="evenodd" d="M301.137 144.459C301.137 146.257 298.459 147.714 296.29 147.714C294.102 147.714 292.329 146.257 292.329 144.459C292.329 142.661 294.102 140.057 296.29 140.057C298.459 140.057 301.137 142.661 301.137 144.459Z" fill="#FFB017"/>
<path fill-rule="evenodd" clip-rule="evenodd" d="M319.358 144.459C319.358 146.257 316.698 147.714 314.51 147.714C312.322 147.714 310.549 146.257 310.549 144.459C310.549 142.661 312.322 140.057 314.51 140.057C316.698 140.057 319.358 142.661 319.358 144.459Z" fill="#FFB017"/>
<path fill-rule="evenodd" clip-rule="evenodd" d="M392.277 144.459C392.277 146.257 389.598 147.714 387.429 147.714C385.241 147.714 383.468 146.257 383.468 144.459C383.468 142.661 385.241 140.057 387.429 140.057C389.598 140.057 392.277 142.661 392.277 144.459Z" fill="#FFB017"/>
<path fill-rule="evenodd" clip-rule="evenodd" d="M428.736 144.459C428.736 146.257 426.057 147.714 423.869 147.714C421.7 147.714 419.927 146.257 419.927 144.459C419.927 142.661 421.7 140.057 423.869 140.057C426.057 140.057 428.736 142.661 428.736 144.459Z" fill="#FFB017"/>
<path fill-rule="evenodd" clip-rule="evenodd" d="M446.956 144.459C446.956 146.257 444.296 147.714 442.108 147.714C439.92 147.714 438.147 146.257 438.147 144.459C438.147 142.661 439.92 140.057 442.108 140.057C444.296 140.057 446.956 142.661 446.956 144.459Z" fill="#FFB017"/>
<path fill-rule="evenodd" clip-rule="evenodd" d="M446.956 115.897C446.956 117.695 444.296 119.153 442.108 119.153C439.92 119.153 438.147 117.695 438.147 115.897C438.147 114.099 439.92 111.497 442.108 111.497C444.296 111.497 446.956 114.099 446.956 115.897Z" fill="#FFB017"/>
<path fill-rule="evenodd" clip-rule="evenodd" d="M428.736 129.677C428.736 131.475 426.057 132.933 423.869 132.933C421.7 132.933 419.927 131.475 419.927 129.677C419.927 127.879 421.7 125.277 423.869 125.277C426.057 125.277 428.736 127.879 428.736 129.677Z" fill="#FFB017"/>
<path fill-rule="evenodd" clip-rule="evenodd" d="M410.496 143.459C410.496 145.257 407.837 146.715 405.649 146.715C403.461 146.715 401.688 145.257 401.688 143.459C401.688 141.661 403.461 139.059 405.649 139.059C407.837 139.059 410.496 141.661 410.496 143.459Z" fill="#FFB017"/>
</g>
<path d="M398.247 175.948C438.206 175.948 470.599 173.18 470.599 169.766C470.599 166.352 438.206 163.584 398.247 163.584C358.288 163.584 325.895 166.352 325.895 169.766C325.895 173.18 358.288 175.948 398.247 175.948Z" fill="#E6E7E8"/>
<path d="M430.579 168.787H363.238C361.033 168.787 359.229 166.983 359.229 164.778V116.008C359.229 113.804 361.033 112 363.238 112H430.579C432.784 112 434.588 113.804 434.588 116.008V164.78C434.588 166.983 432.784 168.787 430.579 168.787Z" fill="#0A191B"/>
<path d="M428.622 164.051H364.869C362.746 164.051 361.009 162.314 361.009 160.19V118.328C361.009 116.205 362.746 114.468 364.869 114.468H428.624C430.747 114.468 432.484 116.205 432.484 118.328V160.19C432.482 162.314 430.745 164.051 428.622 164.051Z" fill="#E6E7E8"/>
<path d="M400.888 166.197H395.603C395.475 166.197 395.37 166.092 395.37 165.964C395.37 165.836 395.475 165.731 395.603 165.731H400.888C401.017 165.731 401.122 165.836 401.122 165.964C401.123 166.091 401.018 166.197 400.888 166.197Z" fill="#E3E5FC"/>
<path d="M363.251 113.908C363.541 113.908 363.777 113.673 363.777 113.382C363.777 113.092 363.541 112.856 363.251 112.856C362.96 112.856 362.725 113.092 362.725 113.382C362.725 113.673 362.96 113.908 363.251 113.908Z" fill="#E3E5FC"/>
<path d="M365.514 113.908C365.805 113.908 366.04 113.673 366.04 113.382C366.04 113.092 365.805 112.856 365.514 112.856C365.223 112.856 364.988 113.092 364.988 113.382C364.988 113.673 365.223 113.908 365.514 113.908Z" fill="white"/>
<path d="M367.799 113.908C368.089 113.908 368.325 113.673 368.325 113.382C368.325 113.092 368.089 112.856 367.799 112.856C367.508 112.856 367.272 113.092 367.272 113.382C367.272 113.673 367.508 113.908 367.799 113.908Z" fill="#4B369D"/>
<path d="M399.89 142.558H367.899C367.556 142.558 367.275 142.277 367.275 141.934C367.275 141.591 367.556 141.309 367.899 141.309H399.89C400.233 141.309 400.514 141.591 400.514 141.934C400.514 142.277 400.234 142.558 399.89 142.558Z" fill="white"/>
<path d="M399.889 145.421H367.899C367.556 145.421 367.274 145.139 367.274 144.796C367.274 144.453 367.556 144.172 367.899 144.172H399.889C400.232 144.172 400.514 144.453 400.514 144.796C400.514 145.139 400.234 145.421 399.889 145.421Z" fill="white"/>
<path d="M399.889 148.284H367.899C367.556 148.284 367.274 148.002 367.274 147.659C367.274 147.316 367.556 147.035 367.899 147.035H399.889C400.232 147.035 400.514 147.316 400.514 147.659C400.514 148.002 400.234 148.284 399.889 148.284Z" fill="white"/>
<path d="M399.889 151.511H367.899C367.556 151.511 367.274 151.229 367.274 150.886C367.274 150.543 367.556 150.262 367.899 150.262H399.889C400.232 150.262 400.514 150.543 400.514 150.886C400.514 151.229 400.234 151.511 399.889 151.511Z" fill="white"/>
<path d="M399.889 154.373H367.899C367.556 154.373 367.274 154.092 367.274 153.749C367.274 153.406 367.556 153.125 367.899 153.125H399.889C400.232 153.125 400.514 153.406 400.514 153.749C400.514 154.092 400.234 154.373 399.889 154.373Z" fill="white"/>
<path d="M399.889 157.236H367.899C367.556 157.236 367.274 156.955 367.274 156.612C367.274 156.269 367.556 155.987 367.899 155.987H399.889C400.232 155.987 400.514 156.269 400.514 156.612C400.514 156.955 400.234 157.236 399.889 157.236Z" fill="white"/>
<path d="M374.762 135.792H393.027C397.145 135.792 400.514 132.423 400.514 128.305V126.966C400.514 122.848 397.145 119.479 393.027 119.479H374.762C370.643 119.479 367.274 122.848 367.274 126.966V128.305C367.273 132.423 370.643 135.792 374.762 135.792Z" fill="white"/>
<path d="M415.034 148.042H418.711C422.829 148.042 426.198 144.673 426.198 140.555V126.966C426.198 122.848 422.829 119.479 418.711 119.479H415.034C410.915 119.479 407.546 122.848 407.546 126.966V140.555C407.545 144.673 410.915 148.042 415.034 148.042Z" fill="white"/>
<path d="M410.914 156.49H422.832C424.684 156.49 426.199 154.975 426.199 153.123C426.199 151.271 424.684 149.756 422.832 149.756H410.914C409.062 149.756 407.546 151.271 407.546 153.123C407.545 154.975 409.06 156.49 410.914 156.49Z" fill="#9A3C81"/>
<path d="M277.713 123.599L272.19 118.232L277.7 112.602L278.722 113.604L274.219 118.206L278.709 122.572L277.713 123.599Z" fill="#9A3C81"/>
<path d="M289.551 123.586L288.529 122.585L293.032 117.982L288.542 113.616L289.538 112.589L295.061 117.956L289.551 123.586Z" fill="#9A3C81"/>
<rect x="279.963" y="127.219" width="19.1702" height="1.43229" transform="rotate(-71.8749 279.963 127.219)" fill="#9A3C81"/>
<path fill-rule="evenodd" clip-rule="evenodd" d="M69.2847 112.934H76.0122V106.207H69.2847V112.934ZM75.4914 112.414H69.8055V106.728H75.4914V112.414Z" fill="#A1A7A7"/>
<rect x="69.3599" y="112.491" width="8.77722" height="0.520777" transform="rotate(-45 69.3599 112.491)" fill="#A1A7A7"/>
<rect x="69.3599" y="106.652" width="0.520777" height="8.77722" transform="rotate(-45 69.3599 106.652)" fill="#A1A7A7"/>
<path fill-rule="evenodd" clip-rule="evenodd" d="M75.4912 112.934H82.2187V106.207H75.4912V112.934ZM81.6979 112.414H76.0119V106.728H81.6979V112.414Z" fill="#A1A7A7"/>
<rect x="75.5664" y="112.49" width="8.77722" height="0.520777" transform="rotate(-45 75.5664 112.49)" fill="#A1A7A7"/>
<rect x="75.5664" y="106.652" width="0.520777" height="8.77722" transform="rotate(-45 75.5664 106.652)" fill="#A1A7A7"/>
<path fill-rule="evenodd" clip-rule="evenodd" d="M56.8711 175H63.5986V168.273H56.8711V175ZM63.0787 174.479H57.3927V168.793H63.0787V174.479Z" fill="#A1A7A7"/>
<rect x="56.9458" y="174.556" width="8.77722" height="0.520777" transform="rotate(-45 56.9458 174.556)" fill="#A1A7A7"/>
<rect x="56.9463" y="168.717" width="0.520777" height="8.77722" transform="rotate(-45 56.9463 168.717)" fill="#A1A7A7"/>
<path fill-rule="evenodd" clip-rule="evenodd" d="M56.8711 168.794H63.5986V162.067H56.8711V168.794ZM63.0787 168.273H57.3927V162.587H63.0787V168.273Z" fill="#A1A7A7"/>
<rect x="56.9468" y="168.35" width="8.77722" height="0.520777" transform="rotate(-45 56.9468 168.35)" fill="#A1A7A7"/>
<rect x="56.9473" y="162.511" width="0.520777" height="8.77722" transform="rotate(-45 56.9473 162.511)" fill="#A1A7A7"/>
<path fill-rule="evenodd" clip-rule="evenodd" d="M56.8711 162.587H63.5986V155.86H56.8711V162.587ZM63.0787 162.067H57.3927V156.381H63.0787V162.067Z" fill="#A1A7A7"/>
<rect x="56.9463" y="162.143" width="8.77722" height="0.520777" transform="rotate(-45 56.9463 162.143)" fill="#A1A7A7"/>
<rect x="56.9468" y="156.305" width="0.520777" height="8.77722" transform="rotate(-45 56.9468 156.305)" fill="#A1A7A7"/>
<path fill-rule="evenodd" clip-rule="evenodd" d="M56.8711 156.381H63.5986V149.653H56.8711V156.381ZM63.0787 155.86H57.3927V150.174H63.0787V155.86Z" fill="#A1A7A7"/>
<rect x="56.9463" y="155.937" width="8.77722" height="0.520777" transform="rotate(-45 56.9463 155.937)" fill="#A1A7A7"/>
<rect x="56.9468" y="150.098" width="0.520777" height="8.77722" transform="rotate(-45 56.9468 150.098)" fill="#A1A7A7"/>
<path fill-rule="evenodd" clip-rule="evenodd" d="M56.8711 150.174H63.5986V143.446H56.8711V150.174ZM63.0787 149.653H57.3927V143.967H63.0787V149.653Z" fill="#A1A7A7"/>
<rect x="56.9463" y="149.73" width="8.77722" height="0.520777" transform="rotate(-45 56.9463 149.73)" fill="#A1A7A7"/>
<rect x="56.9468" y="143.891" width="0.520777" height="8.77722" transform="rotate(-45 56.9468 143.891)" fill="#A1A7A7"/>
<path fill-rule="evenodd" clip-rule="evenodd" d="M56.8711 143.967H63.5986V137.24H56.8711V143.967ZM63.0787 143.446H57.3927V137.76H63.0787V143.446Z" fill="#A1A7A7"/>
<rect x="56.9463" y="143.523" width="8.77722" height="0.520777" transform="rotate(-45 56.9463 143.523)" fill="#A1A7A7"/>
<rect x="56.9468" y="137.685" width="0.520777" height="8.77722" transform="rotate(-45 56.9468 137.685)" fill="#A1A7A7"/>
<path fill-rule="evenodd" clip-rule="evenodd" d="M56.8711 137.76H63.5986V131.033H56.8711V137.76ZM63.0787 137.24H57.3927V131.554H63.0787V137.24Z" fill="#A1A7A7"/>
<rect x="56.9468" y="137.317" width="8.77722" height="0.520777" transform="rotate(-45 56.9468 137.317)" fill="#A1A7A7"/>
<rect x="56.9468" y="131.478" width="0.520777" height="8.77722" transform="rotate(-45 56.9468 131.478)" fill="#A1A7A7"/>
<path fill-rule="evenodd" clip-rule="evenodd" d="M56.8711 131.555H63.5986V124.827H56.8711V131.555ZM63.0787 131.034H57.3927V125.348H63.0787V131.034Z" fill="#A1A7A7"/>
<rect x="56.9468" y="131.111" width="8.77722" height="0.520777" transform="rotate(-45 56.9468 131.111)" fill="#A1A7A7"/>
<rect x="56.9473" y="125.272" width="0.520777" height="8.77722" transform="rotate(-45 56.9473 125.272)" fill="#A1A7A7"/>
<path fill-rule="evenodd" clip-rule="evenodd" d="M56.8711 125.348H63.5986V118.62H56.8711V125.348ZM63.0787 124.827H57.3927V119.141H63.0787V124.827Z" fill="#A1A7A7"/>
<rect x="56.9468" y="124.904" width="8.77722" height="0.520777" transform="rotate(-45 56.9468 124.904)" fill="#A1A7A7"/>
<rect x="56.9473" y="119.065" width="0.520777" height="8.77722" transform="rotate(-45 56.9473 119.065)" fill="#A1A7A7"/>
<path fill-rule="evenodd" clip-rule="evenodd" d="M56.8711 119.141H63.5986V112.414H56.8711V119.141ZM63.0787 118.62H57.3927V112.934H63.0787V118.62Z" fill="#A1A7A7"/>
<rect x="56.9468" y="118.697" width="8.77722" height="0.520777" transform="rotate(-45 56.9468 118.697)" fill="#A1A7A7"/>
<rect x="56.9473" y="112.859" width="0.520777" height="8.77722" transform="rotate(-45 56.9473 112.859)" fill="#A1A7A7"/>
<path fill-rule="evenodd" clip-rule="evenodd" d="M56.8711 112.934H63.5986V106.207H56.8711V112.934ZM63.0787 112.414H57.3927V106.728H63.0787V112.414Z" fill="#A1A7A7"/>
<rect x="56.9463" y="112.491" width="8.77722" height="0.520777" transform="rotate(-45 56.9463 112.491)" fill="#A1A7A7"/>
<rect x="56.9468" y="106.652" width="0.520777" height="8.77722" transform="rotate(-45 56.9468 106.652)" fill="#A1A7A7"/>
<path fill-rule="evenodd" clip-rule="evenodd" d="M56.8716 106.728H63.5991V100H56.8716V106.728ZM63.079 106.207H57.393V100.521H63.079V106.207Z" fill="#A1A7A7"/>
<rect x="56.9473" y="106.285" width="8.77722" height="0.520777" transform="rotate(-45 56.9473 106.285)" fill="#A1A7A7"/>
<rect x="56.9473" y="100.445" width="0.520777" height="8.77722" transform="rotate(-45 56.9473 100.445)" fill="#A1A7A7"/>
<path fill-rule="evenodd" clip-rule="evenodd" d="M63.0776 112.934H69.8052V106.207H63.0776V112.934ZM69.2844 112.414H63.5984V106.728H69.2844V112.414Z" fill="#A1A7A7"/>
<rect x="63.1528" y="112.491" width="8.77722" height="0.520777" transform="rotate(-45 63.1528 112.491)" fill="#A1A7A7"/>
<rect x="63.1528" y="106.652" width="0.520777" height="8.77722" transform="rotate(-45 63.1528 106.652)" fill="#A1A7A7"/>
<path fill-rule="evenodd" clip-rule="evenodd" d="M50.6655 112.934H57.3931V106.207H50.6655V112.934ZM56.8723 112.414H51.1864V106.728H56.8723V112.414Z" fill="#A1A7A7"/>
<rect x="50.7407" y="112.49" width="8.77722" height="0.520777" transform="rotate(-45 50.7407 112.49)" fill="#A1A7A7"/>
<rect x="50.7407" y="106.652" width="0.520777" height="8.77722" transform="rotate(-45 50.7407 106.652)" fill="#A1A7A7"/>
<path fill-rule="evenodd" clip-rule="evenodd" d="M44.4585 112.934H51.186V106.207H44.4585V112.934ZM50.6652 112.414H44.9792V106.728H50.6652V112.414Z" fill="#A1A7A7"/>
<rect x="44.5337" y="112.49" width="8.77722" height="0.520777" transform="rotate(-45 44.5337 112.49)" fill="#A1A7A7"/>
<rect x="44.5337" y="106.652" width="0.520777" height="8.77722" transform="rotate(-45 44.5337 106.652)" fill="#A1A7A7"/>
<path fill-rule="evenodd" clip-rule="evenodd" d="M37.9272 112.934H45.0227V105.839L37.9272 112.934ZM44.501 112.414H39.1838L44.501 107.096V112.414Z" fill="#A1A7A7"/>
<rect x="38.3706" y="112.49" width="8.77722" height="0.520777" transform="rotate(-45 38.3706 112.49)" fill="#A1A7A7"/>
<rect x="38.2954" y="115.777" width="0.520782" height="21.8849" fill="#A1A7A7"/>
<path d="M39.7676 139.331H37.5844C36.9608 139.331 36.4502 138.821 36.4502 138.197V136.014C36.4502 135.39 36.9608 134.879 37.5844 134.879H39.7676C40.3913 134.879 40.9019 135.39 40.9019 136.014V138.197C40.9019 138.821 40.3913 139.331 39.7676 139.331Z" fill="#A1A7A7"/>
<path d="M37.9124 144.154C36.5187 144.154 35.643 142.95 35.4976 141.755L36.0146 141.692C36.1286 142.629 36.7708 143.634 37.9124 143.634C37.9171 143.634 37.9208 143.634 37.9254 143.634C38.8206 143.628 39.7787 142.973 39.7787 142.008C39.7787 140.853 38.6287 140.373 38.5796 140.352L38.4175 140.287L38.4165 138.616H38.9373V139.946C39.333 140.152 40.2995 140.78 40.2995 142.009C40.2995 143.326 39.0689 144.148 37.9291 144.155C37.9235 144.154 37.918 144.154 37.9124 144.154Z" fill="#A1A7A7"/>
<path d="M51.0091 117.586H33.0041C31.8439 117.586 30.895 116.637 30.895 115.477C30.895 114.317 31.8439 113.368 33.0041 113.368H51.0091C52.1692 113.368 53.1181 114.317 53.1181 115.477C53.1172 116.637 52.1683 117.586 51.0091 117.586Z" fill="#A1A7A7"/>
<path d="M80.639 184H51.5702C49.5494 184 47.895 182.347 47.895 180.325V178.675C47.895 176.654 49.5484 175 51.5702 175H80.639C82.6598 175 84.3142 176.653 84.3142 178.675V180.325C84.3132 182.346 82.6598 184 80.639 184Z" fill="#A1A7A7"/>
<path d="M76.1686 178.622H61.4687C61.0248 178.622 60.6621 178.259 60.6621 177.815C60.6621 177.371 61.0248 177.008 61.4687 177.008H76.1686C76.6126 177.008 76.9752 177.371 76.9752 177.815C76.9752 178.259 76.6126 178.622 76.1686 178.622Z" fill="white"/>
<path d="M69.3052 181.759H61.4687C61.0248 181.759 60.6621 181.397 60.6621 180.953C60.6621 180.509 61.0248 180.146 61.4687 180.146H69.3052C69.7492 180.146 70.1118 180.509 70.1118 180.953C70.1118 181.396 69.7492 181.759 69.3052 181.759Z" fill="white"/>
<path d="M54.5223 182.476C56.032 182.476 57.2559 181.252 57.2559 179.742C57.2559 178.232 56.032 177.008 54.5223 177.008C53.0125 177.008 51.7886 178.232 51.7886 179.742C51.7886 181.252 53.0125 182.476 54.5223 182.476Z" fill="white"/>
<path d="M350.343 185H100.654C100.48 185 100.313 185.053 100.19 185.146C100.068 185.24 99.9985 185.367 99.9985 185.5C99.9985 185.633 100.068 185.76 100.19 185.854C100.313 185.947 100.48 186 100.654 186H350.343C350.517 186 350.684 185.947 350.807 185.854C350.929 185.76 350.999 185.633 350.999 185.5C350.999 185.367 350.929 185.24 350.807 185.146C350.684 185.053 350.517 185 350.343 185Z" fill="#357E88"/>
<path d="M349.506 117.548C352.23 116.006 354.955 114.463 357.678 112.921C365.731 108.362 373.913 103.705 380.279 96.991C382.796 94.3362 385.036 91.3203 386.182 87.8471C386.418 87.1322 386.601 86.3305 386.284 85.6479C385.743 84.4899 384.165 84.3686 382.891 84.467C379.067 84.7639 375.279 85.5244 371.635 86.7232C374.667 79.3183 384.19 76.7729 388.539 70.0565C389.244 68.9666 389.814 67.6897 389.613 66.4082C389.484 65.585 389.042 64.8341 388.481 64.2167C386.574 62.1179 383.415 61.5523 380.63 62.0731C377.845 62.5958 375.331 64.0396 372.879 65.4598C376.246 63.6011 379.067 60.7675 380.912 57.3915C381.675 55.9923 382.284 54.3413 381.78 52.8303C380.926 50.2673 377.382 49.6769 374.883 50.7025C370.061 52.6799 367.913 58.1653 366.001 63.0139C364.088 67.8625 361.172 73.2243 356.042 74.1472C355.427 74.2577 354.765 74.3116 354.272 74.6953C353.311 75.4445 353.554 77.0146 354.281 77.9928C355.009 78.971 356.088 79.6493 356.783 80.6508C358.341 82.8956 357.528 86.0021 356.236 88.4098C354.944 90.8174 353.19 93.1184 352.935 95.8396C352.619 99.2233 351.207 103.119 350.611 106.463C350.338 107.983 353.043 108.776 352.495 110.218C351.947 111.66 351.68 113.358 352.457 114.692C353.233 116.026 355.394 116.531 356.323 115.301" fill="#357E88"/>
<path d="M349.506 117.548C352.23 116.006 354.955 114.463 357.678 112.921C365.731 108.362 373.913 103.705 380.279 96.991C382.796 94.3362 385.036 91.3203 386.182 87.8471C386.418 87.1322 386.601 86.3305 386.284 85.6479C385.743 84.4899 384.165 84.3686 382.891 84.467C379.067 84.7639 375.279 85.5244 371.635 86.7232C374.667 79.3183 384.19 76.7729 388.539 70.0565C389.244 68.9666 389.814 67.6897 389.613 66.4082C389.484 65.585 389.042 64.8341 388.481 64.2167C386.574 62.1179 383.415 61.5523 380.63 62.0731C377.845 62.5958 375.331 64.0396 372.879 65.4598C376.246 63.6011 379.067 60.7675 380.912 57.3915C381.675 55.9923 382.284 54.3413 381.78 52.8303C380.926 50.2673 377.382 49.6769 374.883 50.7025C370.061 52.6799 367.913 58.1653 366.001 63.0139C364.088 67.8625 361.172 73.2243 356.042 74.1472C355.427 74.2577 354.765 74.3116 354.272 74.6953C353.311 75.4445 353.554 77.0146 354.281 77.9928C355.009 78.971 356.088 79.6493 356.783 80.6508C358.341 82.8956 357.528 86.0021 356.236 88.4098C354.944 90.8174 353.19 93.1184 352.935 95.8396C352.619 99.2233 351.207 103.119 350.611 106.463C350.338 107.983 353.043 108.776 352.495 110.218C351.947 111.66 351.68 113.358 352.457 114.692C353.233 116.026 355.394 116.531 356.323 115.301" stroke="#0F555F"/>
<path d="M345.389 112.976C345.575 113 345.77 112.927 345.892 112.764C353.453 102.771 373.183 76.7331 374.158 75.6711C374.33 75.5247 374.399 75.2772 374.311 75.0552C374.2 74.7755 373.886 74.6386 373.603 74.7497C373.42 74.8225 373.14 74.9321 345.025 112.106C344.842 112.345 344.891 112.688 345.13 112.87C345.207 112.93 345.298 112.965 345.389 112.976Z" fill="white"/>
<path d="M357.449 97.0612C357.477 97.0648 357.506 97.0665 357.536 97.0644L373.078 96.5191C373.378 96.5079 373.615 96.2561 373.603 95.9558C373.592 95.6535 373.34 95.4187 373.04 95.43L357.499 95.9752C357.198 95.9865 356.961 96.2382 356.973 96.5386C356.982 96.8113 357.189 97.0287 357.449 97.0612Z" fill="white"/>
<path d="M361.311 161.602C360.925 161.793 360.323 161.903 359.443 161.903C335.758 161.9 312.08 161.894 288.391 161.958C276.527 161.99 264.661 161.905 252.798 161.932C246.806 161.945 240.814 161.987 234.824 162.088C231.828 162.139 228.832 162.204 225.836 162.286C223.634 162.346 220.961 162.756 218.863 161.84C218.148 161.528 217.472 161.109 217.187 160.34C217.14 160.157 217.129 159.974 217.151 159.787C217.383 158.191 219.828 155.512 220.789 154.19C222.762 151.477 224.779 148.526 228.317 147.585C230.375 147.039 232.546 147.048 234.681 147.061C272.151 147.061 309.623 147.268 347.091 147.384C349.44 147.391 352.34 147.736 353.974 149.531C356.052 151.811 357.88 154.279 359.561 156.834C360.575 158.361 363.005 160.761 361.311 161.602Z" fill="#E0E2E3"/>
<path d="M345.191 148.987H232.96C227.448 148.987 222.938 144.477 222.938 138.965V59.3282C222.938 53.8155 227.448 49.3059 232.96 49.3059H345.194C350.706 49.3059 355.216 53.8155 355.216 59.3282V138.962C355.216 144.477 350.704 148.987 345.191 148.987Z" fill="#E6E7E8"/>
<path fill-rule="evenodd" clip-rule="evenodd" d="M232.96 149.613H345.191C351.065 149.613 355.842 144.836 355.842 138.962V59.3282C355.842 53.4566 351.065 48.6795 345.194 48.6795H232.96C227.089 48.6795 222.312 53.4566 222.312 59.3282V138.965C222.312 144.836 227.089 149.613 232.96 149.613ZM223.565 59.3282C223.565 54.1476 227.78 49.9323 232.96 49.9323H345.194C350.374 49.9323 354.59 54.1476 354.59 59.3282V138.962C354.59 144.143 350.374 148.358 345.194 148.358H232.96C227.78 148.358 223.565 144.143 223.565 138.962V59.3282Z" fill="#0A191B"/>
<path d="M236.453 53.6393C230.738 53.6393 226.061 58.3161 226.061 64.0317V118.505C259.886 98.2068 292.969 76.7557 324.915 53.6393H236.453Z" fill="#E8EFF0"/>
<path d="M341.128 53.6393H324.915C292.967 76.7534 259.886 98.2068 226.061 118.505V130.28C226.061 135.995 230.738 140.672 236.453 140.672H341.128C346.843 140.672 351.52 135.995 351.52 130.28V64.0317C351.52 58.3161 346.843 53.6393 341.128 53.6393Z" fill="white"/>
<path d="M296.166 144.439H286.685C286.516 144.439 286.377 144.301 286.377 144.132V143.927C286.377 143.757 286.516 143.619 286.685 143.619H296.166C296.335 143.619 296.473 143.757 296.473 143.927V144.132C296.473 144.301 296.335 144.439 296.166 144.439Z" fill="#1E6F7A"/>
<path d="M235.55 52.6541C236.06 52.6541 236.473 52.2409 236.473 51.7312C236.473 51.2215 236.06 50.8083 235.55 50.8083C235.041 50.8083 234.627 51.2215 234.627 51.7312C234.627 52.2409 235.041 52.6541 235.55 52.6541Z" fill="#1E6F7A"/>
<path d="M239.525 52.6541C240.035 52.6541 240.448 52.2409 240.448 51.7312C240.448 51.2215 240.035 50.8083 239.525 50.8083C239.015 50.8083 238.602 51.2215 238.602 51.7312C238.602 52.2409 239.015 52.6541 239.525 52.6541Z" fill="white"/>
<path d="M243.535 52.6541C244.045 52.6541 244.458 52.2409 244.458 51.7312C244.458 51.2215 244.045 50.8083 243.535 50.8083C243.025 50.8083 242.612 51.2215 242.612 51.7312C242.612 52.2409 243.025 52.6541 243.535 52.6541Z" fill="#0A191B"/>
<path d="M235.743 152.65H231.502C230.944 152.65 230.488 152.194 230.488 151.636V150.965C230.488 150.407 230.944 149.951 231.502 149.951H235.743C236.301 149.951 236.757 150.407 236.757 150.965V151.636C236.757 152.194 236.301 152.65 235.743 152.65Z" fill="#8ABFC7"/>
<path d="M246.169 152.65H241.928C241.37 152.65 240.914 152.194 240.914 151.636V150.965C240.914 150.407 241.37 149.951 241.928 149.951H246.169C246.727 149.951 247.183 150.407 247.183 150.965V151.636C247.185 152.194 246.727 152.65 246.169 152.65Z" fill="#8ABFC7"/>
<path d="M256.597 152.65H252.356C251.798 152.65 251.342 152.194 251.342 151.636V150.965C251.342 150.407 251.798 149.951 252.356 149.951H256.597C257.155 149.951 257.611 150.407 257.611 150.965V151.636C257.611 152.194 257.155 152.65 256.597 152.65Z" fill="#8ABFC7"/>
<path d="M267.023 152.65H262.782C262.224 152.65 261.768 152.194 261.768 151.636V150.965C261.768 150.407 262.224 149.951 262.782 149.951H267.023C267.581 149.951 268.037 150.407 268.037 150.965V151.636C268.037 152.194 267.581 152.65 267.023 152.65Z" fill="#8ABFC7"/>
<path d="M277.448 152.65H273.208C272.65 152.65 272.193 152.194 272.193 151.636V150.965C272.193 150.407 272.65 149.951 273.208 149.951H277.448C278.006 149.951 278.463 150.407 278.463 150.965V151.636C278.465 152.194 278.006 152.65 277.448 152.65Z" fill="#8ABFC7"/>
<path d="M287.877 152.65H283.636C283.078 152.65 282.622 152.194 282.622 151.636V150.965C282.622 150.407 283.078 149.951 283.636 149.951H287.877C288.435 149.951 288.891 150.407 288.891 150.965V151.636C288.891 152.194 288.435 152.65 287.877 152.65Z" fill="#8ABFC7"/>
<path d="M298.303 152.65H294.062C293.504 152.65 293.048 152.194 293.048 151.636V150.965C293.048 150.407 293.504 149.951 294.062 149.951H298.303C298.861 149.951 299.317 150.407 299.317 150.965V151.636C299.317 152.194 298.861 152.65 298.303 152.65Z" fill="#8ABFC7"/>
<path d="M308.732 152.65H304.491C303.933 152.65 303.477 152.194 303.477 151.636V150.965C303.477 150.407 303.933 149.951 304.491 149.951H308.732C309.29 149.951 309.746 150.407 309.746 150.965V151.636C309.746 152.194 309.29 152.65 308.732 152.65Z" fill="#8ABFC7"/>
<path d="M319.157 152.65H314.917C314.359 152.65 313.902 152.194 313.902 151.636V150.965C313.902 150.407 314.359 149.951 314.917 149.951H319.157C319.715 149.951 320.172 150.407 320.172 150.965V151.636C320.172 152.194 319.715 152.65 319.157 152.65Z" fill="#8ABFC7"/>
<path d="M329.583 152.65H325.342C324.784 152.65 324.328 152.194 324.328 151.636V150.965C324.328 150.407 324.784 149.951 325.342 149.951H329.583C330.141 149.951 330.597 150.407 330.597 150.965V151.636C330.6 152.194 330.141 152.65 329.583 152.65Z" fill="#8ABFC7"/>
<path d="M340.012 152.65H335.771C335.213 152.65 334.757 152.194 334.757 151.636V150.965C334.757 150.407 335.213 149.951 335.771 149.951H340.012C340.57 149.951 341.026 150.407 341.026 150.965V151.636C341.026 152.194 340.57 152.65 340.012 152.65Z" fill="#8ABFC7"/>
<path d="M350.438 152.65H346.197C345.639 152.65 345.183 152.194 345.183 151.636V150.965C345.183 150.407 345.639 149.951 346.197 149.951H350.438C350.996 149.951 351.452 150.407 351.452 150.965V151.636C351.452 152.194 350.996 152.65 350.438 152.65Z" fill="#8ABFC7"/>
<path d="M456.765 145.375C458.228 144.353 459.795 142.953 459.668 141.173C457.441 141.119 455.204 141.586 453.184 142.525C452.472 141.582 453.627 140.372 454.639 139.764C456.833 138.443 459.028 137.123 461.221 135.804C460.451 135.091 459.41 134.678 458.36 134.671C457.545 132.697 461.447 131.385 461.096 129.277C460.912 128.171 459.523 127.622 458.439 127.911C457.356 128.201 456.53 129.055 455.763 129.874C456.249 128.482 457.145 127.279 457.858 125.988C458.571 124.698 459.115 123.207 458.8 121.767C458.485 120.327 457.026 119.07 455.599 119.439C454.612 119.693 453.943 120.593 453.427 121.472C452.301 123.383 451.499 125.482 451.063 127.656C450.802 128.953 450.042 130.705 448.786 130.287C448.108 130.061 447.824 129.28 447.381 128.719C446.142 127.146 443.423 127.471 442.152 129.018C440.88 130.564 440.845 132.833 441.488 134.729C441.885 135.9 442.417 137.425 441.437 138.178C440.472 138.921 438.933 138.072 437.904 138.722C436.661 139.508 437.354 141.383 437.502 142.847C437.678 144.591 436.843 146.254 436.151 147.864C435.459 149.475 434.895 151.333 435.592 152.94C437.689 157.771 453.848 147.414 456.765 145.375Z" fill="#8ABFC7"/>
<path fill-rule="evenodd" clip-rule="evenodd" d="M436.848 154.442C437.198 154.541 437.592 154.587 438.022 154.587C443.918 154.587 456.66 145.908 456.978 145.691L456.983 145.688C458.368 144.72 460.193 143.197 460.046 141.147L460.022 140.804L459.679 140.796C457.507 140.746 455.341 141.171 453.361 142.034C453.339 141.941 453.339 141.843 453.359 141.737C453.474 141.143 454.183 140.482 454.835 140.089L461.85 135.87L461.481 135.529C460.711 134.817 459.691 134.379 458.645 134.305C458.527 133.662 459.057 133.066 459.905 132.211L459.909 132.207C460.736 131.372 461.673 130.426 461.471 129.217C461.383 128.684 461.058 128.213 460.559 127.891C459.925 127.484 459.076 127.353 458.344 127.548C457.834 127.684 457.379 127.933 456.969 128.232C457.106 127.994 457.251 127.755 457.398 127.513C457.427 127.466 457.455 127.419 457.484 127.372L457.5 127.346C457.735 126.959 457.972 126.57 458.19 126.174C459.135 124.464 459.455 122.997 459.17 121.69C458.97 120.772 458.368 119.927 457.561 119.43C456.908 119.029 456.177 118.902 455.506 119.077C454.351 119.374 453.615 120.413 453.102 121.284C451.95 123.24 451.14 125.361 450.693 127.586C450.524 128.424 450.115 129.528 449.514 129.875C449.319 129.988 449.127 130.005 448.906 129.933C448.548 129.813 448.307 129.435 448.053 129.035L448.053 129.035C447.933 128.847 447.813 128.658 447.679 128.489C447.092 127.742 446.182 127.325 445.119 127.313H445.075C443.837 127.313 442.609 127.872 441.861 128.781C440.405 130.551 440.53 133.078 441.145 134.895C441.51 135.967 441.962 137.302 441.208 137.882C440.823 138.177 440.26 138.143 439.663 138.107L439.656 138.107C439.023 138.069 438.304 138.026 437.704 138.406C436.512 139.158 436.763 140.633 436.985 141.933L436.989 141.956C437.044 142.284 437.096 142.594 437.127 142.887C437.276 144.347 436.642 145.798 436.028 147.202L436.023 147.214L435.805 147.717C435.135 149.275 434.466 151.295 435.247 153.093C435.54 153.77 436.08 154.224 436.848 154.442ZM438.105 139.044C438.366 138.879 438.688 138.836 439.04 138.836C439.226 138.836 439.42 138.848 439.614 138.862C440.29 138.904 441.056 138.949 441.665 138.481C442.847 137.571 442.276 135.882 441.844 134.611C441.307 133.027 441.181 130.79 442.441 129.26C443.056 128.513 444.077 128.045 445.107 128.068C445.936 128.076 446.637 128.391 447.081 128.954C447.2 129.105 447.306 129.272 447.412 129.439C447.711 129.91 448.052 130.443 448.664 130.647C449.088 130.789 449.512 130.746 449.891 130.526C450.919 129.93 451.331 128.236 451.432 127.731C451.861 125.59 452.642 123.549 453.751 121.664C454.19 120.92 454.806 120.035 455.691 119.806C456.294 119.651 456.825 119.865 457.162 120.072C457.789 120.457 458.274 121.138 458.43 121.849C458.675 122.97 458.379 124.263 457.527 125.807C457.308 126.202 457.072 126.59 456.835 126.978C456.304 127.85 455.753 128.753 455.405 129.75L454.815 131.436L456.039 130.133C456.881 129.236 457.601 128.528 458.538 128.278C459.063 128.136 459.695 128.234 460.147 128.525C460.372 128.67 460.655 128.929 460.723 129.339C460.862 130.167 460.137 130.899 459.368 131.675L459.365 131.677C458.488 132.561 457.495 133.564 458.01 134.814L458.106 135.045L458.356 135.047C459.139 135.052 459.92 135.306 460.562 135.756L454.441 139.438C453.669 139.904 452.782 140.712 452.612 141.59C452.532 142.011 452.623 142.413 452.88 142.753L453.064 142.996L453.342 142.867C455.193 142.004 457.242 141.551 459.287 141.545C459.18 143.05 457.693 144.263 456.546 145.065C453.714 147.044 442.95 153.839 438.062 153.838C437.689 153.838 437.35 153.799 437.051 153.714C436.504 153.559 436.14 153.258 435.938 152.792C435.272 151.259 435.887 149.434 436.497 148.014L436.713 147.517L436.715 147.514C437.368 146.018 438.044 144.471 437.876 142.81C437.845 142.493 437.788 142.157 437.733 141.832L437.728 141.805C437.494 140.43 437.393 139.493 438.105 139.044Z" fill="#0F555F"/>
<path d="M459.71 156.989C460.196 156.525 460.695 155.94 460.613 155.272C460.527 154.575 459.801 154.101 459.102 154.054C458.4 154.007 457.724 154.283 457.076 154.552C456.683 154.026 457.27 153.33 457.816 152.967C460.254 151.344 463.354 149.905 463.948 147.037C463.997 146.798 464.022 146.53 463.884 146.327C463.749 146.125 463.49 146.047 463.249 146.017C461.789 145.833 460.459 146.857 459.009 147.103C457.413 147.374 455.803 146.684 454.184 146.731C452.88 146.768 451.643 147.28 450.442 147.783C448.208 148.718 445.916 149.691 444.188 151.387C441.592 153.935 437.914 161.331 443.376 162.769C448.657 164.162 456.013 160.517 459.71 156.989Z" fill="#357E88"/>
<path d="M440.042 149.16C439.951 149.16 439.861 149.127 439.79 149.063C439.634 148.924 439.62 148.685 439.76 148.529L452.42 134.364C452.56 134.208 452.798 134.195 452.954 134.335C453.11 134.473 453.124 134.713 452.984 134.869L440.324 149.033C440.249 149.117 440.145 149.16 440.042 149.16Z" fill="white"/>
<path d="M446.978 141.396C446.791 141.396 446.628 141.256 446.604 141.066L445.575 133.031C445.549 132.824 445.695 132.634 445.902 132.607C446.106 132.581 446.298 132.727 446.325 132.934L447.353 140.969C447.38 141.177 447.233 141.366 447.026 141.393C447.01 141.396 446.994 141.396 446.978 141.396Z" fill="white"/>
<path d="M439.282 163.349C439.16 163.349 439.04 163.29 438.966 163.18C438.85 163.006 438.898 162.771 439.073 162.655L453.4 153.151C453.574 153.036 453.809 153.084 453.924 153.258C454.04 153.431 453.993 153.667 453.818 153.782L439.491 163.286C439.426 163.329 439.354 163.349 439.282 163.349Z" fill="white"/>
<path d="M447.771 157.844C447.739 157.844 447.707 157.84 447.676 157.832C447.474 157.779 447.353 157.573 447.405 157.37L449.013 151.192C449.066 150.989 449.276 150.869 449.474 150.921C449.676 150.974 449.797 151.18 449.744 151.383L448.136 157.561C448.093 157.731 447.94 157.844 447.771 157.844Z" fill="white"/>
<g clip-path="url(#clip0)">
<path d="M182.761 181.425H187.283L189.433 163.869L182.761 163.87L182.761 181.425Z" fill="#FFB8B8"/>
<path d="M196.001 185.65L181.792 185.651L181.792 180.124L190.511 180.124C191.232 180.124 191.946 180.267 192.612 180.545C193.278 180.822 193.884 181.229 194.393 181.743C194.903 182.256 195.308 182.865 195.583 183.536C195.859 184.206 196.001 184.925 196.001 185.65Z" fill="#2F2E41"/>
<path d="M141.037 178.814L145.465 179.735L151.102 162.982L144.568 161.622L141.037 178.814Z" fill="#FFB8B8"/>
<path d="M153.153 185.651L139.239 182.755L140.35 177.343L148.889 179.12C150.315 179.417 151.565 180.271 152.365 181.496C153.164 182.721 153.448 184.216 153.153 185.651L153.153 185.651Z" fill="#2F2E41"/>
<path d="M153.301 122.329C152.919 121.941 152.627 121.474 152.445 120.96C152.262 120.446 152.194 119.898 152.245 119.354C152.296 118.811 152.464 118.286 152.738 117.815C153.013 117.344 153.386 116.94 153.832 116.63L150.324 103.842L156.838 105.968L159.171 117.786C159.638 118.575 159.802 119.51 159.63 120.412C159.459 121.315 158.964 122.122 158.24 122.682C157.517 123.242 156.614 123.516 155.704 123.451C154.793 123.386 153.938 122.987 153.301 122.329Z" fill="#FFB8B8"/>
<path d="M180.317 175.539C179.938 175.539 179.571 175.397 179.283 175.137C178.994 174.877 178.803 174.517 178.743 174.121L170.65 126.949C170.633 126.829 170.579 126.717 170.496 126.632C170.414 126.547 170.307 126.493 170.193 126.477C170.079 126.462 169.963 126.486 169.862 126.546C170.65 126.072 170.696 126.837 170.65 126.949L151.609 170.937C151.449 171.324 151.158 171.633 150.794 171.805C150.43 171.977 150.018 171.999 149.639 171.867L143.306 169.616C143.099 169.542 142.909 169.425 142.747 169.271C142.586 169.117 142.455 168.929 142.365 168.72C142.274 168.51 142.225 168.283 142.22 168.053C142.216 167.822 142.256 167.593 142.338 167.38L151.054 144.793L158.33 110.714L158.382 110.673C158.522 110.56 172.52 99.5072 182.086 108.348C190.839 116.439 189.21 162.672 188.795 171.858C188.78 172.221 188.654 172.569 188.435 172.849C188.217 173.129 187.918 173.327 187.584 173.412L180.704 175.489C180.577 175.522 180.447 175.538 180.317 175.539Z" fill="#515978"/>
<path d="M167.158 71.1519C172.16 71.1519 176.215 67.0696 176.215 62.0338C176.215 56.9979 172.16 52.9156 167.158 52.9156C162.156 52.9156 158.101 56.9979 158.101 62.0338C158.101 67.0696 162.156 71.1519 167.158 71.1519Z" fill="#FFB8B8"/>
<path d="M184.769 118.245C184.388 117.857 184.096 117.39 183.913 116.876C183.731 116.362 183.662 115.814 183.713 115.271C183.764 114.727 183.932 114.202 184.207 113.731C184.481 113.26 184.854 112.856 185.301 112.546L181.792 99.7585L188.307 101.885L190.639 113.702C191.107 114.492 191.27 115.426 191.098 116.328C190.927 117.231 190.432 118.039 189.709 118.599C188.985 119.159 188.083 119.432 187.172 119.367C186.262 119.302 185.407 118.903 184.769 118.245V118.245Z" fill="#FFB8B8"/>
<path d="M157.119 114.6C156.994 114.6 156.869 114.575 156.753 114.527C152.928 112.962 155.978 82.4092 156.109 81.1093L156.124 81.0537C156.219 80.8363 156.314 80.6234 156.411 80.4149C157.353 78.3054 158.932 76.5485 160.922 75.3935C162.913 74.2385 165.215 73.7441 167.5 73.9806C169.823 74.1603 172.033 75.0614 173.825 76.5594C175.617 78.0575 176.903 80.0787 177.505 82.344L184.593 108.486C184.668 108.764 184.671 109.056 184.601 109.335C184.531 109.615 184.391 109.871 184.193 110.079C183.996 110.288 183.748 110.441 183.475 110.525C183.201 110.608 182.91 110.619 182.631 110.556C177.117 109.316 163.753 107.115 158.771 113.44C158.159 114.217 157.615 114.6 157.119 114.6Z" fill="#A43E8A"/>
<path d="M184.583 112.091C184.401 112.09 184.221 112.06 184.049 112.001C183.836 111.93 183.641 111.816 183.474 111.666C183.307 111.515 183.172 111.333 183.078 111.128L176.91 97.8903L170.908 80.4977C170.651 79.75 170.613 78.9435 170.799 78.1747C170.985 77.4059 171.387 76.7073 171.957 76.1622C172.428 75.7129 172.998 75.3828 173.621 75.1994C174.243 75.0159 174.9 74.9843 175.538 75.1072C176.175 75.2301 176.774 75.504 177.285 75.9061C177.796 76.3083 178.205 76.8272 178.477 77.4199L186.464 94.7905L192.695 106.122C192.802 106.317 192.87 106.532 192.893 106.754C192.917 106.975 192.896 107.2 192.832 107.413C192.768 107.627 192.662 107.825 192.521 107.997C192.379 108.169 192.205 108.31 192.009 108.413L185.346 111.901C185.111 112.025 184.849 112.09 184.583 112.091Z" fill="#922276"/>
<path d="M157.631 115.345C157.571 115.345 157.512 115.342 157.452 115.335L149.984 114.538C149.762 114.514 149.547 114.445 149.351 114.336C149.156 114.226 148.985 114.078 148.848 113.9C148.711 113.722 148.611 113.518 148.554 113.3C148.498 113.082 148.485 112.855 148.518 112.633L150.639 98.1672L155.179 80.3315C155.375 79.5652 155.786 78.8719 156.363 78.3345C156.94 77.797 157.658 77.4381 158.432 77.3006C159.071 77.1878 159.728 77.2298 160.347 77.4231C160.967 77.6164 161.532 77.9554 161.996 78.4122C162.46 78.8689 162.809 79.4303 163.014 80.0498C163.22 80.6692 163.276 81.3291 163.178 81.9747L160.304 100.896L159.281 113.807C159.248 114.225 159.06 114.615 158.754 114.9C158.449 115.185 158.048 115.344 157.631 115.345V115.345Z" fill="#922276"/>
<path d="M165.286 69.4667C166.678 68.6335 166.826 66.6235 166.637 64.9677C166.448 63.3119 166.132 61.466 167.07 60.1122C168.188 58.4963 170.436 58.4642 172.353 58.4114C174.269 58.3587 176.603 57.7762 177.099 55.854C177.427 54.584 176.725 53.221 175.718 52.4238C174.711 51.6266 173.45 51.2741 172.226 50.9391C169.486 50.1898 166.657 49.4341 163.851 49.8459C161.072 50.2539 158.56 51.7813 156.857 54.0976C155.155 56.414 154.4 59.333 154.755 62.2232C155.209 65.9202 155.867 67.5346 155.435 69.1647C154.63 72.2009 151.158 74.1514 151.089 77.2998C151.035 79.7625 153.13 81.6623 155.174 82.9127C156.796 83.9046 158.546 84.7462 160.415 84.9784C162.284 85.2106 164.296 84.766 165.688 83.4511C167.483 81.7551 167.927 78.9217 167.412 76.459C166.898 73.9963 165.577 71.8093 164.27 69.6854" fill="#2F2E41"/>
</g>
<g clip-path="url(#clip1)">
<path d="M337.396 94.9863C335.153 97.3913 332.583 99.4679 329.762 101.155C329.697 101.195 329.631 101.232 329.565 101.271L324.998 97.222C325.046 97.1774 325.099 97.1273 325.156 97.0723C328.559 93.8358 345.454 71.2069 346.58 65.6964C346.502 66.1554 347.596 84.1588 337.396 94.9863Z" fill="#F0F0F0"/>
<path d="M330.643 101.936C330.556 101.957 330.468 101.976 330.38 101.994L326.954 98.9562C327.021 98.9328 327.099 98.905 327.188 98.8741C328.659 98.3527 333.037 96.7788 337.395 94.9861C342.078 93.0589 346.737 90.8815 347.74 89.4868C347.525 89.8108 340.902 99.6383 330.643 101.936Z" fill="#F0F0F0"/>
<path d="M337.332 35.0946H336.844V21.7062C336.844 20.6886 336.644 19.6809 336.255 18.7408C335.867 17.8007 335.297 16.9464 334.578 16.2269C333.86 15.5073 333.007 14.9365 332.068 14.5471C331.129 14.1577 330.123 13.9573 329.107 13.9573H300.785C299.769 13.9573 298.763 14.1577 297.825 14.5471C296.886 14.9365 296.033 15.5073 295.314 16.2269C294.596 16.9464 294.026 17.8006 293.637 18.7408C293.248 19.6809 293.048 20.6885 293.048 21.7061V95.1563C293.048 96.1739 293.248 97.1816 293.637 98.1217C294.026 99.0618 294.596 99.9161 295.314 100.636C296.033 101.355 296.886 101.926 297.825 102.315C298.763 102.705 299.769 102.905 300.785 102.905H329.107C330.123 102.905 331.129 102.705 332.068 102.315C333.007 101.926 333.86 101.355 334.578 100.636C335.297 99.9161 335.867 99.0619 336.255 98.1217C336.644 97.1816 336.844 96.174 336.844 95.1564V44.6248H337.332V35.0946Z" fill="#0A191B"/>
<path d="M335.198 21.7593V95.1026C335.198 95.8626 335.048 96.6151 334.758 97.3171C334.467 98.0192 334.041 98.6571 333.505 99.1944C332.968 99.7317 332.331 100.158 331.63 100.448C330.929 100.739 330.177 100.888 329.419 100.888H300.96C300.202 100.888 299.451 100.739 298.75 100.448C298.049 100.157 297.412 99.731 296.875 99.1938C296.339 98.6565 295.914 98.0187 295.623 97.3167C295.333 96.6148 295.184 95.8624 295.184 95.1026V21.7593C295.184 20.9996 295.333 20.2472 295.623 19.5452C295.914 18.8433 296.339 18.2054 296.875 17.6682C297.412 17.1309 298.049 16.7048 298.75 16.414C299.451 16.1233 300.202 15.9737 300.96 15.9738H304.414C304.244 16.3912 304.18 16.844 304.226 17.2923C304.272 17.7406 304.428 18.1707 304.679 18.5447C304.93 18.9187 305.269 19.2251 305.666 19.4372C306.063 19.6492 306.506 19.7602 306.956 19.7605H323.181C323.631 19.7609 324.075 19.6504 324.472 19.4386C324.87 19.2267 325.209 18.9202 325.46 18.546C325.711 18.1718 325.867 17.7414 325.913 17.2928C325.959 16.8442 325.894 16.3912 325.723 15.9738H329.419C330.177 15.9735 330.929 16.1229 331.63 16.4136C332.331 16.7042 332.968 17.1303 333.505 17.6676C334.041 18.2048 334.467 18.8427 334.758 19.5448C335.048 20.2469 335.198 20.9994 335.198 21.7593Z" fill="white"/>
<path d="M326.345 59.8725H301.331C300.893 59.872 300.473 59.6975 300.163 59.3872C299.853 59.0769 299.679 58.6562 299.678 58.2174V57.3936C299.679 56.9548 299.853 56.5341 300.163 56.2238C300.473 55.9136 300.893 55.739 301.331 55.7385H326.345C326.783 55.739 327.203 55.9136 327.513 56.2238C327.823 56.5341 327.997 56.9548 327.997 57.3936V58.2174C327.997 58.6562 327.823 59.0769 327.513 59.3872C327.203 59.6975 326.783 59.872 326.345 59.8725Z" fill="#F0F0F0"/>
<path d="M326.345 66.9739H301.331C300.893 66.9734 300.473 66.7989 300.163 66.4886C299.853 66.1783 299.679 65.7577 299.678 65.3189V64.495C299.679 64.0562 299.853 63.6355 300.163 63.3253C300.473 63.015 300.893 62.8405 301.331 62.84H326.345C326.783 62.8405 327.203 63.015 327.513 63.3253C327.823 63.6355 327.997 64.0562 327.997 64.495V65.3189C327.997 65.7577 327.823 66.1783 327.513 66.4886C327.203 66.7989 326.783 66.9734 326.345 66.9739Z" fill="#F0F0F0"/>
<path d="M327.596 58.2842H302.582C302.122 58.2837 301.681 58.1004 301.356 57.7746C301.031 57.4488 300.848 57.0071 300.847 56.5464V55.7226C300.848 55.2618 301.031 54.8201 301.356 54.4943C301.681 54.1685 302.122 53.9853 302.582 53.9847H327.596C328.056 53.9853 328.497 54.1685 328.823 54.4943C329.148 54.8201 329.331 55.2618 329.331 55.7226V56.5464C329.331 57.0071 329.148 57.4488 328.823 57.7746C328.497 58.1004 328.056 58.2837 327.596 58.2842ZM302.582 54.3158C302.21 54.3162 301.853 54.4645 301.59 54.7283C301.326 54.992 301.178 55.3496 301.178 55.7226V56.5464C301.178 56.9194 301.326 57.277 301.59 57.5407C301.853 57.8044 302.21 57.9528 302.582 57.9532H327.596C327.969 57.9528 328.326 57.8044 328.589 57.5407C328.852 57.277 329.001 56.9194 329.001 56.5464V55.7226C329.001 55.3496 328.852 54.992 328.589 54.7283C328.326 54.4645 327.969 54.3162 327.596 54.3158H302.582Z" fill="#3F3D56"/>
<path d="M327.596 65.3857H302.582C302.122 65.3851 301.681 65.2019 301.356 64.8761C301.031 64.5503 300.848 64.1086 300.847 63.6478V62.824C300.848 62.3633 301.031 61.9216 301.356 61.5958C301.681 61.27 302.122 61.0867 302.582 61.0862H327.596C328.056 61.0867 328.497 61.27 328.823 61.5958C329.148 61.9216 329.331 62.3633 329.331 62.824V63.6478C329.331 64.1086 329.148 64.5503 328.823 64.8761C328.497 65.2019 328.056 65.3851 327.596 65.3857ZM302.582 61.4172C302.21 61.4176 301.853 61.566 301.59 61.8297C301.326 62.0934 301.178 62.451 301.178 62.824V63.6478C301.178 64.0208 301.326 64.3784 301.59 64.6421C301.853 64.9059 302.21 65.0542 302.582 65.0546H327.596C327.969 65.0542 328.326 64.9059 328.589 64.6421C328.852 64.3784 329.001 64.0208 329.001 63.6478V62.824C329.001 62.451 328.852 62.0934 328.589 61.8297C328.326 61.566 327.969 61.4176 327.596 61.4172H302.582Z" fill="#3F3D56"/>
<path d="M335.198 21.7593V37.7125C332.666 38.3794 330.016 38.4559 327.451 37.9362C324.886 37.4164 322.474 36.3142 320.401 34.7144C318.328 33.1146 316.649 31.0599 315.493 28.7082C314.337 26.3565 313.735 23.7706 313.734 21.1495C313.734 20.6816 313.753 20.2186 313.79 19.7605H323.181C323.631 19.7609 324.075 19.6504 324.472 19.4386C324.87 19.2267 325.209 18.9202 325.46 18.546C325.711 18.1718 325.867 17.7414 325.913 17.2928C325.959 16.8442 325.894 16.3912 325.723 15.9738H329.419C330.177 15.9735 330.929 16.1229 331.63 16.4136C332.331 16.7042 332.968 17.1303 333.505 17.6676C334.041 18.2048 334.467 18.8427 334.758 19.5448C335.048 20.2469 335.198 20.9994 335.198 21.7593Z" fill="#F0F0F0"/>
<path d="M309.563 99.892C309.563 100.228 309.55 100.56 309.523 100.888H300.96C300.202 100.888 299.451 100.739 298.75 100.448C298.049 100.157 297.412 99.7311 296.875 99.1938C296.339 98.6566 295.914 98.0188 295.623 97.3168C295.333 96.6148 295.184 95.8625 295.184 95.1027V87.2577C296.979 87.0239 298.803 87.1759 300.534 87.7036C302.266 88.2314 303.865 89.1227 305.226 90.3182C306.587 91.5137 307.677 92.986 308.425 94.6368C309.173 96.2876 309.561 98.0792 309.563 99.892H309.563Z" fill="#922276"/>
<path d="M285.908 58.3222L280.364 54.0754L276.123 59.628L281.668 63.8748L285.908 58.3222Z" fill="#F0F0F0"/>
<path d="M319.255 75.5374H307.379C306.941 75.5369 306.521 75.3624 306.211 75.0521C305.901 74.7418 305.727 74.3211 305.727 73.8823V73.0585C305.727 72.6197 305.901 72.199 306.211 71.8888C306.521 71.5785 306.941 71.4039 307.379 71.4034H319.255C319.693 71.4039 320.113 71.5785 320.423 71.8888C320.732 72.199 320.907 72.6197 320.907 73.0585V73.8823C320.907 74.3211 320.732 74.7418 320.423 75.0521C320.113 75.3624 319.693 75.5369 319.255 75.5374Z" fill="#922276"/>
<path d="M320.506 73.9492H308.63C308.17 73.9487 307.729 73.7654 307.404 73.4396C307.079 73.1138 306.896 72.6721 306.895 72.2114V71.3875C306.896 70.9268 307.079 70.4851 307.404 70.1593C307.729 69.8335 308.17 69.6502 308.63 69.6497H320.506C320.966 69.6502 321.407 69.8335 321.732 70.1593C322.057 70.4851 322.24 70.9268 322.241 71.3875V72.2114C322.24 72.6721 322.057 73.1138 321.732 73.4396C321.407 73.7654 320.966 73.9487 320.506 73.9492ZM308.63 69.9807C308.258 69.9811 307.901 70.1295 307.637 70.3932C307.374 70.657 307.226 71.0146 307.226 71.3875V72.2114C307.226 72.5843 307.374 72.9419 307.637 73.2057C307.901 73.4694 308.258 73.6178 308.63 73.6182H320.506C320.878 73.6178 321.235 73.4694 321.499 73.2057C321.762 72.9419 321.91 72.5843 321.91 72.2114V71.3875C321.91 71.0146 321.762 70.657 321.499 70.3932C321.235 70.1295 320.878 69.9811 320.506 69.9807H308.63Z" fill="#3F3D56"/>
</g>
<path d="M45.1135 172.057C45.3114 172.14 45.5082 172.223 45.7061 172.307C45.3994 169.862 45.3901 167.396 45.2918 164.938C45.2605 164.159 45.5013 162.514 44.801 162.169C43.8948 161.722 42.8207 162.645 41.9029 162.231C40.8659 161.762 41.0592 160.552 40.859 159.629C40.6911 158.857 39.6426 155.1 38.4829 156.971C36.7329 155.85 35.2364 153.342 33.0524 153.013C32.6542 152.953 32.1948 153.1 32.0131 153.46C31.9066 153.672 31.91 153.921 31.9367 154.157C31.9992 154.719 32.1809 155.268 32.4656 155.756C32.6554 156.083 32.8938 156.387 33.0084 156.747C33.123 157.107 33.0802 157.554 32.7839 157.787C32.5258 157.991 32.1658 157.976 31.8429 158.033C31.52 158.091 31.1566 158.316 31.1902 158.643C31.2029 158.772 31.2781 158.886 31.351 158.995C34.6322 163.847 36.1762 169.767 40.8208 173.594C41.5245 174.174 42.3138 174.72 43.22 174.822C44.2802 174.941 45.3311 174.416 46.088 173.663C46.845 172.912 47.3542 171.953 47.8403 171.004" fill="#A1A7A7"/>
<path d="M33.1803 180.222C31.1213 179.794 28.9396 179.254 27.5056 177.715C28.6989 177.524 29.8921 177.333 31.0854 177.142C31.2463 177.117 31.4257 177.08 31.5194 176.946C31.6722 176.727 31.4905 176.433 31.2984 176.248C30.0704 175.062 28.2556 174.774 26.7151 174.04C26.2591 173.822 25.7765 173.498 25.6966 172.998C25.6133 172.472 26.0438 171.975 26.5461 171.795C27.0473 171.616 27.5994 171.676 28.1283 171.739C27.1028 170.471 26.0774 169.204 25.0508 167.937C24.8621 167.703 24.6654 167.451 24.6399 167.152C24.5867 166.528 25.3459 166.091 25.9593 166.217C26.5728 166.343 27.0392 166.827 27.4639 167.286C26.5253 165.338 25.8205 163.277 25.3691 161.162C25.2302 160.515 25.1573 159.733 25.6515 159.293C26.1376 158.862 26.942 159.031 27.4188 159.471C27.8968 159.912 28.1364 160.544 28.3933 161.142C29.1074 162.797 30.0739 164.343 31.2486 165.711C31.3829 165.867 31.5275 166.027 31.7208 166.095C32.3134 166.306 32.8111 165.561 32.8597 164.934C32.9083 164.307 32.7972 163.593 33.215 163.123C33.6919 162.586 34.6224 162.733 35.1363 163.234C35.6502 163.734 35.855 164.464 36.0402 165.158C36.3504 166.323 36.6606 167.488 36.9707 168.653C37.473 168.224 37.9973 167.783 38.6327 167.6C39.2681 167.417 40.0505 167.569 40.4059 168.126C40.5864 168.41 40.635 168.754 40.701 169.082C41.2774 171.967 43.4243 174.322 44.1546 177.171C44.7009 179.302 43.9533 182.109 41.3017 181.875C38.6651 181.638 35.7937 180.766 33.1803 180.222Z" fill="#CCD3D3"/>
<path fill-rule="evenodd" clip-rule="evenodd" d="M43.7713 181.249C43.2332 181.882 42.489 182.212 41.6047 182.212C41.4959 182.212 41.386 182.206 41.2714 182.199C39.4381 182.037 37.4995 181.572 35.6256 181.121L35.5897 181.113C34.7292 180.907 33.9166 180.712 33.1118 180.544C30.9648 180.097 28.745 179.529 27.2647 177.94L26.8492 177.493L31.032 176.823C31.1894 176.797 31.238 176.776 31.2484 176.766C31.253 176.733 31.2044 176.612 31.0702 176.483C30.2987 175.737 29.2741 175.367 28.1892 174.977L28.1871 174.976L28.1644 174.968C27.6356 174.777 27.0895 174.58 26.5737 174.333C25.848 173.987 25.4568 173.567 25.3747 173.049C25.2612 172.323 25.8365 171.704 26.436 171.49C26.7508 171.377 27.076 171.347 27.3966 171.353L24.7983 168.143L24.7979 168.142C24.6093 167.909 24.3504 167.59 24.3157 167.181C24.2856 166.836 24.4244 166.508 24.7069 166.257C25.0564 165.946 25.5726 165.805 26.024 165.898C26.2207 165.939 26.4047 166.011 26.5749 166.102C25.9175 164.53 25.4071 162.897 25.0506 161.231C24.9082 160.567 24.7937 159.62 25.4349 159.05C26.0749 158.482 27.0587 158.697 27.6397 159.233C28.1235 159.681 28.3769 160.273 28.6211 160.848L28.6917 161.013C29.3943 162.643 30.3375 164.152 31.4949 165.499C31.606 165.628 31.7148 165.748 31.8294 165.788C31.8873 165.808 31.9787 165.827 32.1026 165.747C32.3225 165.603 32.5088 165.242 32.5354 164.908C32.547 164.769 32.5493 164.624 32.5516 164.479L32.5516 164.479C32.5609 163.953 32.5714 163.357 32.9718 162.907C33.2148 162.632 33.569 162.474 33.9694 162.459C34.4625 162.444 35.0007 162.648 35.3629 163C35.9555 163.578 36.1766 164.407 36.3536 165.073L37.1522 168.074C37.5562 167.749 38.0087 167.439 38.5423 167.286C39.2413 167.085 40.2077 167.209 40.68 167.95C40.8709 168.251 40.9381 168.596 40.9959 168.899L41.0191 169.018C41.3119 170.483 42.0144 171.791 42.7586 173.176L42.7599 173.178C43.425 174.417 44.1118 175.697 44.4692 177.089C44.8685 178.646 44.5954 180.279 43.7713 181.249ZM40.1325 168.299C39.9311 167.984 39.5469 167.849 39.165 167.849C39.0133 167.849 38.8617 167.871 38.7194 167.909C38.1407 168.075 37.6291 168.512 37.1789 168.897L36.7865 169.233L35.724 165.239C35.5597 164.619 35.3722 163.917 34.9081 163.466C34.6731 163.236 34.3028 163.096 33.9926 163.108C33.8352 163.114 33.6164 163.158 33.4567 163.337C33.2171 163.608 33.209 164.036 33.2009 164.49C33.1986 164.647 33.1952 164.805 33.1836 164.957C33.1408 165.5 32.8479 166.036 32.4556 166.291C32.1929 166.462 31.8919 166.5 31.6107 166.399C31.3456 166.305 31.1628 166.11 30.9996 165.92C29.7994 164.522 28.8214 162.957 28.0922 161.268L28.0193 161.099C27.7925 160.564 27.5772 160.059 27.1953 159.707C26.8342 159.373 26.2138 159.224 25.8643 159.533C25.5703 159.794 25.5124 160.288 25.6837 161.091C26.1305 163.18 26.8272 165.215 27.7543 167.141L28.6929 169.092L27.223 167.504C26.7867 167.033 26.3851 166.634 25.8909 166.533C25.642 166.481 25.3319 166.566 25.1374 166.74C25.0483 166.818 24.9465 166.949 24.9615 167.122C24.9777 167.317 25.1258 167.513 25.3018 167.73L28.8816 172.155L28.0876 172.061C27.6223 172.006 27.0946 171.943 26.6536 172.101C26.3029 172.227 25.9603 172.586 26.017 172.947C26.0622 173.237 26.3365 173.498 26.8538 173.745C27.348 173.98 27.8874 174.175 28.4082 174.362L28.4193 174.366C29.5189 174.763 30.6542 175.173 31.5227 176.014C31.907 176.384 32.0077 176.813 31.7855 177.132C31.6067 177.388 31.3028 177.437 31.138 177.464L31.1362 177.464L28.2057 177.933C29.5482 179.058 31.422 179.527 33.2449 179.905C34.0712 180.076 34.9392 180.285 35.7782 180.486L35.7784 180.486L35.8029 180.492C37.6471 180.935 39.5524 181.392 41.3304 181.549C42.1545 181.621 42.8084 181.378 43.276 180.827C43.9565 180.025 44.1822 178.588 43.8396 177.25C43.5031 175.934 42.8347 174.689 42.1881 173.485L42.1869 173.483C41.4531 172.117 40.695 170.704 40.3825 169.144L40.3582 169.021C40.3073 168.751 40.2575 168.496 40.1325 168.299Z" fill="#A1A7A7"/>
<path d="M42.8499 181.205C42.9356 181.205 43.0212 181.171 43.0849 181.104C43.2099 180.974 43.2052 180.768 43.0756 180.645L30.6649 168.749C30.5365 168.625 30.3293 168.629 30.2054 168.758C30.0804 168.888 30.0851 169.094 30.2147 169.218L42.6242 181.115C42.6879 181.175 42.7689 181.205 42.8499 181.205Z" fill="white"/>
<path d="M38.551 177.086C38.566 177.086 38.5811 177.085 38.5961 177.082C38.7744 177.058 38.8982 176.894 38.8739 176.715L38.088 171.078C38.0626 170.899 37.9017 170.776 37.7212 170.801C37.5429 170.825 37.4191 170.99 37.4434 171.168L38.2292 176.806C38.2512 176.968 38.3913 177.086 38.551 177.086Z" fill="white"/>
<path d="M35.1821 173.855C35.3383 173.855 35.4761 173.743 35.5027 173.585C35.5328 173.408 35.4136 173.24 35.2365 173.21L30.4923 172.404C30.3153 172.373 30.1474 172.493 30.1174 172.67C30.0873 172.847 30.2065 173.015 30.3836 173.045L35.1277 173.851C35.1462 173.854 35.1647 173.855 35.1821 173.855Z" fill="white"/>
<path d="M44.322 171.448C44.3891 171.448 44.4562 171.427 44.5141 171.384C44.6588 171.278 44.6888 171.074 44.5824 170.93L36.3325 159.732C36.2272 159.587 36.0235 159.556 35.8777 159.662C35.733 159.769 35.7029 159.973 35.8094 160.117L44.0592 171.315C44.124 171.402 44.2224 171.448 44.322 171.448Z" fill="white"/>
<path d="M39.0501 164.294C39.0779 164.294 39.1057 164.291 39.1323 164.284C39.3059 164.239 39.4101 164.062 39.365 163.887L38.0791 158.953C38.034 158.778 37.8546 158.675 37.6821 158.72C37.5085 158.765 37.4043 158.942 37.4495 159.117L38.7353 164.051C38.7747 164.197 38.9066 164.294 39.0501 164.294Z" fill="white"/>
<defs>
<clipPath id="clip0">
<rect width="142" height="137" fill="white" transform="translate(99.895 49.0001)"/>
</clipPath>
<clipPath id="clip1">
<rect width="72" height="90" fill="white" transform="translate(275.895 13.0001)"/>
</clipPath>
</defs>
</svg>
