<svg width="447" height="174" viewBox="0 0 447 174" fill="none" xmlns="http://www.w3.org/2000/svg">
<path d="M21.2185 159.057C21.4164 159.14 21.6132 159.223 21.8111 159.307C21.5044 156.862 21.4951 154.396 21.3967 151.938C21.3655 151.159 21.6062 149.514 20.906 149.169C19.9998 148.722 18.9257 149.645 18.0079 149.231C16.9709 148.762 17.1642 147.552 16.9639 146.629C16.7961 145.857 15.7475 142.1 14.5878 143.971C12.8379 142.85 11.3414 140.342 9.15737 140.013C8.75923 139.953 8.29974 140.1 8.11803 140.46C8.01155 140.672 8.01503 140.92 8.04165 141.157C8.10415 141.719 8.28586 142.268 8.57057 142.756C8.76039 143.082 8.99881 143.387 9.11339 143.747C9.22797 144.107 9.18515 144.554 8.88885 144.787C8.63076 144.991 8.27081 144.976 7.9479 145.033C7.62499 145.091 7.26157 145.316 7.29513 145.643C7.30786 145.772 7.38309 145.886 7.45601 145.994C10.7372 150.847 12.2812 156.767 16.9258 160.594C17.6294 161.174 18.4188 161.72 19.325 161.822C20.3852 161.941 21.4361 161.416 22.193 160.663C22.95 159.912 23.4592 158.953 23.9453 158.004" fill="#A1A7A7"/>
<path d="M9.28478 167.222C7.22579 166.794 5.04411 166.253 3.61011 164.715C4.80338 164.524 5.99664 164.333 7.18991 164.142C7.35079 164.117 7.53018 164.08 7.62393 163.946C7.7767 163.727 7.59499 163.433 7.40287 163.248C6.17488 162.061 4.3601 161.774 2.81961 161.039C2.3636 160.822 1.88097 160.498 1.80111 159.998C1.71778 159.472 2.14833 158.975 2.65063 158.795C3.15178 158.616 3.70386 158.676 4.23278 158.739C3.20734 157.471 2.18189 156.204 1.15529 154.937C0.966635 154.703 0.76988 154.45 0.744417 154.152C0.691177 153.528 1.45042 153.091 2.06384 153.217C2.67725 153.343 3.14368 153.827 3.56844 154.286C2.6298 152.338 1.92495 150.277 1.47357 148.162C1.33468 147.515 1.26177 146.733 1.75597 146.293C2.24207 145.861 3.04646 146.03 3.5233 146.471C4.0013 146.912 4.24088 147.544 4.49782 148.142C5.21193 149.797 6.17835 151.343 7.3531 152.711C7.48736 152.867 7.63203 153.027 7.82531 153.095C8.4179 153.306 8.91557 152.56 8.96418 151.934C9.01279 151.307 8.90168 150.593 9.3195 150.123C9.79635 149.586 10.7269 149.733 11.2408 150.234C11.7546 150.734 11.9595 151.464 12.1447 152.158C12.4549 153.323 12.765 154.487 13.0752 155.653C13.5775 155.224 14.1018 154.783 14.7372 154.6C15.3726 154.417 16.155 154.568 16.5104 155.126C16.6909 155.41 16.7395 155.754 16.8055 156.082C17.3819 158.967 19.5288 161.322 20.2591 164.171C20.8054 166.302 20.0577 169.109 17.4062 168.875C14.7696 168.638 11.8982 167.766 9.28478 167.222Z" fill="#CCD3D3"/>
<path fill-rule="evenodd" clip-rule="evenodd" d="M19.8758 168.249C19.3376 168.882 18.5934 169.212 17.7092 169.212C17.6004 169.212 17.4905 169.206 17.3759 169.199C15.5426 169.037 13.604 168.572 11.7301 168.121L11.6942 168.113C10.8337 167.907 10.0211 167.712 9.21629 167.544C7.06934 167.097 4.84947 166.529 3.36917 164.94L2.95367 164.493L7.13647 163.823C7.29387 163.797 7.34248 163.775 7.3529 163.766C7.35753 163.733 7.30892 163.612 7.17466 163.483C6.40318 162.737 5.37857 162.367 4.29372 161.976L4.29161 161.976L4.26888 161.968C3.74008 161.777 3.19396 161.58 2.67821 161.333C1.95253 160.987 1.56133 160.567 1.47916 160.049C1.36573 159.323 1.94095 158.704 2.54048 158.49C2.85529 158.377 3.18052 158.347 3.50111 158.353L0.902779 155.142L0.902384 155.142C0.713762 154.909 0.454845 154.59 0.420149 154.181C0.390057 153.836 0.528942 153.508 0.811344 153.257C1.16088 152.946 1.67707 152.805 2.12845 152.898C2.32521 152.939 2.50923 153.011 2.67937 153.102C2.02197 151.53 1.51156 149.897 1.15509 148.231C1.01273 147.567 0.898149 146.619 1.53934 146.05C2.17938 145.482 3.16316 145.697 3.74417 146.233C4.22795 146.681 4.48142 147.273 4.72563 147.847L4.79623 148.013C5.49876 149.643 6.44204 151.152 7.59942 152.499C7.71053 152.627 7.81933 152.748 7.93391 152.788C7.99178 152.808 8.08321 152.827 8.20705 152.747C8.42696 152.603 8.61329 152.242 8.63991 151.908C8.65149 151.769 8.6538 151.624 8.65612 151.479L8.65612 151.479C8.66538 150.953 8.67586 150.357 9.07625 149.906C9.3193 149.632 9.67346 149.474 10.0739 149.459C10.567 149.444 11.1052 149.648 11.4674 150C12.06 150.578 12.2811 151.406 12.4581 152.073L13.2567 155.074C13.6607 154.749 14.1132 154.439 14.6468 154.286C15.3458 154.085 16.3122 154.208 16.7845 154.95C16.9754 155.251 17.0425 155.596 17.1004 155.899L17.1236 156.017C17.4164 157.483 18.1189 158.791 18.8631 160.176L18.8644 160.178C19.5295 161.417 20.2163 162.696 20.5737 164.089C20.973 165.646 20.6999 167.279 19.8758 168.249ZM16.237 155.299C16.0356 154.984 15.6514 154.848 15.2694 154.848C15.1178 154.848 14.9662 154.87 14.8239 154.909C14.2452 155.075 13.7336 155.512 13.2834 155.897L12.891 156.233L11.8285 152.239C11.6642 151.619 11.4767 150.917 11.0126 150.465C10.7776 150.236 10.4073 150.096 10.0971 150.108C9.93968 150.114 9.72093 150.158 9.56121 150.337C9.32163 150.608 9.31353 151.036 9.30543 151.49C9.30312 151.647 9.29964 151.805 9.28807 151.957C9.24525 152.5 8.95243 153.036 8.56007 153.291C8.29735 153.462 7.99643 153.5 7.71518 153.399C7.45014 153.305 7.26727 153.11 7.10408 152.92C5.90387 151.522 4.92588 149.957 4.19672 148.268L4.12381 148.099C3.89696 147.564 3.68169 147.059 3.29975 146.707C2.93864 146.373 2.31828 146.224 1.96875 146.533C1.67478 146.794 1.61691 147.288 1.7882 148.09C2.23495 150.18 2.9317 152.215 3.85877 154.141L4.79741 156.092L3.32752 154.504C2.89119 154.033 2.48958 153.634 1.99537 153.533C1.74653 153.48 1.43635 153.566 1.24191 153.74C1.15279 153.818 1.05094 153.949 1.06599 154.122C1.08219 154.317 1.23034 154.513 1.40626 154.73L4.98606 159.155L4.19209 159.061C3.72682 159.006 3.19905 158.943 2.75809 159.101C2.4074 159.227 2.06482 159.586 2.12153 159.947C2.16666 160.237 2.44097 160.498 2.95832 160.745C3.45252 160.98 3.99187 161.175 4.51269 161.362L4.52384 161.366C5.62336 161.763 6.75864 162.173 7.62722 163.014C8.01147 163.384 8.11217 163.812 7.88995 164.132C7.71123 164.388 7.40732 164.437 7.24253 164.464L7.24065 164.464L4.31015 164.933C5.65272 166.058 7.52653 166.527 9.34941 166.905C10.1757 167.076 11.0437 167.285 11.8827 167.486L11.8829 167.486L11.9074 167.492C13.7516 167.934 15.6569 168.392 17.4349 168.548C18.259 168.621 18.9129 168.378 19.3805 167.827C20.061 167.025 20.2867 165.588 19.9441 164.25C19.6076 162.934 18.9392 161.689 18.2926 160.485L18.2914 160.483C17.5576 159.117 16.7995 157.704 16.487 156.144L16.4627 156.021C16.4118 155.751 16.362 155.495 16.237 155.299Z" fill="#A1A7A7"/>
<path d="M18.9549 168.205C19.0405 168.205 19.1262 168.171 19.1898 168.104C19.3148 167.974 19.3102 167.768 19.1806 167.645L6.76991 155.749C6.64144 155.625 6.43427 155.629 6.31042 155.758C6.18543 155.888 6.19006 156.094 6.31968 156.218L18.7292 168.114C18.7929 168.175 18.8739 168.205 18.9549 168.205Z" fill="white"/>
<path d="M14.656 164.086C14.671 164.086 14.6861 164.084 14.7011 164.082C14.8794 164.058 15.0032 163.893 14.9789 163.715L14.193 158.078C14.1676 157.899 14.0067 157.776 13.8261 157.801C13.6479 157.825 13.5241 157.99 13.5484 158.168L14.3342 163.806C14.3562 163.968 14.4963 164.086 14.656 164.086Z" fill="white"/>
<path d="M11.2871 160.855C11.4433 160.855 11.581 160.743 11.6077 160.585C11.6377 160.407 11.5185 160.24 11.3415 160.21L6.59733 159.404C6.42025 159.373 6.25242 159.493 6.22233 159.67C6.19224 159.847 6.31145 160.015 6.48853 160.045L11.2327 160.851C11.2512 160.854 11.2697 160.855 11.2871 160.855Z" fill="white"/>
<path d="M20.4269 158.448C20.4941 158.448 20.5612 158.427 20.6191 158.384C20.7637 158.278 20.7938 158.074 20.6873 157.929L12.4375 146.732C12.3322 146.587 12.1285 146.556 11.9826 146.662C11.838 146.769 11.8079 146.972 11.9143 147.117L20.1642 158.315C20.229 158.402 20.3274 158.448 20.4269 158.448Z" fill="white"/>
<path d="M15.1551 151.294C15.1829 151.294 15.2107 151.291 15.2373 151.284C15.4109 151.239 15.5151 151.062 15.4699 150.887L14.1841 145.953C14.1389 145.778 13.9595 145.675 13.7871 145.72C13.6135 145.765 13.5093 145.942 13.5545 146.117L14.8403 151.051C14.8797 151.197 15.0116 151.294 15.1551 151.294Z" fill="white"/>
<path d="M374.352 162.947C414.311 162.947 446.704 160.18 446.704 156.766C446.704 153.352 414.311 150.584 374.352 150.584C334.393 150.584 302 153.352 302 156.766C302 160.18 334.393 162.947 374.352 162.947Z" fill="#E6E7E8"/>
<path d="M406.684 155.787H339.343C337.138 155.787 335.334 153.983 335.334 151.778V103.008C335.334 100.804 337.138 99 339.343 99H406.684C408.889 99 410.693 100.804 410.693 103.008V151.78C410.693 153.983 408.889 155.787 406.684 155.787Z" fill="#0A191B"/>
<path d="M404.727 151.051H340.974C338.851 151.051 337.114 149.314 337.114 147.19V105.328C337.114 103.205 338.851 101.468 340.974 101.468H404.729C406.852 101.468 408.589 103.205 408.589 105.328V147.19C408.587 149.314 406.85 151.051 404.727 151.051Z" fill="#E6E7E8"/>
<path d="M376.993 153.197H371.708C371.58 153.197 371.475 153.092 371.475 152.964C371.475 152.836 371.58 152.731 371.708 152.731H376.993C377.122 152.731 377.227 152.836 377.227 152.964C377.228 153.091 377.123 153.197 376.993 153.197Z" fill="#E3E5FC"/>
<path d="M339.356 100.908C339.646 100.908 339.882 100.673 339.882 100.382C339.882 100.092 339.646 99.856 339.356 99.856C339.065 99.856 338.83 100.092 338.83 100.382C338.83 100.673 339.065 100.908 339.356 100.908Z" fill="#E3E5FC"/>
<path d="M341.619 100.908C341.91 100.908 342.145 100.673 342.145 100.382C342.145 100.092 341.91 99.856 341.619 99.856C341.328 99.856 341.093 100.092 341.093 100.382C341.093 100.673 341.328 100.908 341.619 100.908Z" fill="white"/>
<path d="M343.904 100.908C344.194 100.908 344.43 100.673 344.43 100.382C344.43 100.092 344.194 99.856 343.904 99.856C343.613 99.856 343.377 100.092 343.377 100.382C343.377 100.673 343.613 100.908 343.904 100.908Z" fill="#4B369D"/>
<path d="M375.995 129.558H344.004C343.661 129.558 343.38 129.277 343.38 128.934C343.38 128.591 343.661 128.309 344.004 128.309H375.995C376.338 128.309 376.619 128.591 376.619 128.934C376.619 129.277 376.339 129.558 375.995 129.558Z" fill="white"/>
<path d="M375.994 132.421H344.004C343.661 132.421 343.379 132.139 343.379 131.796C343.379 131.453 343.661 131.172 344.004 131.172H375.994C376.337 131.172 376.619 131.453 376.619 131.796C376.619 132.139 376.339 132.421 375.994 132.421Z" fill="white"/>
<path d="M375.994 135.283H344.004C343.661 135.283 343.379 135.002 343.379 134.659C343.379 134.316 343.661 134.035 344.004 134.035H375.994C376.337 134.035 376.619 134.316 376.619 134.659C376.619 135.002 376.339 135.283 375.994 135.283Z" fill="white"/>
<path d="M375.994 138.511H344.004C343.661 138.511 343.379 138.229 343.379 137.886C343.379 137.543 343.661 137.262 344.004 137.262H375.994C376.337 137.262 376.619 137.543 376.619 137.886C376.619 138.229 376.339 138.511 375.994 138.511Z" fill="white"/>
<path d="M375.994 141.373H344.004C343.661 141.373 343.379 141.092 343.379 140.749C343.379 140.406 343.661 140.125 344.004 140.125H375.994C376.337 140.125 376.619 140.406 376.619 140.749C376.619 141.092 376.339 141.373 375.994 141.373Z" fill="white"/>
<path d="M375.994 144.236H344.004C343.661 144.236 343.379 143.955 343.379 143.612C343.379 143.269 343.661 142.987 344.004 142.987H375.994C376.337 142.987 376.619 143.269 376.619 143.612C376.619 143.955 376.339 144.236 375.994 144.236Z" fill="white"/>
<path d="M350.867 122.792H369.132C373.25 122.792 376.619 119.423 376.619 115.305V113.966C376.619 109.848 373.25 106.479 369.132 106.479H350.867C346.748 106.479 343.379 109.848 343.379 113.966V115.305C343.378 119.423 346.748 122.792 350.867 122.792Z" fill="white"/>
<path d="M391.139 135.042H394.816C398.934 135.042 402.303 131.673 402.303 127.555V113.966C402.303 109.848 398.934 106.479 394.816 106.479H391.139C387.02 106.479 383.651 109.848 383.651 113.966V127.555C383.65 131.673 387.02 135.042 391.139 135.042Z" fill="white"/>
<path d="M387.019 143.49H398.937C400.789 143.49 402.304 141.975 402.304 140.123C402.304 138.271 400.789 136.756 398.937 136.756H387.019C385.167 136.756 383.651 138.271 383.651 140.123C383.65 141.975 385.165 143.49 387.019 143.49Z" fill="#9A3C81"/>
<path d="M253.818 110.599L248.296 105.232L253.806 99.6021L254.828 100.604L250.325 105.206L254.815 109.572L253.818 110.599Z" fill="#9A3C81"/>
<path d="M265.656 110.586L264.634 109.585L269.137 104.982L264.647 100.616L265.643 99.5893L271.166 104.956L265.656 110.586Z" fill="#9A3C81"/>
<rect x="256.068" y="114.219" width="19.1702" height="1.43229" transform="rotate(-71.8749 256.068 114.219)" fill="#9A3C81"/>
<path fill-rule="evenodd" clip-rule="evenodd" d="M45.3896 99.9343H52.1172V93.2068H45.3896V99.9343ZM51.5964 99.4135H45.9105V93.7275H51.5964V99.4135Z" fill="#A1A7A7"/>
<rect x="45.4648" y="99.4905" width="8.77722" height="0.520777" transform="rotate(-45 45.4648 99.4905)" fill="#A1A7A7"/>
<rect x="45.4648" y="93.6523" width="0.520777" height="8.77722" transform="rotate(-45 45.4648 93.6523)" fill="#A1A7A7"/>
<path fill-rule="evenodd" clip-rule="evenodd" d="M51.5962 99.9343H58.3237V93.2068H51.5962V99.9343ZM57.8028 99.4135H52.1169V93.7275H57.8028V99.4135Z" fill="#A1A7A7"/>
<rect x="51.6714" y="99.4904" width="8.77722" height="0.520777" transform="rotate(-45 51.6714 99.4904)" fill="#A1A7A7"/>
<rect x="51.6714" y="93.6523" width="0.520777" height="8.77722" transform="rotate(-45 51.6714 93.6523)" fill="#A1A7A7"/>
<path fill-rule="evenodd" clip-rule="evenodd" d="M32.9761 162H39.7036V155.272H32.9761V162ZM39.1837 161.479H33.4977V155.793H39.1837V161.479Z" fill="#A1A7A7"/>
<rect x="33.0508" y="161.556" width="8.77722" height="0.520777" transform="rotate(-45 33.0508 161.556)" fill="#A1A7A7"/>
<rect x="33.0513" y="155.717" width="0.520777" height="8.77722" transform="rotate(-45 33.0513 155.717)" fill="#A1A7A7"/>
<path fill-rule="evenodd" clip-rule="evenodd" d="M32.9761 155.794H39.7036V149.067H32.9761V155.794ZM39.1837 155.272H33.4977V149.586H39.1837V155.272Z" fill="#A1A7A7"/>
<rect x="33.0518" y="155.35" width="8.77722" height="0.520777" transform="rotate(-45 33.0518 155.35)" fill="#A1A7A7"/>
<rect x="33.0522" y="149.511" width="0.520777" height="8.77722" transform="rotate(-45 33.0522 149.511)" fill="#A1A7A7"/>
<path fill-rule="evenodd" clip-rule="evenodd" d="M32.9761 149.587H39.7036V142.86H32.9761V149.587ZM39.1837 149.067H33.4977V143.381H39.1837V149.067Z" fill="#A1A7A7"/>
<rect x="33.0513" y="149.143" width="8.77722" height="0.520777" transform="rotate(-45 33.0513 149.143)" fill="#A1A7A7"/>
<rect x="33.0518" y="143.305" width="0.520777" height="8.77722" transform="rotate(-45 33.0518 143.305)" fill="#A1A7A7"/>
<path fill-rule="evenodd" clip-rule="evenodd" d="M32.9761 143.381H39.7036V136.653H32.9761V143.381ZM39.1837 142.86H33.4977V137.174H39.1837V142.86Z" fill="#A1A7A7"/>
<rect x="33.0513" y="142.937" width="8.77722" height="0.520777" transform="rotate(-45 33.0513 142.937)" fill="#A1A7A7"/>
<rect x="33.0518" y="137.098" width="0.520777" height="8.77722" transform="rotate(-45 33.0518 137.098)" fill="#A1A7A7"/>
<path fill-rule="evenodd" clip-rule="evenodd" d="M32.9761 137.174H39.7036V130.446H32.9761V137.174ZM39.1837 136.653H33.4977V130.967H39.1837V136.653Z" fill="#A1A7A7"/>
<rect x="33.0513" y="136.73" width="8.77722" height="0.520777" transform="rotate(-45 33.0513 136.73)" fill="#A1A7A7"/>
<rect x="33.0518" y="130.891" width="0.520777" height="8.77722" transform="rotate(-45 33.0518 130.891)" fill="#A1A7A7"/>
<path fill-rule="evenodd" clip-rule="evenodd" d="M32.9761 130.967H39.7036V124.24H32.9761V130.967ZM39.1837 130.446H33.4977V124.76H39.1837V130.446Z" fill="#A1A7A7"/>
<rect x="33.0513" y="130.523" width="8.77722" height="0.520777" transform="rotate(-45 33.0513 130.523)" fill="#A1A7A7"/>
<rect x="33.0518" y="124.684" width="0.520777" height="8.77722" transform="rotate(-45 33.0518 124.684)" fill="#A1A7A7"/>
<path fill-rule="evenodd" clip-rule="evenodd" d="M32.9761 124.76H39.7036V118.033H32.9761V124.76ZM39.1837 124.24H33.4977V118.554H39.1837V124.24Z" fill="#A1A7A7"/>
<rect x="33.0518" y="124.317" width="8.77722" height="0.520777" transform="rotate(-45 33.0518 124.317)" fill="#A1A7A7"/>
<rect x="33.0518" y="118.478" width="0.520777" height="8.77722" transform="rotate(-45 33.0518 118.478)" fill="#A1A7A7"/>
<path fill-rule="evenodd" clip-rule="evenodd" d="M32.9761 118.555H39.7036V111.827H32.9761V118.555ZM39.1837 118.034H33.4977V112.348H39.1837V118.034Z" fill="#A1A7A7"/>
<rect x="33.0518" y="118.111" width="8.77722" height="0.520777" transform="rotate(-45 33.0518 118.111)" fill="#A1A7A7"/>
<rect x="33.0522" y="112.272" width="0.520777" height="8.77722" transform="rotate(-45 33.0522 112.272)" fill="#A1A7A7"/>
<path fill-rule="evenodd" clip-rule="evenodd" d="M32.9761 112.348H39.7036V105.62H32.9761V112.348ZM39.1837 111.827H33.4977V106.141H39.1837V111.827Z" fill="#A1A7A7"/>
<rect x="33.0518" y="111.904" width="8.77722" height="0.520777" transform="rotate(-45 33.0518 111.904)" fill="#A1A7A7"/>
<rect x="33.0522" y="106.065" width="0.520777" height="8.77722" transform="rotate(-45 33.0522 106.065)" fill="#A1A7A7"/>
<path fill-rule="evenodd" clip-rule="evenodd" d="M32.9761 106.141H39.7036V99.4135H32.9761V106.141ZM39.1837 105.62H33.4977V99.9343H39.1837V105.62Z" fill="#A1A7A7"/>
<rect x="33.0518" y="105.697" width="8.77722" height="0.520777" transform="rotate(-45 33.0518 105.697)" fill="#A1A7A7"/>
<rect x="33.0522" y="99.8585" width="0.520777" height="8.77722" transform="rotate(-45 33.0522 99.8585)" fill="#A1A7A7"/>
<path fill-rule="evenodd" clip-rule="evenodd" d="M32.9761 99.9343H39.7036V93.2068H32.9761V99.9343ZM39.1837 99.4135H33.4977V93.7275H39.1837V99.4135Z" fill="#A1A7A7"/>
<rect x="33.0513" y="99.4907" width="8.77722" height="0.520777" transform="rotate(-45 33.0513 99.4907)" fill="#A1A7A7"/>
<rect x="33.0518" y="93.6518" width="0.520777" height="8.77722" transform="rotate(-45 33.0518 93.6518)" fill="#A1A7A7"/>
<path fill-rule="evenodd" clip-rule="evenodd" d="M32.9766 93.7275H39.7041V87H32.9766V93.7275ZM39.1839 93.2068H33.498V87.5208H39.1839V93.2068Z" fill="#A1A7A7"/>
<rect x="33.0522" y="93.2846" width="8.77722" height="0.520777" transform="rotate(-45 33.0522 93.2846)" fill="#A1A7A7"/>
<rect x="33.0522" y="87.4452" width="0.520777" height="8.77722" transform="rotate(-45 33.0522 87.4452)" fill="#A1A7A7"/>
<path fill-rule="evenodd" clip-rule="evenodd" d="M39.1826 99.9343H45.9102V93.2068H39.1826V99.9343ZM45.3894 99.4135H39.7034V93.7275H45.3894V99.4135Z" fill="#A1A7A7"/>
<rect x="39.2578" y="99.4906" width="8.77722" height="0.520777" transform="rotate(-45 39.2578 99.4906)" fill="#A1A7A7"/>
<rect x="39.2578" y="93.6524" width="0.520777" height="8.77722" transform="rotate(-45 39.2578 93.6524)" fill="#A1A7A7"/>
<path fill-rule="evenodd" clip-rule="evenodd" d="M26.7705 99.9343H33.498V93.2068H26.7705V99.9343ZM32.9773 99.4135H27.2914V93.7275H32.9773V99.4135Z" fill="#A1A7A7"/>
<rect x="26.8457" y="99.4901" width="8.77722" height="0.520777" transform="rotate(-45 26.8457 99.4901)" fill="#A1A7A7"/>
<rect x="26.8457" y="93.6519" width="0.520777" height="8.77722" transform="rotate(-45 26.8457 93.6519)" fill="#A1A7A7"/>
<path fill-rule="evenodd" clip-rule="evenodd" d="M20.5635 99.9343H27.291V93.2068H20.5635V99.9343ZM26.7702 99.4135H21.0842V93.7275H26.7702V99.4135Z" fill="#A1A7A7"/>
<rect x="20.6387" y="99.4901" width="8.77722" height="0.520777" transform="rotate(-45 20.6387 99.4901)" fill="#A1A7A7"/>
<rect x="20.6387" y="93.652" width="0.520777" height="8.77722" transform="rotate(-45 20.6387 93.652)" fill="#A1A7A7"/>
<path fill-rule="evenodd" clip-rule="evenodd" d="M14.0322 99.9343H21.1276V92.8389L14.0322 99.9343ZM20.606 99.4135H15.2888L20.606 94.0963V99.4135Z" fill="#A1A7A7"/>
<rect x="14.4756" y="99.4901" width="8.77722" height="0.520777" transform="rotate(-45 14.4756 99.4901)" fill="#A1A7A7"/>
<rect x="14.4004" y="102.777" width="0.520782" height="21.8849" fill="#A1A7A7"/>
<path d="M15.8726 126.331H13.6894C13.0658 126.331 12.5552 125.821 12.5552 125.197V123.014C12.5552 122.39 13.0658 121.879 13.6894 121.879H15.8726C16.4963 121.879 17.0068 122.39 17.0068 123.014V125.197C17.0068 125.821 16.4963 126.331 15.8726 126.331Z" fill="#A1A7A7"/>
<path d="M14.0174 131.154C12.6237 131.154 11.748 129.95 11.6025 128.755L12.1196 128.692C12.2336 129.629 12.8758 130.634 14.0174 130.634C14.022 130.634 14.0258 130.634 14.0304 130.634C14.9255 130.628 15.8837 129.973 15.8837 129.008C15.8837 127.853 14.7337 127.373 14.6846 127.352L14.5224 127.286L14.5215 125.616H15.0423V126.946C15.438 127.152 16.4045 127.779 16.4045 129.009C16.4045 130.326 15.1739 131.148 14.0341 131.155C14.0285 131.154 14.023 131.154 14.0174 131.154Z" fill="#A1A7A7"/>
<path d="M27.114 104.586H9.10907C7.9489 104.586 7 103.637 7 102.477C7 101.317 7.9489 100.368 9.10907 100.368H27.114C28.2742 100.368 29.2231 101.317 29.2231 102.477C29.2222 103.637 28.2733 104.586 27.114 104.586Z" fill="#A1A7A7"/>
<path d="M56.744 171H27.6752C25.6544 171 24 169.347 24 167.325V165.675C24 163.654 25.6534 162 27.6752 162H56.744C58.7648 162 60.4192 163.653 60.4192 165.675V167.325C60.4182 169.346 58.7648 171 56.744 171Z" fill="#A1A7A7"/>
<path d="M52.2736 165.622H37.5737C37.1297 165.622 36.7671 165.259 36.7671 164.815C36.7671 164.371 37.1297 164.008 37.5737 164.008H52.2736C52.7176 164.008 53.0802 164.371 53.0802 164.815C53.0802 165.259 52.7176 165.622 52.2736 165.622Z" fill="white"/>
<path d="M45.4102 168.759H37.5737C37.1297 168.759 36.7671 168.396 36.7671 167.952C36.7671 167.509 37.1297 167.146 37.5737 167.146H45.4102C45.8542 167.146 46.2168 167.509 46.2168 167.952C46.2168 168.396 45.8542 168.759 45.4102 168.759Z" fill="white"/>
<path d="M30.6272 169.476C32.137 169.476 33.3609 168.252 33.3609 166.742C33.3609 165.232 32.137 164.008 30.6272 164.008C29.1175 164.008 27.8936 165.232 27.8936 166.742C27.8936 168.252 29.1175 169.476 30.6272 169.476Z" fill="white"/>
<path d="M84 137.727C84 130.396 77.9558 113 70.5 113C63.0442 113 57 130.396 57 137.727C57.0027 141.248 58.4262 144.624 60.9577 147.113C63.4891 149.602 66.9213 151 70.5 151C74.0787 151 77.5109 149.602 80.0423 147.113C82.5738 144.624 83.9973 141.248 84 137.727Z" fill="#CCD3D3"/>
<path d="M70.5 171C70.5656 171 70.6306 170.997 70.6913 170.992C70.7519 170.986 70.807 170.978 70.8535 170.967C70.8999 170.957 70.9367 170.945 70.9619 170.931C70.987 170.918 71 170.903 71 170.888V124.111C70.9995 124.082 70.9466 124.053 70.8529 124.033C70.7592 124.012 70.6323 124 70.5 124C70.3677 124 70.2408 124.012 70.1471 124.033C70.0534 124.053 70.0005 124.082 70 124.111V170.888C70 170.903 70.013 170.918 70.0381 170.931C70.0632 170.945 70.1001 170.957 70.1465 170.967C70.1929 170.978 70.2481 170.986 70.3087 170.992C70.3694 170.997 70.4344 171 70.5 171Z" fill="#3F3D56"/>
<path d="M70.1196 133C70.1354 133 70.1509 132.997 70.1655 132.991C70.18 132.985 70.1932 132.976 70.2043 132.965L75.965 127.204C75.9874 127.182 76 127.151 76 127.12C76 127.088 75.9874 127.057 75.9649 127.035C75.9425 127.013 75.912 127 75.8803 127C75.8486 127 75.8182 127.013 75.7957 127.035L70.035 132.796C70.0183 132.812 70.0069 132.834 70.0023 132.857C69.9977 132.88 70.0001 132.904 70.0091 132.926C70.0182 132.948 70.0335 132.967 70.0532 132.98C70.0729 132.993 70.096 133 70.1197 133L70.1196 133Z" fill="#3F3D56"/>
<path d="M70.879 142C70.9029 142 70.9263 141.994 70.9462 141.982C70.9661 141.97 70.9816 141.953 70.9908 141.933C70.9999 141.913 71.0023 141.891 70.9977 141.87C70.993 141.849 70.9815 141.829 70.9646 141.814L61.2066 133.032C61.1839 133.012 61.1532 133 61.1211 133C61.089 133 61.0582 133.011 61.0355 133.032C61.0128 133.052 61 133.08 61 133.109C61 133.138 61.0127 133.166 61.0354 133.186L70.7934 141.968C70.8046 141.978 70.8179 141.986 70.8326 141.992C70.8473 141.997 70.8631 142 70.879 142Z" fill="#3F3D56"/>
<path d="M78.9151 173.957C78.8957 173.972 78.8754 173.985 78.8559 174H62.2814C61.9567 172.674 61.842 171.347 62.3271 170.194C63.0182 168.552 65.0638 167.527 66.6901 168.232C67.0754 168.404 67.411 168.671 67.6655 169.01C68.301 167.863 69.441 166.999 70.7569 167C72.4055 167.001 73.7762 168.36 74.2235 169.929C74.9439 168.704 76.3666 167.848 77.7573 168.216C80.0833 168.832 80.818 172.475 78.9151 173.957Z" fill="#F2F2F2"/>
<path d="M327.232 104.751C330.812 102.724 334.395 100.696 337.975 98.6686C348.559 92.6766 359.314 86.5544 367.683 77.7293C370.991 74.2396 373.935 70.2753 375.442 65.7099C375.752 64.7702 375.992 63.7163 375.575 62.8192C374.864 61.297 372.791 61.1375 371.116 61.2668C366.089 61.6571 361.11 62.6568 356.32 64.2325C360.305 54.499 372.824 51.1532 378.539 42.3247C379.466 40.892 380.216 39.2136 379.952 37.5291C379.781 36.447 379.201 35.46 378.463 34.6484C375.958 31.8896 371.805 31.1462 368.144 31.8308C364.483 32.5178 361.179 34.4156 357.955 36.2825C362.381 33.8393 366.089 30.1145 368.514 25.677C369.517 23.8378 370.318 21.6676 369.655 19.6814C368.533 16.3124 363.874 15.5364 360.59 16.8845C354.251 19.4837 351.427 26.6941 348.914 33.0674C346.4 39.4408 342.566 46.4887 335.824 47.7018C335.015 47.847 334.146 47.9179 333.497 48.4223C332.233 49.407 332.553 51.4709 333.509 52.7567C334.465 54.0425 335.884 54.9342 336.798 56.2506C338.845 59.2012 337.777 63.2847 336.078 66.4495C334.38 69.6143 332.075 72.6389 331.74 76.2158C331.324 80.6636 329.468 85.7838 328.684 90.1802C328.326 92.1773 331.881 93.2209 331.161 95.1161C330.441 97.0113 330.09 99.2429 331.111 100.997C332.131 102.75 334.971 103.414 336.193 101.797" fill="#357E88"/>
<path d="M327.232 104.751C330.812 102.724 334.395 100.696 337.975 98.6686C348.559 92.6766 359.314 86.5544 367.683 77.7293C370.991 74.2396 373.935 70.2753 375.442 65.7099C375.752 64.7702 375.992 63.7163 375.575 62.8192C374.864 61.297 372.791 61.1375 371.116 61.2668C366.089 61.6571 361.11 62.6568 356.32 64.2325C360.305 54.499 372.824 51.1532 378.539 42.3247C379.466 40.892 380.216 39.2136 379.952 37.5291C379.781 36.447 379.201 35.46 378.463 34.6484C375.958 31.8896 371.805 31.1462 368.144 31.8308C364.483 32.5178 361.179 34.4156 357.955 36.2825C362.381 33.8393 366.089 30.1145 368.514 25.677C369.517 23.8378 370.318 21.6676 369.655 19.6814C368.533 16.3124 363.874 15.5364 360.59 16.8845C354.251 19.4837 351.427 26.6941 348.914 33.0674C346.4 39.4408 342.566 46.4887 335.824 47.7018C335.015 47.847 334.146 47.9179 333.497 48.4223C332.233 49.407 332.553 51.4709 333.509 52.7567C334.465 54.0425 335.884 54.9342 336.798 56.2506C338.845 59.2012 337.777 63.2847 336.078 66.4495C334.38 69.6143 332.075 72.6389 331.74 76.2158C331.324 80.6636 329.468 85.7838 328.684 90.1802C328.326 92.1773 331.881 93.2209 331.161 95.1161C330.441 97.0113 330.09 99.2429 331.111 100.997C332.131 102.75 334.971 103.414 336.193 101.797" stroke="#0F555F"/>
<path d="M321.82 98.7416C322.065 98.7724 322.321 98.676 322.482 98.4624C332.42 85.3263 358.354 51.1007 359.636 49.7048C359.863 49.5123 359.953 49.1871 359.838 48.8953C359.691 48.5276 359.28 48.3477 358.907 48.4937C358.666 48.5894 358.299 48.7334 321.342 97.5979C321.102 97.912 321.166 98.3619 321.481 98.6015C321.581 98.6809 321.701 98.7268 321.82 98.7416Z" fill="white"/>
<path d="M337.672 77.8216C337.71 77.8263 337.749 77.8286 337.787 77.8257L358.216 77.109C358.611 77.0942 358.922 76.7633 358.907 76.3685C358.893 75.9712 358.562 75.6626 358.167 75.6773L337.738 76.3941C337.343 76.4089 337.032 76.7397 337.047 77.1346C337.059 77.493 337.331 77.7788 337.672 77.8216Z" fill="white"/>
<path d="M337.416 148.602C337.03 148.793 336.428 148.903 335.548 148.903C311.863 148.9 288.185 148.894 264.495 148.958C252.632 148.99 240.766 148.905 228.903 148.932C222.911 148.945 216.919 148.987 210.929 149.088C207.933 149.139 204.937 149.204 201.941 149.286C199.739 149.346 197.066 149.756 194.968 148.84C194.253 148.528 193.577 148.109 193.292 147.34C193.245 147.157 193.234 146.974 193.256 146.787C193.488 145.191 195.933 142.512 196.894 141.19C198.867 138.477 200.884 135.525 204.422 134.585C206.48 134.039 208.651 134.048 210.786 134.061C248.256 134.061 285.728 134.268 323.196 134.384C325.545 134.391 328.445 134.736 330.079 136.531C332.157 138.811 333.985 141.279 335.666 143.834C336.68 145.361 339.11 147.761 337.416 148.602Z" fill="#E0E2E3"/>
<path d="M321.296 135.987H209.065C203.553 135.987 199.043 131.477 199.043 125.965V46.3281C199.043 40.8154 203.553 36.3058 209.065 36.3058H321.299C326.811 36.3058 331.321 40.8154 331.321 46.3281V125.962C331.321 131.477 326.809 135.987 321.296 135.987Z" fill="#E6E7E8"/>
<path fill-rule="evenodd" clip-rule="evenodd" d="M209.065 136.613H321.296C327.17 136.613 331.947 131.836 331.947 125.962V46.3281C331.947 40.4565 327.17 35.6794 321.299 35.6794H209.065C203.194 35.6794 198.417 40.4565 198.417 46.3281V125.965C198.417 131.836 203.194 136.613 209.065 136.613ZM199.669 46.3281C199.669 41.1476 203.885 36.9322 209.065 36.9322H321.299C326.479 36.9322 330.695 41.1476 330.695 46.3281V125.962C330.695 131.143 326.479 135.358 321.299 135.358H209.065C203.885 135.358 199.669 131.143 199.669 125.962V46.3281Z" fill="#0A191B"/>
<path d="M212.558 40.6393C206.843 40.6393 202.166 45.3161 202.166 51.0316V105.505C235.991 85.2068 269.074 63.7556 301.02 40.6393H212.558Z" fill="#E8EFF0"/>
<path d="M317.233 40.6393H301.02C269.072 63.7534 235.991 85.2068 202.166 105.505V117.28C202.166 122.995 206.843 127.672 212.558 127.672H317.233C322.948 127.672 327.625 122.995 327.625 117.28V51.0316C327.625 45.3161 322.948 40.6393 317.233 40.6393Z" fill="white"/>
<path d="M272.271 131.439H262.79C262.621 131.439 262.482 131.301 262.482 131.132V130.927C262.482 130.757 262.621 130.619 262.79 130.619H272.271C272.44 130.619 272.578 130.757 272.578 130.927V131.132C272.578 131.301 272.44 131.439 272.271 131.439Z" fill="#1E6F7A"/>
<path d="M211.655 39.654C212.165 39.654 212.578 39.2408 212.578 38.7312C212.578 38.2215 212.165 37.8083 211.655 37.8083C211.146 37.8083 210.732 38.2215 210.732 38.7312C210.732 39.2408 211.146 39.654 211.655 39.654Z" fill="#1E6F7A"/>
<path d="M215.63 39.654C216.14 39.654 216.553 39.2408 216.553 38.7312C216.553 38.2215 216.14 37.8083 215.63 37.8083C215.12 37.8083 214.707 38.2215 214.707 38.7312C214.707 39.2408 215.12 39.654 215.63 39.654Z" fill="white"/>
<path d="M219.64 39.654C220.15 39.654 220.563 39.2408 220.563 38.7312C220.563 38.2215 220.15 37.8083 219.64 37.8083C219.13 37.8083 218.717 38.2215 218.717 38.7312C218.717 39.2408 219.13 39.654 219.64 39.654Z" fill="#0A191B"/>
<path d="M211.848 139.65H207.607C207.049 139.65 206.593 139.194 206.593 138.635V137.965C206.593 137.407 207.049 136.951 207.607 136.951H211.848C212.406 136.951 212.862 137.407 212.862 137.965V138.635C212.862 139.194 212.406 139.65 211.848 139.65Z" fill="#8ABFC7"/>
<path d="M222.274 139.65H218.033C217.475 139.65 217.019 139.194 217.019 138.635V137.965C217.019 137.407 217.475 136.951 218.033 136.951H222.274C222.832 136.951 223.288 137.407 223.288 137.965V138.635C223.29 139.194 222.832 139.65 222.274 139.65Z" fill="#8ABFC7"/>
<path d="M232.702 139.65H228.461C227.903 139.65 227.447 139.194 227.447 138.635V137.965C227.447 137.407 227.903 136.951 228.461 136.951H232.702C233.26 136.951 233.716 137.407 233.716 137.965V138.635C233.716 139.194 233.26 139.65 232.702 139.65Z" fill="#8ABFC7"/>
<path d="M243.128 139.65H238.887C238.329 139.65 237.873 139.194 237.873 138.635V137.965C237.873 137.407 238.329 136.951 238.887 136.951H243.128C243.686 136.951 244.142 137.407 244.142 137.965V138.635C244.142 139.194 243.686 139.65 243.128 139.65Z" fill="#8ABFC7"/>
<path d="M253.553 139.65H249.313C248.755 139.65 248.298 139.194 248.298 138.635V137.965C248.298 137.407 248.755 136.951 249.313 136.951H253.553C254.111 136.951 254.568 137.407 254.568 137.965V138.635C254.57 139.194 254.111 139.65 253.553 139.65Z" fill="#8ABFC7"/>
<path d="M263.982 139.65H259.741C259.183 139.65 258.727 139.194 258.727 138.635V137.965C258.727 137.407 259.183 136.951 259.741 136.951H263.982C264.54 136.951 264.996 137.407 264.996 137.965V138.635C264.996 139.194 264.54 139.65 263.982 139.65Z" fill="#8ABFC7"/>
<path d="M274.408 139.65H270.167C269.609 139.65 269.153 139.194 269.153 138.635V137.965C269.153 137.407 269.609 136.951 270.167 136.951H274.408C274.966 136.951 275.422 137.407 275.422 137.965V138.635C275.422 139.194 274.966 139.65 274.408 139.65Z" fill="#8ABFC7"/>
<path d="M284.837 139.65H280.596C280.038 139.65 279.582 139.194 279.582 138.635V137.965C279.582 137.407 280.038 136.951 280.596 136.951H284.837C285.395 136.951 285.851 137.407 285.851 137.965V138.635C285.851 139.194 285.395 139.65 284.837 139.65Z" fill="#8ABFC7"/>
<path d="M295.262 139.65H291.022C290.464 139.65 290.007 139.194 290.007 138.635V137.965C290.007 137.407 290.464 136.951 291.022 136.951H295.262C295.82 136.951 296.277 137.407 296.277 137.965V138.635C296.277 139.194 295.82 139.65 295.262 139.65Z" fill="#8ABFC7"/>
<path d="M305.688 139.65H301.447C300.889 139.65 300.433 139.194 300.433 138.635V137.965C300.433 137.407 300.889 136.951 301.447 136.951H305.688C306.246 136.951 306.702 137.407 306.702 137.965V138.635C306.705 139.194 306.246 139.65 305.688 139.65Z" fill="#8ABFC7"/>
<path d="M316.117 139.65H311.876C311.318 139.65 310.862 139.194 310.862 138.635V137.965C310.862 137.407 311.318 136.951 311.876 136.951H316.117C316.675 136.951 317.131 137.407 317.131 137.965V138.635C317.131 139.194 316.675 139.65 316.117 139.65Z" fill="#8ABFC7"/>
<path d="M326.543 139.65H322.302C321.744 139.65 321.288 139.194 321.288 138.635V137.965C321.288 137.407 321.744 136.951 322.302 136.951H326.543C327.101 136.951 327.557 137.407 327.557 137.965V138.635C327.557 139.194 327.101 139.65 326.543 139.65Z" fill="#8ABFC7"/>
<path d="M432.87 132.375C434.333 131.353 435.9 129.953 435.773 128.173C433.546 128.119 431.309 128.586 429.289 129.525C428.577 128.582 429.732 127.372 430.744 126.764C432.938 125.443 435.133 124.123 437.326 122.804C436.556 122.091 435.515 121.678 434.465 121.671C433.65 119.697 437.552 118.385 437.201 116.277C437.017 115.171 435.628 114.622 434.544 114.911C433.461 115.201 432.635 116.055 431.868 116.874C432.354 115.482 433.25 114.279 433.963 112.988C434.676 111.698 435.22 110.207 434.905 108.767C434.59 107.327 433.131 106.07 431.704 106.438C430.717 106.693 430.048 107.593 429.531 108.472C428.406 110.383 427.604 112.482 427.168 114.656C426.907 115.953 426.147 117.705 424.891 117.287C424.213 117.061 423.929 116.28 423.486 115.719C422.247 114.146 419.528 114.471 418.257 116.018C416.985 117.564 416.95 119.833 417.593 121.729C417.99 122.9 418.522 124.425 417.542 125.178C416.577 125.921 415.038 125.072 414.009 125.722C412.766 126.508 413.459 128.383 413.607 129.847C413.783 131.591 412.948 133.254 412.256 134.864C411.564 136.475 411 138.333 411.697 139.94C413.794 144.771 429.953 134.414 432.87 132.375Z" fill="#8ABFC7"/>
<path fill-rule="evenodd" clip-rule="evenodd" d="M412.953 141.442C413.303 141.541 413.697 141.587 414.126 141.587C420.023 141.587 432.765 132.908 433.083 132.691L433.088 132.688C434.473 131.72 436.298 130.197 436.151 128.147L436.127 127.804L435.784 127.796C433.612 127.746 431.446 128.171 429.466 129.034C429.444 128.941 429.444 128.843 429.464 128.736C429.579 128.143 430.288 127.482 430.94 127.089L437.955 122.87L437.586 122.528C436.816 121.817 435.796 121.379 434.75 121.305C434.632 120.662 435.162 120.066 436.01 119.211L436.014 119.207C436.841 118.372 437.778 117.426 437.576 116.217C437.488 115.684 437.163 115.213 436.664 114.891C436.03 114.483 435.181 114.353 434.449 114.548C433.939 114.684 433.484 114.933 433.074 115.232C433.211 114.994 433.356 114.755 433.503 114.513C433.532 114.466 433.56 114.419 433.589 114.372L433.605 114.346C433.84 113.959 434.077 113.57 434.295 113.174C435.24 111.464 435.56 109.997 435.275 108.69C435.075 107.772 434.473 106.927 433.666 106.43C433.013 106.029 432.282 105.902 431.611 106.076C430.456 106.374 429.72 107.413 429.207 108.284C428.055 110.24 427.245 112.361 426.798 114.586C426.629 115.424 426.22 116.528 425.619 116.875C425.424 116.988 425.232 117.005 425.011 116.933C424.653 116.813 424.412 116.435 424.158 116.035L424.158 116.035C424.038 115.847 423.918 115.658 423.784 115.489C423.197 114.742 422.287 114.325 421.224 114.313H421.18C419.942 114.313 418.714 114.872 417.966 115.781C416.51 117.55 416.635 120.078 417.25 121.895C417.615 122.967 418.067 124.302 417.313 124.882C416.928 125.177 416.364 125.143 415.768 125.107L415.761 125.106C415.128 125.069 414.409 125.026 413.809 125.406C412.617 126.158 412.868 127.633 413.09 128.933L413.094 128.956C413.149 129.284 413.201 129.594 413.232 129.887C413.38 131.347 412.747 132.798 412.133 134.201L412.128 134.214L411.91 134.717C411.24 136.275 410.571 138.295 411.352 140.093C411.645 140.77 412.185 141.224 412.953 141.442ZM414.21 126.044C414.471 125.879 414.793 125.836 415.145 125.836C415.331 125.836 415.525 125.848 415.719 125.862C416.395 125.904 417.161 125.949 417.77 125.481C418.952 124.571 418.38 122.882 417.948 121.611C417.412 120.027 417.286 117.79 418.546 116.26C419.161 115.513 420.182 115.045 421.212 115.068C422.041 115.076 422.742 115.391 423.186 115.954C423.305 116.105 423.411 116.272 423.517 116.439C423.816 116.91 424.157 117.443 424.769 117.647C425.193 117.789 425.617 117.746 425.996 117.526C427.024 116.93 427.436 115.236 427.537 114.731C427.966 112.59 428.747 110.548 429.856 108.664C430.295 107.92 430.911 107.035 431.796 106.806C432.399 106.651 432.93 106.865 433.267 107.072C433.894 107.457 434.379 108.138 434.535 108.849C434.78 109.97 434.484 111.263 433.632 112.807C433.413 113.202 433.177 113.59 432.94 113.977C432.409 114.85 431.858 115.753 431.51 116.75L430.92 118.436L432.144 117.133C432.986 116.236 433.706 115.528 434.643 115.277C435.168 115.136 435.8 115.234 436.252 115.525C436.477 115.67 436.76 115.929 436.828 116.339C436.967 117.167 436.242 117.899 435.473 118.675L435.47 118.677C434.593 119.561 433.6 120.564 434.115 121.814L434.211 122.045L434.461 122.047C435.244 122.052 436.025 122.306 436.667 122.756L430.546 126.438C429.774 126.904 428.887 127.712 428.717 128.59C428.637 129.011 428.728 129.413 428.985 129.753L429.169 129.996L429.447 129.867C431.298 129.004 433.347 128.551 435.392 128.545C435.285 130.05 433.798 131.262 432.651 132.065C429.819 134.044 419.055 140.839 414.167 140.838C413.794 140.838 413.455 140.799 413.156 140.714C412.608 140.559 412.245 140.258 412.043 139.792C411.377 138.259 411.992 136.434 412.602 135.014L412.818 134.517L412.82 134.514C413.473 133.018 414.149 131.471 413.981 129.81C413.95 129.493 413.893 129.157 413.838 128.832L413.833 128.805C413.599 127.43 413.498 126.493 414.21 126.044Z" fill="#0F555F"/>
<path d="M435.815 143.989C436.301 143.525 436.8 142.94 436.718 142.272C436.632 141.575 435.906 141.101 435.207 141.054C434.505 141.007 433.829 141.283 433.181 141.552C432.788 141.026 433.375 140.33 433.921 139.967C436.359 138.344 439.459 136.905 440.053 134.037C440.102 133.798 440.127 133.53 439.989 133.327C439.854 133.125 439.595 133.047 439.354 133.017C437.894 132.833 436.564 133.857 435.114 134.103C433.518 134.374 431.908 133.683 430.289 133.731C428.985 133.768 427.748 134.28 426.547 134.783C424.313 135.718 422.021 136.691 420.293 138.387C417.697 140.934 414.019 148.331 419.481 149.769C424.762 151.162 432.118 147.517 435.815 143.989Z" fill="#357E88"/>
<path d="M416.147 136.16C416.056 136.16 415.966 136.127 415.895 136.063C415.739 135.924 415.725 135.685 415.865 135.529L428.525 121.364C428.665 121.208 428.903 121.195 429.059 121.335C429.215 121.473 429.229 121.713 429.089 121.869L416.429 136.033C416.354 136.117 416.25 136.16 416.147 136.16Z" fill="white"/>
<path d="M423.083 128.396C422.896 128.396 422.733 128.256 422.709 128.066L421.68 120.031C421.654 119.823 421.8 119.634 422.007 119.607C422.211 119.581 422.403 119.727 422.43 119.934L423.458 127.969C423.485 128.177 423.338 128.366 423.131 128.393C423.115 128.396 423.099 128.396 423.083 128.396Z" fill="white"/>
<path d="M415.387 150.349C415.265 150.349 415.145 150.29 415.071 150.18C414.955 150.006 415.003 149.771 415.177 149.655L429.504 140.151C429.679 140.035 429.914 140.084 430.029 140.258C430.145 140.431 430.098 140.667 429.923 140.782L415.596 150.286C415.531 150.329 415.459 150.349 415.387 150.349Z" fill="white"/>
<path d="M423.876 144.844C423.844 144.844 423.812 144.84 423.781 144.832C423.579 144.779 423.458 144.573 423.51 144.37L425.118 138.192C425.171 137.989 425.381 137.869 425.579 137.921C425.781 137.974 425.902 138.18 425.849 138.383L424.241 144.561C424.198 144.731 424.045 144.844 423.876 144.844Z" fill="white"/>
<path d="M158.866 168.425H163.388L165.538 150.869L158.866 150.869L158.866 168.425Z" fill="#FFB8B8"/>
<path d="M172.106 172.65L157.897 172.651L157.897 167.124L166.616 167.124C167.337 167.124 168.051 167.267 168.717 167.545C169.383 167.822 169.989 168.229 170.498 168.743C171.008 169.256 171.413 169.865 171.688 170.535C171.964 171.206 172.106 171.925 172.106 172.65Z" fill="#2F2E41"/>
<path d="M117.142 165.814L121.57 166.735L127.207 149.982L120.673 148.622L117.142 165.814Z" fill="#FFB8B8"/>
<path d="M129.258 172.651L115.344 169.755L116.455 164.342L124.994 166.12C126.42 166.417 127.67 167.271 128.47 168.496C129.269 169.721 129.553 171.216 129.258 172.651L129.258 172.651Z" fill="#2F2E41"/>
<path d="M129.406 109.329C129.024 108.941 128.732 108.474 128.55 107.96C128.367 107.446 128.299 106.898 128.35 106.354C128.401 105.811 128.569 105.286 128.843 104.815C129.118 104.344 129.491 103.94 129.937 103.63L126.429 90.8421L132.943 92.9683L135.276 104.786C135.743 105.575 135.907 106.51 135.735 107.412C135.564 108.315 135.069 109.122 134.345 109.682C133.622 110.242 132.719 110.516 131.809 110.451C130.898 110.386 130.043 109.986 129.406 109.329Z" fill="#FFB8B8"/>
<path d="M156.422 162.538C156.043 162.539 155.676 162.397 155.388 162.137C155.099 161.877 154.908 161.517 154.848 161.121L146.755 113.949C146.738 113.828 146.684 113.717 146.601 113.632C146.519 113.547 146.412 113.493 146.298 113.477C146.184 113.462 146.068 113.486 145.967 113.546C146.755 113.072 146.801 113.837 146.755 113.949L127.714 157.937C127.554 158.324 127.263 158.633 126.899 158.805C126.535 158.977 126.123 158.999 125.744 158.867L119.411 156.616C119.204 156.542 119.014 156.425 118.852 156.271C118.691 156.117 118.56 155.929 118.469 155.719C118.379 155.51 118.33 155.283 118.325 155.053C118.32 154.822 118.361 154.593 118.443 154.38L127.159 131.793L134.435 97.7143L134.487 97.673C134.627 97.5603 148.625 86.5071 158.191 95.3484C166.944 103.439 165.315 149.672 164.9 158.858C164.885 159.221 164.759 159.569 164.54 159.849C164.322 160.129 164.023 160.327 163.689 160.412L156.809 162.489C156.682 162.522 156.552 162.538 156.422 162.538Z" fill="#515978"/>
<path d="M143.263 58.1519C148.265 58.1519 152.32 54.0695 152.32 49.0337C152.32 43.9979 148.265 39.9155 143.263 39.9155C138.26 39.9155 134.205 43.9979 134.205 49.0337C134.205 54.0695 138.26 58.1519 143.263 58.1519Z" fill="#FFB8B8"/>
<path d="M160.874 105.245C160.493 104.857 160.2 104.39 160.018 103.876C159.836 103.362 159.767 102.814 159.818 102.271C159.869 101.727 160.037 101.202 160.312 100.731C160.586 100.26 160.959 99.8559 161.406 99.5461L157.897 86.7585L164.412 88.8846L166.744 100.702C167.212 101.491 167.375 102.426 167.203 103.328C167.032 104.231 166.537 105.039 165.814 105.599C165.09 106.159 164.188 106.432 163.277 106.367C162.367 106.302 161.512 105.903 160.874 105.245V105.245Z" fill="#FFB8B8"/>
<path d="M133.224 101.6C133.099 101.6 132.974 101.575 132.858 101.527C129.033 99.9621 132.083 69.4092 132.214 68.1093L132.229 68.0536C132.324 67.8363 132.419 67.6233 132.516 67.4148C133.458 65.3054 135.037 63.5484 137.027 62.3934C139.018 61.2384 141.32 60.7441 143.605 60.9805C145.928 61.1602 148.138 62.0613 149.93 63.5594C151.722 65.0574 153.008 67.0786 153.61 69.3439L160.698 95.4857C160.773 95.7635 160.776 96.0561 160.706 96.3353C160.636 96.6145 160.496 96.8708 160.298 97.0791C160.101 97.2875 159.853 97.4409 159.58 97.5245C159.306 97.6081 159.015 97.6189 158.736 97.556C153.222 96.3161 139.858 94.115 134.876 100.44C134.264 101.217 133.72 101.6 133.224 101.6Z" fill="#A43E8A"/>
<path d="M160.688 99.0905C160.506 99.0903 160.326 99.0602 160.153 99.0014C159.941 98.9299 159.746 98.8156 159.579 98.6655C159.412 98.5154 159.277 98.3326 159.183 98.1283L153.015 84.8902L147.013 67.4977C146.756 66.7499 146.718 65.9435 146.904 65.1747C147.09 64.4059 147.492 63.7072 148.062 63.1622C148.533 62.7128 149.103 62.3828 149.726 62.1993C150.348 62.0159 151.005 61.9843 151.643 62.1072C152.28 62.2301 152.879 62.5039 153.39 62.9061C153.901 63.3082 154.31 63.8271 154.582 64.4198L162.569 81.7904L168.8 93.1218C168.907 93.3169 168.975 93.5317 168.998 93.7535C169.022 93.9753 169.001 94.1996 168.937 94.4131C168.873 94.6267 168.767 94.8252 168.626 94.9969C168.484 95.1687 168.31 95.3102 168.114 95.4131L161.451 98.9011C161.216 99.0252 160.954 99.0902 160.688 99.0905Z" fill="#922276"/>
<path d="M133.736 102.345C133.676 102.345 133.617 102.342 133.557 102.335L126.089 101.538C125.867 101.514 125.652 101.445 125.456 101.336C125.261 101.226 125.09 101.078 124.953 100.9C124.816 100.722 124.716 100.518 124.659 100.3C124.602 100.082 124.59 99.8553 124.623 99.6325L126.744 85.1672L131.284 67.3314C131.48 66.5652 131.891 65.8719 132.468 65.3344C133.045 64.797 133.763 64.4381 134.537 64.3005C135.176 64.1878 135.833 64.2298 136.452 64.4231C137.072 64.6164 137.637 64.9554 138.101 65.4122C138.565 65.8689 138.914 66.4302 139.119 67.0497C139.325 67.6692 139.381 68.329 139.283 68.9747L136.409 87.8959L135.386 100.807C135.353 101.225 135.165 101.615 134.859 101.9C134.554 102.185 134.153 102.344 133.736 102.345V102.345Z" fill="#922276"/>
<path d="M217.447 173H76.9449C76.8471 173 76.7533 172.961 76.6842 172.891C76.615 172.822 76.5762 172.727 76.5762 172.629C76.5762 172.53 76.615 172.436 76.6842 172.366C76.7533 172.297 76.8471 172.257 76.9449 172.257H217.447C217.545 172.257 217.639 172.297 217.708 172.366C217.777 172.436 217.816 172.53 217.816 172.629C217.816 172.727 217.777 172.822 217.708 172.891C217.639 172.961 217.545 173 217.447 173Z" fill="#535461"/>
<path d="M141.391 56.4666C142.783 55.6334 142.931 53.6235 142.742 51.9677C142.553 50.3119 142.237 48.466 143.174 47.1121C144.293 45.4963 146.541 45.4641 148.458 45.4114C150.374 45.3586 152.708 44.7761 153.204 42.854C153.532 41.5839 152.83 40.221 151.823 39.4237C150.816 38.6265 149.555 38.274 148.331 37.939C145.591 37.1897 142.762 36.434 139.956 36.8459C137.177 37.2538 134.665 38.7812 132.962 41.0976C131.26 43.4139 130.505 46.333 130.86 49.2231C131.314 52.9201 131.972 54.5345 131.54 56.1646C130.735 59.2008 127.263 61.1513 127.194 64.2997C127.14 66.7624 129.235 68.6622 131.279 69.9126C132.901 70.9045 134.651 71.7461 136.52 71.9783C138.389 72.2105 140.401 71.766 141.793 70.451C143.588 68.7551 144.032 65.9217 143.517 63.459C143.003 60.9962 141.682 58.8092 140.375 56.6853" fill="#2F2E41"/>
<path d="M313.501 81.9863C311.258 84.3913 308.688 86.4679 305.867 88.1548C305.802 88.1946 305.736 88.232 305.67 88.2707L301.103 84.222C301.151 84.1774 301.204 84.1272 301.261 84.0722C304.664 80.8357 321.559 58.2068 322.685 52.6963C322.607 53.1554 323.701 71.1587 313.501 81.9863Z" fill="#F0F0F0"/>
<path d="M306.748 88.9361C306.661 88.9567 306.573 88.976 306.485 88.9936L303.059 85.9561C303.126 85.9328 303.204 85.9049 303.293 85.8741C304.764 85.3527 309.142 83.7787 313.5 81.986C318.183 80.0589 322.842 77.8815 323.845 76.4867C323.63 76.8108 317.007 86.6383 306.748 88.9361Z" fill="#F0F0F0"/>
<path d="M313.437 22.0945H312.949V8.70607C312.949 7.68847 312.749 6.68084 312.36 5.7407C311.972 4.80056 311.402 3.94633 310.683 3.22678C309.965 2.50723 309.112 1.93645 308.173 1.54703C307.234 1.15761 306.228 0.957184 305.212 0.957184H276.89C275.874 0.957181 274.868 1.15761 273.93 1.54703C272.991 1.93644 272.138 2.50722 271.419 3.22677C270.701 3.94632 270.131 4.80054 269.742 5.74068C269.353 6.68081 269.153 7.68845 269.153 8.70604V82.1562C269.153 83.1738 269.353 84.1815 269.742 85.1216C270.131 86.0617 270.701 86.916 271.419 87.6355C272.138 88.3551 272.991 88.9258 273.93 89.3153C274.868 89.7047 275.874 89.9051 276.89 89.9051H305.212C306.228 89.9051 307.234 89.7047 308.173 89.3153C309.112 88.9259 309.965 88.3551 310.683 87.6355C311.402 86.916 311.972 86.0618 312.36 85.1216C312.749 84.1815 312.949 83.1739 312.949 82.1563V31.6247H313.437V22.0945Z" fill="#0A191B"/>
<path d="M311.302 8.75931V82.1026C311.302 82.8625 311.153 83.615 310.863 84.3171C310.572 85.0192 310.146 85.6571 309.61 86.1944C309.073 86.7316 308.436 87.1577 307.735 87.4484C307.034 87.739 306.282 87.8884 305.524 87.8882H277.065C276.307 87.8882 275.556 87.7386 274.855 87.4479C274.154 87.1572 273.517 86.731 272.98 86.1937C272.444 85.6565 272.018 85.0187 271.728 84.3167C271.438 83.6147 271.289 82.8624 271.289 82.1026V8.75931C271.289 7.99952 271.438 7.24716 271.728 6.54519C272.018 5.84323 272.444 5.20541 272.98 4.66815C273.517 4.1309 274.154 3.70474 274.855 3.41401C275.556 3.12328 276.307 2.97367 277.065 2.97372H280.519C280.349 3.3912 280.285 3.84399 280.331 4.29229C280.377 4.74058 280.533 5.17064 280.784 5.54464C281.035 5.91864 281.374 6.22512 281.771 6.43712C282.168 6.64913 282.611 6.76017 283.061 6.76047H299.286C299.736 6.76089 300.18 6.65033 300.577 6.43852C300.975 6.22672 301.314 5.92018 301.565 5.54597C301.816 5.17176 301.972 4.74137 302.018 4.29277C302.064 3.84418 301.999 3.39117 301.828 2.97372H305.524C306.282 2.97345 307.034 3.1229 307.735 3.41352C308.436 3.70415 309.073 4.13027 309.61 4.66754C310.146 5.20481 310.572 5.84271 310.863 6.54478C311.153 7.24686 311.302 7.99936 311.302 8.75931Z" fill="white"/>
<path d="M302.45 46.8724H277.436C276.998 46.8719 276.578 46.6974 276.268 46.3871C275.958 46.0768 275.784 45.6562 275.783 45.2174V44.3935C275.784 43.9547 275.958 43.534 276.268 43.2238C276.578 42.9135 276.998 42.739 277.436 42.7385H302.45C302.888 42.739 303.308 42.9135 303.618 43.2238C303.928 43.534 304.102 43.9547 304.102 44.3935V45.2174C304.102 45.6562 303.928 46.0768 303.618 46.3871C303.308 46.6974 302.888 46.8719 302.45 46.8724Z" fill="#F0F0F0"/>
<path d="M302.45 53.9739H277.436C276.998 53.9734 276.578 53.7988 276.268 53.4886C275.958 53.1783 275.784 52.7576 275.783 52.3188V51.495C275.784 51.0562 275.958 50.6355 276.268 50.3252C276.578 50.0149 276.998 49.8404 277.436 49.8399H302.45C302.888 49.8404 303.308 50.0149 303.618 50.3252C303.928 50.6355 304.102 51.0562 304.102 51.495V52.3188C304.102 52.7576 303.928 53.1783 303.618 53.4886C303.308 53.7988 302.888 53.9734 302.45 53.9739Z" fill="#F0F0F0"/>
<path d="M303.701 45.2842H278.687C278.227 45.2836 277.786 45.1004 277.461 44.7746C277.136 44.4488 276.953 44.0071 276.952 43.5463V42.7225C276.953 42.2618 277.136 41.8201 277.461 41.4943C277.786 41.1685 278.227 40.9852 278.687 40.9847H303.701C304.161 40.9852 304.602 41.1685 304.928 41.4943C305.253 41.8201 305.436 42.2618 305.436 42.7225V43.5463C305.436 44.0071 305.253 44.4488 304.928 44.7746C304.602 45.1004 304.161 45.2836 303.701 45.2842ZM278.687 41.3157C278.315 41.3161 277.958 41.4645 277.695 41.7282C277.431 41.9919 277.283 42.3495 277.283 42.7225V43.5463C277.283 43.9193 277.431 44.2769 277.695 44.5406C277.958 44.8044 278.315 44.9527 278.687 44.9531H303.701C304.074 44.9527 304.431 44.8044 304.694 44.5406C304.957 44.2769 305.106 43.9193 305.106 43.5463V42.7225C305.106 42.3495 304.957 41.9919 304.694 41.7282C304.431 41.4645 304.074 41.3161 303.701 41.3157H278.687Z" fill="#3F3D56"/>
<path d="M303.701 52.3856H278.687C278.227 52.3851 277.786 52.2018 277.461 51.876C277.136 51.5502 276.953 51.1085 276.952 50.6478V49.8239C276.953 49.3632 277.136 48.9215 277.461 48.5957C277.786 48.2699 278.227 48.0866 278.687 48.0861H303.701C304.161 48.0866 304.602 48.2699 304.928 48.5957C305.253 48.9215 305.436 49.3632 305.436 49.8239V50.6478C305.436 51.1085 305.253 51.5502 304.928 51.876C304.602 52.2018 304.161 52.3851 303.701 52.3856ZM278.687 48.4171C278.315 48.4176 277.958 48.5659 277.695 48.8296C277.431 49.0934 277.283 49.451 277.283 49.8239V50.6478C277.283 51.0207 277.431 51.3783 277.695 51.6421C277.958 51.9058 278.315 52.0542 278.687 52.0546H303.701C304.074 52.0542 304.431 51.9058 304.694 51.6421C304.957 51.3783 305.106 51.0207 305.106 50.6478V49.8239C305.106 49.451 304.957 49.0934 304.694 48.8296C304.431 48.5659 304.074 48.4176 303.701 48.4171H278.687Z" fill="#3F3D56"/>
<path d="M311.302 8.75931V24.7125C308.771 25.3794 306.121 25.4559 303.556 24.9361C300.991 24.4164 298.579 23.3142 296.506 21.7144C294.433 20.1146 292.754 18.0598 291.598 15.7081C290.442 13.3565 289.84 10.7706 289.839 8.14943C289.839 7.68157 289.858 7.21858 289.895 6.76047H299.286C299.736 6.76089 300.18 6.65033 300.577 6.43852C300.975 6.22672 301.314 5.92018 301.565 5.54597C301.816 5.17176 301.972 4.74137 302.018 4.29277C302.064 3.84418 301.999 3.39117 301.828 2.97372H305.524C306.282 2.97345 307.034 3.1229 307.735 3.41352C308.436 3.70415 309.073 4.13027 309.61 4.66754C310.146 5.20481 310.572 5.84271 310.863 6.54478C311.153 7.24686 311.302 7.99936 311.302 8.75931Z" fill="#F0F0F0"/>
<path d="M285.668 86.8919C285.668 87.2282 285.655 87.5603 285.628 87.8882H277.065C276.307 87.8882 275.556 87.7386 274.855 87.4479C274.154 87.1572 273.517 86.731 272.98 86.1938C272.444 85.6565 272.018 85.0187 271.728 84.3167C271.438 83.6148 271.289 82.8624 271.289 82.1026V74.2576C273.083 74.0238 274.908 74.1758 276.639 74.7036C278.371 75.2313 279.97 76.1227 281.331 77.3182C282.691 78.5137 283.782 79.9859 284.53 81.6367C285.278 83.2876 285.666 85.0791 285.668 86.8919H285.668Z" fill="#922276"/>
<path d="M262.013 45.3222L256.469 41.0754L252.228 46.628L257.773 50.8748L262.013 45.3222Z" fill="#F0F0F0"/>
<path d="M295.359 62.5373H283.484C283.045 62.5368 282.625 62.3623 282.316 62.052C282.006 61.7417 281.832 61.321 281.831 60.8822V60.0584C281.832 59.6196 282.006 59.1989 282.316 58.8887C282.625 58.5784 283.045 58.4038 283.484 58.4034H295.359C295.797 58.4038 296.217 58.5784 296.527 58.8887C296.837 59.1989 297.011 59.6196 297.012 60.0584V60.8822C297.011 61.321 296.837 61.7417 296.527 62.052C296.217 62.3623 295.797 62.5368 295.359 62.5373Z" fill="#922276"/>
<path d="M296.611 60.9491H284.735C284.275 60.9486 283.834 60.7653 283.509 60.4396C283.184 60.1138 283.001 59.672 283 59.2113V58.3875C283.001 57.9267 283.184 57.485 283.509 57.1592C283.834 56.8334 284.275 56.6502 284.735 56.6497H296.611C297.071 56.6502 297.512 56.8334 297.837 57.1592C298.162 57.485 298.345 57.9267 298.346 58.3875V59.2113C298.345 59.672 298.162 60.1138 297.837 60.4396C297.512 60.7653 297.071 60.9486 296.611 60.9491ZM284.735 56.9807C284.363 56.9811 284.006 57.1294 283.742 57.3932C283.479 57.6569 283.331 58.0145 283.331 58.3875V59.2113C283.331 59.5843 283.479 59.9419 283.742 60.2056C284.006 60.4693 284.363 60.6177 284.735 60.6181H296.611C296.983 60.6177 297.34 60.4693 297.604 60.2056C297.867 59.9419 298.015 59.5843 298.015 59.2113V58.3875C298.015 58.0145 297.867 57.6569 297.604 57.3932C297.34 57.1294 296.983 56.9811 296.611 56.9807H284.735Z" fill="#3F3D56"/>
</svg>
