<svg width="514" height="214" viewBox="0 0 514 214" fill="none" xmlns="http://www.w3.org/2000/svg">
<path d="M3.5473 168.184C-7.44755 149.979 3.54729 50.3676 88.0645 50.3676C172.582 50.3676 236.164 -10.4606 295.779 27.4286C335.765 52.8418 323.401 72.1795 317.302 95.562C298.555 170.087 288.07 221.024 191.192 209.032C124.751 201.092 47.7411 243.823 3.5473 168.184Z" fill="#EBF6F8"/>
<path d="M150.896 150.727C150.896 143.396 144.852 126 137.396 126C129.94 126 123.896 143.396 123.896 150.727C123.899 154.248 125.322 157.624 127.854 160.113C130.385 162.602 133.817 164 137.396 164C140.975 164 144.407 162.602 146.938 160.113C149.47 157.624 150.893 154.248 150.896 150.727Z" fill="#CCD3D3"/>
<path d="M137.396 184C137.462 184 137.527 183.997 137.587 183.992C137.648 183.986 137.703 183.978 137.749 183.967C137.796 183.957 137.833 183.945 137.858 183.931C137.883 183.918 137.896 183.903 137.896 183.889V137.111C137.896 137.082 137.843 137.053 137.749 137.033C137.655 137.012 137.528 137 137.396 137C137.264 137 137.137 137.012 137.043 137.033C136.949 137.053 136.896 137.082 136.896 137.111V183.889C136.896 183.903 136.909 183.918 136.934 183.931C136.959 183.945 136.996 183.957 137.043 183.967C137.089 183.978 137.144 183.986 137.205 183.992C137.265 183.997 137.33 184 137.396 184Z" fill="#3F3D56"/>
<path d="M137.016 146C137.031 146 137.047 145.997 137.061 145.991C137.076 145.985 137.089 145.976 137.1 145.965L142.861 140.204C142.883 140.182 142.896 140.151 142.896 140.12C142.896 140.088 142.883 140.058 142.861 140.035C142.838 140.013 142.808 140 142.776 140C142.745 140 142.714 140.013 142.692 140.035L136.931 145.796C136.914 145.813 136.903 145.834 136.898 145.857C136.894 145.88 136.896 145.904 136.905 145.926C136.914 145.948 136.93 145.967 136.949 145.98C136.969 145.993 136.992 146 137.016 146L137.016 146Z" fill="#3F3D56"/>
<path d="M137.775 155C137.799 155 137.822 154.994 137.842 154.982C137.862 154.97 137.878 154.953 137.887 154.933C137.896 154.913 137.898 154.891 137.894 154.87C137.889 154.849 137.877 154.829 137.861 154.814L128.103 146.032C128.08 146.012 128.049 146 128.017 146C127.985 146 127.954 146.012 127.931 146.032C127.909 146.052 127.896 146.08 127.896 146.109C127.896 146.138 127.909 146.166 127.931 146.186L137.689 154.968C137.701 154.978 137.714 154.986 137.729 154.992C137.743 154.997 137.759 155 137.775 155Z" fill="#3F3D56"/>
<path d="M145.811 186.957C145.792 186.972 145.771 186.985 145.752 187H129.177C128.853 185.674 128.738 184.347 129.223 183.194C129.914 181.552 131.96 180.527 133.586 181.232C133.971 181.404 134.307 181.671 134.561 182.01C135.197 180.863 136.337 179.999 137.653 180C139.301 180.001 140.672 181.36 141.12 182.929C141.84 181.704 143.263 180.848 144.653 181.216C146.979 181.832 147.714 185.475 145.811 186.957Z" fill="#CCD3D3"/>
<mask id="mask0" style="mask-type:alpha" maskUnits="userSpaceOnUse" x="317" y="0" width="180" height="142">
<path fill-rule="evenodd" clip-rule="evenodd" d="M464.513 120.807C428.77 143.917 356.7 152.033 328.69 122.678C300.681 93.3203 327.332 37.6086 363.056 14.4978C398.799 -8.61291 450.48 -3.54948 478.489 25.8063C506.499 55.1637 500.236 97.6959 464.513 120.807Z" fill="white"/>
</mask>
<g mask="url(#mask0)">
<path fill-rule="evenodd" clip-rule="evenodd" d="M325.918 6.64108C325.918 8.43913 323.239 9.89714 321.051 9.89714C318.864 9.89714 317.109 8.43913 317.109 6.64108C317.109 4.84303 318.864 2.24066 321.051 2.24066C323.239 2.24066 325.918 4.84303 325.918 6.64108Z" fill="#FFB017"/>
<path fill-rule="evenodd" clip-rule="evenodd" d="M344.138 6.64108C344.138 8.43913 341.46 9.89714 339.291 9.89714C337.103 9.89714 335.33 8.43913 335.33 6.64108C335.33 4.84303 337.103 2.24066 339.291 2.24066C341.46 2.24066 344.138 4.84303 344.138 6.64108Z" fill="#FFB017"/>
<path fill-rule="evenodd" clip-rule="evenodd" d="M362.359 6.64108C362.359 8.43913 359.699 9.89714 357.511 9.89714C355.323 9.89714 353.55 8.43913 353.55 6.64108C353.55 4.84303 355.323 2.24066 357.511 2.24066C359.699 2.24066 362.359 4.84303 362.359 6.64108Z" fill="#FFB017"/>
<path fill-rule="evenodd" clip-rule="evenodd" d="M417.057 6.64108C417.057 8.43913 414.378 9.89714 412.19 9.89714C410.002 9.89714 408.229 8.43913 408.229 6.64108C408.229 4.84303 410.002 2.24066 412.19 2.24066C414.378 2.24066 417.057 4.84303 417.057 6.64108Z" fill="#FFB017"/>
<path fill-rule="evenodd" clip-rule="evenodd" d="M471.737 6.64108C471.737 8.43913 469.058 9.89714 466.87 9.89714C464.701 9.89714 462.928 8.43913 462.928 6.64108C462.928 4.84303 464.701 2.24066 466.87 2.24066C469.058 2.24066 471.737 4.84303 471.737 6.64108Z" fill="#FFB017"/>
<path fill-rule="evenodd" clip-rule="evenodd" d="M489.957 6.64108C489.957 8.43913 487.297 9.89714 485.109 9.89714C482.921 9.89714 481.148 8.43913 481.148 6.64108C481.148 4.84303 482.921 2.24066 485.109 2.24066C487.297 2.24066 489.957 4.84303 489.957 6.64108Z" fill="#FFB017"/>
<path fill-rule="evenodd" clip-rule="evenodd" d="M325.918 20.4231C325.918 22.2212 323.239 23.6792 321.051 23.6792C318.864 23.6792 317.109 22.2212 317.109 20.4231C317.109 18.6251 318.864 16.0227 321.051 16.0227C323.239 16.0227 325.918 18.6251 325.918 20.4231Z" fill="#FFB017"/>
<path fill-rule="evenodd" clip-rule="evenodd" d="M344.138 20.4231C344.138 22.2212 341.46 23.6792 339.291 23.6792C337.103 23.6792 335.33 22.2212 335.33 20.4231C335.33 18.6251 337.103 16.0227 339.291 16.0227C341.46 16.0227 344.138 18.6251 344.138 20.4231Z" fill="#FFB017"/>
<path fill-rule="evenodd" clip-rule="evenodd" d="M380.598 20.4231C380.598 22.2212 377.92 23.6792 375.732 23.6792C373.563 23.6792 371.79 22.2212 371.79 20.4231C371.79 18.6251 373.563 16.0227 375.732 16.0227C377.92 16.0227 380.598 18.6251 380.598 20.4231Z" fill="#FFB017"/>
<path fill-rule="evenodd" clip-rule="evenodd" d="M398.818 20.4231C398.818 22.2212 396.159 23.6792 393.971 23.6792C391.783 23.6792 390.01 22.2212 390.01 20.4231C390.01 18.6251 391.783 16.0227 393.971 16.0227C396.159 16.0227 398.818 18.6251 398.818 20.4231Z" fill="#FFB017"/>
<path fill-rule="evenodd" clip-rule="evenodd" d="M417.057 20.4231C417.057 22.2212 414.378 23.6792 412.19 23.6792C410.002 23.6792 408.229 22.2212 408.229 20.4231C408.229 18.6251 410.002 16.0227 412.19 16.0227C414.378 16.0227 417.057 18.6251 417.057 20.4231Z" fill="#FFB017"/>
<path fill-rule="evenodd" clip-rule="evenodd" d="M489.957 20.4231C489.957 22.2212 487.297 23.6792 485.109 23.6792C482.921 23.6792 481.148 22.2212 481.148 20.4231C481.148 18.6251 482.921 16.0227 485.109 16.0227C487.297 16.0227 489.957 18.6251 489.957 20.4231Z" fill="#FFB017"/>
<path fill-rule="evenodd" clip-rule="evenodd" d="M325.918 34.205C325.918 36.0031 323.239 37.4611 321.051 37.4611C318.864 37.4611 317.109 36.0031 317.109 34.205C317.109 32.407 318.864 29.8046 321.051 29.8046C323.239 29.8046 325.918 32.407 325.918 34.205Z" fill="#FFB017"/>
<path fill-rule="evenodd" clip-rule="evenodd" d="M362.359 34.205C362.359 36.0031 359.699 37.4611 357.511 37.4611C355.323 37.4611 353.55 36.0031 353.55 34.205C353.55 32.407 355.323 29.8046 357.511 29.8046C359.699 29.8046 362.359 32.407 362.359 34.205Z" fill="#FFB017"/>
<path fill-rule="evenodd" clip-rule="evenodd" d="M380.598 34.205C380.598 36.0031 377.92 37.4611 375.732 37.4611C373.563 37.4611 371.79 36.0031 371.79 34.205C371.79 32.407 373.563 29.8046 375.732 29.8046C377.92 29.8046 380.598 32.407 380.598 34.205Z" fill="#FFB017"/>
<path fill-rule="evenodd" clip-rule="evenodd" d="M398.818 34.205C398.818 36.0031 396.159 37.4611 393.971 37.4611C391.783 37.4611 390.01 36.0031 390.01 34.205C390.01 32.407 391.783 29.8046 393.971 29.8046C396.159 29.8046 398.818 32.407 398.818 34.205Z" fill="#FFB017"/>
<path fill-rule="evenodd" clip-rule="evenodd" d="M417.057 34.205C417.057 36.0031 414.378 37.4611 412.19 37.4611C410.002 37.4611 408.229 36.0031 408.229 34.205C408.229 32.407 410.002 29.8046 412.19 29.8046C414.378 29.8046 417.057 32.407 417.057 34.205Z" fill="#FFB017"/>
<path fill-rule="evenodd" clip-rule="evenodd" d="M435.278 34.205C435.278 36.0031 432.599 37.4611 430.43 37.4611C428.242 37.4611 426.469 36.0031 426.469 34.205C426.469 32.407 428.242 29.8046 430.43 29.8046C432.599 29.8046 435.278 32.407 435.278 34.205Z" fill="#FFB017"/>
<path fill-rule="evenodd" clip-rule="evenodd" d="M453.497 34.205C453.497 36.0031 450.838 37.4611 448.65 37.4611C446.462 37.4611 444.689 36.0031 444.689 34.205C444.689 32.407 446.462 29.8046 448.65 29.8046C450.838 29.8046 453.497 32.407 453.497 34.205Z" fill="#FFB017"/>
<path fill-rule="evenodd" clip-rule="evenodd" d="M325.918 47.987C325.918 49.7851 323.239 51.2431 321.051 51.2431C318.864 51.2431 317.109 49.7851 317.109 47.987C317.109 46.189 318.864 43.5866 321.051 43.5866C323.239 43.5866 325.918 46.189 325.918 47.987Z" fill="#FFB017"/>
<path fill-rule="evenodd" clip-rule="evenodd" d="M344.138 47.987C344.138 49.7851 341.46 51.2431 339.291 51.2431C337.103 51.2431 335.33 49.7851 335.33 47.987C335.33 46.189 337.103 43.5866 339.291 43.5866C341.46 43.5866 344.138 46.189 344.138 47.987Z" fill="#FFB017"/>
<path fill-rule="evenodd" clip-rule="evenodd" d="M362.359 47.987C362.359 49.7851 359.699 51.2431 357.511 51.2431C355.323 51.2431 353.55 49.7851 353.55 47.987C353.55 46.189 355.323 43.5866 357.511 43.5866C359.699 43.5866 362.359 46.189 362.359 47.987Z" fill="#FFB017"/>
<path fill-rule="evenodd" clip-rule="evenodd" d="M380.598 47.987C380.598 49.7851 377.92 51.2431 375.732 51.2431C373.563 51.2431 371.79 49.7851 371.79 47.987C371.79 46.189 373.563 43.5866 375.732 43.5866C377.92 43.5866 380.598 46.189 380.598 47.987Z" fill="#FFB017"/>
<path fill-rule="evenodd" clip-rule="evenodd" d="M398.818 47.987C398.818 49.7851 396.159 51.2431 393.971 51.2431C391.783 51.2431 390.01 49.7851 390.01 47.987C390.01 46.189 391.783 43.5866 393.971 43.5866C396.159 43.5866 398.818 46.189 398.818 47.987Z" fill="#FFB017"/>
<path fill-rule="evenodd" clip-rule="evenodd" d="M417.057 47.987C417.057 49.7851 414.378 51.2431 412.19 51.2431C410.002 51.2431 408.229 49.7851 408.229 47.987C408.229 46.189 410.002 43.5866 412.19 43.5866C414.378 43.5866 417.057 46.189 417.057 47.987Z" fill="#FFB017"/>
<path fill-rule="evenodd" clip-rule="evenodd" d="M435.278 47.987C435.278 49.7851 432.599 51.2431 430.43 51.2431C428.242 51.2431 426.469 49.7851 426.469 47.987C426.469 46.189 428.242 43.5866 430.43 43.5866C432.599 43.5866 435.278 46.189 435.278 47.987Z" fill="#FFB017"/>
<path fill-rule="evenodd" clip-rule="evenodd" d="M453.497 47.987C453.497 49.7851 450.838 51.2431 448.65 51.2431C446.462 51.2431 444.689 49.7851 444.689 47.987C444.689 46.189 446.462 43.5866 448.65 43.5866C450.838 43.5866 453.497 46.189 453.497 47.987Z" fill="#FFB017"/>
<path fill-rule="evenodd" clip-rule="evenodd" d="M471.737 47.987C471.737 49.7851 469.058 51.2431 466.87 51.2431C464.701 51.2431 462.928 49.7851 462.928 47.987C462.928 46.189 464.701 43.5866 466.87 43.5866C469.058 43.5866 471.737 46.189 471.737 47.987Z" fill="#FFB017"/>
<path fill-rule="evenodd" clip-rule="evenodd" d="M489.957 47.987C489.957 49.7851 487.297 51.2431 485.109 51.2431C482.921 51.2431 481.148 49.7851 481.148 47.987C481.148 46.189 482.921 43.5866 485.109 43.5866C487.297 43.5866 489.957 46.189 489.957 47.987Z" fill="#FFB017"/>
<path fill-rule="evenodd" clip-rule="evenodd" d="M435.278 20.9882C435.278 22.7863 432.599 24.2443 430.43 24.2443C428.242 24.2443 426.469 22.7863 426.469 20.9882C426.469 19.1902 428.242 16.5878 430.43 16.5878C432.599 16.5878 435.278 19.1902 435.278 20.9882Z" fill="#FFB017"/>
<path fill-rule="evenodd" clip-rule="evenodd" d="M453.497 20.9882C453.497 22.7863 450.838 24.2443 448.65 24.2443C446.462 24.2443 444.689 22.7863 444.689 20.9882C444.689 19.1902 446.462 16.5878 448.65 16.5878C450.838 16.5878 453.497 19.1902 453.497 20.9882Z" fill="#FFB017"/>
<path fill-rule="evenodd" clip-rule="evenodd" d="M471.737 34.7702C471.737 36.5683 469.058 38.0263 466.87 38.0263C464.701 38.0263 462.928 36.5683 462.928 34.7702C462.928 32.9722 464.701 30.3698 466.87 30.3698C469.058 30.3698 471.737 32.9722 471.737 34.7702Z" fill="#FFB017"/>
<path fill-rule="evenodd" clip-rule="evenodd" d="M344.138 61.769C344.138 63.567 341.46 65.025 339.291 65.025C337.103 65.025 335.33 63.567 335.33 61.769C335.33 59.9709 337.103 57.367 339.291 57.367C341.46 57.367 344.138 59.9709 344.138 61.769Z" fill="#FFB017"/>
<path fill-rule="evenodd" clip-rule="evenodd" d="M362.359 61.769C362.359 63.567 359.699 65.025 357.511 65.025C355.323 65.025 353.55 63.567 353.55 61.769C353.55 59.9709 355.323 57.367 357.511 57.367C359.699 57.367 362.359 59.9709 362.359 61.769Z" fill="#FFB017"/>
<path fill-rule="evenodd" clip-rule="evenodd" d="M380.598 61.769C380.598 63.567 377.92 65.025 375.732 65.025C373.563 65.025 371.79 63.567 371.79 61.769C371.79 59.9709 373.563 57.367 375.732 57.367C377.92 57.367 380.598 59.9709 380.598 61.769Z" fill="#FFB017"/>
<path fill-rule="evenodd" clip-rule="evenodd" d="M398.818 61.769C398.818 63.567 396.159 65.025 393.971 65.025C391.783 65.025 390.01 63.567 390.01 61.769C390.01 59.9709 391.783 57.367 393.971 57.367C396.159 57.367 398.818 59.9709 398.818 61.769Z" fill="#FFB017"/>
<path fill-rule="evenodd" clip-rule="evenodd" d="M417.057 61.769C417.057 63.567 414.378 65.025 412.19 65.025C410.002 65.025 408.229 63.567 408.229 61.769C408.229 59.9709 410.002 57.367 412.19 57.367C414.378 57.367 417.057 59.9709 417.057 61.769Z" fill="#FFB017"/>
<path fill-rule="evenodd" clip-rule="evenodd" d="M435.278 61.769C435.278 63.567 432.599 65.025 430.43 65.025C428.242 65.025 426.469 63.567 426.469 61.769C426.469 59.9709 428.242 57.367 430.43 57.367C432.599 57.367 435.278 59.9709 435.278 61.769Z" fill="#FFB017"/>
<path fill-rule="evenodd" clip-rule="evenodd" d="M453.497 61.769C453.497 63.567 450.838 65.025 448.65 65.025C446.462 65.025 444.689 63.567 444.689 61.769C444.689 59.9709 446.462 57.367 448.65 57.367C450.838 57.367 453.497 59.9709 453.497 61.769Z" fill="#FFB017"/>
<path fill-rule="evenodd" clip-rule="evenodd" d="M471.737 61.769C471.737 63.567 469.058 65.025 466.87 65.025C464.701 65.025 462.928 63.567 462.928 61.769C462.928 59.9709 464.701 57.367 466.87 57.367C469.058 57.367 471.737 59.9709 471.737 61.769Z" fill="#FFB017"/>
<path fill-rule="evenodd" clip-rule="evenodd" d="M489.957 61.769C489.957 63.567 487.297 65.025 485.109 65.025C482.921 65.025 481.148 63.567 481.148 61.769C481.148 59.9709 482.921 57.367 485.109 57.367C487.297 57.367 489.957 59.9709 489.957 61.769Z" fill="#FFB017"/>
<path fill-rule="evenodd" clip-rule="evenodd" d="M344.138 75.551C344.138 77.349 341.46 78.807 339.291 78.807C337.103 78.807 335.33 77.349 335.33 75.551C335.33 73.7529 337.103 71.149 339.291 71.149C341.46 71.149 344.138 73.7529 344.138 75.551Z" fill="#FFB017"/>
<path fill-rule="evenodd" clip-rule="evenodd" d="M362.359 75.551C362.359 77.349 359.699 78.807 357.511 78.807C355.323 78.807 353.55 77.349 353.55 75.551C353.55 73.7529 355.323 71.149 357.511 71.149C359.699 71.149 362.359 73.7529 362.359 75.551Z" fill="#FFB017"/>
<path fill-rule="evenodd" clip-rule="evenodd" d="M380.598 75.551C380.598 77.349 377.92 78.807 375.732 78.807C373.563 78.807 371.79 77.349 371.79 75.551C371.79 73.7529 373.563 71.149 375.732 71.149C377.92 71.149 380.598 73.7529 380.598 75.551Z" fill="#FFB017"/>
<path fill-rule="evenodd" clip-rule="evenodd" d="M398.818 75.551C398.818 77.349 396.159 78.807 393.971 78.807C391.783 78.807 390.01 77.349 390.01 75.551C390.01 73.7529 391.783 71.149 393.971 71.149C396.159 71.149 398.818 73.7529 398.818 75.551Z" fill="#FFB017"/>
<path fill-rule="evenodd" clip-rule="evenodd" d="M417.057 75.551C417.057 77.349 414.378 78.807 412.19 78.807C410.002 78.807 408.229 77.349 408.229 75.551C408.229 73.7529 410.002 71.149 412.19 71.149C414.378 71.149 417.057 73.7529 417.057 75.551Z" fill="#FFB017"/>
<path fill-rule="evenodd" clip-rule="evenodd" d="M435.278 75.551C435.278 77.349 432.599 78.807 430.43 78.807C428.242 78.807 426.469 77.349 426.469 75.551C426.469 73.7529 428.242 71.149 430.43 71.149C432.599 71.149 435.278 73.7529 435.278 75.551Z" fill="#FFB017"/>
<path fill-rule="evenodd" clip-rule="evenodd" d="M453.497 75.551C453.497 77.349 450.838 78.807 448.65 78.807C446.462 78.807 444.689 77.349 444.689 75.551C444.689 73.7529 446.462 71.149 448.65 71.149C450.838 71.149 453.497 73.7529 453.497 75.551Z" fill="#FFB017"/>
<path fill-rule="evenodd" clip-rule="evenodd" d="M471.737 75.551C471.737 77.349 469.058 78.807 466.87 78.807C464.701 78.807 462.928 77.349 462.928 75.551C462.928 73.7529 464.701 71.149 466.87 71.149C469.058 71.149 471.737 73.7529 471.737 75.551Z" fill="#FFB017"/>
<path fill-rule="evenodd" clip-rule="evenodd" d="M489.957 75.551C489.957 77.349 487.297 78.807 485.109 78.807C482.921 78.807 481.148 77.349 481.148 75.551C481.148 73.7529 482.921 71.149 485.109 71.149C487.297 71.149 489.957 73.7529 489.957 75.551Z" fill="#FFB017"/>
<path fill-rule="evenodd" clip-rule="evenodd" d="M325.918 89.3329C325.918 91.131 323.239 92.589 321.051 92.589C318.864 92.589 317.109 91.131 317.109 89.3329C317.109 87.5349 318.864 84.931 321.051 84.931C323.239 84.931 325.918 87.5349 325.918 89.3329Z" fill="#FFB017"/>
<path fill-rule="evenodd" clip-rule="evenodd" d="M344.138 89.3329C344.138 91.131 341.46 92.589 339.291 92.589C337.103 92.589 335.33 91.131 335.33 89.3329C335.33 87.5349 337.103 84.931 339.291 84.931C341.46 84.931 344.138 87.5349 344.138 89.3329Z" fill="#FFB017"/>
<path fill-rule="evenodd" clip-rule="evenodd" d="M362.359 89.3329C362.359 91.131 359.699 92.589 357.511 92.589C355.323 92.589 353.55 91.131 353.55 89.3329C353.55 87.5349 355.323 84.931 357.511 84.931C359.699 84.931 362.359 87.5349 362.359 89.3329Z" fill="#FFB017"/>
<path fill-rule="evenodd" clip-rule="evenodd" d="M380.598 89.3329C380.598 91.131 377.92 92.589 375.732 92.589C373.563 92.589 371.79 91.131 371.79 89.3329C371.79 87.5349 373.563 84.931 375.732 84.931C377.92 84.931 380.598 87.5349 380.598 89.3329Z" fill="#FFB017"/>
<path fill-rule="evenodd" clip-rule="evenodd" d="M398.818 89.3329C398.818 91.131 396.159 92.589 393.971 92.589C391.783 92.589 390.01 91.131 390.01 89.3329C390.01 87.5349 391.783 84.931 393.971 84.931C396.159 84.931 398.818 87.5349 398.818 89.3329Z" fill="#FFB017"/>
<path fill-rule="evenodd" clip-rule="evenodd" d="M417.057 89.3329C417.057 91.131 414.378 92.589 412.19 92.589C410.002 92.589 408.229 91.131 408.229 89.3329C408.229 87.5349 410.002 84.931 412.19 84.931C414.378 84.931 417.057 87.5349 417.057 89.3329Z" fill="#FFB017"/>
<path fill-rule="evenodd" clip-rule="evenodd" d="M435.278 89.3329C435.278 91.131 432.599 92.589 430.43 92.589C428.242 92.589 426.469 91.131 426.469 89.3329C426.469 87.5349 428.242 84.931 430.43 84.931C432.599 84.931 435.278 87.5349 435.278 89.3329Z" fill="#FFB017"/>
<path fill-rule="evenodd" clip-rule="evenodd" d="M453.497 89.3329C453.497 91.131 450.838 92.589 448.65 92.589C446.462 92.589 444.689 91.131 444.689 89.3329C444.689 87.5349 446.462 84.931 448.65 84.931C450.838 84.931 453.497 87.5349 453.497 89.3329Z" fill="#FFB017"/>
<path fill-rule="evenodd" clip-rule="evenodd" d="M471.737 89.3329C471.737 91.131 469.058 92.589 466.87 92.589C464.701 92.589 462.928 91.131 462.928 89.3329C462.928 87.5349 464.701 84.931 466.87 84.931C469.058 84.931 471.737 87.5349 471.737 89.3329Z" fill="#FFB017"/>
<path fill-rule="evenodd" clip-rule="evenodd" d="M489.957 89.3329C489.957 91.131 487.297 92.589 485.109 92.589C482.921 92.589 481.148 91.131 481.148 89.3329C481.148 87.5349 482.921 84.931 485.109 84.931C487.297 84.931 489.957 87.5349 489.957 89.3329Z" fill="#FFB017"/>
<path fill-rule="evenodd" clip-rule="evenodd" d="M344.138 103.115C344.138 104.913 341.46 106.371 339.291 106.371C337.103 106.371 335.33 104.913 335.33 103.115C335.33 101.317 337.103 98.713 339.291 98.713C341.46 98.713 344.138 101.317 344.138 103.115Z" fill="#FFB017"/>
<path fill-rule="evenodd" clip-rule="evenodd" d="M362.359 103.115C362.359 104.913 359.699 106.371 357.511 106.371C355.323 106.371 353.55 104.913 353.55 103.115C353.55 101.317 355.323 98.713 357.511 98.713C359.699 98.713 362.359 101.317 362.359 103.115Z" fill="#FFB017"/>
<path fill-rule="evenodd" clip-rule="evenodd" d="M380.598 103.115C380.598 104.913 377.92 106.371 375.732 106.371C373.563 106.371 371.79 104.913 371.79 103.115C371.79 101.317 373.563 98.713 375.732 98.713C377.92 98.713 380.598 101.317 380.598 103.115Z" fill="#FFB017"/>
<path fill-rule="evenodd" clip-rule="evenodd" d="M398.818 103.115C398.818 104.913 396.159 106.371 393.971 106.371C391.783 106.371 390.01 104.913 390.01 103.115C390.01 101.317 391.783 98.713 393.971 98.713C396.159 98.713 398.818 101.317 398.818 103.115Z" fill="#FFB017"/>
<path fill-rule="evenodd" clip-rule="evenodd" d="M417.057 103.115C417.057 104.913 414.378 106.371 412.19 106.371C410.002 106.371 408.229 104.913 408.229 103.115C408.229 101.317 410.002 98.713 412.19 98.713C414.378 98.713 417.057 101.317 417.057 103.115Z" fill="#FFB017"/>
<path fill-rule="evenodd" clip-rule="evenodd" d="M435.278 103.115C435.278 104.913 432.599 106.371 430.43 106.371C428.242 106.371 426.469 104.913 426.469 103.115C426.469 101.317 428.242 98.713 430.43 98.713C432.599 98.713 435.278 101.317 435.278 103.115Z" fill="#FFB017"/>
<path fill-rule="evenodd" clip-rule="evenodd" d="M453.497 103.115C453.497 104.913 450.838 106.371 448.65 106.371C446.462 106.371 444.689 104.913 444.689 103.115C444.689 101.317 446.462 98.713 448.65 98.713C450.838 98.713 453.497 101.317 453.497 103.115Z" fill="#FFB017"/>
<path fill-rule="evenodd" clip-rule="evenodd" d="M471.737 103.115C471.737 104.913 469.058 106.371 466.87 106.371C464.701 106.371 462.928 104.913 462.928 103.115C462.928 101.317 464.701 98.713 466.87 98.713C469.058 98.713 471.737 101.317 471.737 103.115Z" fill="#FFB017"/>
<path fill-rule="evenodd" clip-rule="evenodd" d="M344.138 116.895C344.138 118.693 341.46 120.151 339.291 120.151C337.103 120.151 335.33 118.693 335.33 116.895C335.33 115.097 337.103 112.493 339.291 112.493C341.46 112.493 344.138 115.097 344.138 116.895Z" fill="#FFB017"/>
<path fill-rule="evenodd" clip-rule="evenodd" d="M362.359 116.895C362.359 118.693 359.699 120.151 357.511 120.151C355.323 120.151 353.55 118.693 353.55 116.895C353.55 115.097 355.323 112.493 357.511 112.493C359.699 112.493 362.359 115.097 362.359 116.895Z" fill="#FFB017"/>
<path fill-rule="evenodd" clip-rule="evenodd" d="M380.598 116.895C380.598 118.693 377.92 120.151 375.732 120.151C373.563 120.151 371.79 118.693 371.79 116.895C371.79 115.097 373.563 112.493 375.732 112.493C377.92 112.493 380.598 115.097 380.598 116.895Z" fill="#FFB017"/>
<path fill-rule="evenodd" clip-rule="evenodd" d="M398.818 116.895C398.818 118.693 396.159 120.151 393.971 120.151C391.783 120.151 390.01 118.693 390.01 116.895C390.01 115.097 391.783 112.493 393.971 112.493C396.159 112.493 398.818 115.097 398.818 116.895Z" fill="#FFB017"/>
<path fill-rule="evenodd" clip-rule="evenodd" d="M417.057 116.895C417.057 118.693 414.378 120.151 412.19 120.151C410.002 120.151 408.229 118.693 408.229 116.895C408.229 115.097 410.002 112.493 412.19 112.493C414.378 112.493 417.057 115.097 417.057 116.895Z" fill="#FFB017"/>
<path fill-rule="evenodd" clip-rule="evenodd" d="M435.278 116.895C435.278 118.693 432.599 120.151 430.43 120.151C428.242 120.151 426.469 118.693 426.469 116.895C426.469 115.097 428.242 112.493 430.43 112.493C432.599 112.493 435.278 115.097 435.278 116.895Z" fill="#FFB017"/>
<path fill-rule="evenodd" clip-rule="evenodd" d="M453.497 116.895C453.497 118.693 450.838 120.151 448.65 120.151C446.462 120.151 444.689 118.693 444.689 116.895C444.689 115.097 446.462 112.493 448.65 112.493C450.838 112.493 453.497 115.097 453.497 116.895Z" fill="#FFB017"/>
<path fill-rule="evenodd" clip-rule="evenodd" d="M325.918 130.677C325.918 132.475 323.239 133.932 321.051 133.932C318.864 133.932 317.109 132.475 317.109 130.677C317.109 128.879 318.864 126.275 321.051 126.275C323.239 126.275 325.918 128.879 325.918 130.677Z" fill="#FFB017"/>
<path fill-rule="evenodd" clip-rule="evenodd" d="M362.359 130.677C362.359 132.475 359.699 133.932 357.511 133.932C355.323 133.932 353.55 132.475 353.55 130.677C353.55 128.879 355.323 126.275 357.511 126.275C359.699 126.275 362.359 128.879 362.359 130.677Z" fill="#FFB017"/>
<path fill-rule="evenodd" clip-rule="evenodd" d="M380.598 130.677C380.598 132.475 377.92 133.932 375.732 133.932C373.563 133.932 371.79 132.475 371.79 130.677C371.79 128.879 373.563 126.275 375.732 126.275C377.92 126.275 380.598 128.879 380.598 130.677Z" fill="#FFB017"/>
<path fill-rule="evenodd" clip-rule="evenodd" d="M398.818 130.677C398.818 132.475 396.159 133.932 393.971 133.932C391.783 133.932 390.01 132.475 390.01 130.677C390.01 128.879 391.783 126.275 393.971 126.275C396.159 126.275 398.818 128.879 398.818 130.677Z" fill="#FFB017"/>
<path fill-rule="evenodd" clip-rule="evenodd" d="M417.057 130.677C417.057 132.475 414.378 133.932 412.19 133.932C410.002 133.932 408.229 132.475 408.229 130.677C408.229 128.879 410.002 126.275 412.19 126.275C414.378 126.275 417.057 128.879 417.057 130.677Z" fill="#FFB017"/>
<path fill-rule="evenodd" clip-rule="evenodd" d="M435.278 130.677C435.278 132.475 432.599 133.932 430.43 133.932C428.242 133.932 426.469 132.475 426.469 130.677C426.469 128.879 428.242 126.275 430.43 126.275C432.599 126.275 435.278 128.879 435.278 130.677Z" fill="#FFB017"/>
<path fill-rule="evenodd" clip-rule="evenodd" d="M489.957 130.677C489.957 132.475 487.297 133.932 485.109 133.932C482.921 133.932 481.148 132.475 481.148 130.677C481.148 128.879 482.921 126.275 485.109 126.275C487.297 126.275 489.957 128.879 489.957 130.677Z" fill="#FFB017"/>
<path fill-rule="evenodd" clip-rule="evenodd" d="M325.918 144.459C325.918 146.257 323.239 147.714 321.051 147.714C318.864 147.714 317.109 146.257 317.109 144.459C317.109 142.661 318.864 140.057 321.051 140.057C323.239 140.057 325.918 142.661 325.918 144.459Z" fill="#FFB017"/>
<path fill-rule="evenodd" clip-rule="evenodd" d="M344.138 144.459C344.138 146.257 341.46 147.714 339.291 147.714C337.103 147.714 335.33 146.257 335.33 144.459C335.33 142.661 337.103 140.057 339.291 140.057C341.46 140.057 344.138 142.661 344.138 144.459Z" fill="#FFB017"/>
<path fill-rule="evenodd" clip-rule="evenodd" d="M362.359 144.459C362.359 146.257 359.699 147.714 357.511 147.714C355.323 147.714 353.55 146.257 353.55 144.459C353.55 142.661 355.323 140.057 357.511 140.057C359.699 140.057 362.359 142.661 362.359 144.459Z" fill="#FFB017"/>
<path fill-rule="evenodd" clip-rule="evenodd" d="M435.278 144.459C435.278 146.257 432.599 147.714 430.43 147.714C428.242 147.714 426.469 146.257 426.469 144.459C426.469 142.661 428.242 140.057 430.43 140.057C432.599 140.057 435.278 142.661 435.278 144.459Z" fill="#FFB017"/>
<path fill-rule="evenodd" clip-rule="evenodd" d="M471.737 144.459C471.737 146.257 469.058 147.714 466.87 147.714C464.701 147.714 462.928 146.257 462.928 144.459C462.928 142.661 464.701 140.057 466.87 140.057C469.058 140.057 471.737 142.661 471.737 144.459Z" fill="#FFB017"/>
<path fill-rule="evenodd" clip-rule="evenodd" d="M489.957 144.459C489.957 146.257 487.297 147.714 485.109 147.714C482.921 147.714 481.148 146.257 481.148 144.459C481.148 142.661 482.921 140.057 485.109 140.057C487.297 140.057 489.957 142.661 489.957 144.459Z" fill="#FFB017"/>
<path fill-rule="evenodd" clip-rule="evenodd" d="M489.957 115.897C489.957 117.695 487.297 119.153 485.109 119.153C482.921 119.153 481.148 117.695 481.148 115.897C481.148 114.099 482.921 111.497 485.109 111.497C487.297 111.497 489.957 114.099 489.957 115.897Z" fill="#FFB017"/>
<path fill-rule="evenodd" clip-rule="evenodd" d="M471.737 129.677C471.737 131.475 469.058 132.933 466.87 132.933C464.701 132.933 462.928 131.475 462.928 129.677C462.928 127.879 464.701 125.277 466.87 125.277C469.058 125.277 471.737 127.879 471.737 129.677Z" fill="#FFB017"/>
<path fill-rule="evenodd" clip-rule="evenodd" d="M453.497 143.459C453.497 145.257 450.838 146.715 448.65 146.715C446.462 146.715 444.689 145.257 444.689 143.459C444.689 141.661 446.462 139.059 448.65 139.059C450.838 139.059 453.497 141.661 453.497 143.459Z" fill="#FFB017"/>
</g>
<path d="M441.248 175.948C481.207 175.948 513.6 173.18 513.6 169.766C513.6 166.352 481.207 163.584 441.248 163.584C401.289 163.584 368.896 166.352 368.896 169.766C368.896 173.18 401.289 175.948 441.248 175.948Z" fill="#E6E7E8"/>
<path d="M473.58 168.787H406.239C404.034 168.787 402.23 166.983 402.23 164.778V116.008C402.23 113.804 404.034 112 406.239 112H473.58C475.785 112 477.589 113.804 477.589 116.008V164.78C477.589 166.983 475.785 168.787 473.58 168.787Z" fill="#0A191B"/>
<path d="M471.623 164.051H407.87C405.747 164.051 404.01 162.314 404.01 160.19V118.328C404.01 116.205 405.747 114.468 407.87 114.468H471.625C473.748 114.468 475.485 116.205 475.485 118.328V160.19C475.483 162.314 473.746 164.051 471.623 164.051Z" fill="#E6E7E8"/>
<path d="M443.889 166.197H438.604C438.476 166.197 438.371 166.092 438.371 165.964C438.371 165.836 438.476 165.731 438.604 165.731H443.889C444.018 165.731 444.123 165.836 444.123 165.964C444.124 166.091 444.019 166.197 443.889 166.197Z" fill="#E3E5FC"/>
<path d="M406.252 113.908C406.542 113.908 406.778 113.673 406.778 113.382C406.778 113.092 406.542 112.856 406.252 112.856C405.961 112.856 405.726 113.092 405.726 113.382C405.726 113.673 405.961 113.908 406.252 113.908Z" fill="#E3E5FC"/>
<path d="M408.515 113.908C408.806 113.908 409.041 113.673 409.041 113.382C409.041 113.092 408.806 112.856 408.515 112.856C408.224 112.856 407.989 113.092 407.989 113.382C407.989 113.673 408.224 113.908 408.515 113.908Z" fill="white"/>
<path d="M410.8 113.908C411.09 113.908 411.326 113.673 411.326 113.382C411.326 113.092 411.09 112.856 410.8 112.856C410.509 112.856 410.273 113.092 410.273 113.382C410.273 113.673 410.509 113.908 410.8 113.908Z" fill="#4B369D"/>
<path d="M442.891 142.558H410.9C410.557 142.558 410.276 142.277 410.276 141.934C410.276 141.591 410.557 141.309 410.9 141.309H442.891C443.234 141.309 443.515 141.591 443.515 141.934C443.515 142.277 443.235 142.558 442.891 142.558Z" fill="white"/>
<path d="M442.89 145.421H410.9C410.557 145.421 410.275 145.139 410.275 144.796C410.275 144.453 410.557 144.172 410.9 144.172H442.89C443.233 144.172 443.515 144.453 443.515 144.796C443.515 145.139 443.235 145.421 442.89 145.421Z" fill="white"/>
<path d="M442.89 148.284H410.9C410.557 148.284 410.275 148.002 410.275 147.659C410.275 147.316 410.557 147.035 410.9 147.035H442.89C443.233 147.035 443.515 147.316 443.515 147.659C443.515 148.002 443.235 148.284 442.89 148.284Z" fill="white"/>
<path d="M442.89 151.511H410.9C410.557 151.511 410.275 151.229 410.275 150.886C410.275 150.543 410.557 150.262 410.9 150.262H442.89C443.233 150.262 443.515 150.543 443.515 150.886C443.515 151.229 443.235 151.511 442.89 151.511Z" fill="white"/>
<path d="M442.89 154.373H410.9C410.557 154.373 410.275 154.092 410.275 153.749C410.275 153.406 410.557 153.125 410.9 153.125H442.89C443.233 153.125 443.515 153.406 443.515 153.749C443.515 154.092 443.235 154.373 442.89 154.373Z" fill="white"/>
<path d="M442.89 157.236H410.9C410.557 157.236 410.275 156.955 410.275 156.612C410.275 156.269 410.557 155.987 410.9 155.987H442.89C443.233 155.987 443.515 156.269 443.515 156.612C443.515 156.955 443.235 157.236 442.89 157.236Z" fill="white"/>
<path d="M417.763 135.792H436.028C440.146 135.792 443.515 132.423 443.515 128.305V126.966C443.515 122.848 440.146 119.479 436.028 119.479H417.763C413.644 119.479 410.275 122.848 410.275 126.966V128.305C410.274 132.423 413.644 135.792 417.763 135.792Z" fill="white"/>
<path d="M458.035 148.042H461.712C465.83 148.042 469.199 144.673 469.199 140.555V126.966C469.199 122.848 465.83 119.479 461.712 119.479H458.035C453.916 119.479 450.547 122.848 450.547 126.966V140.555C450.546 144.673 453.916 148.042 458.035 148.042Z" fill="white"/>
<path d="M453.915 156.49H465.833C467.685 156.49 469.2 154.975 469.2 153.123C469.2 151.271 467.685 149.756 465.833 149.756H453.915C452.063 149.756 450.547 151.271 450.547 153.123C450.546 154.975 452.061 156.49 453.915 156.49Z" fill="#9A3C81"/>
<path d="M320.714 123.599L315.191 118.232L320.701 112.602L321.723 113.604L317.22 118.206L321.71 122.572L320.714 123.599Z" fill="#9A3C81"/>
<path d="M332.552 123.586L331.53 122.585L336.033 117.982L331.543 113.616L332.539 112.589L338.062 117.956L332.552 123.586Z" fill="#9A3C81"/>
<rect x="322.964" y="127.219" width="19.1702" height="1.43229" transform="rotate(-71.8749 322.964 127.219)" fill="#9A3C81"/>
<path fill-rule="evenodd" clip-rule="evenodd" d="M112.286 112.934H119.013V106.207H112.286V112.934ZM118.492 112.414H112.806V106.728H118.492V112.414Z" fill="#A1A7A7"/>
<rect x="112.361" y="112.491" width="8.77722" height="0.520777" transform="rotate(-45 112.361 112.491)" fill="#A1A7A7"/>
<rect x="112.361" y="106.652" width="0.520777" height="8.77722" transform="rotate(-45 112.361 106.652)" fill="#A1A7A7"/>
<path fill-rule="evenodd" clip-rule="evenodd" d="M118.492 112.934H125.22V106.207H118.492V112.934ZM124.699 112.414H119.013V106.728H124.699V112.414Z" fill="#A1A7A7"/>
<rect x="118.567" y="112.49" width="8.77722" height="0.520777" transform="rotate(-45 118.567 112.49)" fill="#A1A7A7"/>
<rect x="118.567" y="106.652" width="0.520777" height="8.77722" transform="rotate(-45 118.567 106.652)" fill="#A1A7A7"/>
<path fill-rule="evenodd" clip-rule="evenodd" d="M99.8721 175H106.6V168.273H99.8721V175ZM106.08 174.479H100.394V168.793H106.08V174.479Z" fill="#A1A7A7"/>
<rect x="99.9468" y="174.556" width="8.77722" height="0.520777" transform="rotate(-45 99.9468 174.556)" fill="#A1A7A7"/>
<rect x="99.9473" y="168.717" width="0.520777" height="8.77722" transform="rotate(-45 99.9473 168.717)" fill="#A1A7A7"/>
<path fill-rule="evenodd" clip-rule="evenodd" d="M99.8721 168.794H106.6V162.067H99.8721V168.794ZM106.08 168.273H100.394V162.587H106.08V168.273Z" fill="#A1A7A7"/>
<rect x="99.9478" y="168.35" width="8.77722" height="0.520777" transform="rotate(-45 99.9478 168.35)" fill="#A1A7A7"/>
<rect x="99.9482" y="162.511" width="0.520777" height="8.77722" transform="rotate(-45 99.9482 162.511)" fill="#A1A7A7"/>
<path fill-rule="evenodd" clip-rule="evenodd" d="M99.8721 162.587H106.6V155.86H99.8721V162.587ZM106.08 162.067H100.394V156.381H106.08V162.067Z" fill="#A1A7A7"/>
<rect x="99.9473" y="162.143" width="8.77722" height="0.520777" transform="rotate(-45 99.9473 162.143)" fill="#A1A7A7"/>
<rect x="99.9478" y="156.305" width="0.520777" height="8.77722" transform="rotate(-45 99.9478 156.305)" fill="#A1A7A7"/>
<path fill-rule="evenodd" clip-rule="evenodd" d="M99.8721 156.381H106.6V149.653H99.8721V156.381ZM106.08 155.86H100.394V150.174H106.08V155.86Z" fill="#A1A7A7"/>
<rect x="99.9473" y="155.937" width="8.77722" height="0.520777" transform="rotate(-45 99.9473 155.937)" fill="#A1A7A7"/>
<rect x="99.9478" y="150.098" width="0.520777" height="8.77722" transform="rotate(-45 99.9478 150.098)" fill="#A1A7A7"/>
<path fill-rule="evenodd" clip-rule="evenodd" d="M99.8721 150.174H106.6V143.446H99.8721V150.174ZM106.08 149.653H100.394V143.967H106.08V149.653Z" fill="#A1A7A7"/>
<rect x="99.9473" y="149.73" width="8.77722" height="0.520777" transform="rotate(-45 99.9473 149.73)" fill="#A1A7A7"/>
<rect x="99.9478" y="143.891" width="0.520777" height="8.77722" transform="rotate(-45 99.9478 143.891)" fill="#A1A7A7"/>
<path fill-rule="evenodd" clip-rule="evenodd" d="M99.8721 143.967H106.6V137.24H99.8721V143.967ZM106.08 143.446H100.394V137.76H106.08V143.446Z" fill="#A1A7A7"/>
<rect x="99.9473" y="143.523" width="8.77722" height="0.520777" transform="rotate(-45 99.9473 143.523)" fill="#A1A7A7"/>
<rect x="99.9478" y="137.685" width="0.520777" height="8.77722" transform="rotate(-45 99.9478 137.685)" fill="#A1A7A7"/>
<path fill-rule="evenodd" clip-rule="evenodd" d="M99.8721 137.76H106.6V131.033H99.8721V137.76ZM106.08 137.24H100.394V131.554H106.08V137.24Z" fill="#A1A7A7"/>
<rect x="99.9478" y="137.317" width="8.77722" height="0.520777" transform="rotate(-45 99.9478 137.317)" fill="#A1A7A7"/>
<rect x="99.9478" y="131.478" width="0.520777" height="8.77722" transform="rotate(-45 99.9478 131.478)" fill="#A1A7A7"/>
<path fill-rule="evenodd" clip-rule="evenodd" d="M99.8721 131.555H106.6V124.827H99.8721V131.555ZM106.08 131.034H100.394V125.348H106.08V131.034Z" fill="#A1A7A7"/>
<rect x="99.9478" y="131.111" width="8.77722" height="0.520777" transform="rotate(-45 99.9478 131.111)" fill="#A1A7A7"/>
<rect x="99.9482" y="125.272" width="0.520777" height="8.77722" transform="rotate(-45 99.9482 125.272)" fill="#A1A7A7"/>
<path fill-rule="evenodd" clip-rule="evenodd" d="M99.8721 125.348H106.6V118.62H99.8721V125.348ZM106.08 124.827H100.394V119.141H106.08V124.827Z" fill="#A1A7A7"/>
<rect x="99.9478" y="124.904" width="8.77722" height="0.520777" transform="rotate(-45 99.9478 124.904)" fill="#A1A7A7"/>
<rect x="99.9482" y="119.065" width="0.520777" height="8.77722" transform="rotate(-45 99.9482 119.065)" fill="#A1A7A7"/>
<path fill-rule="evenodd" clip-rule="evenodd" d="M99.8721 119.141H106.6V112.414H99.8721V119.141ZM106.08 118.62H100.394V112.934H106.08V118.62Z" fill="#A1A7A7"/>
<rect x="99.9478" y="118.697" width="8.77722" height="0.520777" transform="rotate(-45 99.9478 118.697)" fill="#A1A7A7"/>
<rect x="99.9482" y="112.859" width="0.520777" height="8.77722" transform="rotate(-45 99.9482 112.859)" fill="#A1A7A7"/>
<path fill-rule="evenodd" clip-rule="evenodd" d="M99.8721 112.934H106.6V106.207H99.8721V112.934ZM106.08 112.414H100.394V106.728H106.08V112.414Z" fill="#A1A7A7"/>
<rect x="99.9473" y="112.491" width="8.77722" height="0.520777" transform="rotate(-45 99.9473 112.491)" fill="#A1A7A7"/>
<rect x="99.9478" y="106.652" width="0.520777" height="8.77722" transform="rotate(-45 99.9478 106.652)" fill="#A1A7A7"/>
<path fill-rule="evenodd" clip-rule="evenodd" d="M99.8726 106.728H106.6V100H99.8726V106.728ZM106.08 106.207H100.394V100.521H106.08V106.207Z" fill="#A1A7A7"/>
<rect x="99.9482" y="106.285" width="8.77722" height="0.520777" transform="rotate(-45 99.9482 106.285)" fill="#A1A7A7"/>
<rect x="99.9482" y="100.445" width="0.520777" height="8.77722" transform="rotate(-45 99.9482 100.445)" fill="#A1A7A7"/>
<path fill-rule="evenodd" clip-rule="evenodd" d="M106.079 112.934H112.806V106.207H106.079V112.934ZM112.285 112.414H106.599V106.728H112.285V112.414Z" fill="#A1A7A7"/>
<rect x="106.154" y="112.491" width="8.77722" height="0.520777" transform="rotate(-45 106.154 112.491)" fill="#A1A7A7"/>
<rect x="106.154" y="106.652" width="0.520777" height="8.77722" transform="rotate(-45 106.154 106.652)" fill="#A1A7A7"/>
<path fill-rule="evenodd" clip-rule="evenodd" d="M93.6665 112.934H100.394V106.207H93.6665V112.934ZM99.8733 112.414H94.1873V106.728H99.8733V112.414Z" fill="#A1A7A7"/>
<rect x="93.7417" y="112.49" width="8.77722" height="0.520777" transform="rotate(-45 93.7417 112.49)" fill="#A1A7A7"/>
<rect x="93.7417" y="106.652" width="0.520777" height="8.77722" transform="rotate(-45 93.7417 106.652)" fill="#A1A7A7"/>
<path fill-rule="evenodd" clip-rule="evenodd" d="M87.4595 112.934H94.187V106.207H87.4595V112.934ZM93.6662 112.414H87.9802V106.728H93.6662V112.414Z" fill="#A1A7A7"/>
<rect x="87.5347" y="112.49" width="8.77722" height="0.520777" transform="rotate(-45 87.5347 112.49)" fill="#A1A7A7"/>
<rect x="87.5347" y="106.652" width="0.520777" height="8.77722" transform="rotate(-45 87.5347 106.652)" fill="#A1A7A7"/>
<path fill-rule="evenodd" clip-rule="evenodd" d="M80.9282 112.934H88.0236V105.839L80.9282 112.934ZM87.502 112.414H82.1848L87.502 107.096V112.414Z" fill="#A1A7A7"/>
<rect x="81.3716" y="112.49" width="8.77722" height="0.520777" transform="rotate(-45 81.3716 112.49)" fill="#A1A7A7"/>
<rect x="81.2964" y="115.777" width="0.520782" height="21.8849" fill="#A1A7A7"/>
<path d="M82.7686 139.331H80.5854C79.9618 139.331 79.4512 138.821 79.4512 138.197V136.014C79.4512 135.39 79.9618 134.879 80.5854 134.879H82.7686C83.3922 134.879 83.9028 135.39 83.9028 136.014V138.197C83.9028 138.821 83.3922 139.331 82.7686 139.331Z" fill="#A1A7A7"/>
<path d="M80.9134 144.154C79.5197 144.154 78.644 142.95 78.4985 141.755L79.0156 141.692C79.1296 142.629 79.7718 143.634 80.9134 143.634C80.918 143.634 80.9217 143.634 80.9264 143.634C81.8215 143.628 82.7797 142.973 82.7797 142.008C82.7797 140.853 81.6297 140.373 81.5806 140.352L81.4184 140.287L81.4175 138.616H81.9383V139.946C82.334 140.152 83.3005 140.78 83.3005 142.009C83.3005 143.326 82.0699 144.148 80.9301 144.155C80.9245 144.154 80.919 144.154 80.9134 144.154Z" fill="#A1A7A7"/>
<path d="M94.01 117.586H76.0051C74.8449 117.586 73.896 116.637 73.896 115.477C73.896 114.317 74.8449 113.368 76.0051 113.368H94.01C95.1702 113.368 96.1191 114.317 96.1191 115.477C96.1182 116.637 95.1693 117.586 94.01 117.586Z" fill="#A1A7A7"/>
<path d="M123.64 184H94.5712C92.5504 184 90.896 182.347 90.896 180.325V178.675C90.896 176.654 92.5494 175 94.5712 175H123.64C125.661 175 127.315 176.653 127.315 178.675V180.325C127.314 182.346 125.661 184 123.64 184Z" fill="#A1A7A7"/>
<path d="M119.17 178.622H104.47C104.026 178.622 103.663 178.259 103.663 177.815C103.663 177.371 104.026 177.008 104.47 177.008H119.17C119.614 177.008 119.976 177.371 119.976 177.815C119.976 178.259 119.614 178.622 119.17 178.622Z" fill="white"/>
<path d="M112.306 181.759H104.47C104.026 181.759 103.663 181.397 103.663 180.953C103.663 180.509 104.026 180.146 104.47 180.146H112.306C112.75 180.146 113.113 180.509 113.113 180.953C113.113 181.396 112.75 181.759 112.306 181.759Z" fill="white"/>
<path d="M97.5232 182.476C99.033 182.476 100.257 181.252 100.257 179.742C100.257 178.232 99.033 177.008 97.5232 177.008C96.0135 177.008 94.7896 178.232 94.7896 179.742C94.7896 181.252 96.0135 182.476 97.5232 182.476Z" fill="white"/>
<path d="M393.344 185H143.655C143.481 185 143.314 185.053 143.191 185.146C143.069 185.24 143 185.367 143 185.5C143 185.633 143.069 185.76 143.191 185.854C143.314 185.947 143.481 186 143.655 186H393.344C393.518 186 393.685 185.947 393.808 185.854C393.93 185.76 394 185.633 394 185.5C394 185.367 393.93 185.24 393.808 185.146C393.685 185.053 393.518 185 393.344 185Z" fill="#357E88"/>
<path d="M392.507 117.548C395.231 116.006 397.956 114.463 400.68 112.921C408.732 108.362 416.914 103.705 423.281 96.991C425.798 94.3362 428.037 91.3203 429.184 87.8471C429.42 87.1322 429.602 86.3305 429.285 85.6479C428.744 84.4899 427.167 84.3686 425.892 84.467C422.068 84.7639 418.28 85.5244 414.637 86.7232C417.668 79.3183 427.192 76.7729 431.54 70.0565C432.245 68.9666 432.815 67.6897 432.614 66.4082C432.485 65.585 432.044 64.8341 431.482 64.2167C429.576 62.1179 426.417 61.5523 423.632 62.0731C420.846 62.5958 418.333 64.0396 415.88 65.4598C419.247 63.6011 422.068 60.7675 423.913 57.3915C424.677 55.9923 425.286 54.3413 424.781 52.8303C423.928 50.2673 420.383 49.6769 417.885 50.7025C413.063 52.6799 410.914 58.1653 409.002 63.0139C407.09 67.8625 404.173 73.2243 399.044 74.1472C398.428 74.2577 397.767 74.3116 397.273 74.6953C396.312 75.4445 396.555 77.0146 397.283 77.9928C398.01 78.971 399.09 79.6493 399.785 80.6508C401.343 82.8956 400.53 86.0021 399.237 88.4098C397.945 90.8174 396.192 93.1184 395.937 95.8396C395.621 99.2233 394.209 103.119 393.612 106.463C393.34 107.983 396.044 108.776 395.496 110.218C394.949 111.66 394.681 113.358 395.458 114.692C396.235 116.026 398.395 116.531 399.325 115.301" fill="#357E88"/>
<path d="M392.507 117.548C395.231 116.006 397.956 114.463 400.68 112.921C408.732 108.362 416.914 103.705 423.281 96.991C425.798 94.3362 428.037 91.3203 429.184 87.8471C429.42 87.1322 429.602 86.3305 429.285 85.6479C428.744 84.4899 427.167 84.3686 425.892 84.467C422.068 84.7639 418.28 85.5244 414.637 86.7232C417.668 79.3183 427.192 76.7729 431.54 70.0565C432.245 68.9666 432.815 67.6897 432.614 66.4082C432.485 65.585 432.044 64.8341 431.482 64.2167C429.576 62.1179 426.417 61.5523 423.632 62.0731C420.846 62.5958 418.333 64.0396 415.88 65.4598C419.247 63.6011 422.068 60.7675 423.913 57.3915C424.677 55.9923 425.286 54.3413 424.781 52.8303C423.928 50.2673 420.383 49.6769 417.885 50.7025C413.063 52.6799 410.914 58.1653 409.002 63.0139C407.09 67.8625 404.173 73.2243 399.044 74.1472C398.428 74.2577 397.767 74.3116 397.273 74.6953C396.312 75.4445 396.555 77.0146 397.283 77.9928C398.01 78.971 399.09 79.6493 399.785 80.6508C401.343 82.8956 400.53 86.0021 399.237 88.4098C397.945 90.8174 396.192 93.1184 395.937 95.8396C395.621 99.2233 394.209 103.119 393.612 106.463C393.34 107.983 396.044 108.776 395.496 110.218C394.949 111.66 394.681 113.358 395.458 114.692C396.235 116.026 398.395 116.531 399.325 115.301" stroke="#0F555F"/>
<path d="M388.39 112.976C388.577 113 388.772 112.927 388.893 112.764C396.454 102.771 416.184 76.7331 417.159 75.6711C417.332 75.5247 417.4 75.2772 417.313 75.0552C417.201 74.7755 416.888 74.6386 416.604 74.7497C416.421 74.8225 416.142 74.9321 388.026 112.106C387.844 112.345 387.893 112.688 388.132 112.87C388.208 112.93 388.3 112.965 388.39 112.976Z" fill="white"/>
<path d="M400.45 97.0612C400.479 97.0648 400.508 97.0665 400.538 97.0644L416.079 96.5191C416.379 96.5079 416.616 96.2561 416.605 95.9558C416.594 95.6535 416.342 95.4187 416.042 95.43L400.5 95.9752C400.2 95.9865 399.963 96.2382 399.974 96.5386C399.983 96.8113 400.19 97.0287 400.45 97.0612Z" fill="white"/>
<path d="M404.312 161.602C403.926 161.793 403.325 161.903 402.444 161.903C378.759 161.9 355.081 161.894 331.392 161.958C319.528 161.99 307.663 161.905 295.799 161.932C289.807 161.945 283.815 161.987 277.825 162.088C274.829 162.139 271.833 162.204 268.837 162.286C266.635 162.346 263.962 162.756 261.865 161.84C261.149 161.528 260.474 161.109 260.188 160.34C260.142 160.157 260.13 159.974 260.153 159.787C260.384 158.191 262.83 155.512 263.791 154.19C265.763 151.477 267.781 148.526 271.318 147.585C273.376 147.039 275.547 147.048 277.683 147.061C315.153 147.061 352.625 147.268 390.092 147.384C392.442 147.391 395.342 147.736 396.976 149.531C399.053 151.811 400.881 154.279 402.562 156.834C403.576 158.361 406.006 160.761 404.312 161.602Z" fill="#E0E2E3"/>
<path d="M388.193 148.987H275.962C270.449 148.987 265.939 144.477 265.939 138.965V59.3282C265.939 53.8155 270.449 49.3059 275.962 49.3059H388.195C393.708 49.3059 398.217 53.8155 398.217 59.3282V138.962C398.217 144.477 393.706 148.987 388.193 148.987Z" fill="#E6E7E8"/>
<path fill-rule="evenodd" clip-rule="evenodd" d="M275.962 149.613H388.193C394.067 149.613 398.844 144.836 398.844 138.962V59.3282C398.844 53.4566 394.067 48.6795 388.195 48.6795H275.962C270.09 48.6795 265.313 53.4566 265.313 59.3282V138.965C265.313 144.836 270.09 149.613 275.962 149.613ZM266.566 59.3282C266.566 54.1476 270.781 49.9323 275.962 49.9323H388.195C393.376 49.9323 397.591 54.1476 397.591 59.3282V138.962C397.591 144.143 393.376 148.358 388.195 148.358H275.962C270.781 148.358 266.566 144.143 266.566 138.962V59.3282Z" fill="#0A191B"/>
<path d="M279.455 53.6393C273.739 53.6393 269.062 58.3161 269.062 64.0317V118.505C302.888 98.2068 335.971 76.7557 367.917 53.6393H279.455Z" fill="#E8EFF0"/>
<path d="M384.129 53.6393H367.917C335.968 76.7534 302.888 98.2068 269.062 118.505V130.28C269.062 135.995 273.739 140.672 279.455 140.672H384.129C389.845 140.672 394.522 135.995 394.522 130.28V64.0317C394.522 58.3161 389.845 53.6393 384.129 53.6393Z" fill="white"/>
<path d="M339.167 144.439H329.687C329.517 144.439 329.379 144.301 329.379 144.132V143.927C329.379 143.757 329.517 143.619 329.687 143.619H339.167C339.337 143.619 339.475 143.757 339.475 143.927V144.132C339.475 144.301 339.337 144.439 339.167 144.439Z" fill="#1E6F7A"/>
<path d="M278.552 52.6541C279.061 52.6541 279.475 52.2409 279.475 51.7312C279.475 51.2215 279.061 50.8083 278.552 50.8083C278.042 50.8083 277.629 51.2215 277.629 51.7312C277.629 52.2409 278.042 52.6541 278.552 52.6541Z" fill="#1E6F7A"/>
<path d="M282.526 52.6541C283.036 52.6541 283.449 52.2409 283.449 51.7312C283.449 51.2215 283.036 50.8083 282.526 50.8083C282.017 50.8083 281.604 51.2215 281.604 51.7312C281.604 52.2409 282.017 52.6541 282.526 52.6541Z" fill="white"/>
<path d="M286.537 52.6541C287.046 52.6541 287.46 52.2409 287.46 51.7312C287.46 51.2215 287.046 50.8083 286.537 50.8083C286.027 50.8083 285.614 51.2215 285.614 51.7312C285.614 52.2409 286.027 52.6541 286.537 52.6541Z" fill="#0A191B"/>
<path d="M278.744 152.65H274.504C273.945 152.65 273.489 152.194 273.489 151.636V150.965C273.489 150.407 273.945 149.951 274.504 149.951H278.744C279.302 149.951 279.759 150.407 279.759 150.965V151.636C279.759 152.194 279.302 152.65 278.744 152.65Z" fill="#8ABFC7"/>
<path d="M289.17 152.65H284.929C284.371 152.65 283.915 152.194 283.915 151.636V150.965C283.915 150.407 284.371 149.951 284.929 149.951H289.17C289.728 149.951 290.184 150.407 290.184 150.965V151.636C290.187 152.194 289.728 152.65 289.17 152.65Z" fill="#8ABFC7"/>
<path d="M299.598 152.65H295.358C294.799 152.65 294.343 152.194 294.343 151.636V150.965C294.343 150.407 294.799 149.951 295.358 149.951H299.598C300.156 149.951 300.613 150.407 300.613 150.965V151.636C300.613 152.194 300.156 152.65 299.598 152.65Z" fill="#8ABFC7"/>
<path d="M310.024 152.65H305.783C305.225 152.65 304.769 152.194 304.769 151.636V150.965C304.769 150.407 305.225 149.951 305.783 149.951H310.024C310.582 149.951 311.038 150.407 311.038 150.965V151.636C311.038 152.194 310.582 152.65 310.024 152.65Z" fill="#8ABFC7"/>
<path d="M320.45 152.65H316.209C315.651 152.65 315.195 152.194 315.195 151.636V150.965C315.195 150.407 315.651 149.951 316.209 149.951H320.45C321.008 149.951 321.464 150.407 321.464 150.965V151.636C321.467 152.194 321.008 152.65 320.45 152.65Z" fill="#8ABFC7"/>
<path d="M330.879 152.65H326.638C326.08 152.65 325.624 152.194 325.624 151.636V150.965C325.624 150.407 326.08 149.951 326.638 149.951H330.879C331.437 149.951 331.893 150.407 331.893 150.965V151.636C331.893 152.194 331.437 152.65 330.879 152.65Z" fill="#8ABFC7"/>
<path d="M341.304 152.65H337.064C336.505 152.65 336.049 152.194 336.049 151.636V150.965C336.049 150.407 336.505 149.951 337.064 149.951H341.304C341.862 149.951 342.319 150.407 342.319 150.965V151.636C342.319 152.194 341.862 152.65 341.304 152.65Z" fill="#8ABFC7"/>
<path d="M351.733 152.65H347.492C346.934 152.65 346.478 152.194 346.478 151.636V150.965C346.478 150.407 346.934 149.951 347.492 149.951H351.733C352.291 149.951 352.747 150.407 352.747 150.965V151.636C352.747 152.194 352.291 152.65 351.733 152.65Z" fill="#8ABFC7"/>
<path d="M362.159 152.65H357.918C357.36 152.65 356.904 152.194 356.904 151.636V150.965C356.904 150.407 357.36 149.951 357.918 149.951H362.159C362.717 149.951 363.173 150.407 363.173 150.965V151.636C363.173 152.194 362.717 152.65 362.159 152.65Z" fill="#8ABFC7"/>
<path d="M372.585 152.65H368.344C367.786 152.65 367.33 152.194 367.33 151.636V150.965C367.33 150.407 367.786 149.951 368.344 149.951H372.585C373.143 149.951 373.599 150.407 373.599 150.965V151.636C373.601 152.194 373.143 152.65 372.585 152.65Z" fill="#8ABFC7"/>
<path d="M383.013 152.65H378.773C378.214 152.65 377.758 152.194 377.758 151.636V150.965C377.758 150.407 378.214 149.951 378.773 149.951H383.013C383.571 149.951 384.028 150.407 384.028 150.965V151.636C384.028 152.194 383.571 152.65 383.013 152.65Z" fill="#8ABFC7"/>
<path d="M393.439 152.65H389.198C388.64 152.65 388.184 152.194 388.184 151.636V150.965C388.184 150.407 388.64 149.951 389.198 149.951H393.439C393.997 149.951 394.453 150.407 394.453 150.965V151.636C394.453 152.194 393.997 152.65 393.439 152.65Z" fill="#8ABFC7"/>
<path d="M499.767 145.375C501.23 144.353 502.796 142.953 502.67 141.173C500.442 141.119 498.206 141.586 496.186 142.525C495.474 141.582 496.628 140.372 497.641 139.764C499.834 138.443 502.029 137.123 504.223 135.804C503.453 135.091 502.411 134.678 501.362 134.671C500.546 132.697 504.449 131.385 504.097 129.277C503.913 128.171 502.524 127.622 501.441 127.911C500.358 128.201 499.531 129.055 498.764 129.874C499.25 128.482 500.146 127.279 500.86 125.988C501.573 124.698 502.117 123.207 501.802 121.767C501.487 120.327 500.028 119.07 498.6 119.439C497.614 119.693 496.945 120.593 496.428 121.472C495.303 123.383 494.501 125.482 494.065 127.656C493.804 128.953 493.043 130.705 491.788 130.287C491.11 130.061 490.826 129.28 490.383 128.719C489.143 127.146 486.425 127.471 485.153 129.018C483.881 130.564 483.846 132.833 484.49 134.729C484.887 135.9 485.418 137.425 484.439 138.178C483.474 138.921 481.934 138.072 480.906 138.722C479.662 139.508 480.356 141.383 480.504 142.847C480.68 144.591 479.844 146.254 479.152 147.864C478.461 149.475 477.897 151.333 478.594 152.94C480.691 157.771 496.849 147.414 499.767 145.375Z" fill="#8ABFC7"/>
<path fill-rule="evenodd" clip-rule="evenodd" d="M479.849 154.442C480.199 154.541 480.594 154.587 481.023 154.587C486.919 154.587 499.661 145.908 499.98 145.691L499.985 145.688C501.37 144.72 503.194 143.197 503.048 141.147L503.024 140.804L502.68 140.796C500.508 140.746 498.343 141.171 496.362 142.034C496.34 141.941 496.34 141.843 496.361 141.737C496.475 141.143 497.184 140.482 497.837 140.089L504.851 135.87L504.482 135.529C503.713 134.817 502.692 134.379 501.647 134.305C501.528 133.662 502.059 133.066 502.906 132.211L502.911 132.207C503.737 131.372 504.674 130.426 504.473 129.217C504.384 128.684 504.06 128.213 503.56 127.891C502.927 127.484 502.077 127.353 501.345 127.548C500.835 127.684 500.38 127.933 499.97 128.232C500.108 127.994 500.253 127.755 500.4 127.513C500.428 127.466 500.457 127.419 500.485 127.372L500.501 127.346C500.737 126.959 500.973 126.57 501.192 126.174C502.137 124.464 502.457 122.997 502.172 121.69C501.971 120.772 501.37 119.927 500.562 119.43C499.909 119.029 499.179 118.902 498.507 119.077C497.352 119.374 496.616 120.413 496.104 121.284C494.952 123.24 494.141 125.361 493.695 127.586C493.525 128.424 493.116 129.528 492.516 129.875C492.321 129.988 492.128 130.005 491.908 129.933C491.55 129.813 491.309 129.435 491.054 129.035L491.054 129.035C490.935 128.847 490.815 128.658 490.68 128.489C490.093 127.742 489.184 127.325 488.121 127.313H488.076C486.838 127.313 485.611 127.872 484.862 128.781C483.406 130.551 483.531 133.078 484.146 134.895C484.511 135.967 484.963 137.302 484.21 137.882C483.825 138.177 483.261 138.143 482.665 138.107L482.657 138.107C482.024 138.069 481.306 138.026 480.705 138.406C479.513 139.158 479.765 140.633 479.987 141.933L479.991 141.956C480.046 142.284 480.098 142.594 480.128 142.887C480.277 144.347 479.643 145.798 479.03 147.202L479.025 147.214L478.806 147.717C478.136 149.275 477.467 151.295 478.248 153.093C478.541 153.77 479.081 154.224 479.849 154.442ZM481.106 139.044C481.368 138.879 481.689 138.836 482.042 138.836C482.227 138.836 482.421 138.848 482.615 138.862C483.292 138.904 484.058 138.949 484.666 138.481C485.849 137.571 485.277 135.882 484.845 134.611C484.308 133.027 484.183 130.79 485.442 129.26C486.058 128.513 487.079 128.045 488.108 128.068C488.937 128.076 489.639 128.391 490.083 128.954C490.201 129.105 490.307 129.272 490.414 129.439C490.713 129.91 491.053 130.443 491.665 130.647C492.089 130.789 492.513 130.746 492.893 130.526C493.921 129.93 494.333 128.236 494.434 127.731C494.863 125.59 495.643 123.549 496.752 121.664C497.191 120.92 497.807 120.035 498.693 119.806C499.296 119.651 499.826 119.865 500.164 120.072C500.791 120.457 501.275 121.138 501.432 121.849C501.676 122.97 501.38 124.263 500.529 125.807C500.309 126.202 500.074 126.59 499.837 126.978C499.305 127.85 498.755 128.753 498.406 129.75L497.817 131.436L499.04 130.133C499.883 129.236 500.603 128.528 501.539 128.278C502.064 128.136 502.697 128.234 503.149 128.525C503.373 128.67 503.656 128.929 503.725 129.339C503.863 130.167 503.138 130.899 502.369 131.675L502.367 131.677C501.489 132.561 500.496 133.564 501.012 134.814L501.107 135.045L501.358 135.047C502.141 135.052 502.921 135.306 503.563 135.756L497.443 139.438C496.67 139.904 495.783 140.712 495.614 141.59C495.533 142.011 495.625 142.413 495.882 142.753L496.066 142.996L496.343 142.867C498.195 142.004 500.243 141.551 502.289 141.545C502.181 143.05 500.694 144.263 499.547 145.065C496.716 147.044 485.951 153.839 481.063 153.838C480.691 153.838 480.351 153.799 480.053 153.714C479.505 153.559 479.142 153.258 478.94 152.792C478.274 151.259 478.889 149.434 479.498 148.014L479.715 147.517L479.716 147.514C480.37 146.018 481.046 144.471 480.878 142.81C480.846 142.493 480.789 142.157 480.734 141.832L480.73 141.805C480.495 140.43 480.395 139.493 481.106 139.044Z" fill="#0F555F"/>
<path d="M502.711 156.989C503.197 156.525 503.696 155.94 503.614 155.272C503.528 154.575 502.803 154.101 502.103 154.054C501.402 154.007 500.725 154.283 500.078 154.552C499.685 154.026 500.271 153.33 500.818 152.967C503.255 151.344 506.356 149.905 506.949 147.037C506.999 146.798 507.023 146.53 506.886 146.327C506.75 146.125 506.492 146.047 506.251 146.017C504.791 145.833 503.461 146.857 502.01 147.103C500.414 147.374 498.805 146.684 497.186 146.731C495.882 146.768 494.645 147.28 493.443 147.783C491.209 148.718 488.917 149.691 487.189 151.387C484.593 153.935 480.915 161.331 486.378 162.769C491.659 164.162 499.015 160.517 502.711 156.989Z" fill="#357E88"/>
<path d="M483.043 149.16C482.953 149.16 482.863 149.127 482.791 149.063C482.635 148.924 482.622 148.685 482.762 148.529L495.421 134.364C495.561 134.208 495.8 134.195 495.956 134.335C496.112 134.473 496.125 134.713 495.985 134.869L483.326 149.033C483.25 149.117 483.147 149.16 483.043 149.16Z" fill="white"/>
<path d="M489.979 141.396C489.792 141.396 489.629 141.256 489.605 141.066L488.577 133.031C488.55 132.824 488.697 132.634 488.904 132.607C489.107 132.581 489.3 132.727 489.327 132.934L490.355 140.969C490.382 141.177 490.235 141.366 490.028 141.393C490.011 141.396 489.995 141.396 489.979 141.396Z" fill="white"/>
<path d="M482.284 163.349C482.161 163.349 482.042 163.29 481.968 163.18C481.852 163.006 481.899 162.771 482.074 162.655L496.401 153.151C496.576 153.036 496.81 153.084 496.926 153.258C497.042 153.431 496.994 153.667 496.82 153.782L482.493 163.286C482.428 163.329 482.355 163.349 482.284 163.349Z" fill="white"/>
<path d="M490.773 157.844C490.741 157.844 490.708 157.84 490.677 157.832C490.475 157.779 490.354 157.573 490.407 157.37L492.015 151.192C492.067 150.989 492.277 150.869 492.475 150.921C492.677 150.974 492.798 151.18 492.746 151.383L491.138 157.561C491.094 157.731 490.941 157.844 490.773 157.844Z" fill="white"/>
<g clip-path="url(#clip0)">
<path d="M225.763 181.425H230.284L232.435 163.869L225.762 163.87L225.763 181.425Z" fill="#FFB8B8"/>
<path d="M239.003 185.65L224.794 185.651L224.794 180.124L233.513 180.124C234.234 180.124 234.948 180.267 235.614 180.545C236.28 180.822 236.885 181.229 237.395 181.743C237.905 182.256 238.309 182.865 238.585 183.536C238.861 184.206 239.003 184.925 239.003 185.65Z" fill="#2F2E41"/>
<path d="M184.039 178.814L188.466 179.735L194.104 162.982L187.57 161.622L184.039 178.814Z" fill="#FFB8B8"/>
<path d="M196.155 185.651L182.24 182.755L183.352 177.343L191.89 179.12C193.316 179.417 194.566 180.271 195.366 181.496C196.166 182.721 196.45 184.216 196.155 185.651L196.155 185.651Z" fill="#2F2E41"/>
<path d="M196.302 122.329C195.921 121.941 195.629 121.474 195.446 120.96C195.264 120.446 195.196 119.898 195.246 119.354C195.297 118.811 195.465 118.286 195.74 117.815C196.014 117.344 196.388 116.94 196.834 116.63L193.326 103.842L199.84 105.968L202.173 117.786C202.64 118.575 202.803 119.51 202.632 120.412C202.46 121.315 201.966 122.122 201.242 122.682C200.518 123.242 199.616 123.516 198.705 123.451C197.795 123.386 196.94 122.987 196.302 122.329Z" fill="#FFB8B8"/>
<path d="M223.318 175.539C222.939 175.539 222.573 175.397 222.284 175.137C221.996 174.877 221.804 174.517 221.744 174.121L213.652 126.949C213.634 126.829 213.58 126.717 213.498 126.632C213.415 126.547 213.309 126.493 213.194 126.477C213.08 126.462 212.964 126.486 212.864 126.546C213.652 126.072 213.698 126.837 213.652 126.949L194.611 170.937C194.451 171.324 194.16 171.633 193.795 171.805C193.431 171.977 193.019 171.999 192.64 171.867L186.307 169.616C186.101 169.542 185.911 169.425 185.749 169.271C185.587 169.117 185.457 168.929 185.366 168.72C185.275 168.51 185.226 168.283 185.222 168.053C185.217 167.822 185.257 167.593 185.339 167.38L194.055 144.793L201.332 110.714L201.383 110.673C201.523 110.56 215.522 99.5072 225.087 108.348C233.841 116.439 232.212 162.672 231.796 171.858C231.781 172.221 231.655 172.569 231.437 172.849C231.218 173.129 230.919 173.327 230.585 173.412L223.705 175.489C223.578 175.522 223.449 175.538 223.318 175.539Z" fill="#515978"/>
<path d="M210.159 71.1519C215.161 71.1519 219.216 67.0696 219.216 62.0338C219.216 56.9979 215.161 52.9156 210.159 52.9156C205.157 52.9156 201.102 56.9979 201.102 62.0338C201.102 67.0696 205.157 71.1519 210.159 71.1519Z" fill="#FFB8B8"/>
<path d="M227.77 118.245C227.389 117.857 227.097 117.39 226.915 116.876C226.732 116.362 226.664 115.814 226.715 115.271C226.765 114.727 226.934 114.202 227.208 113.731C227.482 113.26 227.856 112.856 228.302 112.546L224.794 99.7585L231.308 101.885L233.641 113.702C234.108 114.492 234.271 115.426 234.1 116.328C233.928 117.231 233.434 118.039 232.71 118.599C231.987 119.159 231.084 119.432 230.174 119.367C229.263 119.302 228.408 118.903 227.77 118.245V118.245Z" fill="#FFB8B8"/>
<path d="M200.121 114.6C199.995 114.6 199.871 114.575 199.754 114.527C195.929 112.962 198.979 82.4092 199.111 81.1093L199.125 81.0537C199.22 80.8363 199.316 80.6234 199.412 80.4149C200.355 78.3054 201.933 76.5485 203.924 75.3935C205.915 74.2385 208.216 73.7441 210.502 73.9806C212.824 74.1603 215.034 75.0614 216.826 76.5594C218.618 78.0575 219.904 80.0787 220.507 82.344L227.594 108.486C227.67 108.764 227.673 109.056 227.603 109.335C227.533 109.615 227.392 109.871 227.195 110.079C226.997 110.288 226.75 110.441 226.476 110.525C226.202 110.608 225.912 110.619 225.633 110.556C220.118 109.316 206.754 107.115 201.773 113.44C201.16 114.217 200.616 114.6 200.121 114.6Z" fill="#A43E8A"/>
<path d="M227.584 112.091C227.403 112.09 227.222 112.06 227.05 112.001C226.838 111.93 226.642 111.816 226.475 111.666C226.309 111.515 226.174 111.333 226.08 111.128L219.911 97.8903L213.91 80.4977C213.653 79.75 213.615 78.9435 213.801 78.1747C213.987 77.4059 214.389 76.7073 214.958 76.1622C215.429 75.7129 216 75.3828 216.622 75.1994C217.245 75.0159 217.902 74.9843 218.539 75.1072C219.176 75.2301 219.775 75.504 220.286 75.9061C220.798 76.3083 221.206 76.8272 221.479 77.4199L229.465 94.7905L235.697 106.122C235.804 106.317 235.871 106.532 235.895 106.754C235.918 106.975 235.897 107.2 235.833 107.413C235.77 107.627 235.664 107.825 235.522 107.997C235.381 108.169 235.207 108.31 235.01 108.413L228.348 111.901C228.112 112.025 227.85 112.09 227.584 112.091Z" fill="#922276"/>
<path d="M200.632 115.345C200.573 115.345 200.513 115.342 200.454 115.335L192.986 114.538C192.764 114.514 192.548 114.445 192.353 114.336C192.158 114.226 191.986 114.078 191.849 113.9C191.712 113.722 191.612 113.518 191.556 113.3C191.499 113.082 191.487 112.855 191.519 112.633L193.641 98.1672L198.181 80.3315C198.377 79.5652 198.788 78.8719 199.364 78.3345C199.941 77.797 200.66 77.4381 201.434 77.3006C202.073 77.1878 202.729 77.2298 203.349 77.4231C203.969 77.6164 204.534 77.9554 204.997 78.4122C205.461 78.8689 205.81 79.4303 206.016 80.0498C206.221 80.6692 206.277 81.3291 206.179 81.9747L203.306 100.896L202.283 113.807C202.25 114.225 202.062 114.615 201.756 114.9C201.45 115.185 201.049 115.344 200.632 115.345V115.345Z" fill="#922276"/>
<path d="M208.288 69.4667C209.679 68.6335 209.827 66.6235 209.638 64.9677C209.449 63.3119 209.133 61.466 210.071 60.1122C211.19 58.4963 213.438 58.4642 215.354 58.4114C217.27 58.3587 219.604 57.7762 220.1 55.854C220.429 54.584 219.727 53.221 218.719 52.4238C217.712 51.6266 216.452 51.2741 215.227 50.9391C212.487 50.1898 209.658 49.4341 206.852 49.8459C204.074 50.2539 201.561 51.7813 199.859 54.0976C198.156 56.414 197.401 59.333 197.756 62.2232C198.21 65.9202 198.869 67.5346 198.436 69.1647C197.631 72.2009 194.16 74.1514 194.09 77.2998C194.036 79.7625 196.132 81.6623 198.176 82.9127C199.798 83.9046 201.548 84.7462 203.416 84.9784C205.285 85.2106 207.297 84.766 208.689 83.4511C210.485 81.7551 210.929 78.9217 210.414 76.459C209.899 73.9963 208.578 71.8093 207.272 69.6854" fill="#2F2E41"/>
</g>
<g clip-path="url(#clip1)">
<path d="M380.397 94.9863C378.154 97.3913 375.584 99.4679 372.763 101.155C372.698 101.195 372.633 101.232 372.566 101.271L367.999 97.222C368.047 97.1774 368.1 97.1273 368.157 97.0723C371.561 93.8358 388.456 71.2069 389.581 65.6964C389.504 66.1554 390.597 84.1588 380.397 94.9863Z" fill="#F0F0F0"/>
<path d="M373.644 101.936C373.558 101.957 373.47 101.976 373.382 101.994L369.955 98.9562C370.022 98.9328 370.1 98.905 370.19 98.8741C371.66 98.3527 376.039 96.7788 380.397 94.9861C385.079 93.0589 389.739 90.8815 390.741 89.4868C390.526 89.8108 383.904 99.6383 373.644 101.936Z" fill="#F0F0F0"/>
<path d="M380.334 35.0946H379.846V21.7062C379.846 20.6886 379.646 19.6809 379.257 18.7408C378.868 17.8007 378.298 16.9464 377.58 16.2269C376.861 15.5073 376.008 14.9365 375.07 14.5471C374.131 14.1577 373.125 13.9573 372.109 13.9573H343.787C342.771 13.9573 341.765 14.1577 340.826 14.5471C339.887 14.9365 339.034 15.5073 338.316 16.2269C337.597 16.9464 337.028 17.8006 336.639 18.7408C336.25 19.6809 336.05 20.6885 336.05 21.7061V95.1563C336.05 96.1739 336.25 97.1816 336.639 98.1217C337.028 99.0618 337.597 99.9161 338.316 100.636C339.034 101.355 339.887 101.926 340.826 102.315C341.765 102.705 342.771 102.905 343.787 102.905H372.109C373.125 102.905 374.131 102.705 375.07 102.315C376.008 101.926 376.861 101.355 377.58 100.636C378.298 99.9161 378.868 99.0619 379.257 98.1217C379.646 97.1816 379.846 96.174 379.846 95.1564V44.6248H380.334V35.0946Z" fill="#0A191B"/>
<path d="M378.199 21.7593V95.1026C378.199 95.8626 378.049 96.6151 377.759 97.3171C377.469 98.0192 377.043 98.6571 376.506 99.1944C375.97 99.7317 375.333 100.158 374.631 100.448C373.93 100.739 373.179 100.888 372.42 100.888H343.962C343.203 100.888 342.452 100.739 341.751 100.448C341.05 100.157 340.413 99.731 339.877 99.1938C339.34 98.6565 338.915 98.0187 338.625 97.3167C338.334 96.6148 338.185 95.8624 338.185 95.1026V21.7593C338.185 20.9996 338.334 20.2472 338.625 19.5452C338.915 18.8433 339.34 18.2054 339.877 17.6682C340.413 17.1309 341.05 16.7048 341.751 16.414C342.452 16.1233 343.203 15.9737 343.962 15.9738H347.415C347.246 16.3912 347.181 16.844 347.228 17.2923C347.274 17.7406 347.429 18.1707 347.68 18.5447C347.931 18.9187 348.27 19.2251 348.667 19.4372C349.065 19.6492 349.508 19.7602 349.958 19.7605H366.182C366.633 19.7609 367.076 19.6504 367.474 19.4386C367.871 19.2267 368.21 18.9202 368.462 18.546C368.713 18.1718 368.868 17.7414 368.914 17.2928C368.96 16.8442 368.895 16.3912 368.725 15.9738H372.42C373.179 15.9735 373.93 16.1229 374.631 16.4136C375.333 16.7042 375.97 17.1303 376.506 17.6676C377.043 18.2048 377.469 18.8427 377.759 19.5448C378.049 20.2469 378.199 20.9994 378.199 21.7593Z" fill="white"/>
<path d="M369.346 59.8725H344.332C343.894 59.872 343.474 59.6975 343.164 59.3872C342.854 59.0769 342.68 58.6562 342.68 58.2174V57.3936C342.68 56.9548 342.854 56.5341 343.164 56.2238C343.474 55.9136 343.894 55.739 344.332 55.7385H369.346C369.784 55.739 370.204 55.9136 370.514 56.2238C370.824 56.5341 370.998 56.9548 370.999 57.3936V58.2174C370.998 58.6562 370.824 59.0769 370.514 59.3872C370.204 59.6975 369.784 59.872 369.346 59.8725Z" fill="#F0F0F0"/>
<path d="M369.346 66.9739H344.332C343.894 66.9734 343.474 66.7989 343.164 66.4886C342.854 66.1783 342.68 65.7577 342.68 65.3189V64.495C342.68 64.0562 342.854 63.6355 343.164 63.3253C343.474 63.015 343.894 62.8405 344.332 62.84H369.346C369.784 62.8405 370.204 63.015 370.514 63.3253C370.824 63.6355 370.998 64.0562 370.999 64.495V65.3189C370.998 65.7577 370.824 66.1783 370.514 66.4886C370.204 66.7989 369.784 66.9734 369.346 66.9739Z" fill="#F0F0F0"/>
<path d="M370.598 58.2842H345.584C345.124 58.2837 344.683 58.1004 344.357 57.7746C344.032 57.4488 343.849 57.0071 343.849 56.5464V55.7226C343.849 55.2618 344.032 54.8201 344.357 54.4943C344.683 54.1685 345.124 53.9853 345.584 53.9847H370.598C371.058 53.9853 371.499 54.1685 371.824 54.4943C372.149 54.8201 372.332 55.2618 372.333 55.7226V56.5464C372.332 57.0071 372.149 57.4488 371.824 57.7746C371.499 58.1004 371.058 58.2837 370.598 58.2842ZM345.584 54.3158C345.211 54.3162 344.854 54.4645 344.591 54.7283C344.328 54.992 344.18 55.3496 344.179 55.7226V56.5464C344.18 56.9194 344.328 57.277 344.591 57.5407C344.854 57.8044 345.211 57.9528 345.584 57.9532H370.598C370.97 57.9528 371.327 57.8044 371.591 57.5407C371.854 57.277 372.002 56.9194 372.002 56.5464V55.7226C372.002 55.3496 371.854 54.992 371.591 54.7283C371.327 54.4645 370.97 54.3162 370.598 54.3158H345.584Z" fill="#3F3D56"/>
<path d="M370.598 65.3857H345.584C345.124 65.3851 344.683 65.2019 344.357 64.8761C344.032 64.5503 343.849 64.1086 343.849 63.6478V62.824C343.849 62.3633 344.032 61.9216 344.357 61.5958C344.683 61.27 345.124 61.0867 345.584 61.0862H370.598C371.058 61.0867 371.499 61.27 371.824 61.5958C372.149 61.9216 372.332 62.3633 372.333 62.824V63.6478C372.332 64.1086 372.149 64.5503 371.824 64.8761C371.499 65.2019 371.058 65.3851 370.598 65.3857ZM345.584 61.4172C345.211 61.4176 344.854 61.566 344.591 61.8297C344.328 62.0934 344.18 62.451 344.179 62.824V63.6478C344.18 64.0208 344.328 64.3784 344.591 64.6421C344.854 64.9059 345.211 65.0542 345.584 65.0546H370.598C370.97 65.0542 371.327 64.9059 371.591 64.6421C371.854 64.3784 372.002 64.0208 372.002 63.6478V62.824C372.002 62.451 371.854 62.0934 371.591 61.8297C371.327 61.566 370.97 61.4176 370.598 61.4172H345.584Z" fill="#3F3D56"/>
<path d="M378.199 21.7593V37.7125C375.668 38.3794 373.018 38.4559 370.453 37.9362C367.888 37.4164 365.476 36.3142 363.402 34.7144C361.329 33.1146 359.65 31.0599 358.494 28.7082C357.339 26.3565 356.737 23.7706 356.735 21.1495C356.735 20.6816 356.754 20.2186 356.792 19.7605H366.182C366.633 19.7609 367.076 19.6504 367.474 19.4386C367.871 19.2267 368.21 18.9202 368.462 18.546C368.713 18.1718 368.868 17.7414 368.914 17.2928C368.96 16.8442 368.895 16.3912 368.725 15.9738H372.42C373.179 15.9735 373.93 16.1229 374.631 16.4136C375.333 16.7042 375.97 17.1303 376.506 17.6676C377.043 18.2048 377.469 18.8427 377.759 19.5448C378.049 20.2469 378.199 20.9994 378.199 21.7593Z" fill="#F0F0F0"/>
<path d="M352.564 99.892C352.564 100.228 352.552 100.56 352.525 100.888H343.962C343.203 100.888 342.452 100.739 341.751 100.448C341.05 100.157 340.413 99.7311 339.877 99.1938C339.34 98.6566 338.915 98.0188 338.625 97.3168C338.334 96.6148 338.185 95.8625 338.185 95.1027V87.2577C339.98 87.0239 341.804 87.1759 343.536 87.7036C345.267 88.2314 346.867 89.1227 348.227 90.3182C349.588 91.5137 350.679 92.986 351.426 94.6368C352.174 96.2876 352.562 98.0792 352.564 99.892H352.564Z" fill="#922276"/>
<path d="M328.909 58.3222L323.365 54.0754L319.125 59.628L324.669 63.8748L328.909 58.3222Z" fill="#F0F0F0"/>
<path d="M362.256 75.5374H350.38C349.942 75.5369 349.522 75.3624 349.212 75.0521C348.902 74.7418 348.728 74.3211 348.728 73.8823V73.0585C348.728 72.6197 348.902 72.199 349.212 71.8888C349.522 71.5785 349.942 71.4039 350.38 71.4034H362.256C362.694 71.4039 363.114 71.5785 363.424 71.8888C363.733 72.199 363.908 72.6197 363.908 73.0585V73.8823C363.908 74.3211 363.733 74.7418 363.424 75.0521C363.114 75.3624 362.694 75.5369 362.256 75.5374Z" fill="#922276"/>
<path d="M363.507 73.9492H351.632C351.172 73.9487 350.731 73.7654 350.405 73.4396C350.08 73.1138 349.897 72.6721 349.896 72.2114V71.3875C349.897 70.9268 350.08 70.4851 350.405 70.1593C350.731 69.8335 351.172 69.6502 351.632 69.6497H363.507C363.967 69.6502 364.408 69.8335 364.734 70.1593C365.059 70.4851 365.242 70.9268 365.242 71.3875V72.2114C365.242 72.6721 365.059 73.1138 364.734 73.4396C364.408 73.7654 363.967 73.9487 363.507 73.9492ZM351.632 69.9807C351.259 69.9811 350.902 70.1295 350.639 70.3932C350.376 70.657 350.227 71.0146 350.227 71.3875V72.2114C350.227 72.5843 350.376 72.9419 350.639 73.2057C350.902 73.4694 351.259 73.6178 351.632 73.6182H363.507C363.88 73.6178 364.237 73.4694 364.5 73.2057C364.763 72.9419 364.911 72.5843 364.912 72.2114V71.3875C364.911 71.0146 364.763 70.657 364.5 70.3932C364.237 70.1295 363.88 69.9811 363.507 69.9807H351.632Z" fill="#3F3D56"/>
</g>
<path d="M39.5363 173.651C39.7031 173.721 39.869 173.792 40.0358 173.862C39.7773 171.801 39.7694 169.722 39.6865 167.65C39.6602 166.993 39.8631 165.607 39.2728 165.316C38.5089 164.939 37.6034 165.717 36.8297 165.368C35.9555 164.972 36.1184 163.953 35.9497 163.174C35.8082 162.523 34.9242 159.356 33.9466 160.934C32.4714 159.989 31.2098 157.874 29.3687 157.597C29.0331 157.547 28.6457 157.67 28.4925 157.974C28.4028 158.152 28.4057 158.362 28.4281 158.561C28.4808 159.035 28.634 159.498 28.874 159.91C29.034 160.185 29.235 160.441 29.3316 160.745C29.4282 161.048 29.3921 161.425 29.1423 161.622C28.9248 161.794 28.6213 161.781 28.3491 161.829C28.0769 161.878 27.7705 162.068 27.7988 162.343C27.8096 162.452 27.873 162.548 27.9344 162.64C30.7005 166.731 32.0021 171.721 35.9175 174.947C36.5107 175.436 37.1761 175.896 37.94 175.982C38.8338 176.083 39.7197 175.64 40.3578 175.005C40.9959 174.372 41.4252 173.563 41.835 172.763" fill="#A1A7A7"/>
<path d="M29.4759 180.535C27.7402 180.174 25.901 179.718 24.6922 178.421C25.6981 178.26 26.704 178.099 27.71 177.938C27.8456 177.917 27.9968 177.886 28.0758 177.772C28.2046 177.588 28.0514 177.34 27.8895 177.184C26.8543 176.184 25.3244 175.942 24.0258 175.323C23.6414 175.139 23.2345 174.866 23.1672 174.444C23.0969 174.001 23.4599 173.582 23.8833 173.431C24.3058 173.279 24.7712 173.33 25.2171 173.383C24.3526 172.315 23.4882 171.246 22.6228 170.178C22.4637 169.981 22.2979 169.768 22.2764 169.516C22.2315 168.99 22.8716 168.622 23.3887 168.728C23.9058 168.834 24.299 169.242 24.6571 169.629C23.8658 167.987 23.2716 166.25 22.8911 164.467C22.774 163.922 22.7125 163.262 23.1291 162.891C23.5389 162.527 24.217 162.67 24.619 163.042C25.022 163.413 25.2239 163.946 25.4405 164.45C26.0425 165.845 26.8572 167.148 27.8475 168.302C27.9607 168.433 28.0827 168.568 28.2456 168.625C28.7452 168.803 29.1647 168.175 29.2057 167.647C29.2467 167.118 29.153 166.516 29.5052 166.12C29.9072 165.667 30.6916 165.791 31.1248 166.214C31.558 166.635 31.7307 167.251 31.8868 167.835C32.1483 168.818 32.4098 169.799 32.6713 170.782C33.0947 170.42 33.5367 170.048 34.0724 169.894C34.608 169.74 35.2676 169.868 35.5671 170.338C35.7193 170.577 35.7603 170.867 35.8159 171.144C36.3018 173.575 38.1117 175.561 38.7273 177.963C39.1879 179.759 38.5576 182.125 36.3223 181.928C34.0997 181.728 31.679 180.993 29.4759 180.535Z" fill="#CCD3D3"/>
<path fill-rule="evenodd" clip-rule="evenodd" d="M38.4045 181.4C37.9508 181.934 37.3234 182.212 36.578 182.212C36.4863 182.212 36.3936 182.207 36.297 182.201C34.7515 182.064 33.1173 181.672 31.5376 181.293L31.5074 181.285C30.782 181.111 30.0969 180.947 29.4185 180.806C27.6086 180.429 25.7372 179.95 24.4893 178.611L24.139 178.234L27.6652 177.669C27.7978 177.648 27.8388 177.629 27.8476 177.621C27.8515 177.593 27.8105 177.491 27.6974 177.382C27.047 176.753 26.1832 176.442 25.2687 176.112L25.2669 176.112L25.2477 176.105C24.8019 175.944 24.3416 175.778 23.9068 175.57C23.2951 175.279 22.9653 174.924 22.896 174.487C22.8004 173.876 23.2853 173.354 23.7907 173.173C24.0561 173.078 24.3303 173.053 24.6005 173.058L22.4101 170.351L22.4098 170.351C22.2508 170.155 22.0325 169.886 22.0033 169.541C21.9779 169.25 22.095 168.974 22.3331 168.762C22.6277 168.5 23.0629 168.38 23.4434 168.46C23.6093 168.494 23.7644 168.554 23.9078 168.631C23.3536 167.306 22.9233 165.93 22.6228 164.525C22.5028 163.966 22.4062 163.166 22.9468 162.686C23.4863 162.207 24.3156 162.389 24.8054 162.841C25.2133 163.218 25.4269 163.718 25.6328 164.202L25.6923 164.341C26.2846 165.715 27.0797 166.987 28.0554 168.123C28.1491 168.231 28.2408 168.333 28.3374 168.367C28.3862 168.383 28.4633 168.399 28.5677 168.332C28.753 168.211 28.9101 167.906 28.9326 167.624C28.9423 167.507 28.9443 167.385 28.9462 167.263L28.9462 167.263C28.954 166.819 28.9629 166.317 29.3004 165.937C29.5053 165.706 29.8038 165.572 30.1414 165.56C30.5571 165.547 31.0108 165.72 31.3162 166.016C31.8157 166.503 32.0021 167.202 32.1513 167.764L32.8246 170.294C33.1651 170.02 33.5466 169.758 33.9963 169.629C34.5857 169.46 35.4003 169.564 35.7984 170.189C35.9594 170.443 36.016 170.734 36.0648 170.989L36.0843 171.089C36.3311 172.324 36.9234 173.427 37.5507 174.595L37.5518 174.597C38.1125 175.641 38.6915 176.719 38.9928 177.893C39.3294 179.206 39.0992 180.582 38.4045 181.4ZM35.3367 170.483C35.1669 170.218 34.843 170.104 34.521 170.104C34.3932 170.104 34.2654 170.122 34.1454 170.154C33.6575 170.295 33.2263 170.663 32.8467 170.987L32.516 171.27L31.6203 167.903C31.4817 167.381 31.3237 166.789 30.9324 166.409C30.7344 166.215 30.4222 166.097 30.1607 166.107C30.028 166.112 29.8436 166.149 29.7089 166.3C29.507 166.529 29.5001 166.89 29.4933 167.272C29.4914 167.405 29.4884 167.537 29.4787 167.666C29.4426 168.124 29.1957 168.576 28.865 168.79C28.6435 168.935 28.3898 168.967 28.1527 168.882C27.9293 168.802 27.7751 168.638 27.6376 168.478C26.6258 167.299 25.8013 165.98 25.1867 164.556L25.1252 164.413C24.934 163.963 24.7525 163.537 24.4305 163.241C24.1261 162.959 23.6031 162.833 23.3085 163.093C23.0606 163.314 23.0119 163.73 23.1563 164.407C23.5329 166.168 24.1202 167.884 24.9018 169.507L25.693 171.151L24.4539 169.813C24.0861 169.416 23.7475 169.08 23.3309 168.994C23.1211 168.95 22.8597 169.022 22.6957 169.169C22.6206 169.235 22.5348 169.345 22.5474 169.491C22.5611 169.656 22.686 169.821 22.8343 170.004L25.8521 173.734L25.1828 173.655C24.7905 173.608 24.3456 173.555 23.9739 173.688C23.6783 173.795 23.3895 174.097 23.4373 174.401C23.4753 174.646 23.7065 174.866 24.1427 175.075C24.5593 175.273 25.014 175.437 25.453 175.595L25.4624 175.598C26.3893 175.933 27.3464 176.278 28.0786 176.987C28.4025 177.299 28.4874 177.66 28.3001 177.929C28.1494 178.145 27.8932 178.187 27.7543 178.209L27.7527 178.209L25.2823 178.605C26.4141 179.553 27.9937 179.948 29.5304 180.267C30.227 180.412 30.9587 180.587 31.666 180.757L31.6661 180.757L31.6868 180.762C33.2414 181.135 34.8476 181.521 36.3465 181.653C37.0412 181.714 37.5924 181.509 37.9866 181.045C38.5603 180.369 38.7506 179.157 38.4618 178.029C38.178 176.919 37.6146 175.87 37.0695 174.855L37.0685 174.853C36.4499 173.702 35.8108 172.511 35.5474 171.195L35.5269 171.092C35.484 170.865 35.442 170.649 35.3367 170.483Z" fill="#A1A7A7"/>
<path d="M37.6281 181.363C37.7003 181.363 37.7725 181.335 37.8262 181.278C37.9316 181.169 37.9277 180.995 37.8184 180.891L27.3562 170.863C27.2479 170.758 27.0732 170.761 26.9688 170.87C26.8634 170.98 26.8673 171.153 26.9766 171.258L37.4379 181.287C37.4915 181.338 37.5598 181.363 37.6281 181.363Z" fill="white"/>
<path d="M34.004 177.89C34.0167 177.89 34.0294 177.889 34.0421 177.888C34.1923 177.867 34.2967 177.728 34.2762 177.578L33.6138 172.826C33.5923 172.675 33.4567 172.571 33.3045 172.593C33.1542 172.613 33.0498 172.752 33.0703 172.902L33.7328 177.654C33.7513 177.791 33.8694 177.89 34.004 177.89Z" fill="white"/>
<path d="M31.1638 175.167C31.2955 175.167 31.4116 175.073 31.4341 174.939C31.4594 174.79 31.3589 174.648 31.2097 174.623L27.2104 173.944C27.0611 173.918 26.9196 174.019 26.8942 174.168C26.8689 174.318 26.9694 174.459 27.1186 174.484L31.118 175.163C31.1336 175.166 31.1492 175.167 31.1638 175.167Z" fill="white"/>
<path d="M38.8689 173.138C38.9255 173.138 38.9821 173.12 39.0309 173.084C39.1528 172.995 39.1782 172.823 39.0884 172.701L32.1338 163.261C32.045 163.139 31.8733 163.113 31.7504 163.203C31.6284 163.292 31.603 163.464 31.6928 163.586L38.6474 173.026C38.7021 173.099 38.785 173.138 38.8689 173.138Z" fill="white"/>
<path d="M34.425 167.107C34.4484 167.107 34.4718 167.104 34.4942 167.098C34.6406 167.06 34.7284 166.911 34.6903 166.764L33.6064 162.604C33.5683 162.457 33.4171 162.37 33.2717 162.408C33.1254 162.446 33.0375 162.596 33.0756 162.743L34.1596 166.902C34.1927 167.025 34.304 167.107 34.425 167.107Z" fill="white"/>
<defs>
<clipPath id="clip0">
<rect width="142" height="137" fill="white" transform="translate(142.896 49.0001)"/>
</clipPath>
<clipPath id="clip1">
<rect width="72" height="90" fill="white" transform="translate(318.896 13.0001)"/>
</clipPath>
</defs>
</svg>
