<svg width="472" height="224" viewBox="0 0 472 224" fill="none" xmlns="http://www.w3.org/2000/svg">
<path d="M46.1155 182.057C46.3134 182.14 46.5101 182.223 46.7081 182.307C46.4014 179.862 46.3921 177.396 46.2937 174.938C46.2625 174.159 46.5032 172.514 45.803 172.169C44.8968 171.722 43.8227 172.645 42.9049 172.231C41.8679 171.762 42.0612 170.552 41.8609 169.629C41.6931 168.857 40.6445 165.1 39.4848 166.971C37.7348 165.85 36.2383 163.342 34.0543 163.013C33.6562 162.953 33.1967 163.1 33.015 163.46C32.9085 163.672 32.912 163.921 32.9386 164.157C33.0011 164.719 33.1828 165.268 33.4675 165.756C33.6574 166.083 33.8958 166.387 34.0104 166.747C34.1249 167.107 34.0821 167.554 33.7858 167.787C33.5277 167.991 33.1678 167.976 32.8449 168.033C32.522 168.091 32.1585 168.316 32.1921 168.643C32.2048 168.772 32.2801 168.886 32.353 168.995C35.6342 173.847 37.1781 179.767 41.8227 183.594C42.5264 184.174 43.3158 184.72 44.222 184.822C45.2822 184.941 46.3331 184.416 47.09 183.663C47.8469 182.912 48.3562 181.953 48.8423 181.004" fill="#A1A7A7"/>
<path d="M34.1822 190.222C32.1232 189.794 29.9416 189.254 28.5076 187.715C29.7008 187.524 30.8941 187.333 32.0874 187.142C32.2482 187.117 32.4276 187.08 32.5214 186.946C32.6742 186.727 32.4925 186.433 32.3003 186.248C31.0723 185.062 29.2576 184.774 27.7171 184.04C27.2611 183.822 26.7784 183.498 26.6986 182.998C26.6152 182.472 27.0458 181.975 27.5481 181.795C28.0492 181.616 28.6013 181.676 29.1302 181.739C28.1048 180.471 27.0794 179.204 26.0527 177.937C25.8641 177.703 25.6673 177.451 25.6419 177.152C25.5886 176.528 26.3479 176.091 26.9613 176.217C27.5747 176.343 28.0411 176.827 28.4659 177.286C27.5273 175.338 26.8224 173.277 26.371 171.162C26.2321 170.515 26.1592 169.733 26.6534 169.293C27.1395 168.862 27.9439 169.031 28.4208 169.471C28.8988 169.912 29.1383 170.544 29.3953 171.142C30.1094 172.797 31.0758 174.343 32.2506 175.711C32.3848 175.867 32.5295 176.027 32.7228 176.095C33.3154 176.306 33.813 175.561 33.8616 174.934C33.9103 174.307 33.7991 173.593 34.217 173.123C34.6938 172.586 35.6243 172.733 36.1382 173.234C36.6521 173.734 36.857 174.464 37.0421 175.158C37.3523 176.323 37.6625 177.488 37.9727 178.653C38.475 178.224 38.9993 177.783 39.6347 177.6C40.2701 177.417 41.0525 177.569 41.4078 178.126C41.5884 178.41 41.637 178.754 41.7029 179.082C42.2793 181.967 44.4263 184.322 45.1566 187.171C45.7029 189.302 44.9552 192.109 42.3036 191.875C39.6671 191.638 36.7956 190.766 34.1822 190.222Z" fill="#CCD3D3"/>
<path fill-rule="evenodd" clip-rule="evenodd" d="M44.7733 191.249C44.2351 191.882 43.4909 192.212 42.6067 192.212C42.4979 192.212 42.3879 192.206 42.2733 192.199C40.44 192.037 38.5014 191.572 36.6276 191.121L36.5916 191.113C35.7312 190.907 34.9185 190.712 34.1138 190.544C31.9668 190.097 29.7469 189.529 28.2666 187.94L27.8511 187.493L32.0339 186.823C32.1913 186.797 32.2399 186.776 32.2504 186.766C32.255 186.733 32.2064 186.612 32.0721 186.483C31.3006 185.737 30.276 185.367 29.1912 184.977L29.1891 184.976L29.1663 184.968C28.6375 184.777 28.0914 184.58 27.5757 184.333C26.85 183.987 26.4588 183.567 26.3766 183.049C26.2632 182.323 26.8384 181.704 27.4379 181.49C27.7528 181.377 28.078 181.347 28.3986 181.353L25.8002 178.143L25.7998 178.142C25.6112 177.909 25.3523 177.59 25.3176 177.181C25.2875 176.836 25.4264 176.508 25.7088 176.257C26.0583 175.946 26.5745 175.805 27.0259 175.898C27.2227 175.939 27.4067 176.011 27.5768 176.102C26.9194 174.53 26.409 172.897 26.0525 171.231C25.9102 170.567 25.7956 169.62 26.4368 169.05C27.0768 168.482 28.0606 168.697 28.6416 169.233C29.1254 169.681 29.3789 170.273 29.6231 170.848L29.6937 171.013C30.3962 172.643 31.3395 174.152 32.4969 175.499C32.608 175.628 32.7168 175.748 32.8314 175.788C32.8892 175.808 32.9807 175.827 33.1045 175.747C33.3244 175.603 33.5108 175.242 33.5374 174.908C33.5489 174.769 33.5513 174.624 33.5536 174.479L33.5536 174.479C33.5628 173.953 33.5733 173.357 33.9737 172.907C34.2168 172.632 34.5709 172.474 34.9714 172.459C35.4644 172.444 36.0026 172.648 36.3649 173C36.9575 173.578 37.1785 174.407 37.3556 175.073L38.1542 178.074C38.5581 177.749 39.0107 177.439 39.5442 177.286C40.2433 177.085 41.2097 177.209 41.6819 177.95C41.8729 178.251 41.94 178.596 41.9979 178.899L42.021 179.018C42.3138 180.483 43.0164 181.791 43.7606 183.176L43.7618 183.178C44.4269 184.417 45.1138 185.697 45.4712 187.089C45.8705 188.646 45.5974 190.279 44.7733 191.249ZM41.1345 178.299C40.9331 177.984 40.5488 177.849 40.1669 177.849C40.0153 177.849 39.8637 177.871 39.7213 177.909C39.1426 178.075 38.6311 178.512 38.1808 178.897L37.7885 179.233L36.726 175.239C36.5616 174.619 36.3742 173.917 35.91 173.466C35.6751 173.236 35.3047 173.096 34.9945 173.108C34.8371 173.114 34.6184 173.158 34.4587 173.337C34.2191 173.608 34.211 174.036 34.2029 174.49C34.2006 174.647 34.1971 174.805 34.1855 174.957C34.1427 175.5 33.8499 176.036 33.4575 176.291C33.1948 176.462 32.8939 176.5 32.6126 176.399C32.3476 176.305 32.1647 176.11 32.0015 175.92C30.8013 174.522 29.8233 172.957 29.0942 171.268L29.0213 171.099C28.7944 170.564 28.5791 170.059 28.1972 169.707C27.8361 169.373 27.2157 169.224 26.8662 169.533C26.5722 169.794 26.5144 170.288 26.6857 171.091C27.1324 173.18 27.8292 175.215 28.7562 177.141L29.6949 179.092L28.225 177.504C27.7887 177.033 27.387 176.634 26.8928 176.533C26.644 176.481 26.3338 176.566 26.1394 176.74C26.0503 176.818 25.9484 176.949 25.9635 177.122C25.9797 177.317 26.1278 177.513 26.3037 177.73L29.8835 182.155L29.0896 182.061C28.6243 182.006 28.0965 181.943 27.6556 182.101C27.3049 182.227 26.9623 182.586 27.019 182.947C27.0641 183.237 27.3384 183.498 27.8558 183.745C28.35 183.98 28.8893 184.175 29.4102 184.362L29.4213 184.366C30.5208 184.763 31.6561 185.173 32.5247 186.014C32.9089 186.384 33.0096 186.813 32.7874 187.132C32.6087 187.388 32.3048 187.437 32.14 187.464L32.1381 187.464L29.2076 187.933C30.5502 189.058 32.424 189.527 34.2469 189.905C35.0732 190.076 35.9412 190.285 36.7802 190.486L36.7804 190.486L36.8049 190.492C38.6491 190.935 40.5544 191.392 42.3324 191.549C43.1564 191.621 43.8104 191.378 44.278 190.827C44.9585 190.025 45.1842 188.588 44.8416 187.25C44.505 185.934 43.8367 184.689 43.1901 183.485L43.1888 183.483C42.4551 182.117 41.697 180.704 41.3845 179.144L41.3602 179.021C41.3093 178.751 41.2595 178.496 41.1345 178.299Z" fill="#A1A7A7"/>
<path d="M43.8519 191.205C43.9375 191.205 44.0232 191.171 44.0868 191.104C44.2118 190.974 44.2072 190.768 44.0775 190.645L31.6669 178.749C31.5384 178.625 31.3312 178.629 31.2074 178.758C31.0824 178.888 31.087 179.094 31.2167 179.218L43.6262 191.115C43.6898 191.175 43.7708 191.205 43.8519 191.205Z" fill="white"/>
<path d="M39.553 187.086C39.568 187.086 39.583 187.085 39.5981 187.082C39.7763 187.058 39.9002 186.894 39.8759 186.715L39.09 181.078C39.0645 180.899 38.9037 180.776 38.7231 180.801C38.5449 180.825 38.421 180.99 38.4453 181.168L39.2312 186.806C39.2532 186.968 39.3932 187.086 39.553 187.086Z" fill="white"/>
<path d="M36.184 183.855C36.3403 183.855 36.478 183.743 36.5046 183.585C36.5347 183.408 36.4155 183.24 36.2384 183.21L31.4943 182.404C31.3172 182.373 31.1494 182.493 31.1193 182.67C31.0892 182.847 31.2084 183.015 31.3855 183.045L36.1296 183.851C36.1482 183.854 36.1667 183.855 36.184 183.855Z" fill="white"/>
<path d="M45.3239 181.448C45.391 181.448 45.4582 181.427 45.516 181.384C45.6607 181.278 45.6908 181.074 45.5843 180.93L37.3345 169.732C37.2291 169.587 37.0254 169.556 36.8796 169.662C36.7349 169.769 36.7048 169.973 36.8113 170.117L45.0612 181.315C45.126 181.402 45.2244 181.448 45.3239 181.448Z" fill="white"/>
<path d="M40.0521 174.294C40.0799 174.294 40.1077 174.291 40.1343 174.284C40.3079 174.239 40.4121 174.062 40.3669 173.887L39.0811 168.953C39.0359 168.778 38.8565 168.675 38.6841 168.72C38.5105 168.765 38.4063 168.942 38.4514 169.117L39.7373 174.051C39.7766 174.197 39.9086 174.294 40.0521 174.294Z" fill="white"/>
<path d="M4.02518 176.856C-5.40013 158.634 4.02517 58.9309 76.4774 58.9309C148.93 58.9309 203.435 -1.95343 254.54 35.9707C288.818 61.4074 278.219 80.7629 272.991 104.167C256.92 178.761 247.932 229.745 164.883 217.742C107.927 209.794 41.9102 252.565 4.02518 176.856Z" fill="#FFE9BD"/>
<mask id="mask0" mask-type="alpha" maskUnits="userSpaceOnUse" x="302" y="-1" width="157" height="129">
<path fill-rule="evenodd" clip-rule="evenodd" d="M431.453 108.862C400.303 129.687 337.493 137.001 313.083 110.548C288.673 84.0931 311.899 33.8899 343.033 13.0642C374.183 -7.76143 419.223 -3.19865 443.634 23.2546C468.044 49.7092 462.587 88.0361 431.453 108.862Z" fill="white"/>
</mask>
<g mask="url(#mask0)">
<path fill-rule="evenodd" clip-rule="evenodd" d="M310.667 4.18209C310.667 5.80237 308.333 7.11621 306.426 7.11621C304.519 7.11621 302.99 5.80237 302.99 4.18209C302.99 2.56182 304.519 0.216766 306.426 0.216766C308.333 0.216766 310.667 2.56182 310.667 4.18209Z" fill="#F6C45F"/>
<path fill-rule="evenodd" clip-rule="evenodd" d="M326.546 4.18209C326.546 5.80237 324.211 7.11621 322.321 7.11621C320.414 7.11621 318.869 5.80237 318.869 4.18209C318.869 2.56182 320.414 0.216766 322.321 0.216766C324.211 0.216766 326.546 2.56182 326.546 4.18209Z" fill="#F6C45F"/>
<path fill-rule="evenodd" clip-rule="evenodd" d="M342.425 4.18209C342.425 5.80237 340.107 7.11621 338.201 7.11621C336.294 7.11621 334.749 5.80237 334.749 4.18209C334.749 2.56182 336.294 0.216766 338.201 0.216766C340.107 0.216766 342.425 2.56182 342.425 4.18209Z" fill="#F6C45F"/>
<path fill-rule="evenodd" clip-rule="evenodd" d="M390.095 4.18209C390.095 5.80237 387.761 7.11621 385.854 7.11621C383.947 7.11621 382.402 5.80237 382.402 4.18209C382.402 2.56182 383.947 0.216766 385.854 0.216766C387.761 0.216766 390.095 2.56182 390.095 4.18209Z" fill="#F6C45F"/>
<path fill-rule="evenodd" clip-rule="evenodd" d="M437.749 4.18209C437.749 5.80237 435.415 7.11621 433.508 7.11621C431.617 7.11621 430.072 5.80237 430.072 4.18209C430.072 2.56182 431.617 0.216766 433.508 0.216766C435.415 0.216766 437.749 2.56182 437.749 4.18209Z" fill="#F6C45F"/>
<path fill-rule="evenodd" clip-rule="evenodd" d="M453.628 4.18209C453.628 5.80237 451.31 7.11621 449.403 7.11621C447.496 7.11621 445.951 5.80237 445.951 4.18209C445.951 2.56182 447.496 0.216766 449.403 0.216766C451.31 0.216766 453.628 2.56182 453.628 4.18209Z" fill="#F6C45F"/>
<path fill-rule="evenodd" clip-rule="evenodd" d="M310.667 16.6014C310.667 18.2216 308.333 19.5355 306.426 19.5355C304.519 19.5355 302.99 18.2216 302.99 16.6014C302.99 14.9811 304.519 12.636 306.426 12.636C308.333 12.636 310.667 14.9811 310.667 16.6014Z" fill="#F6C45F"/>
<path fill-rule="evenodd" clip-rule="evenodd" d="M326.546 16.6014C326.546 18.2216 324.211 19.5355 322.321 19.5355C320.414 19.5355 318.869 18.2216 318.869 16.6014C318.869 14.9811 320.414 12.636 322.321 12.636C324.211 12.636 326.546 14.9811 326.546 16.6014Z" fill="#F6C45F"/>
<path fill-rule="evenodd" clip-rule="evenodd" d="M358.321 16.6014C358.321 18.2216 355.986 19.5355 354.08 19.5355C352.189 19.5355 350.644 18.2216 350.644 16.6014C350.644 14.9811 352.189 12.636 354.08 12.636C355.986 12.636 358.321 14.9811 358.321 16.6014Z" fill="#F6C45F"/>
<path fill-rule="evenodd" clip-rule="evenodd" d="M374.2 16.6014C374.2 18.2216 371.882 19.5355 369.975 19.5355C368.069 19.5355 366.523 18.2216 366.523 16.6014C366.523 14.9811 368.069 12.636 369.975 12.636C371.882 12.636 374.2 14.9811 374.2 16.6014Z" fill="#F6C45F"/>
<path fill-rule="evenodd" clip-rule="evenodd" d="M390.095 16.6014C390.095 18.2216 387.761 19.5355 385.854 19.5355C383.947 19.5355 382.402 18.2216 382.402 16.6014C382.402 14.9811 383.947 12.636 385.854 12.636C387.761 12.636 390.095 14.9811 390.095 16.6014Z" fill="#F6C45F"/>
<path fill-rule="evenodd" clip-rule="evenodd" d="M453.628 16.6014C453.628 18.2216 451.31 19.5355 449.403 19.5355C447.496 19.5355 445.951 18.2216 445.951 16.6014C445.951 14.9811 447.496 12.636 449.403 12.636C451.31 12.636 453.628 14.9811 453.628 16.6014Z" fill="#F6C45F"/>
<path fill-rule="evenodd" clip-rule="evenodd" d="M310.667 29.0207C310.667 30.6409 308.333 31.9548 306.426 31.9548C304.519 31.9548 302.99 30.6409 302.99 29.0207C302.99 27.4004 304.519 25.0553 306.426 25.0553C308.333 25.0553 310.667 27.4004 310.667 29.0207Z" fill="#F6C45F"/>
<path fill-rule="evenodd" clip-rule="evenodd" d="M342.425 29.0207C342.425 30.6409 340.107 31.9548 338.201 31.9548C336.294 31.9548 334.749 30.6409 334.749 29.0207C334.749 27.4004 336.294 25.0553 338.201 25.0553C340.107 25.0553 342.425 27.4004 342.425 29.0207Z" fill="#F6C45F"/>
<path fill-rule="evenodd" clip-rule="evenodd" d="M358.321 29.0207C358.321 30.6409 355.986 31.9548 354.08 31.9548C352.189 31.9548 350.644 30.6409 350.644 29.0207C350.644 27.4004 352.189 25.0553 354.08 25.0553C355.986 25.0553 358.321 27.4004 358.321 29.0207Z" fill="#F6C45F"/>
<path fill-rule="evenodd" clip-rule="evenodd" d="M374.2 29.0207C374.2 30.6409 371.882 31.9548 369.975 31.9548C368.069 31.9548 366.523 30.6409 366.523 29.0207C366.523 27.4004 368.069 25.0553 369.975 25.0553C371.882 25.0553 374.2 27.4004 374.2 29.0207Z" fill="#F6C45F"/>
<path fill-rule="evenodd" clip-rule="evenodd" d="M390.095 29.0207C390.095 30.6409 387.761 31.9548 385.854 31.9548C383.947 31.9548 382.402 30.6409 382.402 29.0207C382.402 27.4004 383.947 25.0553 385.854 25.0553C387.761 25.0553 390.095 27.4004 390.095 29.0207Z" fill="#F6C45F"/>
<path fill-rule="evenodd" clip-rule="evenodd" d="M405.974 29.0207C405.974 30.6409 403.64 31.9548 401.75 31.9548C399.843 31.9548 398.298 30.6409 398.298 29.0207C398.298 27.4004 399.843 25.0553 401.75 25.0553C403.64 25.0553 405.974 27.4004 405.974 29.0207Z" fill="#F6C45F"/>
<path fill-rule="evenodd" clip-rule="evenodd" d="M421.853 29.0207C421.853 30.6409 419.536 31.9548 417.629 31.9548C415.722 31.9548 414.177 30.6409 414.177 29.0207C414.177 27.4004 415.722 25.0553 417.629 25.0553C419.536 25.0553 421.853 27.4004 421.853 29.0207Z" fill="#F6C45F"/>
<path fill-rule="evenodd" clip-rule="evenodd" d="M310.667 41.4399C310.667 43.0602 308.333 44.3741 306.426 44.3741C304.519 44.3741 302.99 43.0602 302.99 41.4399C302.99 39.8197 304.519 37.4746 306.426 37.4746C308.333 37.4746 310.667 39.8197 310.667 41.4399Z" fill="#F6C45F"/>
<path fill-rule="evenodd" clip-rule="evenodd" d="M326.546 41.4399C326.546 43.0602 324.211 44.3741 322.321 44.3741C320.414 44.3741 318.869 43.0602 318.869 41.4399C318.869 39.8197 320.414 37.4746 322.321 37.4746C324.211 37.4746 326.546 39.8197 326.546 41.4399Z" fill="#F6C45F"/>
<path fill-rule="evenodd" clip-rule="evenodd" d="M342.425 41.4399C342.425 43.0602 340.107 44.3741 338.201 44.3741C336.294 44.3741 334.749 43.0602 334.749 41.4399C334.749 39.8197 336.294 37.4746 338.201 37.4746C340.107 37.4746 342.425 39.8197 342.425 41.4399Z" fill="#F6C45F"/>
<path fill-rule="evenodd" clip-rule="evenodd" d="M358.321 41.4399C358.321 43.0602 355.986 44.3741 354.08 44.3741C352.189 44.3741 350.644 43.0602 350.644 41.4399C350.644 39.8197 352.189 37.4746 354.08 37.4746C355.986 37.4746 358.321 39.8197 358.321 41.4399Z" fill="#F6C45F"/>
<path fill-rule="evenodd" clip-rule="evenodd" d="M374.2 41.4399C374.2 43.0602 371.882 44.3741 369.975 44.3741C368.069 44.3741 366.523 43.0602 366.523 41.4399C366.523 39.8197 368.069 37.4746 369.975 37.4746C371.882 37.4746 374.2 39.8197 374.2 41.4399Z" fill="#F6C45F"/>
<path fill-rule="evenodd" clip-rule="evenodd" d="M390.095 41.4399C390.095 43.0602 387.761 44.3741 385.854 44.3741C383.947 44.3741 382.402 43.0602 382.402 41.4399C382.402 39.8197 383.947 37.4746 385.854 37.4746C387.761 37.4746 390.095 39.8197 390.095 41.4399Z" fill="#F6C45F"/>
<path fill-rule="evenodd" clip-rule="evenodd" d="M405.974 41.4399C405.974 43.0602 403.64 44.3741 401.75 44.3741C399.843 44.3741 398.298 43.0602 398.298 41.4399C398.298 39.8197 399.843 37.4746 401.75 37.4746C403.64 37.4746 405.974 39.8197 405.974 41.4399Z" fill="#F6C45F"/>
<path fill-rule="evenodd" clip-rule="evenodd" d="M421.853 41.4399C421.853 43.0602 419.536 44.3741 417.629 44.3741C415.722 44.3741 414.177 43.0602 414.177 41.4399C414.177 39.8197 415.722 37.4746 417.629 37.4746C419.536 37.4746 421.853 39.8197 421.853 41.4399Z" fill="#F6C45F"/>
<path fill-rule="evenodd" clip-rule="evenodd" d="M437.749 41.4399C437.749 43.0602 435.415 44.3741 433.508 44.3741C431.617 44.3741 430.072 43.0602 430.072 41.4399C430.072 39.8197 431.617 37.4746 433.508 37.4746C435.415 37.4746 437.749 39.8197 437.749 41.4399Z" fill="#F6C45F"/>
<path fill-rule="evenodd" clip-rule="evenodd" d="M453.628 41.4399C453.628 43.0602 451.31 44.3741 449.403 44.3741C447.496 44.3741 445.951 43.0602 445.951 41.4399C445.951 39.8197 447.496 37.4746 449.403 37.4746C451.31 37.4746 453.628 39.8197 453.628 41.4399Z" fill="#F6C45F"/>
<path fill-rule="evenodd" clip-rule="evenodd" d="M405.974 17.1107C405.974 18.731 403.64 20.0448 401.75 20.0448C399.843 20.0448 398.298 18.731 398.298 17.1107C398.298 15.4904 399.843 13.1454 401.75 13.1454C403.64 13.1454 405.974 15.4904 405.974 17.1107Z" fill="#F6C45F"/>
<path fill-rule="evenodd" clip-rule="evenodd" d="M421.853 17.1107C421.853 18.731 419.536 20.0448 417.629 20.0448C415.722 20.0448 414.177 18.731 414.177 17.1107C414.177 15.4904 415.722 13.1454 417.629 13.1454C419.536 13.1454 421.853 15.4904 421.853 17.1107Z" fill="#F6C45F"/>
<path fill-rule="evenodd" clip-rule="evenodd" d="M437.749 29.53C437.749 31.1502 435.415 32.4641 433.508 32.4641C431.617 32.4641 430.072 31.1502 430.072 29.53C430.072 27.9097 431.617 25.5646 433.508 25.5646C435.415 25.5646 437.749 27.9097 437.749 29.53Z" fill="#F6C45F"/>
<path fill-rule="evenodd" clip-rule="evenodd" d="M326.546 53.8592C326.546 55.4795 324.211 56.7933 322.321 56.7933C320.414 56.7933 318.869 55.4795 318.869 53.8592C318.869 52.2389 320.414 49.8925 322.321 49.8925C324.211 49.8925 326.546 52.2389 326.546 53.8592Z" fill="#F6C45F"/>
<path fill-rule="evenodd" clip-rule="evenodd" d="M342.425 53.8592C342.425 55.4795 340.107 56.7933 338.201 56.7933C336.294 56.7933 334.749 55.4795 334.749 53.8592C334.749 52.2389 336.294 49.8925 338.201 49.8925C340.107 49.8925 342.425 52.2389 342.425 53.8592Z" fill="#F6C45F"/>
<path fill-rule="evenodd" clip-rule="evenodd" d="M358.321 53.8592C358.321 55.4795 355.986 56.7933 354.08 56.7933C352.189 56.7933 350.644 55.4795 350.644 53.8592C350.644 52.2389 352.189 49.8925 354.08 49.8925C355.986 49.8925 358.321 52.2389 358.321 53.8592Z" fill="#F6C45F"/>
<path fill-rule="evenodd" clip-rule="evenodd" d="M374.2 53.8592C374.2 55.4795 371.882 56.7933 369.975 56.7933C368.069 56.7933 366.523 55.4795 366.523 53.8592C366.523 52.2389 368.069 49.8925 369.975 49.8925C371.882 49.8925 374.2 52.2389 374.2 53.8592Z" fill="#F6C45F"/>
<path fill-rule="evenodd" clip-rule="evenodd" d="M390.095 53.8592C390.095 55.4795 387.761 56.7933 385.854 56.7933C383.947 56.7933 382.402 55.4795 382.402 53.8592C382.402 52.2389 383.947 49.8925 385.854 49.8925C387.761 49.8925 390.095 52.2389 390.095 53.8592Z" fill="#F6C45F"/>
<path fill-rule="evenodd" clip-rule="evenodd" d="M405.974 53.8592C405.974 55.4795 403.64 56.7933 401.75 56.7933C399.843 56.7933 398.298 55.4795 398.298 53.8592C398.298 52.2389 399.843 49.8925 401.75 49.8925C403.64 49.8925 405.974 52.2389 405.974 53.8592Z" fill="#F6C45F"/>
<path fill-rule="evenodd" clip-rule="evenodd" d="M421.853 53.8592C421.853 55.4795 419.536 56.7933 417.629 56.7933C415.722 56.7933 414.177 55.4795 414.177 53.8592C414.177 52.2389 415.722 49.8925 417.629 49.8925C419.536 49.8925 421.853 52.2389 421.853 53.8592Z" fill="#F6C45F"/>
<path fill-rule="evenodd" clip-rule="evenodd" d="M437.749 53.8592C437.749 55.4795 435.415 56.7933 433.508 56.7933C431.617 56.7933 430.072 55.4795 430.072 53.8592C430.072 52.2389 431.617 49.8925 433.508 49.8925C435.415 49.8925 437.749 52.2389 437.749 53.8592Z" fill="#F6C45F"/>
<path fill-rule="evenodd" clip-rule="evenodd" d="M453.628 53.8592C453.628 55.4795 451.31 56.7933 449.403 56.7933C447.496 56.7933 445.951 55.4795 445.951 53.8592C445.951 52.2389 447.496 49.8925 449.403 49.8925C451.31 49.8925 453.628 52.2389 453.628 53.8592Z" fill="#F6C45F"/>
<path fill-rule="evenodd" clip-rule="evenodd" d="M326.546 66.2785C326.546 67.8988 324.211 69.2126 322.321 69.2126C320.414 69.2126 318.869 67.8988 318.869 66.2785C318.869 64.6582 320.414 62.3118 322.321 62.3118C324.211 62.3118 326.546 64.6582 326.546 66.2785Z" fill="#F6C45F"/>
<path fill-rule="evenodd" clip-rule="evenodd" d="M342.425 66.2785C342.425 67.8988 340.107 69.2126 338.201 69.2126C336.294 69.2126 334.749 67.8988 334.749 66.2785C334.749 64.6582 336.294 62.3118 338.201 62.3118C340.107 62.3118 342.425 64.6582 342.425 66.2785Z" fill="#F6C45F"/>
<path fill-rule="evenodd" clip-rule="evenodd" d="M358.321 66.2785C358.321 67.8988 355.986 69.2126 354.08 69.2126C352.189 69.2126 350.644 67.8988 350.644 66.2785C350.644 64.6582 352.189 62.3118 354.08 62.3118C355.986 62.3118 358.321 64.6582 358.321 66.2785Z" fill="#F6C45F"/>
<path fill-rule="evenodd" clip-rule="evenodd" d="M374.2 66.2785C374.2 67.8988 371.882 69.2126 369.975 69.2126C368.069 69.2126 366.523 67.8988 366.523 66.2785C366.523 64.6582 368.069 62.3118 369.975 62.3118C371.882 62.3118 374.2 64.6582 374.2 66.2785Z" fill="#F6C45F"/>
<path fill-rule="evenodd" clip-rule="evenodd" d="M390.095 66.2785C390.095 67.8988 387.761 69.2126 385.854 69.2126C383.947 69.2126 382.402 67.8988 382.402 66.2785C382.402 64.6582 383.947 62.3118 385.854 62.3118C387.761 62.3118 390.095 64.6582 390.095 66.2785Z" fill="#F6C45F"/>
<path fill-rule="evenodd" clip-rule="evenodd" d="M405.974 66.2785C405.974 67.8988 403.64 69.2126 401.75 69.2126C399.843 69.2126 398.298 67.8988 398.298 66.2785C398.298 64.6582 399.843 62.3118 401.75 62.3118C403.64 62.3118 405.974 64.6582 405.974 66.2785Z" fill="#F6C45F"/>
<path fill-rule="evenodd" clip-rule="evenodd" d="M421.853 66.2785C421.853 67.8988 419.536 69.2126 417.629 69.2126C415.722 69.2126 414.177 67.8988 414.177 66.2785C414.177 64.6582 415.722 62.3118 417.629 62.3118C419.536 62.3118 421.853 64.6582 421.853 66.2785Z" fill="#F6C45F"/>
<path fill-rule="evenodd" clip-rule="evenodd" d="M437.749 66.2785C437.749 67.8988 435.415 69.2126 433.508 69.2126C431.617 69.2126 430.072 67.8988 430.072 66.2785C430.072 64.6582 431.617 62.3118 433.508 62.3118C435.415 62.3118 437.749 64.6582 437.749 66.2785Z" fill="#F6C45F"/>
<path fill-rule="evenodd" clip-rule="evenodd" d="M453.628 66.2785C453.628 67.8988 451.31 69.2126 449.403 69.2126C447.496 69.2126 445.951 67.8988 445.951 66.2785C445.951 64.6582 447.496 62.3118 449.403 62.3118C451.31 62.3118 453.628 64.6582 453.628 66.2785Z" fill="#F6C45F"/>
<path fill-rule="evenodd" clip-rule="evenodd" d="M310.667 78.6978C310.667 80.318 308.333 81.6319 306.426 81.6319C304.519 81.6319 302.99 80.318 302.99 78.6978C302.99 77.0775 304.519 74.731 306.426 74.731C308.333 74.731 310.667 77.0775 310.667 78.6978Z" fill="#F6C45F"/>
<path fill-rule="evenodd" clip-rule="evenodd" d="M326.546 78.6978C326.546 80.318 324.211 81.6319 322.321 81.6319C320.414 81.6319 318.869 80.318 318.869 78.6978C318.869 77.0775 320.414 74.731 322.321 74.731C324.211 74.731 326.546 77.0775 326.546 78.6978Z" fill="#F6C45F"/>
<path fill-rule="evenodd" clip-rule="evenodd" d="M342.425 78.6978C342.425 80.318 340.107 81.6319 338.201 81.6319C336.294 81.6319 334.749 80.318 334.749 78.6978C334.749 77.0775 336.294 74.731 338.201 74.731C340.107 74.731 342.425 77.0775 342.425 78.6978Z" fill="#F6C45F"/>
<path fill-rule="evenodd" clip-rule="evenodd" d="M358.321 78.6978C358.321 80.318 355.986 81.6319 354.08 81.6319C352.189 81.6319 350.644 80.318 350.644 78.6978C350.644 77.0775 352.189 74.731 354.08 74.731C355.986 74.731 358.321 77.0775 358.321 78.6978Z" fill="#F6C45F"/>
<path fill-rule="evenodd" clip-rule="evenodd" d="M374.2 78.6978C374.2 80.318 371.882 81.6319 369.975 81.6319C368.069 81.6319 366.523 80.318 366.523 78.6978C366.523 77.0775 368.069 74.731 369.975 74.731C371.882 74.731 374.2 77.0775 374.2 78.6978Z" fill="#F6C45F"/>
<path fill-rule="evenodd" clip-rule="evenodd" d="M390.095 78.6978C390.095 80.318 387.761 81.6319 385.854 81.6319C383.947 81.6319 382.402 80.318 382.402 78.6978C382.402 77.0775 383.947 74.731 385.854 74.731C387.761 74.731 390.095 77.0775 390.095 78.6978Z" fill="#F6C45F"/>
<path fill-rule="evenodd" clip-rule="evenodd" d="M405.974 78.6978C405.974 80.318 403.64 81.6319 401.75 81.6319C399.843 81.6319 398.298 80.318 398.298 78.6978C398.298 77.0775 399.843 74.731 401.75 74.731C403.64 74.731 405.974 77.0775 405.974 78.6978Z" fill="#F6C45F"/>
<path fill-rule="evenodd" clip-rule="evenodd" d="M421.853 78.6978C421.853 80.318 419.536 81.6319 417.629 81.6319C415.722 81.6319 414.177 80.318 414.177 78.6978C414.177 77.0775 415.722 74.731 417.629 74.731C419.536 74.731 421.853 77.0775 421.853 78.6978Z" fill="#F6C45F"/>
<path fill-rule="evenodd" clip-rule="evenodd" d="M437.749 78.6978C437.749 80.318 435.415 81.6319 433.508 81.6319C431.617 81.6319 430.072 80.318 430.072 78.6978C430.072 77.0775 431.617 74.731 433.508 74.731C435.415 74.731 437.749 77.0775 437.749 78.6978Z" fill="#F6C45F"/>
<path fill-rule="evenodd" clip-rule="evenodd" d="M453.628 78.6978C453.628 80.318 451.31 81.6319 449.403 81.6319C447.496 81.6319 445.951 80.318 445.951 78.6978C445.951 77.0775 447.496 74.731 449.403 74.731C451.31 74.731 453.628 77.0775 453.628 78.6978Z" fill="#F6C45F"/>
<path fill-rule="evenodd" clip-rule="evenodd" d="M326.546 91.1171C326.546 92.7374 324.211 94.0512 322.321 94.0512C320.414 94.0512 318.869 92.7374 318.869 91.1171C318.869 89.4968 320.414 87.1504 322.321 87.1504C324.211 87.1504 326.546 89.4968 326.546 91.1171Z" fill="#F6C45F"/>
<path fill-rule="evenodd" clip-rule="evenodd" d="M342.425 91.1171C342.425 92.7374 340.107 94.0512 338.201 94.0512C336.294 94.0512 334.749 92.7374 334.749 91.1171C334.749 89.4968 336.294 87.1504 338.201 87.1504C340.107 87.1504 342.425 89.4968 342.425 91.1171Z" fill="#F6C45F"/>
<path fill-rule="evenodd" clip-rule="evenodd" d="M358.321 91.1171C358.321 92.7374 355.986 94.0512 354.08 94.0512C352.189 94.0512 350.644 92.7374 350.644 91.1171C350.644 89.4968 352.189 87.1504 354.08 87.1504C355.986 87.1504 358.321 89.4968 358.321 91.1171Z" fill="#F6C45F"/>
<path fill-rule="evenodd" clip-rule="evenodd" d="M374.2 91.1171C374.2 92.7374 371.882 94.0512 369.975 94.0512C368.069 94.0512 366.523 92.7374 366.523 91.1171C366.523 89.4968 368.069 87.1504 369.975 87.1504C371.882 87.1504 374.2 89.4968 374.2 91.1171Z" fill="#F6C45F"/>
<path fill-rule="evenodd" clip-rule="evenodd" d="M390.095 91.1171C390.095 92.7374 387.761 94.0512 385.854 94.0512C383.947 94.0512 382.402 92.7374 382.402 91.1171C382.402 89.4968 383.947 87.1504 385.854 87.1504C387.761 87.1504 390.095 89.4968 390.095 91.1171Z" fill="#F6C45F"/>
<path fill-rule="evenodd" clip-rule="evenodd" d="M405.974 91.1171C405.974 92.7374 403.64 94.0512 401.75 94.0512C399.843 94.0512 398.298 92.7374 398.298 91.1171C398.298 89.4968 399.843 87.1504 401.75 87.1504C403.64 87.1504 405.974 89.4968 405.974 91.1171Z" fill="#F6C45F"/>
<path fill-rule="evenodd" clip-rule="evenodd" d="M421.853 91.1171C421.853 92.7374 419.536 94.0512 417.629 94.0512C415.722 94.0512 414.177 92.7374 414.177 91.1171C414.177 89.4968 415.722 87.1504 417.629 87.1504C419.536 87.1504 421.853 89.4968 421.853 91.1171Z" fill="#F6C45F"/>
<path fill-rule="evenodd" clip-rule="evenodd" d="M437.749 91.1171C437.749 92.7374 435.415 94.0512 433.508 94.0512C431.617 94.0512 430.072 92.7374 430.072 91.1171C430.072 89.4968 431.617 87.1504 433.508 87.1504C435.415 87.1504 437.749 89.4968 437.749 91.1171Z" fill="#F6C45F"/>
<path fill-rule="evenodd" clip-rule="evenodd" d="M326.546 103.535C326.546 105.155 324.211 106.469 322.321 106.469C320.414 106.469 318.869 105.155 318.869 103.535C318.869 101.915 320.414 99.5682 322.321 99.5682C324.211 99.5682 326.546 101.915 326.546 103.535Z" fill="#F6C45F"/>
<path fill-rule="evenodd" clip-rule="evenodd" d="M342.425 103.535C342.425 105.155 340.107 106.469 338.201 106.469C336.294 106.469 334.749 105.155 334.749 103.535C334.749 101.915 336.294 99.5682 338.201 99.5682C340.107 99.5682 342.425 101.915 342.425 103.535Z" fill="#F6C45F"/>
<path fill-rule="evenodd" clip-rule="evenodd" d="M358.321 103.535C358.321 105.155 355.986 106.469 354.08 106.469C352.189 106.469 350.644 105.155 350.644 103.535C350.644 101.915 352.189 99.5682 354.08 99.5682C355.986 99.5682 358.321 101.915 358.321 103.535Z" fill="#F6C45F"/>
<path fill-rule="evenodd" clip-rule="evenodd" d="M374.2 103.535C374.2 105.155 371.882 106.469 369.975 106.469C368.069 106.469 366.523 105.155 366.523 103.535C366.523 101.915 368.069 99.5682 369.975 99.5682C371.882 99.5682 374.2 101.915 374.2 103.535Z" fill="#F6C45F"/>
<path fill-rule="evenodd" clip-rule="evenodd" d="M390.095 103.535C390.095 105.155 387.761 106.469 385.854 106.469C383.947 106.469 382.402 105.155 382.402 103.535C382.402 101.915 383.947 99.5682 385.854 99.5682C387.761 99.5682 390.095 101.915 390.095 103.535Z" fill="#F6C45F"/>
<path fill-rule="evenodd" clip-rule="evenodd" d="M405.974 103.535C405.974 105.155 403.64 106.469 401.75 106.469C399.843 106.469 398.298 105.155 398.298 103.535C398.298 101.915 399.843 99.5682 401.75 99.5682C403.64 99.5682 405.974 101.915 405.974 103.535Z" fill="#F6C45F"/>
<path fill-rule="evenodd" clip-rule="evenodd" d="M421.853 103.535C421.853 105.155 419.536 106.469 417.629 106.469C415.722 106.469 414.177 105.155 414.177 103.535C414.177 101.915 415.722 99.5682 417.629 99.5682C419.536 99.5682 421.853 101.915 421.853 103.535Z" fill="#F6C45F"/>
<path fill-rule="evenodd" clip-rule="evenodd" d="M310.667 115.954C310.667 117.575 308.333 118.887 306.426 118.887C304.519 118.887 302.99 117.575 302.99 115.954C302.99 114.334 304.519 111.988 306.426 111.988C308.333 111.988 310.667 114.334 310.667 115.954Z" fill="#F6C45F"/>
<path fill-rule="evenodd" clip-rule="evenodd" d="M342.425 115.954C342.425 117.575 340.107 118.887 338.201 118.887C336.294 118.887 334.749 117.575 334.749 115.954C334.749 114.334 336.294 111.988 338.201 111.988C340.107 111.988 342.425 114.334 342.425 115.954Z" fill="#F6C45F"/>
<path fill-rule="evenodd" clip-rule="evenodd" d="M358.321 115.954C358.321 117.575 355.986 118.887 354.08 118.887C352.189 118.887 350.644 117.575 350.644 115.954C350.644 114.334 352.189 111.988 354.08 111.988C355.986 111.988 358.321 114.334 358.321 115.954Z" fill="#F6C45F"/>
<path fill-rule="evenodd" clip-rule="evenodd" d="M374.2 115.954C374.2 117.575 371.882 118.887 369.975 118.887C368.069 118.887 366.523 117.575 366.523 115.954C366.523 114.334 368.069 111.988 369.975 111.988C371.882 111.988 374.2 114.334 374.2 115.954Z" fill="#F6C45F"/>
<path fill-rule="evenodd" clip-rule="evenodd" d="M390.095 115.954C390.095 117.575 387.761 118.887 385.854 118.887C383.947 118.887 382.402 117.575 382.402 115.954C382.402 114.334 383.947 111.988 385.854 111.988C387.761 111.988 390.095 114.334 390.095 115.954Z" fill="#F6C45F"/>
<path fill-rule="evenodd" clip-rule="evenodd" d="M405.974 115.954C405.974 117.575 403.64 118.887 401.75 118.887C399.843 118.887 398.298 117.575 398.298 115.954C398.298 114.334 399.843 111.988 401.75 111.988C403.64 111.988 405.974 114.334 405.974 115.954Z" fill="#F6C45F"/>
<path fill-rule="evenodd" clip-rule="evenodd" d="M453.628 115.954C453.628 117.575 451.31 118.887 449.403 118.887C447.496 118.887 445.951 117.575 445.951 115.954C445.951 114.334 447.496 111.988 449.403 111.988C451.31 111.988 453.628 114.334 453.628 115.954Z" fill="#F6C45F"/>
<path fill-rule="evenodd" clip-rule="evenodd" d="M310.667 128.374C310.667 129.994 308.333 131.306 306.426 131.306C304.519 131.306 302.99 129.994 302.99 128.374C302.99 126.753 304.519 124.407 306.426 124.407C308.333 124.407 310.667 126.753 310.667 128.374Z" fill="#F6C45F"/>
<path fill-rule="evenodd" clip-rule="evenodd" d="M326.546 128.374C326.546 129.994 324.211 131.306 322.321 131.306C320.414 131.306 318.869 129.994 318.869 128.374C318.869 126.753 320.414 124.407 322.321 124.407C324.211 124.407 326.546 126.753 326.546 128.374Z" fill="#F6C45F"/>
<path fill-rule="evenodd" clip-rule="evenodd" d="M342.425 128.374C342.425 129.994 340.107 131.306 338.201 131.306C336.294 131.306 334.749 129.994 334.749 128.374C334.749 126.753 336.294 124.407 338.201 124.407C340.107 124.407 342.425 126.753 342.425 128.374Z" fill="#F6C45F"/>
<path fill-rule="evenodd" clip-rule="evenodd" d="M405.974 128.374C405.974 129.994 403.64 131.306 401.75 131.306C399.843 131.306 398.298 129.994 398.298 128.374C398.298 126.753 399.843 124.407 401.75 124.407C403.64 124.407 405.974 126.753 405.974 128.374Z" fill="#F6C45F"/>
<path fill-rule="evenodd" clip-rule="evenodd" d="M437.749 128.374C437.749 129.994 435.415 131.306 433.508 131.306C431.617 131.306 430.072 129.994 430.072 128.374C430.072 126.753 431.617 124.407 433.508 124.407C435.415 124.407 437.749 126.753 437.749 128.374Z" fill="#F6C45F"/>
<path fill-rule="evenodd" clip-rule="evenodd" d="M453.628 128.374C453.628 129.994 451.31 131.306 449.403 131.306C447.496 131.306 445.951 129.994 445.951 128.374C445.951 126.753 447.496 124.407 449.403 124.407C451.31 124.407 453.628 126.753 453.628 128.374Z" fill="#F6C45F"/>
<path fill-rule="evenodd" clip-rule="evenodd" d="M453.628 102.635C453.628 104.256 451.31 105.569 449.403 105.569C447.496 105.569 445.951 104.256 445.951 102.635C445.951 101.015 447.496 98.6699 449.403 98.6699C451.31 98.6699 453.628 101.015 453.628 102.635Z" fill="#F6C45F"/>
<path fill-rule="evenodd" clip-rule="evenodd" d="M437.749 115.053C437.749 116.673 435.415 117.987 433.508 117.987C431.617 117.987 430.072 116.673 430.072 115.053C430.072 113.433 431.617 111.088 433.508 111.088C435.415 111.088 437.749 113.433 437.749 115.053Z" fill="#F6C45F"/>
<path fill-rule="evenodd" clip-rule="evenodd" d="M421.853 127.472C421.853 129.093 419.536 130.407 417.629 130.407C415.722 130.407 414.177 129.093 414.177 127.472C414.177 125.852 415.722 123.507 417.629 123.507C419.536 123.507 421.853 125.852 421.853 127.472Z" fill="#F6C45F"/>
</g>
<path d="M399.249 185.948C439.208 185.948 471.601 183.18 471.601 179.766C471.601 176.352 439.208 173.584 399.249 173.584C359.29 173.584 326.896 176.352 326.896 179.766C326.896 183.18 359.29 185.948 399.249 185.948Z" fill="#E6E7E8"/>
<path d="M431.581 178.787H364.239C362.034 178.787 360.231 176.983 360.231 174.778V126.008C360.231 123.804 362.034 122 364.239 122H431.581C433.785 122 435.589 123.804 435.589 126.008V174.78C435.589 176.983 433.785 178.787 431.581 178.787Z" fill="#0A191B"/>
<path d="M429.623 174.051H365.871C363.748 174.051 362.011 172.314 362.011 170.19V128.328C362.011 126.205 363.748 124.468 365.871 124.468H429.625C431.748 124.468 433.485 126.205 433.485 128.328V170.19C433.484 172.314 431.747 174.051 429.623 174.051Z" fill="#E6E7E8"/>
<path d="M401.89 176.197H396.604C396.476 176.197 396.371 176.092 396.371 175.964V175.964C396.371 175.836 396.476 175.731 396.604 175.731H401.89C402.018 175.731 402.123 175.836 402.123 175.964V175.964C402.125 176.091 402.02 176.197 401.89 176.197Z" fill="#E3E5FC"/>
<path d="M364.252 123.908C364.543 123.908 364.779 123.673 364.779 123.382C364.779 123.092 364.543 122.856 364.252 122.856C363.962 122.856 363.726 123.092 363.726 123.382C363.726 123.673 363.962 123.908 364.252 123.908Z" fill="#E3E5FC"/>
<path d="M366.515 123.908C366.806 123.908 367.042 123.673 367.042 123.382C367.042 123.092 366.806 122.856 366.515 122.856C366.225 122.856 365.989 123.092 365.989 123.382C365.989 123.673 366.225 123.908 366.515 123.908Z" fill="white"/>
<path d="M368.8 123.908C369.091 123.908 369.326 123.673 369.326 123.382C369.326 123.092 369.091 122.856 368.8 122.856C368.51 122.856 368.274 123.092 368.274 123.382C368.274 123.673 368.51 123.908 368.8 123.908Z" fill="#4B369D"/>
<path d="M400.891 152.558H368.901C368.558 152.558 368.276 152.277 368.276 151.934V151.934C368.276 151.591 368.558 151.309 368.901 151.309H400.891C401.234 151.309 401.516 151.591 401.516 151.934V151.934C401.516 152.277 401.236 152.558 400.891 152.558Z" fill="white"/>
<path d="M400.891 155.421H368.9C368.557 155.421 368.276 155.139 368.276 154.796V154.796C368.276 154.453 368.557 154.172 368.9 154.172H400.891C401.234 154.172 401.515 154.453 401.515 154.796V154.796C401.515 155.139 401.235 155.421 400.891 155.421Z" fill="white"/>
<path d="M400.891 158.284H368.9C368.557 158.284 368.276 158.002 368.276 157.659V157.659C368.276 157.316 368.557 157.035 368.9 157.035H400.891C401.234 157.035 401.515 157.316 401.515 157.659V157.659C401.515 158.002 401.235 158.284 400.891 158.284Z" fill="white"/>
<path d="M400.891 161.511H368.9C368.557 161.511 368.276 161.229 368.276 160.886V160.886C368.276 160.543 368.557 160.262 368.9 160.262H400.891C401.234 160.262 401.515 160.543 401.515 160.886V160.886C401.515 161.229 401.235 161.511 400.891 161.511Z" fill="white"/>
<path d="M400.891 164.373H368.9C368.557 164.373 368.276 164.092 368.276 163.749V163.749C368.276 163.406 368.557 163.125 368.9 163.125H400.891C401.234 163.125 401.515 163.406 401.515 163.749V163.749C401.515 164.092 401.235 164.373 400.891 164.373Z" fill="white"/>
<path d="M400.891 167.236H368.9C368.557 167.236 368.276 166.955 368.276 166.612V166.612C368.276 166.269 368.557 165.987 368.9 165.987H400.891C401.234 165.987 401.515 166.269 401.515 166.612V166.612C401.515 166.955 401.235 167.236 400.891 167.236Z" fill="white"/>
<path d="M375.763 145.792H394.028C398.146 145.792 401.515 142.423 401.515 138.305V136.966C401.515 132.848 398.146 129.479 394.028 129.479H375.763C371.645 129.479 368.276 132.848 368.276 136.966V138.305C368.274 142.423 371.645 145.792 375.763 145.792Z" fill="white"/>
<path d="M416.035 158.042H419.712C423.83 158.042 427.199 154.673 427.199 150.555V136.966C427.199 132.848 423.83 129.479 419.712 129.479H416.035C411.917 129.479 408.548 132.848 408.548 136.966V150.555C408.546 154.673 411.917 158.042 416.035 158.042Z" fill="white"/>
<path d="M411.915 166.49H423.834C425.685 166.49 427.201 164.975 427.201 163.123C427.201 161.271 425.685 159.756 423.834 159.756H411.915C410.063 159.756 408.548 161.271 408.548 163.123C408.546 164.975 410.062 166.49 411.915 166.49Z" fill="#9A3C81"/>
<path d="M278.715 133.599L273.192 128.232L278.702 122.602L279.724 123.604L275.221 128.206L279.711 132.572L278.715 133.599Z" fill="#9A3C81"/>
<path d="M290.553 133.586L289.531 132.585L294.034 127.982L289.544 123.616L290.54 122.589L296.063 127.956L290.553 133.586Z" fill="#9A3C81"/>
<rect x="280.965" y="137.219" width="19.1702" height="1.43229" transform="rotate(-71.8749 280.965 137.219)" fill="#9A3C81"/>
<path fill-rule="evenodd" clip-rule="evenodd" d="M70.2861 122.934H77.0137V116.207H70.2861V122.934ZM76.4929 122.414H70.8069V116.728H76.4929V122.414Z" fill="#A1A7A7"/>
<rect x="70.3613" y="122.491" width="8.77722" height="0.520777" transform="rotate(-45 70.3613 122.491)" fill="#A1A7A7"/>
<rect x="70.3613" y="116.652" width="0.520777" height="8.77722" transform="rotate(-45 70.3613 116.652)" fill="#A1A7A7"/>
<path fill-rule="evenodd" clip-rule="evenodd" d="M76.4927 122.934H83.2202V116.207H76.4927V122.934ZM82.6993 122.414H77.0133V116.728H82.6993V122.414Z" fill="#A1A7A7"/>
<rect x="76.5679" y="122.49" width="8.77722" height="0.520777" transform="rotate(-45 76.5679 122.49)" fill="#A1A7A7"/>
<rect x="76.5679" y="116.652" width="0.520777" height="8.77722" transform="rotate(-45 76.5679 116.652)" fill="#A1A7A7"/>
<path fill-rule="evenodd" clip-rule="evenodd" d="M57.8726 185H64.6001V178.273H57.8726V185ZM64.0802 184.479H58.3942V178.793H64.0802V184.479Z" fill="#A1A7A7"/>
<rect x="57.9473" y="184.556" width="8.77722" height="0.520777" transform="rotate(-45 57.9473 184.556)" fill="#A1A7A7"/>
<rect x="57.9478" y="178.717" width="0.520777" height="8.77722" transform="rotate(-45 57.9478 178.717)" fill="#A1A7A7"/>
<path fill-rule="evenodd" clip-rule="evenodd" d="M57.8726 178.794H64.6001V172.067H57.8726V178.794ZM64.0802 178.273H58.3942V172.587H64.0802V178.273Z" fill="#A1A7A7"/>
<rect x="57.9482" y="178.35" width="8.77722" height="0.520777" transform="rotate(-45 57.9482 178.35)" fill="#A1A7A7"/>
<rect x="57.9487" y="172.511" width="0.520777" height="8.77722" transform="rotate(-45 57.9487 172.511)" fill="#A1A7A7"/>
<path fill-rule="evenodd" clip-rule="evenodd" d="M57.8726 172.587H64.6001V165.86H57.8726V172.587ZM64.0802 172.067H58.3942V166.381H64.0802V172.067Z" fill="#A1A7A7"/>
<rect x="57.9478" y="172.143" width="8.77722" height="0.520777" transform="rotate(-45 57.9478 172.143)" fill="#A1A7A7"/>
<rect x="57.9482" y="166.305" width="0.520777" height="8.77722" transform="rotate(-45 57.9482 166.305)" fill="#A1A7A7"/>
<path fill-rule="evenodd" clip-rule="evenodd" d="M57.8726 166.381H64.6001V159.653H57.8726V166.381ZM64.0802 165.86H58.3942V160.174H64.0802V165.86Z" fill="#A1A7A7"/>
<rect x="57.9478" y="165.937" width="8.77722" height="0.520777" transform="rotate(-45 57.9478 165.937)" fill="#A1A7A7"/>
<rect x="57.9482" y="160.098" width="0.520777" height="8.77722" transform="rotate(-45 57.9482 160.098)" fill="#A1A7A7"/>
<path fill-rule="evenodd" clip-rule="evenodd" d="M57.8726 160.174H64.6001V153.446H57.8726V160.174ZM64.0802 159.653H58.3942V153.967H64.0802V159.653Z" fill="#A1A7A7"/>
<rect x="57.9478" y="159.73" width="8.77722" height="0.520777" transform="rotate(-45 57.9478 159.73)" fill="#A1A7A7"/>
<rect x="57.9482" y="153.891" width="0.520777" height="8.77722" transform="rotate(-45 57.9482 153.891)" fill="#A1A7A7"/>
<path fill-rule="evenodd" clip-rule="evenodd" d="M57.8726 153.967H64.6001V147.24H57.8726V153.967ZM64.0802 153.446H58.3942V147.76H64.0802V153.446Z" fill="#A1A7A7"/>
<rect x="57.9478" y="153.523" width="8.77722" height="0.520777" transform="rotate(-45 57.9478 153.523)" fill="#A1A7A7"/>
<rect x="57.9482" y="147.685" width="0.520777" height="8.77722" transform="rotate(-45 57.9482 147.685)" fill="#A1A7A7"/>
<path fill-rule="evenodd" clip-rule="evenodd" d="M57.8726 147.76H64.6001V141.033H57.8726V147.76ZM64.0802 147.24H58.3942V141.554H64.0802V147.24Z" fill="#A1A7A7"/>
<rect x="57.9482" y="147.317" width="8.77722" height="0.520777" transform="rotate(-45 57.9482 147.317)" fill="#A1A7A7"/>
<rect x="57.9482" y="141.478" width="0.520777" height="8.77722" transform="rotate(-45 57.9482 141.478)" fill="#A1A7A7"/>
<path fill-rule="evenodd" clip-rule="evenodd" d="M57.8726 141.555H64.6001V134.827H57.8726V141.555ZM64.0802 141.034H58.3942V135.348H64.0802V141.034Z" fill="#A1A7A7"/>
<rect x="57.9482" y="141.111" width="8.77722" height="0.520777" transform="rotate(-45 57.9482 141.111)" fill="#A1A7A7"/>
<rect x="57.9487" y="135.272" width="0.520777" height="8.77722" transform="rotate(-45 57.9487 135.272)" fill="#A1A7A7"/>
<path fill-rule="evenodd" clip-rule="evenodd" d="M57.8726 135.348H64.6001V128.62H57.8726V135.348ZM64.0802 134.827H58.3942V129.141H64.0802V134.827Z" fill="#A1A7A7"/>
<rect x="57.9482" y="134.904" width="8.77722" height="0.520777" transform="rotate(-45 57.9482 134.904)" fill="#A1A7A7"/>
<rect x="57.9487" y="129.065" width="0.520777" height="8.77722" transform="rotate(-45 57.9487 129.065)" fill="#A1A7A7"/>
<path fill-rule="evenodd" clip-rule="evenodd" d="M57.8726 129.141H64.6001V122.414H57.8726V129.141ZM64.0802 128.62H58.3942V122.934H64.0802V128.62Z" fill="#A1A7A7"/>
<rect x="57.9482" y="128.697" width="8.77722" height="0.520777" transform="rotate(-45 57.9482 128.697)" fill="#A1A7A7"/>
<rect x="57.9487" y="122.859" width="0.520777" height="8.77722" transform="rotate(-45 57.9487 122.859)" fill="#A1A7A7"/>
<path fill-rule="evenodd" clip-rule="evenodd" d="M57.8726 122.934H64.6001V116.207H57.8726V122.934ZM64.0802 122.414H58.3942V116.728H64.0802V122.414Z" fill="#A1A7A7"/>
<rect x="57.9478" y="122.491" width="8.77722" height="0.520777" transform="rotate(-45 57.9478 122.491)" fill="#A1A7A7"/>
<rect x="57.9482" y="116.652" width="0.520777" height="8.77722" transform="rotate(-45 57.9482 116.652)" fill="#A1A7A7"/>
<path fill-rule="evenodd" clip-rule="evenodd" d="M57.873 116.728H64.6006V110H57.873V116.728ZM64.0804 116.207H58.3944V110.521H64.0804V116.207Z" fill="#A1A7A7"/>
<rect x="57.9487" y="116.285" width="8.77722" height="0.520777" transform="rotate(-45 57.9487 116.285)" fill="#A1A7A7"/>
<rect x="57.9487" y="110.445" width="0.520777" height="8.77722" transform="rotate(-45 57.9487 110.445)" fill="#A1A7A7"/>
<path fill-rule="evenodd" clip-rule="evenodd" d="M64.0791 122.934H70.8066V116.207H64.0791V122.934ZM70.2859 122.414H64.5999V116.728H70.2859V122.414Z" fill="#A1A7A7"/>
<rect x="64.1543" y="122.491" width="8.77722" height="0.520777" transform="rotate(-45 64.1543 122.491)" fill="#A1A7A7"/>
<rect x="64.1543" y="116.652" width="0.520777" height="8.77722" transform="rotate(-45 64.1543 116.652)" fill="#A1A7A7"/>
<path fill-rule="evenodd" clip-rule="evenodd" d="M51.667 122.934H58.3945V116.207H51.667V122.934ZM57.8738 122.414H52.1878V116.728H57.8738V122.414Z" fill="#A1A7A7"/>
<rect x="51.7422" y="122.49" width="8.77722" height="0.520777" transform="rotate(-45 51.7422 122.49)" fill="#A1A7A7"/>
<rect x="51.7422" y="116.652" width="0.520777" height="8.77722" transform="rotate(-45 51.7422 116.652)" fill="#A1A7A7"/>
<path fill-rule="evenodd" clip-rule="evenodd" d="M45.46 122.934H52.1875V116.207H45.46V122.934ZM51.6667 122.414H45.9807V116.728H51.6667V122.414Z" fill="#A1A7A7"/>
<rect x="45.5352" y="122.49" width="8.77722" height="0.520777" transform="rotate(-45 45.5352 122.49)" fill="#A1A7A7"/>
<rect x="45.5352" y="116.652" width="0.520777" height="8.77722" transform="rotate(-45 45.5352 116.652)" fill="#A1A7A7"/>
<path fill-rule="evenodd" clip-rule="evenodd" d="M38.9287 122.934H46.0241V115.839L38.9287 122.934ZM45.5025 122.414H40.1853L45.5025 117.096V122.414Z" fill="#A1A7A7"/>
<rect x="39.3721" y="122.49" width="8.77722" height="0.520777" transform="rotate(-45 39.3721 122.49)" fill="#A1A7A7"/>
<rect x="39.2969" y="125.777" width="0.520782" height="21.8849" fill="#A1A7A7"/>
<path d="M40.7691 149.331H38.5859C37.9622 149.331 37.4517 148.821 37.4517 148.197V146.014C37.4517 145.39 37.9622 144.879 38.5859 144.879H40.7691C41.3927 144.879 41.9033 145.39 41.9033 146.014V148.197C41.9033 148.821 41.3927 149.331 40.7691 149.331Z" fill="#A1A7A7"/>
<path d="M38.9139 154.154C37.5202 154.154 36.6445 152.95 36.499 151.755L37.0161 151.692C37.1301 152.629 37.7723 153.634 38.9139 153.634C38.9185 153.634 38.9222 153.634 38.9269 153.634C39.822 153.628 40.7802 152.973 40.7802 152.008C40.7802 150.853 39.6302 150.373 39.5811 150.352L39.4189 150.287L39.418 148.616H39.9388V149.946C40.3345 150.152 41.301 150.78 41.301 152.009C41.301 153.326 40.0704 154.148 38.9306 154.155C38.925 154.154 38.9195 154.154 38.9139 154.154Z" fill="#A1A7A7"/>
<path d="M52.0105 127.586H34.0056C32.8454 127.586 31.8965 126.637 31.8965 125.477V125.477C31.8965 124.317 32.8454 123.368 34.0056 123.368H52.0105C53.1707 123.368 54.1196 124.317 54.1196 125.477V125.477C54.1187 126.637 53.1698 127.586 52.0105 127.586Z" fill="#A1A7A7"/>
<path d="M81.6404 194H52.5717C50.5509 194 48.8965 192.347 48.8965 190.325V188.675C48.8965 186.654 50.5499 185 52.5717 185H81.6404C83.6613 185 85.3157 186.653 85.3157 188.675V190.325C85.3147 192.346 83.6613 194 81.6404 194Z" fill="#A1A7A7"/>
<path d="M77.1701 188.622H62.4702C62.0262 188.622 61.6636 188.259 61.6636 187.815V187.815C61.6636 187.371 62.0262 187.008 62.4702 187.008H77.1701C77.6141 187.008 77.9767 187.371 77.9767 187.815V187.815C77.9767 188.259 77.6141 188.622 77.1701 188.622Z" fill="white"/>
<path d="M70.3067 191.759H62.4702C62.0262 191.759 61.6636 191.397 61.6636 190.953V190.953C61.6636 190.509 62.0262 190.146 62.4702 190.146H70.3067C70.7507 190.146 71.1133 190.509 71.1133 190.953V190.953C71.1133 191.396 70.7507 191.759 70.3067 191.759Z" fill="white"/>
<path d="M55.5237 192.476C57.0335 192.476 58.2574 191.252 58.2574 189.742C58.2574 188.232 57.0335 187.008 55.5237 187.008C54.014 187.008 52.79 188.232 52.79 189.742C52.79 191.252 54.014 192.476 55.5237 192.476Z" fill="white"/>
<path d="M108.897 160.727C108.897 153.396 102.853 136 95.397 136C87.9411 136 81.897 153.396 81.897 160.727C81.8997 164.248 83.3232 167.624 85.8546 170.113C88.3861 172.602 91.8183 174 95.397 174C98.9756 174 102.408 172.602 104.939 170.113C107.471 167.624 108.894 164.248 108.897 160.727V160.727Z" fill="#CCD3D3"/>
<path d="M95.397 194C95.4626 194 95.5276 193.997 95.5883 193.992C95.6489 193.986 95.704 193.978 95.7504 193.967C95.7969 193.957 95.8337 193.945 95.8589 193.931C95.884 193.918 95.897 193.903 95.897 193.888V147.111C95.8965 147.082 95.8436 147.053 95.7499 147.033C95.6562 147.012 95.5292 147 95.397 147C95.2647 147 95.1378 147.012 95.0441 147.033C94.9504 147.053 94.8975 147.082 94.897 147.111V193.888C94.897 193.903 94.9099 193.918 94.9351 193.931C94.9602 193.945 94.997 193.957 95.0435 193.967C95.0899 193.978 95.145 193.986 95.2057 193.992C95.2663 193.997 95.3313 194 95.397 194V194Z" fill="#3F3D56"/>
<path d="M95.0166 156C95.0323 156 95.0479 155.997 95.0624 155.991C95.077 155.985 95.0902 155.976 95.1013 155.965L100.862 150.204C100.884 150.182 100.897 150.151 100.897 150.12C100.897 150.088 100.884 150.058 100.862 150.035C100.839 150.013 100.809 150 100.777 150C100.746 150 100.715 150.013 100.693 150.035L94.932 155.796C94.9153 155.813 94.9039 155.834 94.8993 155.857C94.8947 155.88 94.897 155.904 94.9061 155.926C94.9152 155.948 94.9305 155.967 94.9502 155.98C94.9698 155.993 94.993 156 95.0166 156L95.0166 156Z" fill="#3F3D56"/>
<path d="M95.7759 165C95.7999 165 95.8233 164.994 95.8432 164.982C95.8631 164.97 95.8786 164.953 95.8878 164.933C95.8969 164.913 95.8993 164.891 95.8947 164.87C95.89 164.849 95.8785 164.829 95.8616 164.814L86.1036 156.032C86.0809 156.012 86.0501 156 86.018 156C85.9859 156 85.9552 156.012 85.9325 156.032C85.9098 156.052 85.897 156.08 85.897 156.109C85.897 156.138 85.9097 156.166 85.9324 156.186L95.6903 164.968C95.7016 164.978 95.7149 164.986 95.7296 164.992C95.7443 164.997 95.76 165 95.7759 165V165Z" fill="#3F3D56"/>
<path d="M103.812 196.957C103.793 196.972 103.772 196.985 103.753 197H87.1784C86.8536 195.674 86.7389 194.347 87.2241 193.194C87.9152 191.552 89.9608 190.527 91.5871 191.232C91.9723 191.404 92.308 191.671 92.5624 192.01C93.198 190.863 94.338 189.999 95.6539 190C97.3025 190.001 98.6732 191.36 99.1205 192.929C99.8408 191.704 101.264 190.848 102.654 191.216C104.98 191.832 105.715 195.475 103.812 196.957Z" fill="#F2F2F2"/>
<path d="M351.345 195H101.655C101.482 195 101.315 195.053 101.192 195.146C101.069 195.24 101 195.367 101 195.5C101 195.633 101.069 195.76 101.192 195.854C101.315 195.947 101.482 196 101.655 196H351.345C351.518 196 351.685 195.947 351.808 195.854C351.931 195.76 352 195.633 352 195.5C352 195.367 351.931 195.24 351.808 195.146C351.685 195.053 351.518 195 351.345 195Z" fill="#357E88"/>
<path d="M352.129 127.751C355.709 125.724 359.292 123.696 362.872 121.669C373.456 115.677 384.211 109.554 392.58 100.729C395.888 97.2397 398.832 93.2754 400.339 88.7099C400.649 87.7702 400.889 86.7164 400.472 85.8192C399.761 84.297 397.688 84.1376 396.013 84.2669C390.986 84.6571 386.007 85.6569 381.217 87.2326C385.202 77.4991 397.721 74.1532 403.436 65.3247C404.363 63.892 405.113 62.2137 404.849 60.5291C404.678 59.4471 404.098 58.4601 403.36 57.6485C400.854 54.8897 396.702 54.1463 393.041 54.8308C389.38 55.5179 386.076 57.4157 382.852 59.2825C387.278 56.8394 390.986 53.1146 393.411 48.677C394.414 46.8378 395.215 44.6676 394.552 42.6814C393.43 39.3125 388.771 38.5364 385.487 39.8846C379.148 42.4838 376.324 49.6941 373.811 56.0675C371.297 62.4408 367.463 69.4888 360.721 70.7018C359.912 70.8471 359.043 70.918 358.394 71.4224C357.13 72.4071 357.45 74.471 358.406 75.7568C359.362 77.0425 360.781 77.9342 361.695 79.2507C363.742 82.2013 362.674 86.2848 360.975 89.4496C359.277 92.6143 356.972 95.639 356.637 99.2159C356.221 103.664 354.365 108.784 353.581 113.18C353.223 115.177 356.778 116.221 356.058 118.116C355.338 120.011 354.987 122.243 356.008 123.997C357.028 125.75 359.868 126.414 361.09 124.797" fill="#357E88"/>
<path d="M352.129 127.751C355.709 125.724 359.292 123.696 362.872 121.669C373.456 115.677 384.211 109.554 392.58 100.729C395.888 97.2397 398.832 93.2754 400.339 88.7099C400.649 87.7702 400.889 86.7164 400.472 85.8192C399.761 84.297 397.688 84.1376 396.013 84.2669C390.986 84.6571 386.007 85.6569 381.217 87.2326C385.202 77.4991 397.721 74.1532 403.436 65.3247C404.363 63.892 405.113 62.2137 404.849 60.5291C404.678 59.4471 404.098 58.4601 403.36 57.6485C400.854 54.8897 396.702 54.1463 393.041 54.8308C389.38 55.5179 386.076 57.4157 382.852 59.2825C387.278 56.8394 390.986 53.1146 393.411 48.677C394.414 46.8378 395.215 44.6676 394.552 42.6814C393.43 39.3125 388.771 38.5364 385.487 39.8846C379.148 42.4838 376.324 49.6941 373.811 56.0675C371.297 62.4408 367.463 69.4888 360.721 70.7018C359.912 70.8471 359.043 70.918 358.394 71.4224C357.13 72.4071 357.45 74.471 358.406 75.7568C359.362 77.0425 360.781 77.9342 361.695 79.2507C363.742 82.2013 362.674 86.2848 360.975 89.4496C359.277 92.6143 356.972 95.639 356.637 99.2159C356.221 103.664 354.365 108.784 353.581 113.18C353.223 115.177 356.778 116.221 356.058 118.116C355.338 120.011 354.987 122.243 356.008 123.997C357.028 125.75 359.868 126.414 361.09 124.797" stroke="#0F555F"/>
<path d="M346.717 121.742C346.962 121.772 347.218 121.676 347.379 121.462C357.317 108.326 383.251 74.1008 384.533 72.7049C384.76 72.5124 384.85 72.1871 384.735 71.8954C384.588 71.5277 384.177 71.3478 383.804 71.4937C383.563 71.5894 383.196 71.7335 346.239 120.598C345.999 120.912 346.063 121.362 346.378 121.602C346.478 121.681 346.598 121.727 346.717 121.742Z" fill="white"/>
<path d="M362.569 100.822C362.607 100.826 362.646 100.829 362.684 100.826L383.113 100.109C383.508 100.094 383.819 99.7633 383.804 99.3685C383.79 98.9712 383.459 98.6626 383.064 98.6774L362.635 99.3941C362.24 99.4089 361.929 99.7398 361.944 100.135C361.956 100.493 362.228 100.779 362.569 100.822Z" fill="white"/>
<path d="M362.313 171.602C361.927 171.793 361.325 171.903 360.445 171.903C336.76 171.9 313.082 171.894 289.392 171.958C277.529 171.99 265.663 171.905 253.8 171.932C247.808 171.945 241.816 171.987 235.826 172.088C232.83 172.139 229.834 172.204 226.838 172.286C224.636 172.346 221.963 172.756 219.865 171.84C219.15 171.528 218.474 171.109 218.189 170.34C218.142 170.157 218.131 169.974 218.153 169.787C218.385 168.191 220.83 165.512 221.791 164.19C223.764 161.477 225.781 158.526 229.319 157.585C231.376 157.039 233.548 157.048 235.683 157.061C273.153 157.061 310.625 157.268 348.093 157.384C350.442 157.391 353.342 157.736 354.976 159.531C357.054 161.811 358.882 164.279 360.563 166.834C361.577 168.361 364.007 170.761 362.313 171.602Z" fill="#E0E2E3"/>
<path d="M346.193 158.987H233.962C228.45 158.987 223.94 154.477 223.94 148.965V69.3282C223.94 63.8155 228.45 59.3059 233.962 59.3059H346.196C351.708 59.3059 356.218 63.8155 356.218 69.3282V148.962C356.218 154.477 351.706 158.987 346.193 158.987Z" fill="#E6E7E8"/>
<path fill-rule="evenodd" clip-rule="evenodd" d="M233.962 159.613H346.193C352.067 159.613 356.844 154.836 356.844 148.962V69.3282C356.844 63.4566 352.067 58.6795 346.196 58.6795H233.962C228.091 58.6795 223.313 63.4566 223.313 69.3282V148.965C223.313 154.836 228.091 159.613 233.962 159.613ZM224.566 69.3282C224.566 64.1476 228.782 59.9323 233.962 59.9323H346.196C351.376 59.9323 355.592 64.1476 355.592 69.3282V148.962C355.592 154.143 351.376 158.358 346.196 158.358H233.962C228.782 158.358 224.566 154.143 224.566 148.962V69.3282Z" fill="#0A191B"/>
<path d="M237.455 63.6394C231.74 63.6394 227.063 68.3161 227.063 74.0317V128.506C260.888 108.207 293.971 86.7557 325.917 63.6394H237.455Z" fill="#E8EFF0"/>
<path d="M342.13 63.6394H325.917C293.969 86.7535 260.888 108.207 227.063 128.506V140.28C227.063 145.995 231.74 150.672 237.455 150.672H342.13C347.845 150.672 352.522 145.995 352.522 140.28V74.0317C352.522 68.3161 347.845 63.6394 342.13 63.6394Z" fill="white"/>
<path d="M297.168 154.439H287.687C287.518 154.439 287.379 154.301 287.379 154.132V153.927C287.379 153.757 287.518 153.619 287.687 153.619H297.168C297.337 153.619 297.475 153.757 297.475 153.927V154.132C297.475 154.301 297.337 154.439 297.168 154.439Z" fill="#1E6F7A"/>
<path d="M236.552 62.6541C237.062 62.6541 237.475 62.2409 237.475 61.7312C237.475 61.2215 237.062 60.8083 236.552 60.8083C236.043 60.8083 235.629 61.2215 235.629 61.7312C235.629 62.2409 236.043 62.6541 236.552 62.6541Z" fill="#1E6F7A"/>
<path d="M240.527 62.6541C241.037 62.6541 241.45 62.2409 241.45 61.7312C241.45 61.2215 241.037 60.8083 240.527 60.8083C240.017 60.8083 239.604 61.2215 239.604 61.7312C239.604 62.2409 240.017 62.6541 240.527 62.6541Z" fill="white"/>
<path d="M244.537 62.6541C245.047 62.6541 245.46 62.2409 245.46 61.7312C245.46 61.2215 245.047 60.8083 244.537 60.8083C244.027 60.8083 243.614 61.2215 243.614 61.7312C243.614 62.2409 244.027 62.6541 244.537 62.6541Z" fill="#0A191B"/>
<path d="M236.745 162.65H232.504C231.946 162.65 231.49 162.194 231.49 161.636V160.965C231.49 160.407 231.946 159.951 232.504 159.951H236.745C237.303 159.951 237.759 160.407 237.759 160.965V161.636C237.759 162.194 237.303 162.65 236.745 162.65Z" fill="#8ABFC7"/>
<path d="M247.171 162.65H242.93C242.372 162.65 241.916 162.194 241.916 161.636V160.965C241.916 160.407 242.372 159.951 242.93 159.951H247.171C247.729 159.951 248.185 160.407 248.185 160.965V161.636C248.187 162.194 247.729 162.65 247.171 162.65Z" fill="#8ABFC7"/>
<path d="M257.599 162.65H253.358C252.8 162.65 252.344 162.194 252.344 161.636V160.965C252.344 160.407 252.8 159.951 253.358 159.951H257.599C258.157 159.951 258.613 160.407 258.613 160.965V161.636C258.613 162.194 258.157 162.65 257.599 162.65Z" fill="#8ABFC7"/>
<path d="M268.025 162.65H263.784C263.226 162.65 262.77 162.194 262.77 161.636V160.965C262.77 160.407 263.226 159.951 263.784 159.951H268.025C268.583 159.951 269.039 160.407 269.039 160.965V161.636C269.039 162.194 268.583 162.65 268.025 162.65Z" fill="#8ABFC7"/>
<path d="M278.45 162.65H274.21C273.651 162.65 273.195 162.194 273.195 161.636V160.965C273.195 160.407 273.651 159.951 274.21 159.951H278.45C279.008 159.951 279.465 160.407 279.465 160.965V161.636C279.467 162.194 279.008 162.65 278.45 162.65Z" fill="#8ABFC7"/>
<path d="M288.879 162.65H284.638C284.08 162.65 283.624 162.194 283.624 161.636V160.965C283.624 160.407 284.08 159.951 284.638 159.951H288.879C289.437 159.951 289.893 160.407 289.893 160.965V161.636C289.893 162.194 289.437 162.65 288.879 162.65Z" fill="#8ABFC7"/>
<path d="M299.305 162.65H295.064C294.506 162.65 294.05 162.194 294.05 161.636V160.965C294.05 160.407 294.506 159.951 295.064 159.951H299.305C299.863 159.951 300.319 160.407 300.319 160.965V161.636C300.319 162.194 299.863 162.65 299.305 162.65Z" fill="#8ABFC7"/>
<path d="M309.734 162.65H305.493C304.935 162.65 304.479 162.194 304.479 161.636V160.965C304.479 160.407 304.935 159.951 305.493 159.951H309.734C310.292 159.951 310.748 160.407 310.748 160.965V161.636C310.748 162.194 310.292 162.65 309.734 162.65Z" fill="#8ABFC7"/>
<path d="M320.159 162.65H315.919C315.36 162.65 314.904 162.194 314.904 161.636V160.965C314.904 160.407 315.36 159.951 315.919 159.951H320.159C320.717 159.951 321.174 160.407 321.174 160.965V161.636C321.174 162.194 320.717 162.65 320.159 162.65Z" fill="#8ABFC7"/>
<path d="M330.585 162.65H326.344C325.786 162.65 325.33 162.194 325.33 161.636V160.965C325.33 160.407 325.786 159.951 326.344 159.951H330.585C331.143 159.951 331.599 160.407 331.599 160.965V161.636C331.602 162.194 331.143 162.65 330.585 162.65Z" fill="#8ABFC7"/>
<path d="M341.014 162.65H336.773C336.215 162.65 335.759 162.194 335.759 161.636V160.965C335.759 160.407 336.215 159.951 336.773 159.951H341.014C341.572 159.951 342.028 160.407 342.028 160.965V161.636C342.028 162.194 341.572 162.65 341.014 162.65Z" fill="#8ABFC7"/>
<path d="M351.44 162.65H347.199C346.641 162.65 346.185 162.194 346.185 161.636V160.965C346.185 160.407 346.641 159.951 347.199 159.951H351.44C351.998 159.951 352.454 160.407 352.454 160.965V161.636C352.454 162.194 351.998 162.65 351.44 162.65Z" fill="#8ABFC7"/>
<path d="M457.767 155.375C459.23 154.353 460.797 152.953 460.67 151.173C458.443 151.119 456.206 151.586 454.186 152.525C453.474 151.582 454.629 150.372 455.641 149.764C457.835 148.443 460.03 147.123 462.223 145.804C461.453 145.091 460.412 144.678 459.362 144.671C458.547 142.697 462.449 141.385 462.098 139.277C461.914 138.171 460.525 137.622 459.441 137.911C458.358 138.201 457.532 139.055 456.765 139.874C457.251 138.482 458.147 137.279 458.86 135.988C459.573 134.698 460.117 133.207 459.802 131.767C459.487 130.327 458.028 129.07 456.601 129.439C455.614 129.693 454.945 130.593 454.428 131.472C453.303 133.383 452.501 135.482 452.065 137.656C451.804 138.953 451.044 140.705 449.788 140.287C449.11 140.061 448.826 139.28 448.383 138.719C447.144 137.146 444.425 137.471 443.154 139.018C441.882 140.564 441.847 142.833 442.49 144.729C442.887 145.9 443.419 147.425 442.439 148.178C441.474 148.921 439.935 148.072 438.906 148.722C437.663 149.508 438.356 151.383 438.504 152.847C438.68 154.591 437.845 156.254 437.153 157.864C436.461 159.475 435.897 161.333 436.594 162.94C438.691 167.771 454.85 157.414 457.767 155.375Z" fill="#8ABFC7"/>
<path fill-rule="evenodd" clip-rule="evenodd" d="M437.85 164.442C438.2 164.541 438.594 164.587 439.023 164.587C444.92 164.587 457.662 155.908 457.98 155.691L457.985 155.688C459.37 154.72 461.195 153.197 461.048 151.147L461.024 150.804L460.681 150.796C458.509 150.746 456.343 151.171 454.362 152.034C454.341 151.941 454.341 151.843 454.361 151.737C454.476 151.143 455.185 150.482 455.837 150.089L462.852 145.87L462.483 145.529C461.713 144.817 460.693 144.379 459.647 144.305C459.529 143.662 460.059 143.066 460.907 142.211L460.911 142.207C461.738 141.372 462.675 140.426 462.473 139.217C462.385 138.684 462.06 138.213 461.561 137.891C460.927 137.484 460.078 137.353 459.346 137.548C458.836 137.684 458.381 137.933 457.97 138.232C458.108 137.994 458.253 137.755 458.4 137.513C458.429 137.466 458.457 137.419 458.486 137.372L458.502 137.346C458.737 136.959 458.974 136.57 459.192 136.174C460.137 134.464 460.457 132.997 460.172 131.69C459.972 130.772 459.37 129.927 458.563 129.43C457.91 129.029 457.179 128.902 456.508 129.077C455.353 129.374 454.617 130.413 454.104 131.284C452.952 133.24 452.142 135.361 451.695 137.586C451.526 138.424 451.116 139.528 450.516 139.875C450.321 139.988 450.129 140.005 449.908 139.933C449.55 139.813 449.309 139.435 449.055 139.035L449.055 139.035C448.935 138.847 448.815 138.658 448.681 138.489C448.094 137.742 447.184 137.325 446.121 137.313H446.077C444.839 137.313 443.611 137.872 442.863 138.781C441.407 140.551 441.532 143.078 442.147 144.895C442.512 145.967 442.964 147.302 442.21 147.882C441.825 148.177 441.261 148.143 440.665 148.107L440.658 148.107C440.025 148.069 439.306 148.026 438.706 148.406C437.514 149.158 437.765 150.633 437.987 151.933L437.991 151.956C438.046 152.284 438.098 152.594 438.129 152.887C438.277 154.347 437.644 155.798 437.03 157.202L437.025 157.214L436.807 157.717C436.137 159.275 435.468 161.295 436.248 163.093C436.542 163.77 437.082 164.224 437.85 164.442ZM439.107 149.044C439.368 148.879 439.69 148.836 440.042 148.836C440.228 148.836 440.422 148.848 440.616 148.862C441.292 148.904 442.058 148.949 442.666 148.481C443.849 147.571 443.277 145.882 442.845 144.611C442.309 143.027 442.183 140.79 443.443 139.26C444.058 138.513 445.079 138.045 446.109 138.068C446.938 138.076 447.639 138.391 448.083 138.954C448.202 139.105 448.308 139.272 448.414 139.439C448.713 139.91 449.053 140.443 449.666 140.647C450.09 140.789 450.514 140.746 450.893 140.526C451.921 139.93 452.333 138.236 452.434 137.731C452.863 135.59 453.644 133.549 454.753 131.664C455.192 130.92 455.808 130.035 456.693 129.806C457.296 129.651 457.827 129.865 458.164 130.072C458.791 130.457 459.276 131.138 459.432 131.849C459.677 132.97 459.381 134.263 458.529 135.807C458.31 136.202 458.074 136.59 457.837 136.978C457.306 137.85 456.755 138.753 456.407 139.75L455.817 141.436L457.041 140.133C457.883 139.236 458.603 138.528 459.54 138.278C460.065 138.136 460.697 138.234 461.149 138.525C461.374 138.67 461.657 138.929 461.725 139.339C461.864 140.167 461.139 140.899 460.37 141.675L460.367 141.677C459.49 142.561 458.497 143.564 459.012 144.814L459.108 145.045L459.358 145.047C460.141 145.052 460.922 145.306 461.564 145.756L455.443 149.438C454.671 149.904 453.784 150.712 453.614 151.59C453.534 152.011 453.625 152.413 453.882 152.753L454.066 152.996L454.344 152.867C456.195 152.004 458.244 151.551 460.289 151.545C460.182 153.05 458.695 154.263 457.548 155.065C454.716 157.044 443.952 163.839 439.064 163.838C438.691 163.838 438.352 163.799 438.053 163.714C437.505 163.559 437.142 163.258 436.94 162.792C436.274 161.259 436.889 159.434 437.499 158.014L437.715 157.517L437.717 157.514C438.37 156.018 439.046 154.471 438.878 152.81C438.847 152.493 438.79 152.157 438.735 151.832L438.73 151.805C438.496 150.43 438.395 149.493 439.107 149.044Z" fill="#0F555F"/>
<path d="M460.712 166.989C461.198 166.525 461.697 165.94 461.615 165.272C461.529 164.575 460.803 164.101 460.104 164.054C459.402 164.007 458.725 164.283 458.078 164.552C457.685 164.026 458.272 163.33 458.818 162.967C461.256 161.344 464.356 159.905 464.95 157.037C464.999 156.798 465.024 156.53 464.886 156.327C464.75 156.125 464.492 156.047 464.251 156.017C462.791 155.833 461.461 156.857 460.011 157.103C458.415 157.374 456.805 156.684 455.186 156.731C453.882 156.768 452.645 157.28 451.444 157.783C449.21 158.718 446.918 159.691 445.19 161.387C442.594 163.935 438.916 171.331 444.378 172.769C449.659 174.162 457.015 170.517 460.712 166.989Z" fill="#357E88"/>
<path d="M441.044 159.16C440.953 159.16 440.863 159.127 440.792 159.063C440.636 158.924 440.622 158.685 440.762 158.529L453.422 144.364C453.562 144.208 453.8 144.195 453.956 144.335C454.112 144.473 454.126 144.713 453.986 144.869L441.326 159.033C441.251 159.117 441.147 159.16 441.044 159.16Z" fill="white"/>
<path d="M447.98 151.396C447.793 151.396 447.63 151.256 447.606 151.066L446.577 143.031C446.55 142.824 446.697 142.634 446.904 142.607C447.108 142.581 447.3 142.727 447.327 142.934L448.355 150.969C448.382 151.177 448.235 151.366 448.028 151.393C448.012 151.396 447.996 151.396 447.98 151.396Z" fill="white"/>
<path d="M440.284 173.349C440.162 173.349 440.042 173.29 439.968 173.18C439.852 173.006 439.9 172.771 440.074 172.655L454.401 163.151C454.576 163.036 454.811 163.084 454.926 163.258C455.042 163.431 454.995 163.667 454.82 163.782L440.493 173.286C440.428 173.329 440.356 173.349 440.284 173.349Z" fill="white"/>
<path d="M448.773 167.844C448.741 167.844 448.709 167.84 448.678 167.832C448.476 167.779 448.355 167.573 448.407 167.37L450.015 161.192C450.068 160.989 450.278 160.869 450.476 160.921C450.678 160.974 450.799 161.18 450.746 161.383L449.138 167.561C449.095 167.731 448.942 167.844 448.773 167.844Z" fill="white"/>
<g clip-path="url(#clip0)">
<path d="M183.763 191.425H188.285L190.435 173.869L183.763 173.87L183.763 191.425Z" fill="#FFB8B8"/>
<path d="M197.003 195.65L182.794 195.651L182.794 190.124L191.513 190.124C192.234 190.124 192.948 190.267 193.614 190.545C194.28 190.822 194.886 191.229 195.395 191.743C195.905 192.256 196.31 192.865 196.585 193.536C196.861 194.206 197.003 194.925 197.003 195.65V195.65Z" fill="#2F2E41"/>
<path d="M142.039 188.814L146.467 189.735L152.104 172.982L145.57 171.622L142.039 188.814Z" fill="#FFB8B8"/>
<path d="M154.155 195.651L140.241 192.755L141.352 187.343L149.891 189.12C151.317 189.417 152.567 190.271 153.367 191.496C154.166 192.721 154.45 194.216 154.155 195.651V195.651L154.155 195.651Z" fill="#2F2E41"/>
<path d="M154.303 132.329C153.921 131.941 153.629 131.474 153.447 130.96C153.264 130.446 153.196 129.898 153.247 129.354C153.298 128.811 153.466 128.286 153.74 127.815C154.015 127.344 154.388 126.94 154.834 126.63L151.326 113.842L157.84 115.968L160.173 127.786C160.64 128.575 160.804 129.51 160.632 130.412C160.46 131.315 159.966 132.122 159.242 132.682C158.519 133.242 157.616 133.516 156.706 133.451C155.795 133.386 154.94 132.987 154.303 132.329V132.329Z" fill="#FFB8B8"/>
<path d="M181.319 185.539C180.94 185.539 180.573 185.397 180.285 185.137C179.996 184.877 179.805 184.517 179.745 184.121L171.652 136.949C171.635 136.829 171.581 136.717 171.498 136.632C171.416 136.547 171.309 136.493 171.195 136.477C171.081 136.462 170.965 136.486 170.864 136.546C171.652 136.072 171.698 136.837 171.652 136.949L152.611 180.937C152.451 181.324 152.16 181.633 151.796 181.805C151.432 181.977 151.02 181.999 150.641 181.867L144.308 179.616C144.101 179.542 143.911 179.425 143.749 179.271C143.587 179.117 143.457 178.929 143.366 178.72C143.276 178.51 143.227 178.283 143.222 178.053C143.217 177.822 143.258 177.593 143.34 177.38L152.056 154.793L159.332 120.714L159.384 120.673C159.524 120.56 173.522 109.507 183.088 118.348C191.841 126.439 190.212 172.672 189.797 181.858C189.782 182.221 189.656 182.569 189.437 182.849C189.219 183.129 188.92 183.327 188.586 183.412L181.705 185.489C181.579 185.522 181.449 185.538 181.319 185.539Z" fill="#515978"/>
<path d="M168.16 81.1519C173.162 81.1519 177.217 77.0696 177.217 72.0338C177.217 66.9979 173.162 62.9156 168.16 62.9156C163.158 62.9156 159.103 66.9979 159.103 72.0338C159.103 77.0696 163.158 81.1519 168.16 81.1519Z" fill="#FFB8B8"/>
<path d="M185.771 128.245C185.39 127.857 185.097 127.39 184.915 126.876C184.733 126.362 184.664 125.814 184.715 125.271C184.766 124.727 184.934 124.202 185.209 123.731C185.483 123.26 185.856 122.856 186.303 122.546L182.794 109.759L189.309 111.885L191.641 123.702C192.109 124.492 192.272 125.426 192.1 126.328C191.929 127.231 191.434 128.039 190.711 128.599C189.987 129.159 189.085 129.432 188.174 129.367C187.264 129.302 186.409 128.903 185.771 128.245V128.245Z" fill="#FFB8B8"/>
<path d="M158.121 124.6C157.996 124.6 157.871 124.575 157.755 124.527C153.93 122.962 156.98 92.4092 157.111 91.1093L157.126 91.0537C157.221 90.8363 157.316 90.6234 157.413 90.4149C158.355 88.3054 159.934 86.5485 161.924 85.3935C163.915 84.2385 166.217 83.7441 168.502 83.9806C170.825 84.1603 173.035 85.0614 174.827 86.5594C176.619 88.0575 177.905 90.0787 178.507 92.344L185.595 118.486C185.67 118.764 185.673 119.056 185.603 119.335C185.533 119.615 185.393 119.871 185.195 120.079C184.998 120.288 184.75 120.441 184.477 120.525C184.203 120.608 183.912 120.619 183.633 120.556C178.119 119.316 164.755 117.115 159.773 123.44C159.161 124.217 158.617 124.6 158.121 124.6Z" fill="#A43E8A"/>
<path d="M185.585 122.091C185.403 122.09 185.223 122.06 185.05 122.001C184.838 121.93 184.643 121.816 184.476 121.666C184.309 121.515 184.174 121.333 184.08 121.128L177.912 107.89L171.91 90.4977C171.653 89.75 171.615 88.9435 171.801 88.1747C171.987 87.4059 172.389 86.7073 172.959 86.1622V86.1622C173.43 85.7129 174 85.3828 174.623 85.1994C175.245 85.0159 175.902 84.9843 176.54 85.1072C177.177 85.2301 177.776 85.504 178.287 85.9061C178.798 86.3083 179.207 86.8272 179.479 87.4199L187.466 104.79L193.697 116.122C193.804 116.317 193.872 116.532 193.895 116.754C193.919 116.975 193.898 117.2 193.834 117.413C193.77 117.627 193.664 117.825 193.523 117.997C193.381 118.169 193.207 118.31 193.011 118.413L186.348 121.901C186.113 122.025 185.851 122.09 185.585 122.091V122.091Z" fill="#922276"/>
<path d="M158.633 125.345C158.573 125.345 158.514 125.342 158.454 125.335L150.986 124.538C150.764 124.514 150.549 124.445 150.353 124.336C150.158 124.226 149.987 124.078 149.85 123.9C149.713 123.722 149.613 123.518 149.556 123.3C149.499 123.082 149.487 122.855 149.52 122.633L151.641 108.167L156.181 90.3315C156.377 89.5652 156.788 88.8719 157.365 88.3345C157.942 87.797 158.66 87.4381 159.434 87.3006V87.3006C160.073 87.1878 160.73 87.2298 161.349 87.4231C161.969 87.6164 162.534 87.9554 162.998 88.4122C163.462 88.8689 163.811 89.4303 164.016 90.0498C164.222 90.6692 164.278 91.3291 164.18 91.9747L161.306 110.896L160.283 123.807C160.25 124.225 160.062 124.615 159.756 124.9C159.451 125.185 159.05 125.344 158.633 125.345V125.345Z" fill="#922276"/>
<path d="M166.288 79.4667C167.679 78.6335 167.828 76.6235 167.639 74.9677C167.45 73.3119 167.134 71.466 168.071 70.1122C169.19 68.4963 171.438 68.4642 173.355 68.4114C175.271 68.3587 177.604 67.7762 178.101 65.854C178.429 64.584 177.727 63.221 176.72 62.4238C175.713 61.6266 174.452 61.2741 173.228 60.9391C170.488 60.1898 167.658 59.4341 164.853 59.8459C162.074 60.2539 159.562 61.7813 157.859 64.0976C156.157 66.414 155.402 69.333 155.757 72.2232C156.211 75.9202 156.869 77.5346 156.437 79.1647C155.632 82.2009 152.16 84.1514 152.091 87.2998C152.037 89.7625 154.132 91.6623 156.176 92.9127C157.798 93.9046 159.548 94.7462 161.417 94.9784C163.286 95.2106 165.297 94.766 166.69 93.4511C168.485 91.7551 168.929 88.9217 168.414 86.459C167.9 83.9963 166.579 81.8093 165.272 79.6854" fill="#2F2E41"/>
</g>
<g clip-path="url(#clip1)">
<path d="M338.398 104.986C336.155 107.391 333.585 109.468 330.764 111.155C330.699 111.195 330.633 111.232 330.567 111.271L326 107.222C326.047 107.177 326.101 107.127 326.158 107.072C329.561 103.836 346.456 81.2069 347.582 75.6964C347.504 76.1554 348.598 94.1588 338.398 104.986Z" fill="#F0F0F0"/>
<path d="M331.645 111.936C331.558 111.957 331.47 111.976 331.382 111.994L327.956 108.956C328.023 108.933 328.101 108.905 328.19 108.874C329.661 108.353 334.039 106.779 338.397 104.986C343.079 103.059 347.739 100.882 348.742 99.4868C348.527 99.8108 341.904 109.638 331.645 111.936Z" fill="#F0F0F0"/>
<path d="M338.334 45.0946H337.846V31.7061C337.846 30.6885 337.646 29.6809 337.257 28.7408C336.869 27.8006 336.299 26.9464 335.58 26.2268C334.862 25.5073 334.009 24.9365 333.07 24.5471C332.131 24.1577 331.125 23.9572 330.109 23.9572H301.787C300.771 23.9572 299.765 24.1577 298.827 24.5471C297.888 24.9365 297.035 25.5073 296.316 26.2268C295.598 26.9464 295.028 27.8006 294.639 28.7407C294.25 29.6809 294.05 30.6885 294.05 31.7061V105.156C294.05 106.174 294.25 107.182 294.639 108.122C295.028 109.062 295.598 109.916 296.316 110.636C297.035 111.355 297.888 111.926 298.826 112.315C299.765 112.705 300.771 112.905 301.787 112.905H330.109C331.125 112.905 332.131 112.705 333.07 112.315C334.009 111.926 334.862 111.355 335.58 110.636C336.299 109.916 336.869 109.062 337.257 108.122C337.646 107.182 337.846 106.174 337.846 105.156V54.6247H338.334V45.0946Z" fill="#0A191B"/>
<path d="M336.199 31.7594V105.103C336.199 105.863 336.05 106.615 335.76 107.317C335.469 108.019 335.043 108.657 334.507 109.194C333.97 109.732 333.333 110.158 332.632 110.448C331.931 110.739 331.179 110.889 330.421 110.888H301.962C301.204 110.888 300.452 110.739 299.752 110.448C299.051 110.157 298.414 109.731 297.877 109.194C297.341 108.657 296.915 108.019 296.625 107.317C296.335 106.615 296.185 105.862 296.186 105.103V31.7594C296.185 30.9996 296.335 30.2472 296.625 29.5453C296.915 28.8433 297.341 28.2055 297.877 27.6682C298.414 27.131 299.051 26.7048 299.752 26.4141C300.452 26.1233 301.204 25.9737 301.962 25.9738H305.416C305.246 26.3913 305.182 26.8441 305.228 27.2923C305.274 27.7406 305.43 28.1707 305.681 28.5447C305.932 28.9187 306.271 29.2252 306.668 29.4372C307.065 29.6492 307.508 29.7602 307.958 29.7605H324.183C324.633 29.761 325.077 29.6504 325.474 29.4386C325.872 29.2268 326.211 28.9202 326.462 28.546C326.713 28.1718 326.869 27.7414 326.915 27.2928C326.961 26.8442 326.896 26.3912 326.725 25.9738H330.421C331.179 25.9735 331.931 26.123 332.632 26.4136C333.333 26.7042 333.97 27.1303 334.507 27.6676C335.043 28.2049 335.469 28.8428 335.76 29.5448C336.05 30.2469 336.199 30.9994 336.199 31.7594V31.7594Z" fill="white"/>
<path d="M327.347 69.8725H302.333C301.895 69.872 301.475 69.6975 301.165 69.3872C300.855 69.0769 300.681 68.6562 300.68 68.2174V67.3936C300.681 66.9548 300.855 66.5341 301.165 66.2238C301.475 65.9136 301.895 65.739 302.333 65.7385H327.347C327.785 65.739 328.205 65.9136 328.515 66.2238C328.824 66.5341 328.999 66.9548 328.999 67.3936V68.2174C328.999 68.6562 328.824 69.0769 328.515 69.3872C328.205 69.6975 327.785 69.872 327.347 69.8725Z" fill="#F0F0F0"/>
<path d="M327.347 76.9739H302.333C301.895 76.9734 301.475 76.7989 301.165 76.4886C300.855 76.1783 300.681 75.7577 300.68 75.3189V74.495C300.681 74.0562 300.855 73.6355 301.165 73.3253C301.475 73.015 301.895 72.8405 302.333 72.84H327.347C327.785 72.8405 328.205 73.015 328.515 73.3253C328.824 73.6355 328.999 74.0562 328.999 74.495V75.3189C328.999 75.7577 328.824 76.1783 328.515 76.4886C328.205 76.7989 327.785 76.9734 327.347 76.9739V76.9739Z" fill="#F0F0F0"/>
<path d="M328.598 68.2842H303.584C303.124 68.2837 302.683 68.1004 302.358 67.7746C302.033 67.4488 301.85 67.0071 301.849 66.5464V65.7226C301.85 65.2618 302.033 64.8201 302.358 64.4943C302.683 64.1685 303.124 63.9853 303.584 63.9847H328.598C329.058 63.9853 329.499 64.1685 329.825 64.4943C330.15 64.8201 330.333 65.2618 330.333 65.7226V66.5464C330.333 67.0071 330.15 67.4488 329.825 67.7746C329.499 68.1004 329.058 68.2837 328.598 68.2842V68.2842ZM303.584 64.3158C303.212 64.3162 302.855 64.4645 302.592 64.7283C302.328 64.992 302.18 65.3496 302.18 65.7226V66.5464C302.18 66.9194 302.328 67.277 302.592 67.5407C302.855 67.8044 303.212 67.9528 303.584 67.9532H328.598C328.971 67.9528 329.328 67.8044 329.591 67.5407C329.854 67.277 330.003 66.9194 330.003 66.5464V65.7226C330.003 65.3496 329.854 64.992 329.591 64.7283C329.328 64.4645 328.971 64.3162 328.598 64.3158H303.584Z" fill="#3F3D56"/>
<path d="M328.598 75.3857H303.584C303.124 75.3851 302.683 75.2019 302.358 74.8761C302.033 74.5503 301.85 74.1086 301.849 73.6478V72.824C301.85 72.3633 302.033 71.9216 302.358 71.5958C302.683 71.27 303.124 71.0867 303.584 71.0862H328.598C329.058 71.0867 329.499 71.27 329.825 71.5958C330.15 71.9216 330.333 72.3633 330.333 72.824V73.6478C330.333 74.1086 330.15 74.5503 329.825 74.8761C329.499 75.2019 329.058 75.3851 328.598 75.3857V75.3857ZM303.584 71.4172C303.212 71.4176 302.855 71.566 302.592 71.8297C302.328 72.0934 302.18 72.451 302.18 72.824V73.6478C302.18 74.0208 302.328 74.3784 302.592 74.6421C302.855 74.9059 303.212 75.0542 303.584 75.0546H328.598C328.971 75.0542 329.328 74.9059 329.591 74.6421C329.854 74.3784 330.003 74.0208 330.003 73.6478V72.824C330.003 72.451 329.854 72.0934 329.591 71.8297C329.328 71.566 328.971 71.4176 328.598 71.4172H303.584Z" fill="#3F3D56"/>
<path d="M336.199 31.7594V47.7126C333.668 48.3795 331.018 48.456 328.453 47.9362C325.888 47.4165 323.476 46.3143 321.403 44.7145C319.33 43.1147 317.651 41.0599 316.495 38.7082C315.339 36.3565 314.737 33.7706 314.736 31.1495C314.736 30.6816 314.755 30.2186 314.792 29.7605H324.183C324.633 29.761 325.077 29.6504 325.474 29.4386C325.872 29.2268 326.211 28.9202 326.462 28.546C326.713 28.1718 326.869 27.7414 326.915 27.2928C326.961 26.8442 326.896 26.3912 326.725 25.9738H330.421C331.179 25.9735 331.931 26.123 332.632 26.4136C333.333 26.7042 333.97 27.1303 334.507 27.6676C335.043 28.2049 335.469 28.8428 335.76 29.5448C336.05 30.2469 336.199 30.9994 336.199 31.7594V31.7594Z" fill="#F0F0F0"/>
<path d="M310.565 109.892C310.565 110.228 310.552 110.56 310.525 110.888H301.962C301.204 110.888 300.452 110.739 299.752 110.448C299.051 110.157 298.414 109.731 297.877 109.194C297.341 108.657 296.915 108.019 296.625 107.317C296.335 106.615 296.185 105.862 296.186 105.103V97.2577C297.98 97.0239 299.805 97.1759 301.536 97.7036C303.268 98.2314 304.867 99.1227 306.228 100.318C307.588 101.514 308.679 102.986 309.427 104.637C310.175 106.288 310.563 108.079 310.565 109.892H310.565Z" fill="#922276"/>
<path d="M286.91 68.3222L281.366 64.0755L277.125 69.6281L282.67 73.8748L286.91 68.3222Z" fill="#F0F0F0"/>
<path d="M320.257 85.5374H308.381C307.943 85.5369 307.523 85.3624 307.213 85.0521C306.903 84.7418 306.729 84.3211 306.729 83.8823V83.0585C306.729 82.6197 306.903 82.199 307.213 81.8888C307.523 81.5785 307.943 81.4039 308.381 81.4034H320.257C320.695 81.4039 321.115 81.5785 321.425 81.8888C321.734 82.199 321.909 82.6197 321.909 83.0585V83.8823C321.909 84.3211 321.734 84.7418 321.425 85.0521C321.115 85.3624 320.695 85.5369 320.257 85.5374V85.5374Z" fill="#922276"/>
<path d="M321.508 83.9492H309.632C309.172 83.9487 308.731 83.7654 308.406 83.4396C308.08 83.1138 307.897 82.6721 307.897 82.2114V81.3875C307.897 80.9268 308.08 80.4851 308.406 80.1593C308.731 79.8335 309.172 79.6502 309.632 79.6497H321.508C321.968 79.6502 322.409 79.8335 322.734 80.1593C323.059 80.4851 323.242 80.9268 323.243 81.3875V82.2114C323.242 82.6721 323.059 83.1138 322.734 83.4396C322.409 83.7654 321.968 83.9487 321.508 83.9492ZM309.632 79.9807C309.26 79.9811 308.903 80.1295 308.639 80.3932C308.376 80.657 308.228 81.0146 308.227 81.3875V82.2114C308.228 82.5843 308.376 82.9419 308.639 83.2057C308.903 83.4694 309.26 83.6178 309.632 83.6182H321.508C321.88 83.6178 322.237 83.4694 322.5 83.2057C322.764 82.9419 322.912 82.5843 322.912 82.2114V81.3875C322.912 81.0146 322.764 80.657 322.5 80.3932C322.237 80.1295 321.88 79.9811 321.508 79.9807H309.632Z" fill="#3F3D56"/>
</g>
<defs>
<clipPath id="clip0">
<rect width="142" height="137" fill="white" transform="translate(100.897 59.0001)"/>
</clipPath>
<clipPath id="clip1">
<rect width="72" height="90" fill="white" transform="translate(276.897 23.0001)"/>
</clipPath>
</defs>
</svg>
