<svg width="120" height="140" viewBox="0 0 120 140" fill="none" xmlns="http://www.w3.org/2000/svg">
<mask id="mask0" mask-type="alpha" maskUnits="userSpaceOnUse" x="0" y="0" width="120" height="140">
<path fill-rule="evenodd" clip-rule="evenodd" d="M98.8905 119.448C74.9289 142.298 26.6138 150.323 7.83653 121.297C-10.9407 92.2704 6.92612 37.1855 30.875 14.3347C54.8366 -8.51601 89.4829 -3.50955 108.26 25.516C127.037 54.5431 122.839 96.5968 98.8905 119.448Z" fill="white"/>
</mask>
<g mask="url(#mask0)">
<path fill-rule="evenodd" clip-rule="evenodd" d="M5.9734 4.58888C5.9734 6.36671 4.17786 7.80831 2.71109 7.80831C1.24431 7.80831 0.0683594 6.36671 0.0683594 4.58888C0.0683594 2.81106 1.24431 0.237968 2.71109 0.237968C4.17786 0.237968 5.9734 2.81106 5.9734 4.58888Z" fill="#FFB017" fill-opacity="0.09"/>
<path fill-rule="evenodd" clip-rule="evenodd" d="M18.1902 4.58888C18.1902 6.36671 16.3947 7.80831 14.9405 7.80831C13.4738 7.80831 12.2852 6.36671 12.2852 4.58888C12.2852 2.81106 13.4738 0.237968 14.9405 0.237968C16.3947 0.237968 18.1902 2.81106 18.1902 4.58888Z" fill="#FFB017" fill-opacity="0.09"/>
<path fill-rule="evenodd" clip-rule="evenodd" d="M30.407 4.58888C30.407 6.36671 28.6241 7.80831 27.1573 7.80831C25.6905 7.80831 24.502 6.36671 24.502 4.58888C24.502 2.81106 25.6905 0.237968 27.1573 0.237968C28.6241 0.237968 30.407 2.81106 30.407 4.58888Z" fill="#FFB017" fill-opacity="0.09"/>
<path fill-rule="evenodd" clip-rule="evenodd" d="M67.0798 4.58888C67.0798 6.36671 65.2843 7.80831 63.8175 7.80831C62.3507 7.80831 61.1621 6.36671 61.1621 4.58888C61.1621 2.81106 62.3507 0.237968 63.8175 0.237968C65.2843 0.237968 67.0798 2.81106 67.0798 4.58888Z" fill="#FFB017" fill-opacity="0.09"/>
<path fill-rule="evenodd" clip-rule="evenodd" d="M103.737 4.58888C103.737 6.36671 101.942 7.80831 100.475 7.80831C99.0206 7.80831 97.832 6.36671 97.832 4.58888C97.832 2.81106 99.0206 0.237968 100.475 0.237968C101.942 0.237968 103.737 2.81106 103.737 4.58888Z" fill="#FFB017" fill-opacity="0.09"/>
<path fill-rule="evenodd" clip-rule="evenodd" d="M115.944 4.58888C115.944 6.36671 114.161 7.80831 112.694 7.80831C111.228 7.80831 110.039 6.36671 110.039 4.58888C110.039 2.81106 111.228 0.237968 112.694 0.237968C114.161 0.237968 115.944 2.81106 115.944 4.58888Z" fill="#FFB017" fill-opacity="0.09"/>
<path fill-rule="evenodd" clip-rule="evenodd" d="M5.9734 18.2158C5.9734 19.9936 4.17786 21.4352 2.71109 21.4352C1.24431 21.4352 0.0683594 19.9936 0.0683594 18.2158C0.0683594 16.438 1.24431 13.8649 2.71109 13.8649C4.17786 13.8649 5.9734 16.438 5.9734 18.2158Z" fill="#FFB017" fill-opacity="0.09"/>
<path fill-rule="evenodd" clip-rule="evenodd" d="M18.1902 18.2158C18.1902 19.9936 16.3947 21.4352 14.9405 21.4352C13.4738 21.4352 12.2852 19.9936 12.2852 18.2158C12.2852 16.438 13.4738 13.8649 14.9405 13.8649C16.3947 13.8649 18.1902 16.438 18.1902 18.2158Z" fill="#FFB017" fill-opacity="0.09"/>
<path fill-rule="evenodd" clip-rule="evenodd" d="M42.6336 18.2158C42.6336 19.9936 40.838 21.4352 39.3712 21.4352C37.9171 21.4352 36.7285 19.9936 36.7285 18.2158C36.7285 16.438 37.9171 13.8649 39.3712 13.8649C40.838 13.8649 42.6336 16.438 42.6336 18.2158Z" fill="#FFB017" fill-opacity="0.09"/>
<path fill-rule="evenodd" clip-rule="evenodd" d="M54.8504 18.2158C54.8504 19.9936 53.0675 21.4352 51.6007 21.4352C50.1339 21.4352 48.9453 19.9936 48.9453 18.2158C48.9453 16.438 50.1339 13.8649 51.6007 13.8649C53.0675 13.8649 54.8504 16.438 54.8504 18.2158Z" fill="#FFB017" fill-opacity="0.09"/>
<path fill-rule="evenodd" clip-rule="evenodd" d="M67.0798 18.2158C67.0798 19.9936 65.2843 21.4352 63.8175 21.4352C62.3507 21.4352 61.1621 19.9936 61.1621 18.2158C61.1621 16.438 62.3507 13.8649 63.8175 13.8649C65.2843 13.8649 67.0798 16.438 67.0798 18.2158Z" fill="#FFB017" fill-opacity="0.09"/>
<path fill-rule="evenodd" clip-rule="evenodd" d="M115.944 18.2158C115.944 19.9936 114.161 21.4352 112.694 21.4352C111.228 21.4352 110.039 19.9936 110.039 18.2158C110.039 16.438 111.228 13.8649 112.694 13.8649C114.161 13.8649 115.944 16.438 115.944 18.2158Z" fill="#FFB017" fill-opacity="0.09"/>
<path fill-rule="evenodd" clip-rule="evenodd" d="M5.9734 31.8427C5.9734 33.6205 4.17786 35.0621 2.71109 35.0621C1.24431 35.0621 0.0683594 33.6205 0.0683594 31.8427C0.0683594 30.0649 1.24431 27.4918 2.71109 27.4918C4.17786 27.4918 5.9734 30.0649 5.9734 31.8427Z" fill="#FFB017" fill-opacity="0.09"/>
<path fill-rule="evenodd" clip-rule="evenodd" d="M30.407 31.8427C30.407 33.6205 28.6241 35.0621 27.1573 35.0621C25.6905 35.0621 24.502 33.6205 24.502 31.8427C24.502 30.0649 25.6905 27.4918 27.1573 27.4918C28.6241 27.4918 30.407 30.0649 30.407 31.8427Z" fill="#FFB017" fill-opacity="0.09"/>
<path fill-rule="evenodd" clip-rule="evenodd" d="M42.6336 31.8427C42.6336 33.6205 40.838 35.0621 39.3712 35.0621C37.9171 35.0621 36.7285 33.6205 36.7285 31.8427C36.7285 30.0649 37.9171 27.4918 39.3712 27.4918C40.838 27.4918 42.6336 30.0649 42.6336 31.8427Z" fill="#FFB017" fill-opacity="0.09"/>
<path fill-rule="evenodd" clip-rule="evenodd" d="M54.8504 31.8427C54.8504 33.6205 53.0675 35.0621 51.6007 35.0621C50.1339 35.0621 48.9453 33.6205 48.9453 31.8427C48.9453 30.0649 50.1339 27.4918 51.6007 27.4918C53.0675 27.4918 54.8504 30.0649 54.8504 31.8427Z" fill="#FFB017" fill-opacity="0.09"/>
<path fill-rule="evenodd" clip-rule="evenodd" d="M67.0798 31.8427C67.0798 33.6205 65.2843 35.0621 63.8175 35.0621C62.3507 35.0621 61.1621 33.6205 61.1621 31.8427C61.1621 30.0649 62.3507 27.4918 63.8175 27.4918C65.2843 27.4918 67.0798 30.0649 67.0798 31.8427Z" fill="#FFB017" fill-opacity="0.09"/>
<path fill-rule="evenodd" clip-rule="evenodd" d="M79.2937 31.8427C79.2937 33.6205 77.4982 35.0621 76.044 35.0621C74.5773 35.0621 73.3887 33.6205 73.3887 31.8427C73.3887 30.0649 74.5773 27.4918 76.044 27.4918C77.4982 27.4918 79.2937 30.0649 79.2937 31.8427Z" fill="#FFB017" fill-opacity="0.09"/>
<path fill-rule="evenodd" clip-rule="evenodd" d="M91.5105 31.8427C91.5105 33.6205 89.7276 35.0621 88.2608 35.0621C86.7941 35.0621 85.6055 33.6205 85.6055 31.8427C85.6055 30.0649 86.7941 27.4918 88.2608 27.4918C89.7276 27.4918 91.5105 30.0649 91.5105 31.8427Z" fill="#FFB017" fill-opacity="0.09"/>
<path fill-rule="evenodd" clip-rule="evenodd" d="M5.9734 45.4697C5.9734 47.2475 4.17786 48.6891 2.71109 48.6891C1.24431 48.6891 0.0683594 47.2475 0.0683594 45.4697C0.0683594 43.6918 1.24431 41.1187 2.71109 41.1187C4.17786 41.1187 5.9734 43.6918 5.9734 45.4697Z" fill="#FFB017" fill-opacity="0.09"/>
<path fill-rule="evenodd" clip-rule="evenodd" d="M18.1902 45.4697C18.1902 47.2475 16.3947 48.6891 14.9405 48.6891C13.4738 48.6891 12.2852 47.2475 12.2852 45.4697C12.2852 43.6918 13.4738 41.1187 14.9405 41.1187C16.3947 41.1187 18.1902 43.6918 18.1902 45.4697Z" fill="#FFB017" fill-opacity="0.09"/>
<path fill-rule="evenodd" clip-rule="evenodd" d="M30.407 45.4697C30.407 47.2475 28.6241 48.6891 27.1573 48.6891C25.6905 48.6891 24.502 47.2475 24.502 45.4697C24.502 43.6918 25.6905 41.1187 27.1573 41.1187C28.6241 41.1187 30.407 43.6918 30.407 45.4697Z" fill="#FFB017" fill-opacity="0.09"/>
<path fill-rule="evenodd" clip-rule="evenodd" d="M42.6336 45.4697C42.6336 47.2475 40.838 48.6891 39.3712 48.6891C37.9171 48.6891 36.7285 47.2475 36.7285 45.4697C36.7285 43.6918 37.9171 41.1187 39.3712 41.1187C40.838 41.1187 42.6336 43.6918 42.6336 45.4697Z" fill="#FFB017" fill-opacity="0.09"/>
<path fill-rule="evenodd" clip-rule="evenodd" d="M54.8504 45.4697C54.8504 47.2475 53.0675 48.6891 51.6007 48.6891C50.1339 48.6891 48.9453 47.2475 48.9453 45.4697C48.9453 43.6918 50.1339 41.1187 51.6007 41.1187C53.0675 41.1187 54.8504 43.6918 54.8504 45.4697Z" fill="#FFB017" fill-opacity="0.09"/>
<path fill-rule="evenodd" clip-rule="evenodd" d="M67.0798 45.4697C67.0798 47.2475 65.2843 48.6891 63.8175 48.6891C62.3507 48.6891 61.1621 47.2475 61.1621 45.4697C61.1621 43.6918 62.3507 41.1187 63.8175 41.1187C65.2843 41.1187 67.0798 43.6918 67.0798 45.4697Z" fill="#FFB017" fill-opacity="0.09"/>
<path fill-rule="evenodd" clip-rule="evenodd" d="M79.2937 45.4697C79.2937 47.2475 77.4982 48.6891 76.044 48.6891C74.5773 48.6891 73.3887 47.2475 73.3887 45.4697C73.3887 43.6918 74.5773 41.1187 76.044 41.1187C77.4982 41.1187 79.2937 43.6918 79.2937 45.4697Z" fill="#FFB017" fill-opacity="0.09"/>
<path fill-rule="evenodd" clip-rule="evenodd" d="M91.5105 45.4697C91.5105 47.2475 89.7276 48.6891 88.2608 48.6891C86.7941 48.6891 85.6055 47.2475 85.6055 45.4697C85.6055 43.6918 86.7941 41.1187 88.2608 41.1187C89.7276 41.1187 91.5105 43.6918 91.5105 45.4697Z" fill="#FFB017" fill-opacity="0.09"/>
<path fill-rule="evenodd" clip-rule="evenodd" d="M103.737 45.4697C103.737 47.2475 101.942 48.6891 100.475 48.6891C99.0206 48.6891 97.832 47.2475 97.832 45.4697C97.832 43.6918 99.0206 41.1187 100.475 41.1187C101.942 41.1187 103.737 43.6918 103.737 45.4697Z" fill="#FFB017" fill-opacity="0.09"/>
<path fill-rule="evenodd" clip-rule="evenodd" d="M115.944 45.4697C115.944 47.2475 114.161 48.6891 112.694 48.6891C111.228 48.6891 110.039 47.2475 110.039 45.4697C110.039 43.6918 111.228 41.1187 112.694 41.1187C114.161 41.1187 115.944 43.6918 115.944 45.4697Z" fill="#FFB017" fill-opacity="0.09"/>
<path fill-rule="evenodd" clip-rule="evenodd" d="M79.2937 18.7746C79.2937 20.5525 77.4982 21.9941 76.044 21.9941C74.5773 21.9941 73.3887 20.5525 73.3887 18.7746C73.3887 16.9968 74.5773 14.4237 76.044 14.4237C77.4982 14.4237 79.2937 16.9968 79.2937 18.7746Z" fill="#FFB017" fill-opacity="0.09"/>
<path fill-rule="evenodd" clip-rule="evenodd" d="M91.5105 18.7746C91.5105 20.5525 89.7276 21.9941 88.2608 21.9941C86.7941 21.9941 85.6055 20.5525 85.6055 18.7746C85.6055 16.9968 86.7941 14.4237 88.2608 14.4237C89.7276 14.4237 91.5105 16.9968 91.5105 18.7746Z" fill="#FFB017" fill-opacity="0.09"/>
<path fill-rule="evenodd" clip-rule="evenodd" d="M103.737 32.4016C103.737 34.1794 101.942 35.621 100.475 35.621C99.0206 35.621 97.832 34.1794 97.832 32.4016C97.832 30.6237 99.0206 28.0506 100.475 28.0506C101.942 28.0506 103.737 30.6237 103.737 32.4016Z" fill="#FFB017" fill-opacity="0.09"/>
<path fill-rule="evenodd" clip-rule="evenodd" d="M18.1902 59.0966C18.1902 60.8744 16.3947 62.316 14.9405 62.316C13.4738 62.316 12.2852 60.8744 12.2852 59.0966C12.2852 57.3188 13.4738 54.7441 14.9405 54.7441C16.3947 54.7441 18.1902 57.3188 18.1902 59.0966Z" fill="#FFB017" fill-opacity="0.09"/>
<path fill-rule="evenodd" clip-rule="evenodd" d="M30.407 59.0966C30.407 60.8744 28.6241 62.316 27.1573 62.316C25.6905 62.316 24.502 60.8744 24.502 59.0966C24.502 57.3188 25.6905 54.7441 27.1573 54.7441C28.6241 54.7441 30.407 57.3188 30.407 59.0966Z" fill="#FFB017" fill-opacity="0.09"/>
<path fill-rule="evenodd" clip-rule="evenodd" d="M42.6336 59.0966C42.6336 60.8744 40.838 62.316 39.3712 62.316C37.9171 62.316 36.7285 60.8744 36.7285 59.0966C36.7285 57.3188 37.9171 54.7441 39.3712 54.7441C40.838 54.7441 42.6336 57.3188 42.6336 59.0966Z" fill="#FFB017" fill-opacity="0.09"/>
<path fill-rule="evenodd" clip-rule="evenodd" d="M54.8504 59.0966C54.8504 60.8744 53.0675 62.316 51.6007 62.316C50.1339 62.316 48.9453 60.8744 48.9453 59.0966C48.9453 57.3188 50.1339 54.7441 51.6007 54.7441C53.0675 54.7441 54.8504 57.3188 54.8504 59.0966Z" fill="#FFB017" fill-opacity="0.09"/>
<path fill-rule="evenodd" clip-rule="evenodd" d="M67.0798 59.0966C67.0798 60.8744 65.2843 62.316 63.8175 62.316C62.3507 62.316 61.1621 60.8744 61.1621 59.0966C61.1621 57.3188 62.3507 54.7441 63.8175 54.7441C65.2843 54.7441 67.0798 57.3188 67.0798 59.0966Z" fill="#FFB017" fill-opacity="0.09"/>
<path fill-rule="evenodd" clip-rule="evenodd" d="M79.2937 59.0966C79.2937 60.8744 77.4982 62.316 76.044 62.316C74.5773 62.316 73.3887 60.8744 73.3887 59.0966C73.3887 57.3188 74.5773 54.7441 76.044 54.7441C77.4982 54.7441 79.2937 57.3188 79.2937 59.0966Z" fill="#FFB017" fill-opacity="0.09"/>
<path fill-rule="evenodd" clip-rule="evenodd" d="M91.5105 59.0966C91.5105 60.8744 89.7276 62.316 88.2608 62.316C86.7941 62.316 85.6055 60.8744 85.6055 59.0966C85.6055 57.3188 86.7941 54.7441 88.2608 54.7441C89.7276 54.7441 91.5105 57.3188 91.5105 59.0966Z" fill="#FFB017" fill-opacity="0.09"/>
<path fill-rule="evenodd" clip-rule="evenodd" d="M103.737 59.0966C103.737 60.8744 101.942 62.316 100.475 62.316C99.0206 62.316 97.832 60.8744 97.832 59.0966C97.832 57.3188 99.0206 54.7441 100.475 54.7441C101.942 54.7441 103.737 57.3188 103.737 59.0966Z" fill="#FFB017" fill-opacity="0.09"/>
<path fill-rule="evenodd" clip-rule="evenodd" d="M115.944 59.0966C115.944 60.8744 114.161 62.316 112.694 62.316C111.228 62.316 110.039 60.8744 110.039 59.0966C110.039 57.3188 111.228 54.7441 112.694 54.7441C114.161 54.7441 115.944 57.3188 115.944 59.0966Z" fill="#FFB017" fill-opacity="0.09"/>
<path fill-rule="evenodd" clip-rule="evenodd" d="M18.1902 72.7235C18.1902 74.5013 16.3947 75.9429 14.9405 75.9429C13.4738 75.9429 12.2852 74.5013 12.2852 72.7235C12.2852 70.9457 13.4738 68.3711 14.9405 68.3711C16.3947 68.3711 18.1902 70.9457 18.1902 72.7235Z" fill="#FFB017" fill-opacity="0.09"/>
<path fill-rule="evenodd" clip-rule="evenodd" d="M30.407 72.7235C30.407 74.5013 28.6241 75.9429 27.1573 75.9429C25.6905 75.9429 24.502 74.5013 24.502 72.7235C24.502 70.9457 25.6905 68.3711 27.1573 68.3711C28.6241 68.3711 30.407 70.9457 30.407 72.7235Z" fill="#FFB017" fill-opacity="0.09"/>
<path fill-rule="evenodd" clip-rule="evenodd" d="M42.6336 72.7235C42.6336 74.5013 40.838 75.9429 39.3712 75.9429C37.9171 75.9429 36.7285 74.5013 36.7285 72.7235C36.7285 70.9457 37.9171 68.3711 39.3712 68.3711C40.838 68.3711 42.6336 70.9457 42.6336 72.7235Z" fill="#FFB017" fill-opacity="0.09"/>
<path fill-rule="evenodd" clip-rule="evenodd" d="M54.8504 72.7235C54.8504 74.5013 53.0675 75.9429 51.6007 75.9429C50.1339 75.9429 48.9453 74.5013 48.9453 72.7235C48.9453 70.9457 50.1339 68.3711 51.6007 68.3711C53.0675 68.3711 54.8504 70.9457 54.8504 72.7235Z" fill="#FFB017" fill-opacity="0.09"/>
<path fill-rule="evenodd" clip-rule="evenodd" d="M67.0798 72.7235C67.0798 74.5013 65.2843 75.9429 63.8175 75.9429C62.3507 75.9429 61.1621 74.5013 61.1621 72.7235C61.1621 70.9457 62.3507 68.3711 63.8175 68.3711C65.2843 68.3711 67.0798 70.9457 67.0798 72.7235Z" fill="#FFB017" fill-opacity="0.09"/>
<path fill-rule="evenodd" clip-rule="evenodd" d="M79.2937 72.7235C79.2937 74.5013 77.4982 75.9429 76.044 75.9429C74.5773 75.9429 73.3887 74.5013 73.3887 72.7235C73.3887 70.9457 74.5773 68.3711 76.044 68.3711C77.4982 68.3711 79.2937 70.9457 79.2937 72.7235Z" fill="#FFB017" fill-opacity="0.09"/>
<path fill-rule="evenodd" clip-rule="evenodd" d="M91.5105 72.7235C91.5105 74.5013 89.7276 75.9429 88.2608 75.9429C86.7941 75.9429 85.6055 74.5013 85.6055 72.7235C85.6055 70.9457 86.7941 68.3711 88.2608 68.3711C89.7276 68.3711 91.5105 70.9457 91.5105 72.7235Z" fill="#FFB017" fill-opacity="0.09"/>
<path fill-rule="evenodd" clip-rule="evenodd" d="M103.737 72.7235C103.737 74.5013 101.942 75.9429 100.475 75.9429C99.0206 75.9429 97.832 74.5013 97.832 72.7235C97.832 70.9457 99.0206 68.3711 100.475 68.3711C101.942 68.3711 103.737 70.9457 103.737 72.7235Z" fill="#FFB017" fill-opacity="0.09"/>
<path fill-rule="evenodd" clip-rule="evenodd" d="M115.944 72.7235C115.944 74.5013 114.161 75.9429 112.694 75.9429C111.228 75.9429 110.039 74.5013 110.039 72.7235C110.039 70.9457 111.228 68.3711 112.694 68.3711C114.161 68.3711 115.944 70.9457 115.944 72.7235Z" fill="#FFB017" fill-opacity="0.09"/>
<path fill-rule="evenodd" clip-rule="evenodd" d="M5.9734 86.3504C5.9734 88.1283 4.17786 89.5699 2.71109 89.5699C1.24431 89.5699 0.0683594 88.1283 0.0683594 86.3504C0.0683594 84.5726 1.24431 81.998 2.71109 81.998C4.17786 81.998 5.9734 84.5726 5.9734 86.3504Z" fill="#FFB017" fill-opacity="0.09"/>
<path fill-rule="evenodd" clip-rule="evenodd" d="M18.1902 86.3504C18.1902 88.1283 16.3947 89.5699 14.9405 89.5699C13.4738 89.5699 12.2852 88.1283 12.2852 86.3504C12.2852 84.5726 13.4738 81.998 14.9405 81.998C16.3947 81.998 18.1902 84.5726 18.1902 86.3504Z" fill="#FFB017" fill-opacity="0.09"/>
<path fill-rule="evenodd" clip-rule="evenodd" d="M30.407 86.3504C30.407 88.1283 28.6241 89.5699 27.1573 89.5699C25.6905 89.5699 24.502 88.1283 24.502 86.3504C24.502 84.5726 25.6905 81.998 27.1573 81.998C28.6241 81.998 30.407 84.5726 30.407 86.3504Z" fill="#FFB017" fill-opacity="0.09"/>
<path fill-rule="evenodd" clip-rule="evenodd" d="M42.6336 86.3504C42.6336 88.1283 40.838 89.5699 39.3712 89.5699C37.9171 89.5699 36.7285 88.1283 36.7285 86.3504C36.7285 84.5726 37.9171 81.998 39.3712 81.998C40.838 81.998 42.6336 84.5726 42.6336 86.3504Z" fill="#FFB017" fill-opacity="0.09"/>
<path fill-rule="evenodd" clip-rule="evenodd" d="M54.8504 86.3504C54.8504 88.1283 53.0675 89.5699 51.6007 89.5699C50.1339 89.5699 48.9453 88.1283 48.9453 86.3504C48.9453 84.5726 50.1339 81.998 51.6007 81.998C53.0675 81.998 54.8504 84.5726 54.8504 86.3504Z" fill="#FFB017" fill-opacity="0.09"/>
<path fill-rule="evenodd" clip-rule="evenodd" d="M67.0798 86.3504C67.0798 88.1283 65.2843 89.5699 63.8175 89.5699C62.3507 89.5699 61.1621 88.1283 61.1621 86.3504C61.1621 84.5726 62.3507 81.998 63.8175 81.998C65.2843 81.998 67.0798 84.5726 67.0798 86.3504Z" fill="#FFB017" fill-opacity="0.09"/>
<path fill-rule="evenodd" clip-rule="evenodd" d="M79.2937 86.3504C79.2937 88.1283 77.4982 89.5699 76.044 89.5699C74.5773 89.5699 73.3887 88.1283 73.3887 86.3504C73.3887 84.5726 74.5773 81.998 76.044 81.998C77.4982 81.998 79.2937 84.5726 79.2937 86.3504Z" fill="#FFB017" fill-opacity="0.09"/>
<path fill-rule="evenodd" clip-rule="evenodd" d="M91.5105 86.3504C91.5105 88.1283 89.7276 89.5699 88.2608 89.5699C86.7941 89.5699 85.6055 88.1283 85.6055 86.3504C85.6055 84.5726 86.7941 81.998 88.2608 81.998C89.7276 81.998 91.5105 84.5726 91.5105 86.3504Z" fill="#FFB017" fill-opacity="0.09"/>
<path fill-rule="evenodd" clip-rule="evenodd" d="M103.737 86.3504C103.737 88.1283 101.942 89.5699 100.475 89.5699C99.0206 89.5699 97.832 88.1283 97.832 86.3504C97.832 84.5726 99.0206 81.998 100.475 81.998C101.942 81.998 103.737 84.5726 103.737 86.3504Z" fill="#FFB017" fill-opacity="0.09"/>
<path fill-rule="evenodd" clip-rule="evenodd" d="M115.944 86.3504C115.944 88.1283 114.161 89.5699 112.694 89.5699C111.228 89.5699 110.039 88.1283 110.039 86.3504C110.039 84.5726 111.228 81.998 112.694 81.998C114.161 81.998 115.944 84.5726 115.944 86.3504Z" fill="#FFB017" fill-opacity="0.09"/>
<path fill-rule="evenodd" clip-rule="evenodd" d="M18.1902 99.9774C18.1902 101.755 16.3947 103.197 14.9405 103.197C13.4738 103.197 12.2852 101.755 12.2852 99.9774C12.2852 98.1995 13.4738 95.6249 14.9405 95.6249C16.3947 95.6249 18.1902 98.1995 18.1902 99.9774Z" fill="#FFB017" fill-opacity="0.09"/>
<path fill-rule="evenodd" clip-rule="evenodd" d="M30.407 99.9774C30.407 101.755 28.6241 103.197 27.1573 103.197C25.6905 103.197 24.502 101.755 24.502 99.9774C24.502 98.1995 25.6905 95.6249 27.1573 95.6249C28.6241 95.6249 30.407 98.1995 30.407 99.9774Z" fill="#FFB017" fill-opacity="0.09"/>
<path fill-rule="evenodd" clip-rule="evenodd" d="M42.6336 99.9774C42.6336 101.755 40.838 103.197 39.3712 103.197C37.9171 103.197 36.7285 101.755 36.7285 99.9774C36.7285 98.1995 37.9171 95.6249 39.3712 95.6249C40.838 95.6249 42.6336 98.1995 42.6336 99.9774Z" fill="#FFB017" fill-opacity="0.09"/>
<path fill-rule="evenodd" clip-rule="evenodd" d="M54.8504 99.9774C54.8504 101.755 53.0675 103.197 51.6007 103.197C50.1339 103.197 48.9453 101.755 48.9453 99.9774C48.9453 98.1995 50.1339 95.6249 51.6007 95.6249C53.0675 95.6249 54.8504 98.1995 54.8504 99.9774Z" fill="#FFB017" fill-opacity="0.09"/>
<path fill-rule="evenodd" clip-rule="evenodd" d="M67.0798 99.9774C67.0798 101.755 65.2843 103.197 63.8175 103.197C62.3507 103.197 61.1621 101.755 61.1621 99.9774C61.1621 98.1995 62.3507 95.6249 63.8175 95.6249C65.2843 95.6249 67.0798 98.1995 67.0798 99.9774Z" fill="#FFB017" fill-opacity="0.09"/>
<path fill-rule="evenodd" clip-rule="evenodd" d="M79.2937 99.9774C79.2937 101.755 77.4982 103.197 76.044 103.197C74.5773 103.197 73.3887 101.755 73.3887 99.9774C73.3887 98.1995 74.5773 95.6249 76.044 95.6249C77.4982 95.6249 79.2937 98.1995 79.2937 99.9774Z" fill="#FFB017" fill-opacity="0.09"/>
<path fill-rule="evenodd" clip-rule="evenodd" d="M91.5105 99.9774C91.5105 101.755 89.7276 103.197 88.2608 103.197C86.7941 103.197 85.6055 101.755 85.6055 99.9774C85.6055 98.1995 86.7941 95.6249 88.2608 95.6249C89.7276 95.6249 91.5105 98.1995 91.5105 99.9774Z" fill="#FFB017" fill-opacity="0.09"/>
<path fill-rule="evenodd" clip-rule="evenodd" d="M103.737 99.9774C103.737 101.755 101.942 103.197 100.475 103.197C99.0206 103.197 97.832 101.755 97.832 99.9774C97.832 98.1995 99.0206 95.6249 100.475 95.6249C101.942 95.6249 103.737 98.1995 103.737 99.9774Z" fill="#FFB017" fill-opacity="0.09"/>
<path fill-rule="evenodd" clip-rule="evenodd" d="M18.1902 113.603C18.1902 115.381 16.3947 116.822 14.9405 116.822C13.4738 116.822 12.2852 115.381 12.2852 113.603C12.2852 111.825 13.4738 109.25 14.9405 109.25C16.3947 109.25 18.1902 111.825 18.1902 113.603Z" fill="#FFB017" fill-opacity="0.09"/>
<path fill-rule="evenodd" clip-rule="evenodd" d="M30.407 113.603C30.407 115.381 28.6241 116.822 27.1573 116.822C25.6905 116.822 24.502 115.381 24.502 113.603C24.502 111.825 25.6905 109.25 27.1573 109.25C28.6241 109.25 30.407 111.825 30.407 113.603Z" fill="#FFB017" fill-opacity="0.09"/>
<path fill-rule="evenodd" clip-rule="evenodd" d="M42.6336 113.603C42.6336 115.381 40.838 116.822 39.3712 116.822C37.9171 116.822 36.7285 115.381 36.7285 113.603C36.7285 111.825 37.9171 109.25 39.3712 109.25C40.838 109.25 42.6336 111.825 42.6336 113.603Z" fill="#FFB017" fill-opacity="0.09"/>
<path fill-rule="evenodd" clip-rule="evenodd" d="M54.8504 113.603C54.8504 115.381 53.0675 116.822 51.6007 116.822C50.1339 116.822 48.9453 115.381 48.9453 113.603C48.9453 111.825 50.1339 109.25 51.6007 109.25C53.0675 109.25 54.8504 111.825 54.8504 113.603Z" fill="#FFB017" fill-opacity="0.09"/>
<path fill-rule="evenodd" clip-rule="evenodd" d="M67.0798 113.603C67.0798 115.381 65.2843 116.822 63.8175 116.822C62.3507 116.822 61.1621 115.381 61.1621 113.603C61.1621 111.825 62.3507 109.25 63.8175 109.25C65.2843 109.25 67.0798 111.825 67.0798 113.603Z" fill="#FFB017" fill-opacity="0.09"/>
<path fill-rule="evenodd" clip-rule="evenodd" d="M79.2937 113.603C79.2937 115.381 77.4982 116.822 76.044 116.822C74.5773 116.822 73.3887 115.381 73.3887 113.603C73.3887 111.825 74.5773 109.25 76.044 109.25C77.4982 109.25 79.2937 111.825 79.2937 113.603Z" fill="#FFB017" fill-opacity="0.09"/>
<path fill-rule="evenodd" clip-rule="evenodd" d="M91.5105 113.603C91.5105 115.381 89.7276 116.822 88.2608 116.822C86.7941 116.822 85.6055 115.381 85.6055 113.603C85.6055 111.825 86.7941 109.25 88.2608 109.25C89.7276 109.25 91.5105 111.825 91.5105 113.603Z" fill="#FFB017" fill-opacity="0.09"/>
<path fill-rule="evenodd" clip-rule="evenodd" d="M5.9734 127.23C5.9734 129.008 4.17786 130.448 2.71109 130.448C1.24431 130.448 0.0683594 129.008 0.0683594 127.23C0.0683594 125.452 1.24431 122.877 2.71109 122.877C4.17786 122.877 5.9734 125.452 5.9734 127.23Z" fill="#FFB017" fill-opacity="0.09"/>
<path fill-rule="evenodd" clip-rule="evenodd" d="M30.407 127.23C30.407 129.008 28.6241 130.448 27.1573 130.448C25.6905 130.448 24.502 129.008 24.502 127.23C24.502 125.452 25.6905 122.877 27.1573 122.877C28.6241 122.877 30.407 125.452 30.407 127.23Z" fill="#FFB017" fill-opacity="0.09"/>
<path fill-rule="evenodd" clip-rule="evenodd" d="M42.6336 127.23C42.6336 129.008 40.838 130.448 39.3712 130.448C37.9171 130.448 36.7285 129.008 36.7285 127.23C36.7285 125.452 37.9171 122.877 39.3712 122.877C40.838 122.877 42.6336 125.452 42.6336 127.23Z" fill="#FFB017" fill-opacity="0.09"/>
<path fill-rule="evenodd" clip-rule="evenodd" d="M54.8504 127.23C54.8504 129.008 53.0675 130.448 51.6007 130.448C50.1339 130.448 48.9453 129.008 48.9453 127.23C48.9453 125.452 50.1339 122.877 51.6007 122.877C53.0675 122.877 54.8504 125.452 54.8504 127.23Z" fill="#FFB017" fill-opacity="0.09"/>
<path fill-rule="evenodd" clip-rule="evenodd" d="M67.0798 127.23C67.0798 129.008 65.2843 130.448 63.8175 130.448C62.3507 130.448 61.1621 129.008 61.1621 127.23C61.1621 125.452 62.3507 122.877 63.8175 122.877C65.2843 122.877 67.0798 125.452 67.0798 127.23Z" fill="#FFB017" fill-opacity="0.09"/>
<path fill-rule="evenodd" clip-rule="evenodd" d="M79.2937 127.23C79.2937 129.008 77.4982 130.448 76.044 130.448C74.5773 130.448 73.3887 129.008 73.3887 127.23C73.3887 125.452 74.5773 122.877 76.044 122.877C77.4982 122.877 79.2937 125.452 79.2937 127.23Z" fill="#FFB017" fill-opacity="0.09"/>
<path fill-rule="evenodd" clip-rule="evenodd" d="M115.944 127.23C115.944 129.008 114.161 130.448 112.694 130.448C111.228 130.448 110.039 129.008 110.039 127.23C110.039 125.452 111.228 122.877 112.694 122.877C114.161 122.877 115.944 125.452 115.944 127.23Z" fill="#FFB017" fill-opacity="0.09"/>
<path fill-rule="evenodd" clip-rule="evenodd" d="M5.9734 140.857C5.9734 142.634 4.17786 144.074 2.71109 144.074C1.24431 144.074 0.0683594 142.634 0.0683594 140.857C0.0683594 139.079 1.24431 136.504 2.71109 136.504C4.17786 136.504 5.9734 139.079 5.9734 140.857Z" fill="#FFB017" fill-opacity="0.09"/>
<path fill-rule="evenodd" clip-rule="evenodd" d="M18.1902 140.857C18.1902 142.634 16.3947 144.074 14.9405 144.074C13.4738 144.074 12.2852 142.634 12.2852 140.857C12.2852 139.079 13.4738 136.504 14.9405 136.504C16.3947 136.504 18.1902 139.079 18.1902 140.857Z" fill="#FFB017" fill-opacity="0.09"/>
<path fill-rule="evenodd" clip-rule="evenodd" d="M30.407 140.857C30.407 142.634 28.6241 144.074 27.1573 144.074C25.6905 144.074 24.502 142.634 24.502 140.857C24.502 139.079 25.6905 136.504 27.1573 136.504C28.6241 136.504 30.407 139.079 30.407 140.857Z" fill="#FFB017" fill-opacity="0.09"/>
<path fill-rule="evenodd" clip-rule="evenodd" d="M79.2937 140.857C79.2937 142.634 77.4982 144.074 76.044 144.074C74.5773 144.074 73.3887 142.634 73.3887 140.857C73.3887 139.079 74.5773 136.504 76.044 136.504C77.4982 136.504 79.2937 139.079 79.2937 140.857Z" fill="#FFB017" fill-opacity="0.09"/>
<path fill-rule="evenodd" clip-rule="evenodd" d="M103.737 140.857C103.737 142.634 101.942 144.074 100.475 144.074C99.0206 144.074 97.832 142.634 97.832 140.857C97.832 139.079 99.0206 136.504 100.475 136.504C101.942 136.504 103.737 139.079 103.737 140.857Z" fill="#FFB017" fill-opacity="0.09"/>
<path fill-rule="evenodd" clip-rule="evenodd" d="M115.944 140.857C115.944 142.634 114.161 144.074 112.694 144.074C111.228 144.074 110.039 142.634 110.039 140.857C110.039 139.079 111.228 136.504 112.694 136.504C114.161 136.504 115.944 139.079 115.944 140.857Z" fill="#FFB017" fill-opacity="0.09"/>
<path fill-rule="evenodd" clip-rule="evenodd" d="M115.944 112.616C115.944 114.393 114.161 115.835 112.694 115.835C111.228 115.835 110.039 114.393 110.039 112.616C110.039 110.838 111.228 108.265 112.694 108.265C114.161 108.265 115.944 110.838 115.944 112.616Z" fill="#FFB017" fill-opacity="0.09"/>
<path fill-rule="evenodd" clip-rule="evenodd" d="M103.737 126.241C103.737 128.019 101.942 129.46 100.475 129.46C99.0206 129.46 97.832 128.019 97.832 126.241C97.832 124.463 99.0206 121.89 100.475 121.89C101.942 121.89 103.737 124.463 103.737 126.241Z" fill="#FFB017" fill-opacity="0.09"/>
<path fill-rule="evenodd" clip-rule="evenodd" d="M91.5105 139.868C91.5105 141.646 89.7276 143.087 88.2608 143.087C86.7941 143.087 85.6055 141.646 85.6055 139.868C85.6055 138.09 86.7941 135.517 88.2608 135.517C89.7276 135.517 91.5105 138.09 91.5105 139.868Z" fill="#FFB017" fill-opacity="0.09"/>
</g>
</svg>
