<svg width="311" height="346" viewBox="0 0 311 346" fill="none" xmlns="http://www.w3.org/2000/svg">
<path d="M88.306 48.7851C54.2794 68.1284 13.6995 84.3768 3.11341 112.231C-7.72469 139.828 11.6831 178.772 31.3429 210.753C51.0027 242.476 70.9146 266.978 95.6154 289.416C120.064 311.854 149.05 332.229 185.093 342.03C220.884 351.831 263.984 351.057 287.173 328.361C310.613 305.407 314.394 260.53 308.597 224.938C303.052 189.605 287.929 163.556 282.636 130.285C277.091 97.2724 281.627 57.2961 265.748 31.7629C249.869 6.48766 214.078 -4.34461 182.068 1.58735C150.31 7.26139 122.585 29.4418 88.306 48.7851Z" fill="#8ABFC7"/>
</svg>
