<svg width="26" height="26" viewBox="0 0 26 26" fill="none" xmlns="http://www.w3.org/2000/svg">
<rect x="0.5" y="0.5" width="25" height="25" rx="5.5" stroke="#73105A"/>
<path d="M6.48345 6.54376C6.19935 6.84283 6.28405 7.3888 6.67167 7.75702L17.9479 18.4689C18.3356 18.8371 18.8852 18.8937 19.1693 18.5946C19.4534 18.2955 19.3687 17.7496 18.981 17.3813L7.70477 6.66949C7.31715 6.30127 6.76755 6.24469 6.48345 6.54376Z" fill="#73105A"/>
<path d="M19.5165 6.54376C19.8006 6.84283 19.7159 7.3888 19.3283 7.75702L8.05205 18.4689C7.66443 18.8371 7.11484 18.8937 6.83074 18.5946C6.54664 18.2955 6.63134 17.7496 7.01896 17.3813L18.2952 6.66949C18.6829 6.30127 19.2324 6.24469 19.5165 6.54376Z" fill="#73105A"/>
</svg>
