<svg width="451" height="142" viewBox="0 0 451 142" fill="none" xmlns="http://www.w3.org/2000/svg">
<path d="M19.5 23.88C23.94 23.88 27.82 24.76 31.14 26.52C34.46 28.28 37.02 30.76 38.82 33.96C40.66 37.12 41.58 40.78 41.58 44.94C41.58 49.06 40.66 52.72 38.82 55.92C37.02 59.12 34.44 61.6 31.08 63.36C27.76 65.12 23.9 66 19.5 66H3.72V23.88H19.5ZM18.84 57.12C22.72 57.12 25.74 56.06 27.9 53.94C30.06 51.82 31.14 48.82 31.14 44.94C31.14 41.06 30.06 38.04 27.9 35.88C25.74 33.72 22.72 32.64 18.84 32.64H13.98V57.12H18.84ZM52.4738 29.04C50.6738 29.04 49.1938 28.52 48.0338 27.48C46.9138 26.4 46.3538 25.08 46.3538 23.52C46.3538 21.92 46.9138 20.6 48.0338 19.56C49.1938 18.48 50.6738 17.94 52.4738 17.94C54.2338 17.94 55.6738 18.48 56.7938 19.56C57.9538 20.6 58.5338 21.92 58.5338 23.52C58.5338 25.08 57.9538 26.4 56.7938 27.48C55.6738 28.52 54.2338 29.04 52.4738 29.04ZM57.5738 32.52V66H47.3138V32.52H57.5738ZM62.9691 49.2C62.9691 45.76 63.6091 42.74 64.8891 40.14C66.2091 37.54 67.9891 35.54 70.2291 34.14C72.4691 32.74 74.9691 32.04 77.7291 32.04C80.0891 32.04 82.1491 32.52 83.9091 33.48C85.7091 34.44 87.0891 35.7 88.0491 37.26V32.52H98.3091V66H88.0491V61.26C87.0491 62.82 85.6491 64.08 83.8491 65.04C82.0891 66 80.0291 66.48 77.6691 66.48C74.9491 66.48 72.4691 65.78 70.2291 64.38C67.9891 62.94 66.2091 60.92 64.8891 58.32C63.6091 55.68 62.9691 52.64 62.9691 49.2ZM88.0491 49.26C88.0491 46.7 87.3291 44.68 85.8891 43.2C84.4891 41.72 82.7691 40.98 80.7291 40.98C78.6891 40.98 76.9491 41.72 75.5091 43.2C74.1091 44.64 73.4091 46.64 73.4091 49.2C73.4091 51.76 74.1091 53.8 75.5091 55.32C76.9491 56.8 78.6891 57.54 80.7291 57.54C82.7691 57.54 84.4891 56.8 85.8891 55.32C87.3291 53.84 88.0491 51.82 88.0491 49.26ZM126.132 32.16C130.052 32.16 133.172 33.44 135.492 36C137.852 38.52 139.032 42 139.032 46.44V66H128.832V47.82C128.832 45.58 128.252 43.84 127.092 42.6C125.932 41.36 124.372 40.74 122.412 40.74C120.452 40.74 118.892 41.36 117.732 42.6C116.572 43.84 115.992 45.58 115.992 47.82V66H105.732V32.52H115.992V36.96C117.032 35.48 118.432 34.32 120.192 33.48C121.952 32.6 123.932 32.16 126.132 32.16ZM144.121 49.2C144.121 45.76 144.761 42.74 146.041 40.14C147.361 37.54 149.141 35.54 151.381 34.14C153.621 32.74 156.121 32.04 158.881 32.04C161.241 32.04 163.301 32.52 165.061 33.48C166.861 34.44 168.241 35.7 169.201 37.26V32.52H179.461V66H169.201V61.26C168.201 62.82 166.801 64.08 165.001 65.04C163.241 66 161.181 66.48 158.821 66.48C156.101 66.48 153.621 65.78 151.381 64.38C149.141 62.94 147.361 60.92 146.041 58.32C144.761 55.68 144.121 52.64 144.121 49.2ZM169.201 49.26C169.201 46.7 168.481 44.68 167.041 43.2C165.641 41.72 163.921 40.98 161.881 40.98C159.841 40.98 158.101 41.72 156.661 43.2C155.261 44.64 154.561 46.64 154.561 49.2C154.561 51.76 155.261 53.8 156.661 55.32C158.101 56.8 159.841 57.54 161.881 57.54C163.921 57.54 165.641 56.8 167.041 55.32C168.481 53.84 169.201 51.82 169.201 49.26ZM247.299 23.88V66H237.039V40.74L227.619 66H219.339L209.859 40.68V66H199.599V23.88H211.719L223.539 53.04L235.239 23.88H247.299ZM252.637 49.2C252.637 45.76 253.277 42.74 254.557 40.14C255.877 37.54 257.657 35.54 259.897 34.14C262.137 32.74 264.637 32.04 267.397 32.04C269.757 32.04 271.817 32.52 273.577 33.48C275.377 34.44 276.757 35.7 277.717 37.26V32.52H287.977V66H277.717V61.26C276.717 62.82 275.317 64.08 273.517 65.04C271.757 66 269.697 66.48 267.337 66.48C264.617 66.48 262.137 65.78 259.897 64.38C257.657 62.94 255.877 60.92 254.557 58.32C253.277 55.68 252.637 52.64 252.637 49.2ZM277.717 49.26C277.717 46.7 276.997 44.68 275.557 43.2C274.157 41.72 272.437 40.98 270.397 40.98C268.357 40.98 266.617 41.72 265.177 43.2C263.777 44.64 263.077 46.64 263.077 49.2C263.077 51.76 263.777 53.8 265.177 55.32C266.617 56.8 268.357 57.54 270.397 57.54C272.437 57.54 274.157 56.8 275.557 55.32C276.997 53.84 277.717 51.82 277.717 49.26ZM305.66 38.1C306.86 36.26 308.36 34.82 310.16 33.78C311.96 32.7 313.96 32.16 316.16 32.16V43.02H313.34C310.78 43.02 308.86 43.58 307.58 44.7C306.3 45.78 305.66 47.7 305.66 50.46V66H295.4V32.52H305.66V38.1ZM339.724 57.3V66H334.504C330.784 66 327.884 65.1 325.804 63.3C323.724 61.46 322.684 58.48 322.684 54.36V41.04H318.604V32.52H322.684V24.36H332.944V32.52H339.664V41.04H332.944V54.48C332.944 55.48 333.184 56.2 333.664 56.64C334.144 57.08 334.944 57.3 336.064 57.3H339.724ZM350.599 29.04C348.799 29.04 347.319 28.52 346.159 27.48C345.039 26.4 344.479 25.08 344.479 23.52C344.479 21.92 345.039 20.6 346.159 19.56C347.319 18.48 348.799 17.94 350.599 17.94C352.359 17.94 353.799 18.48 354.919 19.56C356.079 20.6 356.659 21.92 356.659 23.52C356.659 25.08 356.079 26.4 354.919 27.48C353.799 28.52 352.359 29.04 350.599 29.04ZM355.699 32.52V66H345.439V32.52H355.699ZM383.534 32.16C387.454 32.16 390.574 33.44 392.894 36C395.254 38.52 396.434 42 396.434 46.44V66H386.234V47.82C386.234 45.58 385.654 43.84 384.494 42.6C383.334 41.36 381.774 40.74 379.814 40.74C377.854 40.74 376.294 41.36 375.134 42.6C373.974 43.84 373.394 45.58 373.394 47.82V66H363.134V32.52H373.394V36.96C374.434 35.48 375.834 34.32 377.594 33.48C379.354 32.6 381.334 32.16 383.534 32.16ZM401.524 49.2C401.524 45.76 402.164 42.74 403.444 40.14C404.764 37.54 406.544 35.54 408.784 34.14C411.024 32.74 413.524 32.04 416.284 32.04C418.644 32.04 420.704 32.52 422.464 33.48C424.264 34.44 425.644 35.7 426.604 37.26V32.52H436.864V66H426.604V61.26C425.604 62.82 424.204 64.08 422.404 65.04C420.644 66 418.584 66.48 416.224 66.48C413.504 66.48 411.024 65.78 408.784 64.38C406.544 62.94 404.764 60.92 403.444 58.32C402.164 55.68 401.524 52.64 401.524 49.2ZM426.604 49.26C426.604 46.7 425.884 44.68 424.444 43.2C423.044 41.72 421.324 40.98 419.284 40.98C417.244 40.98 415.504 41.72 414.064 43.2C412.664 44.64 411.964 46.64 411.964 49.2C411.964 51.76 412.664 53.8 414.064 55.32C415.504 56.8 417.244 57.54 419.284 57.54C421.324 57.54 423.044 56.8 424.444 55.32C425.884 53.84 426.604 51.82 426.604 49.26Z" fill="url(#paint0_radial)"/>
<path d="M20.44 141.49C17.22 141.49 14.3733 140.93 11.9 139.81C9.47333 138.69 7.56 137.127 6.16 135.12C4.76 133.113 4.01333 130.873 3.92 128.4H9.1C9.33333 130.78 10.3833 132.88 12.25 134.7C14.1167 136.473 16.8467 137.36 20.44 137.36C23.7533 137.36 26.3667 136.52 28.28 134.84C30.24 133.113 31.22 130.943 31.22 128.33C31.22 126.23 30.6833 124.55 29.61 123.29C28.5367 121.983 27.2067 121.027 25.62 120.42C24.0333 119.767 21.84 119.067 19.04 118.32C15.7733 117.433 13.1833 116.57 11.27 115.73C9.35667 114.89 7.72333 113.583 6.37 111.81C5.01667 110.037 4.34 107.633 4.34 104.6C4.34 102.08 4.99333 99.84 6.3 97.88C7.60667 95.8733 9.45 94.31 11.83 93.19C14.21 92.07 16.94 91.51 20.02 91.51C24.5467 91.51 28.1867 92.63 30.94 94.87C33.74 97.0633 35.35 99.91 35.77 103.41H30.45C30.1233 101.403 29.0267 99.63 27.16 98.09C25.2933 96.5033 22.7733 95.71 19.6 95.71C16.66 95.71 14.21 96.5033 12.25 98.09C10.29 99.63 9.31 101.753 9.31 104.46C9.31 106.513 9.84667 108.17 10.92 109.43C11.9933 110.69 13.3233 111.647 14.91 112.3C16.5433 112.953 18.7367 113.653 21.49 114.4C24.6633 115.287 27.23 116.173 29.19 117.06C31.15 117.9 32.8067 119.207 34.16 120.98C35.5133 122.753 36.19 125.133 36.19 128.12C36.19 130.407 35.5833 132.577 34.37 134.63C33.1567 136.683 31.36 138.34 28.98 139.6C26.6 140.86 23.7533 141.49 20.44 141.49ZM88.6386 119.93C88.6386 121.61 88.5919 122.893 88.4986 123.78H56.7886C56.9286 126.673 57.6286 129.147 58.8886 131.2C60.1486 133.253 61.8053 134.817 63.8586 135.89C65.9119 136.917 68.1519 137.43 70.5786 137.43C73.7519 137.43 76.4119 136.66 78.5586 135.12C80.7519 133.58 82.1986 131.503 82.8986 128.89H88.0786C87.1453 132.623 85.1386 135.68 82.0586 138.06C79.0253 140.393 75.1986 141.56 70.5786 141.56C66.9853 141.56 63.7653 140.767 60.9186 139.18C58.0719 137.547 55.8319 135.26 54.1986 132.32C52.6119 129.333 51.8186 125.857 51.8186 121.89C51.8186 117.923 52.6119 114.447 54.1986 111.46C55.7853 108.473 58.0019 106.187 60.8486 104.6C63.6953 103.013 66.9386 102.22 70.5786 102.22C74.2186 102.22 77.3919 103.013 80.0986 104.6C82.8519 106.187 84.9519 108.333 86.3986 111.04C87.8919 113.7 88.6386 116.663 88.6386 119.93ZM83.6686 119.79C83.7153 116.943 83.1319 114.517 81.9186 112.51C80.7519 110.503 79.1419 108.987 77.0886 107.96C75.0353 106.933 72.7953 106.42 70.3686 106.42C66.7286 106.42 63.6253 107.587 61.0586 109.92C58.4919 112.253 57.0686 115.543 56.7886 119.79H83.6686ZM108.454 95.57C107.474 95.57 106.634 95.22 105.934 94.52C105.234 93.82 104.884 92.9567 104.884 91.93C104.884 90.9033 105.234 90.0633 105.934 89.41C106.634 88.71 107.474 88.36 108.454 88.36C109.434 88.36 110.274 88.71 110.974 89.41C111.674 90.0633 112.024 90.9033 112.024 91.93C112.024 92.9567 111.674 93.82 110.974 94.52C110.274 95.22 109.434 95.57 108.454 95.57ZM110.904 102.78V141H106.004V102.78H110.904ZM128.16 121.89C128.16 117.923 128.953 114.47 130.54 111.53C132.126 108.543 134.32 106.257 137.12 104.67C139.92 103.037 143.116 102.22 146.71 102.22C151.423 102.22 155.296 103.387 158.33 105.72C161.41 108.053 163.393 111.227 164.28 115.24H159.03C158.376 112.487 156.953 110.34 154.76 108.8C152.613 107.213 149.93 106.42 146.71 106.42C144.143 106.42 141.833 107.003 139.78 108.17C137.726 109.337 136.093 111.087 134.88 113.42C133.713 115.707 133.13 118.53 133.13 121.89C133.13 125.25 133.713 128.097 134.88 130.43C136.093 132.763 137.726 134.513 139.78 135.68C141.833 136.847 144.143 137.43 146.71 137.43C149.93 137.43 152.613 136.66 154.76 135.12C156.953 133.533 158.376 131.34 159.03 128.54H164.28C163.393 132.46 161.41 135.61 158.33 137.99C155.25 140.37 151.376 141.56 146.71 141.56C143.116 141.56 139.92 140.767 137.12 139.18C134.32 137.547 132.126 135.26 130.54 132.32C128.953 129.333 128.16 125.857 128.16 121.89ZM214.839 102.78V141H209.939V134.28C208.819 136.66 207.093 138.48 204.759 139.74C202.426 141 199.813 141.63 196.919 141.63C192.346 141.63 188.613 140.23 185.719 137.43C182.826 134.583 181.379 130.477 181.379 125.11V102.78H186.209V124.55C186.209 128.703 187.236 131.877 189.289 134.07C191.389 136.263 194.236 137.36 197.829 137.36C201.516 137.36 204.456 136.193 206.649 133.86C208.843 131.527 209.939 128.097 209.939 123.57V102.78H214.839ZM239.326 89.2V141H234.426V89.2H239.326ZM293.402 119.93C293.402 121.61 293.356 122.893 293.262 123.78H261.552C261.692 126.673 262.392 129.147 263.652 131.2C264.912 133.253 266.569 134.817 268.622 135.89C270.676 136.917 272.916 137.43 275.342 137.43C278.516 137.43 281.176 136.66 283.322 135.12C285.516 133.58 286.962 131.503 287.662 128.89H292.842C291.909 132.623 289.902 135.68 286.822 138.06C283.789 140.393 279.962 141.56 275.342 141.56C271.749 141.56 268.529 140.767 265.682 139.18C262.836 137.547 260.596 135.26 258.962 132.32C257.376 129.333 256.582 125.857 256.582 121.89C256.582 117.923 257.376 114.447 258.962 111.46C260.549 108.473 262.766 106.187 265.612 104.6C268.459 103.013 271.702 102.22 275.342 102.22C278.982 102.22 282.156 103.013 284.862 104.6C287.616 106.187 289.716 108.333 291.162 111.04C292.656 113.7 293.402 116.663 293.402 119.93ZM288.432 119.79C288.479 116.943 287.896 114.517 286.682 112.51C285.516 110.503 283.906 108.987 281.852 107.96C279.799 106.933 277.559 106.42 275.132 106.42C271.492 106.42 268.389 107.587 265.822 109.92C263.256 112.253 261.832 115.543 261.552 119.79H288.432ZM323.927 141.56C319.541 141.56 315.947 140.557 313.147 138.55C310.394 136.497 308.854 133.72 308.527 130.22H313.567C313.801 132.367 314.804 134.117 316.577 135.47C318.397 136.777 320.824 137.43 323.857 137.43C326.517 137.43 328.594 136.8 330.087 135.54C331.627 134.28 332.397 132.717 332.397 130.85C332.397 129.543 331.977 128.47 331.137 127.63C330.297 126.79 329.224 126.137 327.917 125.67C326.657 125.157 324.931 124.62 322.737 124.06C319.891 123.313 317.581 122.567 315.807 121.82C314.034 121.073 312.517 119.977 311.257 118.53C310.044 117.037 309.437 115.053 309.437 112.58C309.437 110.713 309.997 108.987 311.117 107.4C312.237 105.813 313.824 104.553 315.877 103.62C317.931 102.687 320.264 102.22 322.877 102.22C326.984 102.22 330.297 103.27 332.817 105.37C335.337 107.423 336.691 110.27 336.877 113.91H331.977C331.837 111.67 330.951 109.873 329.317 108.52C327.731 107.12 325.537 106.42 322.737 106.42C320.264 106.42 318.257 107.003 316.717 108.17C315.177 109.337 314.407 110.783 314.407 112.51C314.407 114.003 314.851 115.24 315.737 116.22C316.671 117.153 317.814 117.9 319.167 118.46C320.521 118.973 322.341 119.557 324.627 120.21C327.381 120.957 329.574 121.68 331.207 122.38C332.841 123.08 334.241 124.107 335.407 125.46C336.574 126.813 337.181 128.61 337.227 130.85C337.227 132.903 336.667 134.747 335.547 136.38C334.427 137.967 332.864 139.227 330.857 140.16C328.851 141.093 326.541 141.56 323.927 141.56ZM352.611 121.89C352.611 117.923 353.404 114.47 354.991 111.53C356.577 108.543 358.771 106.257 361.571 104.67C364.371 103.037 367.567 102.22 371.161 102.22C375.874 102.22 379.747 103.387 382.781 105.72C385.861 108.053 387.844 111.227 388.731 115.24H383.481C382.827 112.487 381.404 110.34 379.211 108.8C377.064 107.213 374.381 106.42 371.161 106.42C368.594 106.42 366.284 107.003 364.231 108.17C362.177 109.337 360.544 111.087 359.331 113.42C358.164 115.707 357.581 118.53 357.581 121.89C357.581 125.25 358.164 128.097 359.331 130.43C360.544 132.763 362.177 134.513 364.231 135.68C366.284 136.847 368.594 137.43 371.161 137.43C374.381 137.43 377.064 136.66 379.211 135.12C381.404 133.533 382.827 131.34 383.481 128.54H388.731C387.844 132.46 385.861 135.61 382.781 137.99C379.701 140.37 375.827 141.56 371.161 141.56C367.567 141.56 364.371 140.767 361.571 139.18C358.771 137.547 356.577 135.26 354.991 132.32C353.404 129.333 352.611 125.857 352.611 121.89ZM439.29 102.78V141H434.39V134.28C433.27 136.66 431.544 138.48 429.21 139.74C426.877 141 424.264 141.63 421.37 141.63C416.797 141.63 413.064 140.23 410.17 137.43C407.277 134.583 405.83 130.477 405.83 125.11V102.78H410.66V124.55C410.66 128.703 411.687 131.877 413.74 134.07C415.84 136.263 418.687 137.36 422.28 137.36C425.967 137.36 428.907 136.193 431.1 133.86C433.294 131.527 434.39 128.097 434.39 123.57V102.78H439.29Z" fill="#73105A"/>
<defs>
<radialGradient id="paint0_radial" cx="0" cy="0" r="1" gradientUnits="userSpaceOnUse" gradientTransform="translate(513.378 44.4577) rotate(-180) scale(523.17 2569.31)">
<stop stop-color="#FFB017"/>
<stop offset="1" stop-color="#73105A"/>
</radialGradient>
</defs>
</svg>
