<svg width="395" height="45" viewBox="0 0 395 45" fill="none" xmlns="http://www.w3.org/2000/svg">
<path d="M0.992188 44.2854V2.06919H16.7489C21.3868 2.06919 25.2516 3.02055 28.3435 4.92325C31.475 6.78636 33.8337 9.32324 35.4192 12.5341C37.0048 15.7053 37.7976 19.2331 37.7976 23.1178C37.7976 27.3989 36.9256 31.125 35.1814 34.2962C33.4372 37.4674 30.9796 39.925 27.8084 41.6692C24.6769 43.4134 20.9904 44.2854 16.7489 44.2854H0.992188ZM27.8679 23.1178C27.8679 19.3918 26.8966 16.3791 24.9543 14.08C23.0121 11.781 20.2769 10.6314 16.7489 10.6314H10.7435V35.7232H16.7489C19.1273 35.7232 21.1489 35.1881 22.8138 34.1178C24.4787 33.008 25.7273 31.5016 26.5598 29.5989C27.4318 27.6962 27.8679 25.5358 27.8679 23.1178ZM42.5492 9.50163V0.880005H52.0627V9.50163H42.5492ZM42.5492 44.2854V13.0692H52.0627V44.2854H42.5492ZM56.6133 34.9503C56.6133 32.8891 57.188 31.0854 58.3376 29.5395C59.4872 27.9935 61.0727 26.7845 63.0943 25.9124C65.116 25.0007 67.4349 24.5449 70.0511 24.5449C71.3196 24.5449 72.5683 24.6638 73.797 24.9016C75.0258 25.0999 76.0961 25.3972 77.0079 25.7935V24.4259C77.0079 20.898 74.9268 19.1341 70.7646 19.1341C69.0204 19.1341 67.3754 19.4313 65.8295 20.0259C64.3231 20.6205 62.7177 21.4728 61.0133 22.5827L58.1592 16.5178C62.2818 13.8223 66.8007 12.4746 71.716 12.4746C76.3934 12.4746 80.0204 13.6043 82.597 15.8638C85.2133 18.0837 86.5214 21.3142 86.5214 25.5557V33.7016C86.5214 34.653 86.6602 35.3269 86.9376 35.7232C87.2547 36.1196 87.7899 36.3377 88.543 36.3773V44.2854C87.7106 44.4439 86.9574 44.5628 86.2835 44.6422C85.6096 44.7215 85.015 44.7611 84.4998 44.7611C82.716 44.7611 81.3484 44.4043 80.397 43.6908C79.4853 42.9773 78.9106 42.0061 78.6727 40.7773L78.4943 39.4097C77.1069 41.1935 75.442 42.5611 73.4997 43.5124C71.5574 44.4242 69.5556 44.88 67.4943 44.88C65.4331 44.88 63.57 44.4439 61.9052 43.5719C60.2799 42.6999 58.9916 41.5304 58.0403 40.0638C57.0889 38.5574 56.6133 36.853 56.6133 34.9503ZM75.5214 36.1395C76.5123 35.3466 77.0079 34.5341 77.0079 33.7016V30.907C76.1754 30.5899 75.2637 30.352 74.2727 30.1935C73.3214 29.9953 72.4493 29.8962 71.6565 29.8962C69.8727 29.8962 68.4061 30.2926 67.2565 31.0854C66.1466 31.8782 65.5916 32.8891 65.5916 34.1178C65.5916 35.1881 66.0079 36.1196 66.8403 36.9124C67.7123 37.6655 68.8619 38.0422 70.2889 38.0422C71.2403 38.0422 72.1916 37.8638 73.143 37.507C74.0943 37.1503 74.8872 36.6945 75.5214 36.1395ZM123.501 44.2854H113.988V26.7449C113.988 24.6836 113.592 23.1972 112.799 22.2854C112.046 21.3341 111.035 20.8584 109.766 20.8584C108.458 20.8584 107.13 21.3736 105.782 22.4043C104.435 23.435 103.483 24.7628 102.928 26.3881V44.2854H93.4149V13.0692H101.977V18.3016C103.127 16.4782 104.752 15.0512 106.853 14.0205C108.954 12.9899 111.372 12.4746 114.107 12.4746C116.128 12.4746 117.754 12.8512 118.982 13.6043C120.251 14.3178 121.202 15.2692 121.837 16.4584C122.51 17.608 122.947 18.8764 123.145 20.2638C123.382 21.6512 123.501 22.9989 123.501 24.307V44.2854ZM127.86 34.9503C127.86 32.8891 128.435 31.0854 129.584 29.5395C130.734 27.9935 132.32 26.7845 134.341 25.9124C136.362 25.0007 138.681 24.5449 141.298 24.5449C142.567 24.5449 143.815 24.6638 145.044 24.9016C146.273 25.0999 147.344 25.3972 148.254 25.7935V24.4259C148.254 20.898 146.173 19.1341 142.011 19.1341C140.268 19.1341 138.622 19.4313 137.076 20.0259C135.571 20.6205 133.965 21.4728 132.26 22.5827L129.406 16.5178C133.529 13.8223 138.048 12.4746 142.962 12.4746C147.641 12.4746 151.268 13.6043 153.844 15.8638C156.46 18.0837 157.768 21.3142 157.768 25.5557V33.7016C157.768 34.653 157.907 35.3269 158.184 35.7232C158.502 36.1196 159.037 36.3377 159.789 36.3773V44.2854C158.957 44.4439 158.204 44.5628 157.53 44.6422C156.857 44.7215 156.262 44.7611 155.746 44.7611C153.962 44.7611 152.595 44.4043 151.644 43.6908C150.733 42.9773 150.157 42.0061 149.919 40.7773L149.741 39.4097C148.354 41.1935 146.689 42.5611 144.746 43.5124C142.804 44.4242 140.803 44.88 138.741 44.88C136.68 44.88 134.817 44.4439 133.152 43.5719C131.527 42.6999 130.239 41.5304 129.287 40.0638C128.336 38.5574 127.86 36.853 127.86 34.9503ZM146.768 36.1395C147.76 35.3466 148.254 34.5341 148.254 33.7016V30.907C147.422 30.5899 146.511 30.352 145.519 30.1935C144.568 29.9953 143.696 29.8962 142.903 29.8962C141.119 29.8962 139.653 30.2926 138.503 31.0854C137.394 31.8782 136.838 32.8891 136.838 34.1178C136.838 35.1881 137.254 36.1196 138.087 36.9124C138.96 37.6655 140.108 38.0422 141.535 38.0422C142.487 38.0422 143.438 37.8638 144.389 37.507C145.341 37.1503 146.134 36.6945 146.768 36.1395ZM212.61 44.2854V19.1341L203.512 37.4476H198.161L189.064 19.1341V44.2854H179.312V2.06919H189.896L200.837 24.1287L211.837 2.06919H222.361V44.2854H212.61ZM227.327 34.9503C227.327 32.8891 227.902 31.0854 229.052 29.5395C230.2 27.9935 231.787 26.7845 233.808 25.9124C235.83 25.0007 238.149 24.5449 240.765 24.5449C242.033 24.5449 243.281 24.6638 244.511 24.9016C245.739 25.0999 246.81 25.3972 247.722 25.7935V24.4259C247.722 20.898 245.641 19.1341 241.479 19.1341C239.734 19.1341 238.089 19.4313 236.544 20.0259C235.037 20.6205 233.431 21.4728 231.727 22.5827L228.873 16.5178C232.995 13.8223 237.514 12.4746 242.43 12.4746C247.107 12.4746 250.734 13.6043 253.311 15.8638C255.927 18.0837 257.235 21.3142 257.235 25.5557V33.7016C257.235 34.653 257.373 35.3269 257.652 35.7232C257.968 36.1196 258.503 36.3377 259.257 36.3773V44.2854C258.425 44.4439 257.671 44.5628 256.998 44.6422C256.323 44.7215 255.729 44.7611 255.214 44.7611C253.43 44.7611 252.062 44.4043 251.111 43.6908C250.199 42.9773 249.625 42.0061 249.387 40.7773L249.208 39.4097C247.821 41.1935 246.156 42.5611 244.214 43.5124C242.271 44.4242 240.269 44.88 238.208 44.88C236.146 44.88 234.284 44.4439 232.619 43.5719C230.994 42.6999 229.706 41.5304 228.754 40.0638C227.803 38.5574 227.327 36.853 227.327 34.9503ZM246.235 36.1395C247.226 35.3466 247.722 34.5341 247.722 33.7016V30.907C246.889 30.5899 245.977 30.352 244.987 30.1935C244.035 29.9953 243.162 29.8962 242.371 29.8962C240.587 29.8962 239.119 30.2926 237.971 31.0854C236.86 31.8782 236.306 32.8891 236.306 34.1178C236.306 35.1881 236.722 36.1196 237.554 36.9124C238.426 37.6655 239.576 38.0422 241.003 38.0422C241.954 38.0422 242.906 37.8638 243.857 37.507C244.808 37.1503 245.6 36.6945 246.235 36.1395ZM283.929 21.2151C281.63 21.2547 279.549 21.6314 277.685 22.3449C275.822 23.0584 274.475 24.1286 273.642 25.5557V44.2854H264.129V13.0692H272.869V19.3719C273.939 17.271 275.327 15.626 277.031 14.4368C278.735 13.2476 280.519 12.6331 282.383 12.5935C283.176 12.5935 283.691 12.6134 283.929 12.653V21.2151ZM308.152 42.6205C306.844 43.1755 305.337 43.6908 303.633 44.1665C301.968 44.6422 300.283 44.88 298.579 44.88C296.994 44.88 295.546 44.6223 294.238 44.107C292.93 43.552 291.88 42.6601 291.087 41.4314C290.294 40.2026 289.898 38.5773 289.898 36.5557V20.2638H285.914V13.0692H289.898V3.13946H299.411V13.0692H305.773V20.2638H299.411V33.2854C299.411 34.3161 299.669 35.0692 300.184 35.5449C300.699 35.9809 301.353 36.1989 302.146 36.1989C302.86 36.1989 303.594 36.08 304.346 35.8422C305.099 35.6043 305.753 35.3466 306.308 35.0692L308.152 42.6205ZM311.858 9.50163V0.880005H321.372V9.50163H311.858ZM311.858 44.2854V13.0692H321.372V44.2854H311.858ZM357.972 44.2854H348.458V26.7449C348.458 24.6836 348.061 23.1972 347.269 22.2854C346.515 21.3341 345.504 20.8584 344.237 20.8584C342.929 20.8584 341.6 21.3736 340.253 22.4043C338.904 23.435 337.953 24.7628 337.399 26.3881V44.2854H327.885V13.0692H336.448V18.3016C337.596 16.4782 339.222 15.0512 341.323 14.0205C343.423 12.9899 345.842 12.4746 348.577 12.4746C350.599 12.4746 352.223 12.8512 353.453 13.6043C354.721 14.3178 355.672 15.2692 356.307 16.4584C356.98 17.608 357.416 18.8764 357.615 20.2638C357.853 21.6512 357.972 22.9989 357.972 24.307V44.2854ZM362.33 34.9503C362.33 32.8891 362.904 31.0854 364.054 29.5395C365.204 27.9935 366.789 26.7845 368.811 25.9124C370.833 25.0007 373.152 24.5449 375.768 24.5449C377.037 24.5449 378.285 24.6638 379.514 24.9016C380.742 25.0999 381.812 25.3972 382.725 25.7935V24.4259C382.725 20.898 380.644 19.1341 376.481 19.1341C374.737 19.1341 373.092 19.4313 371.546 20.0259C370.039 20.6205 368.434 21.4728 366.73 22.5827L363.876 16.5178C367.999 13.8223 372.518 12.4746 377.433 12.4746C382.11 12.4746 385.737 13.6043 388.314 15.8638C390.93 18.0837 392.238 21.3142 392.238 25.5557V33.7016C392.238 34.653 392.377 35.3269 392.654 35.7232C392.972 36.1196 393.507 36.3377 394.26 36.3773V44.2854C393.427 44.4439 392.675 44.5628 392 44.6422C391.326 44.7215 390.731 44.7611 390.216 44.7611C388.433 44.7611 387.065 44.4043 386.114 43.6908C385.202 42.9773 384.627 42.0061 384.389 40.7773L384.211 39.4097C382.823 41.1935 381.158 42.5611 379.216 43.5124C377.275 44.4242 375.272 44.88 373.211 44.88C371.15 44.88 369.287 44.4439 367.622 43.5719C365.996 42.6999 364.708 41.5304 363.757 40.0638C362.806 38.5574 362.33 36.853 362.33 34.9503ZM381.238 36.1395C382.229 35.3466 382.725 34.5341 382.725 33.7016V30.907C381.892 30.5899 380.98 30.352 379.989 30.1935C379.038 29.9953 378.166 29.8962 377.373 29.8962C375.589 29.8962 374.123 30.2926 372.973 31.0854C371.864 31.8782 371.308 32.8891 371.308 34.1178C371.308 35.1881 371.725 36.1196 372.557 36.9124C373.429 37.6655 374.579 38.0422 376.006 38.0422C376.957 38.0422 377.908 37.8638 378.86 37.507C379.811 37.1503 380.604 36.6945 381.238 36.1395Z" fill="url(#paint0_radial)"/>
<defs>
<radialGradient id="paint0_radial" cx="0" cy="0" r="1" gradientUnits="userSpaceOnUse" gradientTransform="translate(357.084 99.6908) rotate(90) scale(177.027 360.135)">
<stop stop-color="#FFB017"/>
<stop offset="1" stop-color="#73105A"/>
</radialGradient>
</defs>
</svg>
