<svg width="417" height="273" viewBox="0 0 417 273" fill="none" xmlns="http://www.w3.org/2000/svg">
<path fill-rule="evenodd" clip-rule="evenodd" d="M273.014 45.0928C279.894 112.396 378.431 105.285 348.28 143.463C323.431 174.929 156.334 321.12 83.2509 256.85C46.5573 224.582 73.0364 195.053 67.2132 155.412C60.3459 108.669 -37.4982 55.7407 15.8529 23.2631C71.9151 -10.8645 267.982 -4.1393 273.014 45.0928Z" fill="#D7ECEF"/>
<mask id="mask0" mask-type="alpha" maskUnits="userSpaceOnUse" x="238" y="8" width="179" height="128">
<path fill-rule="evenodd" clip-rule="evenodd" d="M385.512 116.897C349.769 137.565 277.699 144.823 249.689 118.571C221.68 92.3164 248.331 42.4937 284.055 21.8259C319.798 1.15812 371.479 5.68631 399.488 31.939C427.498 58.1932 421.236 96.2295 385.512 116.897Z" fill="white"/>
</mask>
<g mask="url(#mask0)">
<path fill-rule="evenodd" clip-rule="evenodd" d="M246.917 13.0112C246.917 14.6192 244.238 15.9231 242.05 15.9231C239.863 15.9231 238.108 14.6192 238.108 13.0112C238.108 11.4032 239.863 9.07593 242.05 9.07593C244.238 9.07593 246.917 11.4032 246.917 13.0112Z" fill="#FABF4A"/>
<path fill-rule="evenodd" clip-rule="evenodd" d="M265.137 13.0112C265.137 14.6192 262.459 15.9231 260.29 15.9231C258.102 15.9231 256.329 14.6192 256.329 13.0112C256.329 11.4032 258.102 9.07593 260.29 9.07593C262.459 9.07593 265.137 11.4032 265.137 13.0112Z" fill="#FABF4A"/>
<path fill-rule="evenodd" clip-rule="evenodd" d="M283.358 13.0112C283.358 14.6192 280.698 15.9231 278.51 15.9231C276.322 15.9231 274.549 14.6192 274.549 13.0112C274.549 11.4032 276.322 9.07593 278.51 9.07593C280.698 9.07593 283.358 11.4032 283.358 13.0112Z" fill="#FABF4A"/>
<path fill-rule="evenodd" clip-rule="evenodd" d="M338.056 13.0112C338.056 14.6192 335.377 15.9231 333.189 15.9231C331.002 15.9231 329.229 14.6192 329.229 13.0112C329.229 11.4032 331.002 9.07593 333.189 9.07593C335.377 9.07593 338.056 11.4032 338.056 13.0112Z" fill="#FABF4A"/>
<path fill-rule="evenodd" clip-rule="evenodd" d="M392.736 13.0112C392.736 14.6192 390.057 15.9231 387.869 15.9231C385.7 15.9231 383.927 14.6192 383.927 13.0112C383.927 11.4032 385.7 9.07593 387.869 9.07593C390.057 9.07593 392.736 11.4032 392.736 13.0112Z" fill="#FABF4A"/>
<path fill-rule="evenodd" clip-rule="evenodd" d="M410.956 13.0112C410.956 14.6192 408.296 15.9231 406.108 15.9231C403.92 15.9231 402.147 14.6192 402.147 13.0112C402.147 11.4032 403.92 9.07593 406.108 9.07593C408.296 9.07593 410.956 11.4032 410.956 13.0112Z" fill="#FABF4A"/>
<path fill-rule="evenodd" clip-rule="evenodd" d="M246.917 25.3361C246.917 26.9441 244.238 28.248 242.05 28.248C239.863 28.248 238.108 26.9441 238.108 25.3361C238.108 23.7282 239.863 21.4009 242.05 21.4009C244.238 21.4009 246.917 23.7282 246.917 25.3361Z" fill="#FABF4A"/>
<path fill-rule="evenodd" clip-rule="evenodd" d="M265.137 25.3361C265.137 26.9441 262.459 28.248 260.29 28.248C258.102 28.248 256.329 26.9441 256.329 25.3361C256.329 23.7282 258.102 21.4009 260.29 21.4009C262.459 21.4009 265.137 23.7282 265.137 25.3361Z" fill="#FABF4A"/>
<path fill-rule="evenodd" clip-rule="evenodd" d="M301.597 25.3361C301.597 26.9441 298.919 28.248 296.731 28.248C294.562 28.248 292.789 26.9441 292.789 25.3361C292.789 23.7282 294.562 21.4009 296.731 21.4009C298.919 21.4009 301.597 23.7282 301.597 25.3361Z" fill="#FABF4A"/>
<path fill-rule="evenodd" clip-rule="evenodd" d="M319.817 25.3361C319.817 26.9441 317.158 28.248 314.97 28.248C312.782 28.248 311.009 26.9441 311.009 25.3361C311.009 23.7282 312.782 21.4009 314.97 21.4009C317.158 21.4009 319.817 23.7282 319.817 25.3361Z" fill="#FABF4A"/>
<path fill-rule="evenodd" clip-rule="evenodd" d="M338.056 25.3361C338.056 26.9441 335.377 28.248 333.189 28.248C331.002 28.248 329.229 26.9441 329.229 25.3361C329.229 23.7282 331.002 21.4009 333.189 21.4009C335.377 21.4009 338.056 23.7282 338.056 25.3361Z" fill="#FABF4A"/>
<path fill-rule="evenodd" clip-rule="evenodd" d="M410.956 25.3361C410.956 26.9441 408.296 28.248 406.108 28.248C403.92 28.248 402.147 26.9441 402.147 25.3361C402.147 23.7282 403.92 21.4009 406.108 21.4009C408.296 21.4009 410.956 23.7282 410.956 25.3361Z" fill="#FABF4A"/>
<path fill-rule="evenodd" clip-rule="evenodd" d="M246.917 37.6613C246.917 39.2693 244.238 40.5732 242.05 40.5732C239.863 40.5732 238.108 39.2693 238.108 37.6613C238.108 36.0534 239.863 33.7261 242.05 33.7261C244.238 33.7261 246.917 36.0534 246.917 37.6613Z" fill="#FABF4A"/>
<path fill-rule="evenodd" clip-rule="evenodd" d="M283.358 37.6613C283.358 39.2693 280.698 40.5732 278.51 40.5732C276.322 40.5732 274.549 39.2693 274.549 37.6613C274.549 36.0534 276.322 33.7261 278.51 33.7261C280.698 33.7261 283.358 36.0534 283.358 37.6613Z" fill="#FABF4A"/>
<path fill-rule="evenodd" clip-rule="evenodd" d="M301.597 37.6613C301.597 39.2693 298.919 40.5732 296.731 40.5732C294.562 40.5732 292.789 39.2693 292.789 37.6613C292.789 36.0534 294.562 33.7261 296.731 33.7261C298.919 33.7261 301.597 36.0534 301.597 37.6613Z" fill="#FABF4A"/>
<path fill-rule="evenodd" clip-rule="evenodd" d="M319.817 37.6613C319.817 39.2693 317.158 40.5732 314.97 40.5732C312.782 40.5732 311.009 39.2693 311.009 37.6613C311.009 36.0534 312.782 33.7261 314.97 33.7261C317.158 33.7261 319.817 36.0534 319.817 37.6613Z" fill="#FABF4A"/>
<path fill-rule="evenodd" clip-rule="evenodd" d="M338.056 37.6613C338.056 39.2693 335.377 40.5732 333.189 40.5732C331.002 40.5732 329.229 39.2693 329.229 37.6613C329.229 36.0534 331.002 33.7261 333.189 33.7261C335.377 33.7261 338.056 36.0534 338.056 37.6613Z" fill="#FABF4A"/>
<path fill-rule="evenodd" clip-rule="evenodd" d="M356.277 37.6613C356.277 39.2693 353.598 40.5732 351.429 40.5732C349.241 40.5732 347.468 39.2693 347.468 37.6613C347.468 36.0534 349.241 33.7261 351.429 33.7261C353.598 33.7261 356.277 36.0534 356.277 37.6613Z" fill="#FABF4A"/>
<path fill-rule="evenodd" clip-rule="evenodd" d="M374.496 37.6613C374.496 39.2693 371.837 40.5732 369.649 40.5732C367.461 40.5732 365.688 39.2693 365.688 37.6613C365.688 36.0534 367.461 33.7261 369.649 33.7261C371.837 33.7261 374.496 36.0534 374.496 37.6613Z" fill="#FABF4A"/>
<path fill-rule="evenodd" clip-rule="evenodd" d="M246.917 49.9865C246.917 51.5945 244.238 52.8984 242.05 52.8984C239.863 52.8984 238.108 51.5945 238.108 49.9865C238.108 48.3786 239.863 46.0513 242.05 46.0513C244.238 46.0513 246.917 48.3786 246.917 49.9865Z" fill="#FABF4A"/>
<path fill-rule="evenodd" clip-rule="evenodd" d="M265.137 49.9865C265.137 51.5945 262.459 52.8984 260.29 52.8984C258.102 52.8984 256.329 51.5945 256.329 49.9865C256.329 48.3786 258.102 46.0513 260.29 46.0513C262.459 46.0513 265.137 48.3786 265.137 49.9865Z" fill="#FABF4A"/>
<path fill-rule="evenodd" clip-rule="evenodd" d="M283.358 49.9865C283.358 51.5945 280.698 52.8984 278.51 52.8984C276.322 52.8984 274.549 51.5945 274.549 49.9865C274.549 48.3786 276.322 46.0513 278.51 46.0513C280.698 46.0513 283.358 48.3786 283.358 49.9865Z" fill="#FABF4A"/>
<path fill-rule="evenodd" clip-rule="evenodd" d="M301.597 49.9865C301.597 51.5945 298.919 52.8984 296.731 52.8984C294.562 52.8984 292.789 51.5945 292.789 49.9865C292.789 48.3786 294.562 46.0513 296.731 46.0513C298.919 46.0513 301.597 48.3786 301.597 49.9865Z" fill="#FABF4A"/>
<path fill-rule="evenodd" clip-rule="evenodd" d="M319.817 49.9865C319.817 51.5945 317.158 52.8984 314.97 52.8984C312.782 52.8984 311.009 51.5945 311.009 49.9865C311.009 48.3786 312.782 46.0513 314.97 46.0513C317.158 46.0513 319.817 48.3786 319.817 49.9865Z" fill="#FABF4A"/>
<path fill-rule="evenodd" clip-rule="evenodd" d="M338.056 49.9865C338.056 51.5945 335.377 52.8984 333.189 52.8984C331.002 52.8984 329.229 51.5945 329.229 49.9865C329.229 48.3786 331.002 46.0513 333.189 46.0513C335.377 46.0513 338.056 48.3786 338.056 49.9865Z" fill="#FABF4A"/>
<path fill-rule="evenodd" clip-rule="evenodd" d="M356.277 49.9865C356.277 51.5945 353.598 52.8984 351.429 52.8984C349.241 52.8984 347.468 51.5945 347.468 49.9865C347.468 48.3786 349.241 46.0513 351.429 46.0513C353.598 46.0513 356.277 48.3786 356.277 49.9865Z" fill="#FABF4A"/>
<path fill-rule="evenodd" clip-rule="evenodd" d="M374.496 49.9865C374.496 51.5945 371.837 52.8984 369.649 52.8984C367.461 52.8984 365.688 51.5945 365.688 49.9865C365.688 48.3786 367.461 46.0513 369.649 46.0513C371.837 46.0513 374.496 48.3786 374.496 49.9865Z" fill="#FABF4A"/>
<path fill-rule="evenodd" clip-rule="evenodd" d="M392.736 49.9865C392.736 51.5945 390.057 52.8984 387.869 52.8984C385.7 52.8984 383.927 51.5945 383.927 49.9865C383.927 48.3786 385.7 46.0513 387.869 46.0513C390.057 46.0513 392.736 48.3786 392.736 49.9865Z" fill="#FABF4A"/>
<path fill-rule="evenodd" clip-rule="evenodd" d="M410.956 49.9865C410.956 51.5945 408.296 52.8984 406.108 52.8984C403.92 52.8984 402.147 51.5945 402.147 49.9865C402.147 48.3786 403.92 46.0513 406.108 46.0513C408.296 46.0513 410.956 48.3786 410.956 49.9865Z" fill="#FABF4A"/>
<path fill-rule="evenodd" clip-rule="evenodd" d="M356.277 25.8418C356.277 27.4498 353.598 28.7536 351.429 28.7536C349.241 28.7536 347.468 27.4498 347.468 25.8418C347.468 24.2338 349.241 21.9065 351.429 21.9065C353.598 21.9065 356.277 24.2338 356.277 25.8418Z" fill="#FABF4A"/>
<path fill-rule="evenodd" clip-rule="evenodd" d="M374.496 25.8418C374.496 27.4498 371.837 28.7536 369.649 28.7536C367.461 28.7536 365.688 27.4498 365.688 25.8418C365.688 24.2338 367.461 21.9065 369.649 21.9065C371.837 21.9065 374.496 24.2338 374.496 25.8418Z" fill="#FABF4A"/>
<path fill-rule="evenodd" clip-rule="evenodd" d="M392.736 38.1667C392.736 39.7747 390.057 41.0786 387.869 41.0786C385.7 41.0786 383.927 39.7747 383.927 38.1667C383.927 36.5587 385.7 34.2314 387.869 34.2314C390.057 34.2314 392.736 36.5587 392.736 38.1667Z" fill="#FABF4A"/>
<path fill-rule="evenodd" clip-rule="evenodd" d="M265.137 62.3117C265.137 63.9197 262.459 65.2235 260.29 65.2235C258.102 65.2235 256.329 63.9197 256.329 62.3117C256.329 60.7037 258.102 58.375 260.29 58.375C262.459 58.375 265.137 60.7037 265.137 62.3117Z" fill="#FABF4A"/>
<path fill-rule="evenodd" clip-rule="evenodd" d="M283.358 62.3117C283.358 63.9197 280.698 65.2235 278.51 65.2235C276.322 65.2235 274.549 63.9197 274.549 62.3117C274.549 60.7037 276.322 58.375 278.51 58.375C280.698 58.375 283.358 60.7037 283.358 62.3117Z" fill="#FABF4A"/>
<path fill-rule="evenodd" clip-rule="evenodd" d="M301.597 62.3117C301.597 63.9197 298.919 65.2235 296.731 65.2235C294.562 65.2235 292.789 63.9197 292.789 62.3117C292.789 60.7037 294.562 58.375 296.731 58.375C298.919 58.375 301.597 60.7037 301.597 62.3117Z" fill="#FABF4A"/>
<path fill-rule="evenodd" clip-rule="evenodd" d="M319.817 62.3117C319.817 63.9197 317.158 65.2235 314.97 65.2235C312.782 65.2235 311.009 63.9197 311.009 62.3117C311.009 60.7037 312.782 58.375 314.97 58.375C317.158 58.375 319.817 60.7037 319.817 62.3117Z" fill="#FABF4A"/>
<path fill-rule="evenodd" clip-rule="evenodd" d="M338.056 62.3117C338.056 63.9197 335.377 65.2235 333.189 65.2235C331.002 65.2235 329.229 63.9197 329.229 62.3117C329.229 60.7037 331.002 58.375 333.189 58.375C335.377 58.375 338.056 60.7037 338.056 62.3117Z" fill="#FABF4A"/>
<path fill-rule="evenodd" clip-rule="evenodd" d="M356.277 62.3117C356.277 63.9197 353.598 65.2235 351.429 65.2235C349.241 65.2235 347.468 63.9197 347.468 62.3117C347.468 60.7037 349.241 58.375 351.429 58.375C353.598 58.375 356.277 60.7037 356.277 62.3117Z" fill="#FABF4A"/>
<path fill-rule="evenodd" clip-rule="evenodd" d="M374.496 62.3117C374.496 63.9197 371.837 65.2235 369.649 65.2235C367.461 65.2235 365.688 63.9197 365.688 62.3117C365.688 60.7037 367.461 58.375 369.649 58.375C371.837 58.375 374.496 60.7037 374.496 62.3117Z" fill="#FABF4A"/>
<path fill-rule="evenodd" clip-rule="evenodd" d="M392.736 62.3117C392.736 63.9197 390.057 65.2235 387.869 65.2235C385.7 65.2235 383.927 63.9197 383.927 62.3117C383.927 60.7037 385.7 58.375 387.869 58.375C390.057 58.375 392.736 60.7037 392.736 62.3117Z" fill="#FABF4A"/>
<path fill-rule="evenodd" clip-rule="evenodd" d="M410.956 62.3117C410.956 63.9197 408.296 65.2235 406.108 65.2235C403.92 65.2235 402.147 63.9197 402.147 62.3117C402.147 60.7037 403.92 58.375 406.108 58.375C408.296 58.375 410.956 60.7037 410.956 62.3117Z" fill="#FABF4A"/>
<path fill-rule="evenodd" clip-rule="evenodd" d="M265.137 74.6369C265.137 76.2448 262.459 77.5487 260.29 77.5487C258.102 77.5487 256.329 76.2448 256.329 74.6369C256.329 73.0289 258.102 70.7002 260.29 70.7002C262.459 70.7002 265.137 73.0289 265.137 74.6369Z" fill="#FABF4A"/>
<path fill-rule="evenodd" clip-rule="evenodd" d="M283.358 74.6369C283.358 76.2448 280.698 77.5487 278.51 77.5487C276.322 77.5487 274.549 76.2448 274.549 74.6369C274.549 73.0289 276.322 70.7002 278.51 70.7002C280.698 70.7002 283.358 73.0289 283.358 74.6369Z" fill="#FABF4A"/>
<path fill-rule="evenodd" clip-rule="evenodd" d="M301.597 74.6369C301.597 76.2448 298.919 77.5487 296.731 77.5487C294.562 77.5487 292.789 76.2448 292.789 74.6369C292.789 73.0289 294.562 70.7002 296.731 70.7002C298.919 70.7002 301.597 73.0289 301.597 74.6369Z" fill="#FABF4A"/>
<path fill-rule="evenodd" clip-rule="evenodd" d="M319.817 74.6369C319.817 76.2448 317.158 77.5487 314.97 77.5487C312.782 77.5487 311.009 76.2448 311.009 74.6369C311.009 73.0289 312.782 70.7002 314.97 70.7002C317.158 70.7002 319.817 73.0289 319.817 74.6369Z" fill="#FABF4A"/>
<path fill-rule="evenodd" clip-rule="evenodd" d="M338.056 74.6369C338.056 76.2448 335.377 77.5487 333.189 77.5487C331.002 77.5487 329.229 76.2448 329.229 74.6369C329.229 73.0289 331.002 70.7002 333.189 70.7002C335.377 70.7002 338.056 73.0289 338.056 74.6369Z" fill="#FABF4A"/>
<path fill-rule="evenodd" clip-rule="evenodd" d="M356.277 74.6369C356.277 76.2448 353.598 77.5487 351.429 77.5487C349.241 77.5487 347.468 76.2448 347.468 74.6369C347.468 73.0289 349.241 70.7002 351.429 70.7002C353.598 70.7002 356.277 73.0289 356.277 74.6369Z" fill="#FABF4A"/>
<path fill-rule="evenodd" clip-rule="evenodd" d="M374.496 74.6369C374.496 76.2448 371.837 77.5487 369.649 77.5487C367.461 77.5487 365.688 76.2448 365.688 74.6369C365.688 73.0289 367.461 70.7002 369.649 70.7002C371.837 70.7002 374.496 73.0289 374.496 74.6369Z" fill="#FABF4A"/>
<path fill-rule="evenodd" clip-rule="evenodd" d="M392.736 74.6369C392.736 76.2448 390.057 77.5487 387.869 77.5487C385.7 77.5487 383.927 76.2448 383.927 74.6369C383.927 73.0289 385.7 70.7002 387.869 70.7002C390.057 70.7002 392.736 73.0289 392.736 74.6369Z" fill="#FABF4A"/>
<path fill-rule="evenodd" clip-rule="evenodd" d="M410.956 74.6369C410.956 76.2448 408.296 77.5487 406.108 77.5487C403.92 77.5487 402.147 76.2448 402.147 74.6369C402.147 73.0289 403.92 70.7002 406.108 70.7002C408.296 70.7002 410.956 73.0289 410.956 74.6369Z" fill="#FABF4A"/>
<path fill-rule="evenodd" clip-rule="evenodd" d="M246.917 86.962C246.917 88.57 244.238 89.8739 242.05 89.8739C239.863 89.8739 238.108 88.57 238.108 86.962C238.108 85.3541 239.863 83.0254 242.05 83.0254C244.238 83.0254 246.917 85.3541 246.917 86.962Z" fill="#FABF4A"/>
<path fill-rule="evenodd" clip-rule="evenodd" d="M265.137 86.962C265.137 88.57 262.459 89.8739 260.29 89.8739C258.102 89.8739 256.329 88.57 256.329 86.962C256.329 85.3541 258.102 83.0254 260.29 83.0254C262.459 83.0254 265.137 85.3541 265.137 86.962Z" fill="#FABF4A"/>
<path fill-rule="evenodd" clip-rule="evenodd" d="M283.358 86.962C283.358 88.57 280.698 89.8739 278.51 89.8739C276.322 89.8739 274.549 88.57 274.549 86.962C274.549 85.3541 276.322 83.0254 278.51 83.0254C280.698 83.0254 283.358 85.3541 283.358 86.962Z" fill="#FABF4A"/>
<path fill-rule="evenodd" clip-rule="evenodd" d="M301.597 86.962C301.597 88.57 298.919 89.8739 296.731 89.8739C294.562 89.8739 292.789 88.57 292.789 86.962C292.789 85.3541 294.562 83.0254 296.731 83.0254C298.919 83.0254 301.597 85.3541 301.597 86.962Z" fill="#FABF4A"/>
<path fill-rule="evenodd" clip-rule="evenodd" d="M319.817 86.962C319.817 88.57 317.158 89.8739 314.97 89.8739C312.782 89.8739 311.009 88.57 311.009 86.962C311.009 85.3541 312.782 83.0254 314.97 83.0254C317.158 83.0254 319.817 85.3541 319.817 86.962Z" fill="#FABF4A"/>
<path fill-rule="evenodd" clip-rule="evenodd" d="M338.056 86.962C338.056 88.57 335.377 89.8739 333.189 89.8739C331.002 89.8739 329.229 88.57 329.229 86.962C329.229 85.3541 331.002 83.0254 333.189 83.0254C335.377 83.0254 338.056 85.3541 338.056 86.962Z" fill="#FABF4A"/>
<path fill-rule="evenodd" clip-rule="evenodd" d="M356.277 86.962C356.277 88.57 353.598 89.8739 351.429 89.8739C349.241 89.8739 347.468 88.57 347.468 86.962C347.468 85.3541 349.241 83.0254 351.429 83.0254C353.598 83.0254 356.277 85.3541 356.277 86.962Z" fill="#FABF4A"/>
<path fill-rule="evenodd" clip-rule="evenodd" d="M374.496 86.962C374.496 88.57 371.837 89.8739 369.649 89.8739C367.461 89.8739 365.688 88.57 365.688 86.962C365.688 85.3541 367.461 83.0254 369.649 83.0254C371.837 83.0254 374.496 85.3541 374.496 86.962Z" fill="#FABF4A"/>
<path fill-rule="evenodd" clip-rule="evenodd" d="M392.736 86.962C392.736 88.57 390.057 89.8739 387.869 89.8739C385.7 89.8739 383.927 88.57 383.927 86.962C383.927 85.3541 385.7 83.0254 387.869 83.0254C390.057 83.0254 392.736 85.3541 392.736 86.962Z" fill="#FABF4A"/>
<path fill-rule="evenodd" clip-rule="evenodd" d="M410.956 86.962C410.956 88.57 408.296 89.8739 406.108 89.8739C403.92 89.8739 402.147 88.57 402.147 86.962C402.147 85.3541 403.92 83.0254 406.108 83.0254C408.296 83.0254 410.956 85.3541 410.956 86.962Z" fill="#FABF4A"/>
<path fill-rule="evenodd" clip-rule="evenodd" d="M265.137 99.2873C265.137 100.895 262.459 102.199 260.29 102.199C258.102 102.199 256.329 100.895 256.329 99.2873C256.329 97.6793 258.102 95.3506 260.29 95.3506C262.459 95.3506 265.137 97.6793 265.137 99.2873Z" fill="#FABF4A"/>
<path fill-rule="evenodd" clip-rule="evenodd" d="M283.358 99.2873C283.358 100.895 280.698 102.199 278.51 102.199C276.322 102.199 274.549 100.895 274.549 99.2873C274.549 97.6793 276.322 95.3506 278.51 95.3506C280.698 95.3506 283.358 97.6793 283.358 99.2873Z" fill="#FABF4A"/>
<path fill-rule="evenodd" clip-rule="evenodd" d="M301.597 99.2873C301.597 100.895 298.919 102.199 296.731 102.199C294.562 102.199 292.789 100.895 292.789 99.2873C292.789 97.6793 294.562 95.3506 296.731 95.3506C298.919 95.3506 301.597 97.6793 301.597 99.2873Z" fill="#FABF4A"/>
<path fill-rule="evenodd" clip-rule="evenodd" d="M319.817 99.2873C319.817 100.895 317.158 102.199 314.97 102.199C312.782 102.199 311.009 100.895 311.009 99.2873C311.009 97.6793 312.782 95.3506 314.97 95.3506C317.158 95.3506 319.817 97.6793 319.817 99.2873Z" fill="#FABF4A"/>
<path fill-rule="evenodd" clip-rule="evenodd" d="M338.056 99.2873C338.056 100.895 335.377 102.199 333.189 102.199C331.002 102.199 329.229 100.895 329.229 99.2873C329.229 97.6793 331.002 95.3506 333.189 95.3506C335.377 95.3506 338.056 97.6793 338.056 99.2873Z" fill="#FABF4A"/>
<path fill-rule="evenodd" clip-rule="evenodd" d="M356.277 99.2873C356.277 100.895 353.598 102.199 351.429 102.199C349.241 102.199 347.468 100.895 347.468 99.2873C347.468 97.6793 349.241 95.3506 351.429 95.3506C353.598 95.3506 356.277 97.6793 356.277 99.2873Z" fill="#FABF4A"/>
<path fill-rule="evenodd" clip-rule="evenodd" d="M374.496 99.2873C374.496 100.895 371.837 102.199 369.649 102.199C367.461 102.199 365.688 100.895 365.688 99.2873C365.688 97.6793 367.461 95.3506 369.649 95.3506C371.837 95.3506 374.496 97.6793 374.496 99.2873Z" fill="#FABF4A"/>
<path fill-rule="evenodd" clip-rule="evenodd" d="M392.736 99.2873C392.736 100.895 390.057 102.199 387.869 102.199C385.7 102.199 383.927 100.895 383.927 99.2873C383.927 97.6793 385.7 95.3506 387.869 95.3506C390.057 95.3506 392.736 97.6793 392.736 99.2873Z" fill="#FABF4A"/>
<path fill-rule="evenodd" clip-rule="evenodd" d="M265.137 111.611C265.137 113.219 262.459 114.523 260.29 114.523C258.102 114.523 256.329 113.219 256.329 111.611C256.329 110.003 258.102 107.674 260.29 107.674C262.459 107.674 265.137 110.003 265.137 111.611Z" fill="#FABF4A"/>
<path fill-rule="evenodd" clip-rule="evenodd" d="M283.358 111.611C283.358 113.219 280.698 114.523 278.51 114.523C276.322 114.523 274.549 113.219 274.549 111.611C274.549 110.003 276.322 107.674 278.51 107.674C280.698 107.674 283.358 110.003 283.358 111.611Z" fill="#FABF4A"/>
<path fill-rule="evenodd" clip-rule="evenodd" d="M301.597 111.611C301.597 113.219 298.919 114.523 296.731 114.523C294.562 114.523 292.789 113.219 292.789 111.611C292.789 110.003 294.562 107.674 296.731 107.674C298.919 107.674 301.597 110.003 301.597 111.611Z" fill="#FABF4A"/>
<path fill-rule="evenodd" clip-rule="evenodd" d="M319.817 111.611C319.817 113.219 317.158 114.523 314.97 114.523C312.782 114.523 311.009 113.219 311.009 111.611C311.009 110.003 312.782 107.674 314.97 107.674C317.158 107.674 319.817 110.003 319.817 111.611Z" fill="#FABF4A"/>
<path fill-rule="evenodd" clip-rule="evenodd" d="M338.056 111.611C338.056 113.219 335.377 114.523 333.189 114.523C331.002 114.523 329.229 113.219 329.229 111.611C329.229 110.003 331.002 107.674 333.189 107.674C335.377 107.674 338.056 110.003 338.056 111.611Z" fill="#FABF4A"/>
<path fill-rule="evenodd" clip-rule="evenodd" d="M356.277 111.611C356.277 113.219 353.598 114.523 351.429 114.523C349.241 114.523 347.468 113.219 347.468 111.611C347.468 110.003 349.241 107.674 351.429 107.674C353.598 107.674 356.277 110.003 356.277 111.611Z" fill="#FABF4A"/>
<path fill-rule="evenodd" clip-rule="evenodd" d="M374.496 111.611C374.496 113.219 371.837 114.523 369.649 114.523C367.461 114.523 365.688 113.219 365.688 111.611C365.688 110.003 367.461 107.674 369.649 107.674C371.837 107.674 374.496 110.003 374.496 111.611Z" fill="#FABF4A"/>
<path fill-rule="evenodd" clip-rule="evenodd" d="M246.917 123.936C246.917 125.544 244.238 126.846 242.05 126.846C239.863 126.846 238.108 125.544 238.108 123.936C238.108 122.328 239.863 119.999 242.05 119.999C244.238 119.999 246.917 122.328 246.917 123.936Z" fill="#FABF4A"/>
<path fill-rule="evenodd" clip-rule="evenodd" d="M283.358 123.936C283.358 125.544 280.698 126.846 278.51 126.846C276.322 126.846 274.549 125.544 274.549 123.936C274.549 122.328 276.322 119.999 278.51 119.999C280.698 119.999 283.358 122.328 283.358 123.936Z" fill="#FABF4A"/>
<path fill-rule="evenodd" clip-rule="evenodd" d="M301.597 123.936C301.597 125.544 298.919 126.846 296.731 126.846C294.562 126.846 292.789 125.544 292.789 123.936C292.789 122.328 294.562 119.999 296.731 119.999C298.919 119.999 301.597 122.328 301.597 123.936Z" fill="#FABF4A"/>
<path fill-rule="evenodd" clip-rule="evenodd" d="M319.817 123.936C319.817 125.544 317.158 126.846 314.97 126.846C312.782 126.846 311.009 125.544 311.009 123.936C311.009 122.328 312.782 119.999 314.97 119.999C317.158 119.999 319.817 122.328 319.817 123.936Z" fill="#FABF4A"/>
<path fill-rule="evenodd" clip-rule="evenodd" d="M338.056 123.936C338.056 125.544 335.377 126.846 333.189 126.846C331.002 126.846 329.229 125.544 329.229 123.936C329.229 122.328 331.002 119.999 333.189 119.999C335.377 119.999 338.056 122.328 338.056 123.936Z" fill="#FABF4A"/>
<path fill-rule="evenodd" clip-rule="evenodd" d="M356.277 123.936C356.277 125.544 353.598 126.846 351.429 126.846C349.241 126.846 347.468 125.544 347.468 123.936C347.468 122.328 349.241 119.999 351.429 119.999C353.598 119.999 356.277 122.328 356.277 123.936Z" fill="#FABF4A"/>
<path fill-rule="evenodd" clip-rule="evenodd" d="M410.956 123.936C410.956 125.544 408.296 126.846 406.108 126.846C403.92 126.846 402.147 125.544 402.147 123.936C402.147 122.328 403.92 119.999 406.108 119.999C408.296 119.999 410.956 122.328 410.956 123.936Z" fill="#FABF4A"/>
<path fill-rule="evenodd" clip-rule="evenodd" d="M246.917 136.261C246.917 137.869 244.238 139.172 242.05 139.172C239.863 139.172 238.108 137.869 238.108 136.261C238.108 134.653 239.863 132.324 242.05 132.324C244.238 132.324 246.917 134.653 246.917 136.261Z" fill="#FABF4A"/>
<path fill-rule="evenodd" clip-rule="evenodd" d="M265.137 136.261C265.137 137.869 262.459 139.172 260.29 139.172C258.102 139.172 256.329 137.869 256.329 136.261C256.329 134.653 258.102 132.324 260.29 132.324C262.459 132.324 265.137 134.653 265.137 136.261Z" fill="#FABF4A"/>
<path fill-rule="evenodd" clip-rule="evenodd" d="M283.358 136.261C283.358 137.869 280.698 139.172 278.51 139.172C276.322 139.172 274.549 137.869 274.549 136.261C274.549 134.653 276.322 132.324 278.51 132.324C280.698 132.324 283.358 134.653 283.358 136.261Z" fill="#FABF4A"/>
<path fill-rule="evenodd" clip-rule="evenodd" d="M356.277 136.261C356.277 137.869 353.598 139.172 351.429 139.172C349.241 139.172 347.468 137.869 347.468 136.261C347.468 134.653 349.241 132.324 351.429 132.324C353.598 132.324 356.277 134.653 356.277 136.261Z" fill="#FABF4A"/>
<path fill-rule="evenodd" clip-rule="evenodd" d="M392.736 136.261C392.736 137.869 390.057 139.172 387.869 139.172C385.7 139.172 383.927 137.869 383.927 136.261C383.927 134.653 385.7 132.324 387.869 132.324C390.057 132.324 392.736 134.653 392.736 136.261Z" fill="#FABF4A"/>
<path fill-rule="evenodd" clip-rule="evenodd" d="M410.956 136.261C410.956 137.869 408.296 139.172 406.108 139.172C403.92 139.172 402.147 137.869 402.147 136.261C402.147 134.653 403.92 132.324 406.108 132.324C408.296 132.324 410.956 134.653 410.956 136.261Z" fill="#FABF4A"/>
<path fill-rule="evenodd" clip-rule="evenodd" d="M410.956 110.718C410.956 112.326 408.296 113.63 406.108 113.63C403.92 113.63 402.147 112.326 402.147 110.718C402.147 109.11 403.92 106.783 406.108 106.783C408.296 106.783 410.956 109.11 410.956 110.718Z" fill="#FABF4A"/>
<path fill-rule="evenodd" clip-rule="evenodd" d="M392.736 123.042C392.736 124.65 390.057 125.954 387.869 125.954C385.7 125.954 383.927 124.65 383.927 123.042C383.927 121.434 385.7 119.106 387.869 119.106C390.057 119.106 392.736 121.434 392.736 123.042Z" fill="#FABF4A"/>
<path fill-rule="evenodd" clip-rule="evenodd" d="M374.496 135.367C374.496 136.975 371.837 138.279 369.649 138.279C367.461 138.279 365.688 136.975 365.688 135.367C365.688 133.759 367.461 131.432 369.649 131.432C371.837 131.432 374.496 133.759 374.496 135.367Z" fill="#FABF4A"/>
</g>
<g clip-path="url(#clip0)">
<path d="M281.997 196.545C287.278 193.554 292.563 190.563 297.844 187.572C313.459 178.732 329.325 169.701 341.67 156.682C346.551 151.534 350.894 145.686 353.116 138.95C353.574 137.564 353.928 136.01 353.313 134.686C352.264 132.441 349.206 132.205 346.734 132.396C339.319 132.972 331.974 134.447 324.908 136.771C330.786 122.412 349.254 117.476 357.686 104.452C359.053 102.339 360.159 99.8628 359.769 97.3777C359.518 95.7814 358.662 94.3254 357.573 93.1281C353.877 89.0582 347.751 87.9616 342.351 88.9714C336.95 89.985 332.075 92.7847 327.32 95.5387C333.849 91.9345 339.318 86.4396 342.896 79.8932C344.377 77.18 345.558 73.9785 344.58 71.0484C342.925 66.0785 336.051 64.9337 331.206 66.9224C321.856 70.7569 317.69 81.3937 313.982 90.7958C310.274 100.198 304.618 110.595 294.672 112.385C293.478 112.599 292.195 112.704 291.238 113.448C289.374 114.9 289.846 117.945 291.256 119.842C292.667 121.739 294.76 123.054 296.109 124.996C299.129 129.349 297.552 135.373 295.047 140.042C292.541 144.71 289.141 149.172 288.647 154.449C288.034 161.011 285.296 168.564 284.139 175.05C283.611 177.996 288.855 179.535 287.793 182.331C286.73 185.127 286.212 188.419 287.718 191.006C289.224 193.593 293.414 194.572 295.216 192.187" fill="#8ABFC7"/>
<path d="M281.997 196.545C287.278 193.554 292.563 190.563 297.844 187.572C313.459 178.732 329.325 169.701 341.67 156.682C346.551 151.534 350.894 145.686 353.116 138.95C353.574 137.564 353.928 136.01 353.313 134.686C352.264 132.441 349.206 132.205 346.734 132.396C339.319 132.972 331.974 134.447 324.908 136.771C330.786 122.412 349.254 117.476 357.686 104.452C359.053 102.339 360.159 99.8628 359.769 97.3777C359.518 95.7814 358.662 94.3254 357.573 93.1281C353.877 89.0582 347.751 87.9616 342.351 88.9714C336.95 89.985 332.075 92.7847 327.32 95.5387C333.849 91.9345 339.318 86.4396 342.896 79.8932C344.377 77.18 345.558 73.9785 344.58 71.0484C342.925 66.0785 336.051 64.9337 331.206 66.9224C321.856 70.7569 317.69 81.3937 313.982 90.7958C310.274 100.198 304.618 110.595 294.672 112.385C293.478 112.599 292.195 112.704 291.238 113.448C289.374 114.9 289.846 117.945 291.256 119.842C292.667 121.739 294.76 123.054 296.109 124.996C299.129 129.349 297.552 135.373 295.047 140.042C292.541 144.71 289.141 149.172 288.647 154.449C288.034 161.011 285.296 168.564 284.139 175.05C283.611 177.996 288.855 179.535 287.793 182.331C286.73 185.127 286.212 188.419 287.718 191.006C289.224 193.593 293.414 194.572 295.216 192.187" stroke="#0F555F"/>
<path d="M274.013 187.679C274.375 187.725 274.753 187.583 274.989 187.267C289.65 167.889 327.909 117.399 329.8 115.339C330.135 115.056 330.267 114.576 330.098 114.145C329.881 113.603 329.274 113.337 328.724 113.553C328.369 113.694 327.828 113.907 273.308 185.992C272.954 186.456 273.049 187.119 273.512 187.473C273.661 187.59 273.838 187.658 274.013 187.679Z" fill="#263234"/>
<path d="M297.398 156.818C297.454 156.825 297.51 156.828 297.568 156.824L327.705 155.766C328.287 155.745 328.746 155.256 328.724 154.674C328.703 154.088 328.214 153.633 327.632 153.654L297.495 154.712C296.912 154.734 296.454 155.222 296.475 155.804C296.492 156.333 296.894 156.755 297.398 156.818Z" fill="#263234"/>
<path d="M288.714 36.4787C288.709 36.4787 288.705 36.48 288.701 36.4802V10.5749C288.701 7.77027 287.587 5.0805 285.604 3.09732C283.622 1.11414 280.933 0 278.129 0H197.053C194.249 0 191.56 1.11414 189.577 3.09732C187.595 5.0805 186.481 7.77027 186.481 10.5749V23.8553C186.257 23.8601 186.044 23.9523 185.887 24.1123C185.731 24.2723 185.643 24.4873 185.643 24.7112V31.2891C185.643 31.5131 185.731 31.728 185.887 31.888C186.044 32.048 186.257 32.1402 186.481 32.1449V39.0359H186.438C186.325 39.0359 186.214 39.0581 186.11 39.1012C186.006 39.1443 185.911 39.2075 185.832 39.2871C185.752 39.3668 185.689 39.4613 185.646 39.5654C185.603 39.6695 185.581 39.781 185.581 39.8937V52.6137C185.581 52.7264 185.603 52.8379 185.646 52.942C185.689 53.0461 185.752 53.1406 185.832 53.2203C185.911 53.2999 186.006 53.3631 186.11 53.4062C186.214 53.4493 186.325 53.4715 186.438 53.4715H186.481V58.5235H186.468C186.355 58.5235 186.244 58.5457 186.14 58.5888C186.035 58.6319 185.941 58.6951 185.861 58.7747C185.782 58.8544 185.719 58.949 185.675 59.053C185.632 59.1571 185.61 59.2686 185.61 59.3813V72.2258C185.61 72.3384 185.632 72.45 185.675 72.554C185.719 72.6581 185.782 72.7527 185.861 72.8323C185.941 72.912 186.035 72.9752 186.14 73.0183C186.244 73.0614 186.355 73.0836 186.468 73.0836H186.481V197.241C186.481 200.045 187.595 202.735 189.577 204.718C191.56 206.702 194.249 207.816 197.053 207.816H278.129C280.933 207.816 283.622 206.702 285.604 204.718C287.587 202.735 288.701 200.045 288.701 197.241V61.6688C288.705 61.6688 288.709 61.6701 288.714 61.6701C288.914 61.6701 289.113 61.6306 289.298 61.5539C289.483 61.4771 289.652 61.3646 289.794 61.2228C289.935 61.0809 290.048 60.9126 290.125 60.7273C290.201 60.5419 290.241 60.3433 290.241 60.1427V38.0062C290.241 37.6011 290.08 37.2126 289.794 36.9261C289.507 36.6397 289.119 36.4787 288.714 36.4787Z" fill="#263234"/>
<path d="M282.388 13.5349V194.278C282.388 196.431 281.532 198.496 280.009 200.019C278.487 201.541 276.422 202.396 274.269 202.396H200.912C198.759 202.396 196.694 201.541 195.172 200.019C193.649 198.496 192.794 196.431 192.793 194.278V13.5349C192.793 11.3809 193.648 9.31517 195.171 7.79208C196.694 6.26899 198.759 5.41333 200.912 5.41333H211.889V6.83853C211.89 8.61192 212.595 10.3124 213.848 11.5664C215.102 12.8204 216.802 13.5252 218.574 13.526H255.896C257.666 13.5221 259.363 12.8158 260.614 11.5621C261.864 10.3083 262.566 8.6096 262.566 6.83853V5.42814H274.269C276.42 5.42814 278.483 6.28177 280.005 7.80166C281.527 9.32155 282.384 11.3835 282.388 13.5349V13.5349Z" fill="white"/>
<path d="M160.419 82.9874C159.913 82.794 159.371 82.7125 158.83 82.7486C158.289 82.7846 157.762 82.9374 157.288 83.1962C156.813 83.4549 156.401 83.8133 156.082 84.2462C155.763 84.679 155.543 85.1758 155.439 85.7014L124.971 102.066L130.328 108.022L158.624 90.0846C159.529 90.1985 160.445 89.9804 161.199 89.4715C161.953 88.9627 162.491 88.1984 162.712 87.3236C162.934 86.4488 162.822 85.5242 162.4 84.725C161.977 83.9258 161.272 83.3076 160.419 82.9874H160.419Z" fill="#FFB8B8"/>
<path d="M153.15 203.403L157.088 200.932L149.137 185.017L143.324 188.664L153.15 203.403Z" fill="#FFB8B8"/>
<path d="M166.328 199.277L154.301 207.059L151.296 202.41L158.85 197.523C160.036 196.755 161.478 196.491 162.86 196.787C164.241 197.083 165.448 197.916 166.216 199.103L166.328 199.277L166.328 199.277Z" fill="#2F2E41"/>
<path d="M110.059 203.403H114.722L116.941 186.166H110.059V203.403Z" fill="#FFB8B8"/>
<path d="M122.676 208H108.912V202.254H117.557C118.229 202.254 118.895 202.397 119.516 202.675C120.137 202.953 120.701 203.361 121.177 203.874C121.652 204.388 122.029 204.997 122.287 205.669C122.544 206.34 122.676 207.059 122.676 207.785V208V208Z" fill="#2F2E41"/>
<path d="M209.223 29.3314H201.225C201.029 29.3314 200.841 29.2533 200.702 29.1144C200.563 28.9755 200.485 28.7871 200.485 28.5906C200.485 28.3941 200.563 28.2057 200.702 28.0668C200.841 27.9279 201.029 27.8499 201.225 27.8499H209.223C209.419 27.8499 209.608 27.9279 209.746 28.0668C209.885 28.2057 209.963 28.3941 209.963 28.5906C209.963 28.7871 209.885 28.9755 209.746 29.1144C209.608 29.2533 209.419 29.3314 209.223 29.3314V29.3314Z" fill="#3F3D56"/>
<path d="M209.223 31.4053H201.225C201.029 31.4053 200.841 31.3273 200.702 31.1884C200.563 31.0495 200.485 30.861 200.485 30.6646C200.485 30.4681 200.563 30.2797 200.702 30.1408C200.841 30.0019 201.029 29.9238 201.225 29.9238H209.223C209.419 29.9238 209.608 30.0019 209.746 30.1408C209.885 30.2797 209.963 30.4681 209.963 30.6646C209.963 30.861 209.885 31.0495 209.746 31.1884C209.608 31.3273 209.419 31.4053 209.223 31.4053V31.4053Z" fill="#3F3D56"/>
<path d="M209.223 33.4795H201.225C201.029 33.4795 200.841 33.4015 200.702 33.2626C200.563 33.1237 200.485 32.9353 200.485 32.7388C200.485 32.5423 200.563 32.3539 200.702 32.215C200.841 32.0761 201.029 31.998 201.225 31.998H209.223C209.419 31.998 209.608 32.0761 209.746 32.215C209.885 32.3539 209.963 32.5423 209.963 32.7388C209.963 32.9353 209.885 33.1237 209.746 33.2626C209.608 33.4015 209.419 33.4795 209.223 33.4795V33.4795Z" fill="#3F3D56"/>
<path d="M271.215 31.4203H270.946L270.842 31.3344C271.183 30.9284 271.369 30.4154 271.369 29.8855C271.367 29.4495 271.235 29.024 270.991 28.6627C270.747 28.3015 270.402 28.0208 269.998 27.8562C269.594 27.6915 269.151 27.6502 268.724 27.7376C268.297 27.8249 267.906 28.037 267.599 28.3469C267.292 28.6569 267.085 29.0508 267.002 29.4789C266.919 29.907 266.965 30.35 267.134 30.7519C267.303 31.1538 267.587 31.4966 267.951 31.7368C268.315 31.9771 268.742 32.1041 269.177 32.1018C269.706 32.098 270.216 31.9117 270.623 31.5744L270.724 31.6603V31.9329L272.424 33.6366L272.933 33.127L271.215 31.4203ZM269.177 31.4203C268.874 31.4215 268.577 31.3326 268.324 31.1649C268.071 30.9973 267.873 30.7583 267.756 30.4783C267.639 30.1983 267.607 29.8898 267.666 29.5919C267.724 29.2939 267.869 29.0199 268.082 28.8044C268.296 28.5889 268.569 28.4417 268.866 28.3813C269.164 28.3209 269.472 28.3501 269.753 28.4652C270.034 28.5803 270.274 28.7761 270.444 29.0278C270.614 29.2796 270.705 29.576 270.706 29.8795L270.706 29.8855C270.707 30.0858 270.669 30.2845 270.593 30.4701C270.518 30.6557 270.406 30.8245 270.265 30.9671C270.125 31.1096 269.957 31.223 269.772 31.3007C269.588 31.3785 269.39 31.4191 269.189 31.4203C269.185 31.4203 269.181 31.4203 269.177 31.4203H269.177Z" fill="#3F3D56"/>
<path d="M225.515 56.5909H211.148C210.284 56.5909 209.455 56.2475 208.844 55.6362C208.233 55.025 207.89 54.196 207.89 53.3316C207.89 52.4671 208.233 51.6381 208.844 51.0269C209.455 50.4157 210.284 50.0723 211.148 50.0723H225.515C226.379 50.0723 227.208 50.4157 227.819 51.0269C228.43 51.6381 228.774 52.4671 228.774 53.3316C228.774 54.196 228.43 55.025 227.819 55.6362C227.208 56.2475 226.379 56.5909 225.515 56.5909V56.5909Z" fill="#A43E8A"/>
<path d="M269.5 63.7021H209.667C209.196 63.7021 208.743 63.5148 208.41 63.1814C208.077 62.848 207.89 62.3958 207.89 61.9243C207.89 61.4528 208.077 61.0006 208.41 60.6672C208.743 60.3338 209.196 60.1465 209.667 60.1465H269.5C269.971 60.1465 270.423 60.3338 270.756 60.6672C271.09 61.0006 271.277 61.4528 271.277 61.9243C271.277 62.3958 271.09 62.848 270.756 63.1814C270.423 63.5148 269.971 63.7021 269.5 63.7021Z" fill="#E6E6E6"/>
<path d="M231.645 70.8134H209.667C209.196 70.8134 208.743 70.6261 208.41 70.2927C208.077 69.9593 207.89 69.5071 207.89 69.0356C207.89 68.5641 208.077 68.1119 208.41 67.7785C208.743 67.4451 209.196 67.2578 209.667 67.2578H231.645C232.117 67.2578 232.569 67.4451 232.902 67.7785C233.235 68.1119 233.422 68.5641 233.422 69.0356C233.422 69.5071 233.235 69.9593 232.902 70.2927C232.569 70.6261 232.117 70.8134 231.645 70.8134Z" fill="#E6E6E6"/>
<path d="M225.515 135.407H211.148C210.284 135.407 209.455 135.063 208.844 134.452C208.233 133.841 207.89 133.012 207.89 132.147C207.89 131.283 208.233 130.454 208.844 129.843C209.455 129.231 210.284 128.888 211.148 128.888H225.515C226.379 128.888 227.208 129.231 227.819 129.843C228.43 130.454 228.774 131.283 228.774 132.147C228.774 133.012 228.43 133.841 227.819 134.452C227.208 135.063 226.379 135.407 225.515 135.407V135.407Z" fill="#A43E8A"/>
<path d="M269.5 142.518H209.667C209.196 142.518 208.743 142.33 208.41 141.997C208.077 141.664 207.89 141.211 207.89 140.74C207.89 140.268 208.077 139.816 208.41 139.483C208.743 139.149 209.196 138.962 209.667 138.962H269.5C269.971 138.962 270.423 139.149 270.756 139.483C271.09 139.816 271.277 140.268 271.277 140.74C271.277 141.211 271.09 141.664 270.756 141.997C270.423 142.33 269.971 142.518 269.5 142.518V142.518Z" fill="#E6E6E6"/>
<path d="M231.645 149.629H209.667C209.196 149.629 208.743 149.442 208.41 149.108C208.077 148.775 207.89 148.323 207.89 147.851C207.89 147.38 208.077 146.927 208.41 146.594C208.743 146.261 209.196 146.073 209.667 146.073H231.645C232.117 146.073 232.569 146.261 232.902 146.594C233.235 146.927 233.422 147.38 233.422 147.851C233.422 148.323 233.235 148.775 232.902 149.108C232.569 149.442 232.117 149.629 231.645 149.629V149.629Z" fill="#E6E6E6"/>
<path d="M225.515 171.851H211.148C210.284 171.851 209.455 171.508 208.844 170.897C208.233 170.285 207.89 169.456 207.89 168.592C207.89 167.728 208.233 166.899 208.844 166.287C209.455 165.676 210.284 165.333 211.148 165.333H225.515C226.379 165.333 227.208 165.676 227.819 166.287C228.43 166.899 228.774 167.728 228.774 168.592C228.774 169.456 228.43 170.285 227.819 170.897C227.208 171.508 226.379 171.851 225.515 171.851V171.851Z" fill="#A43E8A"/>
<path d="M269.5 178.963H209.667C209.196 178.963 208.743 178.775 208.41 178.442C208.077 178.108 207.89 177.656 207.89 177.185C207.89 176.713 208.077 176.261 208.41 175.928C208.743 175.594 209.196 175.407 209.667 175.407H269.5C269.971 175.407 270.423 175.594 270.756 175.928C271.09 176.261 271.277 176.713 271.277 177.185C271.277 177.656 271.09 178.108 270.756 178.442C270.423 178.775 269.971 178.963 269.5 178.963V178.963Z" fill="#E6E6E6"/>
<path d="M231.645 186.074H209.667C209.196 186.074 208.743 185.887 208.41 185.553C208.077 185.22 207.89 184.768 207.89 184.296C207.89 183.825 208.077 183.372 208.41 183.039C208.743 182.706 209.196 182.518 209.667 182.518H231.645C232.117 182.518 232.569 182.706 232.902 183.039C233.235 183.372 233.422 183.825 233.422 184.296C233.422 184.768 233.235 185.22 232.902 185.553C232.569 185.887 232.117 186.074 231.645 186.074V186.074Z" fill="#E6E6E6"/>
<path d="M277.942 116.888H163.608C162.94 116.887 162.3 116.621 161.828 116.149C161.356 115.677 161.091 115.037 161.09 114.369V83.2578C161.091 82.5901 161.356 81.9499 161.828 81.4777C162.3 81.0056 162.94 80.74 163.608 80.7393H277.942C278.609 80.74 279.249 81.0056 279.721 81.4778C280.193 81.9499 280.459 82.5901 280.459 83.2578V114.369C280.459 115.037 280.193 115.677 279.721 116.149C279.249 116.621 278.609 116.887 277.942 116.888V116.888Z" fill="#A43E8A"/>
<path d="M112.461 144.655C113.712 153.569 107.086 193.064 107.822 193.061L117.337 193.009C117.676 192.348 122.044 171.037 123.414 167.618C125.326 162.873 127.256 158.07 128.008 153.001C128.717 148.243 128.368 143.394 127.907 138.605C127.928 138.462 127.916 138.317 127.871 138.18C127.826 138.043 127.75 137.919 127.648 137.818C127.547 137.718 127.423 137.643 127.288 137.6C127.152 137.557 127.009 137.547 126.869 137.572L114.102 136.904C111.471 136.766 110.847 136.181 111.247 138.805C111.525 140.764 112.183 142.671 112.461 144.655Z" fill="#515978"/>
<path d="M115.301 126.873C112.883 130.31 110.349 134.266 111.151 138.381C111.761 141.505 114.17 143.927 116.442 146.193C125.525 155.21 143.435 195 143.435 195C152.079 189.532 143.229 195.156 152 189.376C151.223 189.316 133.559 126.538 132.096 126.454C126.176 126.066 121.069 125.495 115.301 126.873Z" fill="#515978"/>
<path d="M111.026 91.2916C110.699 91.3165 110.372 91.2274 110.098 91.0381C109.631 90.6193 113.444 84.2096 114.197 84.1146C116.648 83.8189 119.17 83.7204 121.547 84.4138C123.924 85.1072 126.16 86.6841 127.223 89.0178C127.667 89.9892 124.449 94.8783 122.986 94.1602C121.234 93.3014 113.333 91.3514 111.026 91.2916Z" fill="#E6E6E6"/>
<path d="M204.269 94.9617H184.408C183.146 94.9617 182.12 93.4996 182.12 91.7024C182.12 89.9052 183.146 88.4431 184.408 88.4431H204.269C205.531 88.4431 206.557 89.9052 206.557 91.7024C206.557 93.4996 205.531 94.9617 204.269 94.9617Z" fill="#263234"/>
<path d="M257.652 102.073H183.897C183.426 102.073 182.974 101.886 182.641 101.552C182.307 101.219 182.12 100.767 182.12 100.295C182.12 99.8236 182.307 99.3714 182.641 99.038C182.974 98.7046 183.426 98.5173 183.897 98.5173H257.652C258.123 98.5173 258.575 98.7046 258.908 99.038C259.242 99.3714 259.429 99.8236 259.429 100.295C259.429 100.767 259.242 101.219 258.908 101.552C258.575 101.886 258.123 102.073 257.652 102.073V102.073Z" fill="#E6E6E6"/>
<path d="M219.797 109.184H183.897C183.426 109.184 182.974 108.997 182.641 108.663C182.307 108.33 182.12 107.878 182.12 107.406C182.12 106.935 182.307 106.483 182.641 106.149C182.974 105.816 183.426 105.628 183.897 105.628H219.797C220.269 105.628 220.721 105.816 221.054 106.149C221.387 106.483 221.574 106.935 221.574 107.406C221.574 107.878 221.387 108.33 221.054 108.663C220.721 108.997 220.269 109.184 219.797 109.184V109.184Z" fill="#E6E6E6"/>
<path d="M354.383 206.851H79.0884V208H354.383V206.851Z" fill="#3F3D56"/>
<path d="M154.42 96.5358C154.412 96.7344 154.371 96.9303 154.3 97.1158C154.213 97.3446 154.08 97.5534 153.909 97.7292C153.738 97.9051 153.533 98.0444 153.306 98.1386L138.611 104.31L119.394 110.12C118.568 110.369 117.688 110.376 116.858 110.139C116.028 109.903 115.283 109.434 114.714 108.788V108.788C114.244 108.254 113.909 107.617 113.735 106.928C113.562 106.24 113.556 105.521 113.717 104.83C113.879 104.139 114.203 103.496 114.663 102.955C115.124 102.413 115.707 101.989 116.365 101.717L135.643 93.7365L148.262 87.4142C148.479 87.3053 148.717 87.2409 148.959 87.2247C149.202 87.2086 149.446 87.241 149.676 87.32C149.906 87.3991 150.118 87.5233 150.299 87.6852C150.48 87.8471 150.627 88.0434 150.73 88.2627L154.246 95.6935C154.371 95.9563 154.431 96.2452 154.42 96.5358V96.5358Z" fill="#922276"/>
<path d="M121.529 94.9336C126.598 94.9336 130.706 90.8176 130.706 85.7402C130.706 80.6629 126.598 76.5469 121.529 76.5469C116.461 76.5469 112.353 80.6629 112.353 85.7402C112.353 90.8176 116.461 94.9336 121.529 94.9336Z" fill="#FFB8B8"/>
<path d="M105.387 139.829C105.836 139.733 106.257 139.543 106.618 139.272C106.98 139.001 107.274 138.655 107.48 138.259C107.686 137.864 107.799 137.428 107.81 136.983C107.822 136.537 107.732 136.093 107.547 135.681L123.879 99.2392L117.198 97.5476L103.162 134.091C102.471 134.424 101.935 134.992 101.657 135.688C101.378 136.384 101.375 137.159 101.65 137.867C101.924 138.574 102.456 139.164 103.144 139.526C103.833 139.888 104.631 139.996 105.387 139.829L105.387 139.829Z" fill="#FFB8B8"/>
<path d="M113.406 139.751C113.309 139.751 113.213 139.724 113.124 139.673C110.181 137.992 112.528 105.193 112.629 103.798L112.64 103.738C112.713 103.505 112.786 103.276 112.861 103.052C113.586 100.788 114.8 98.9014 116.332 97.6615C117.863 96.4215 119.634 95.8908 121.393 96.1447C123.179 96.3376 124.88 97.3049 126.258 98.9131C127.637 100.521 128.627 102.691 129.09 105.123L134.543 133.187C134.601 133.485 134.603 133.799 134.549 134.099C134.496 134.399 134.387 134.674 134.236 134.898C134.084 135.121 133.893 135.286 133.683 135.376C133.472 135.465 133.248 135.477 133.034 135.41C128.791 134.078 118.51 131.715 114.677 138.505C114.206 139.34 113.787 139.751 113.406 139.751Z" fill="#A43E8A"/>
<path d="M112.956 131.076C112.9 131.064 112.844 131.049 112.79 131.032L105.93 128.857C105.726 128.792 105.536 128.689 105.373 128.553C105.21 128.418 105.077 128.253 104.981 128.069C104.885 127.885 104.829 127.685 104.816 127.481C104.803 127.277 104.834 127.074 104.906 126.884L109.569 114.517L117.125 99.6485C117.45 99.0099 117.964 98.4781 118.605 98.1167C119.245 97.7553 119.985 97.5795 120.737 97.6104V97.6104C121.358 97.6366 121.966 97.8029 122.512 98.0958C123.058 98.3887 123.525 98.7996 123.876 99.2945C124.227 99.7895 124.45 100.354 124.529 100.942C124.607 101.53 124.538 102.124 124.326 102.676L118.134 118.832L114.789 130.041C114.68 130.404 114.432 130.712 114.092 130.904C113.753 131.095 113.347 131.157 112.956 131.076L112.956 131.076Z" fill="#922276"/>
<path d="M117.634 93.7915C119.163 92.8695 119.326 90.6453 119.118 88.813C118.91 86.9807 118.563 84.938 119.593 83.4398C120.823 81.6517 123.294 81.6161 125.4 81.5577C127.506 81.4994 130.07 80.8547 130.616 78.7277C130.977 77.3222 130.205 75.814 129.098 74.9317C127.991 74.0495 126.606 73.6595 125.26 73.2888C122.249 72.4595 119.14 71.6233 116.056 72.0791C113.002 72.5305 110.241 74.2207 108.37 76.784C106.499 79.3473 105.669 82.5776 106.059 85.7758C106.558 89.867 107.282 91.6535 106.807 93.4573C105.922 96.8173 102.106 98.9757 102.03 102.46C101.971 105.185 104.274 107.287 106.521 108.671C108.303 109.769 110.226 110.7 112.28 110.957C114.334 111.214 116.545 110.722 118.075 109.267C120.048 107.39 120.536 104.255 119.97 101.529C119.404 98.8041 117.953 96.3839 116.517 94.0335" fill="#2F2E41"/>
</g>
<defs>
<clipPath id="clip0">
<rect width="281" height="208" fill="white" transform="translate(79)"/>
</clipPath>
</defs>
</svg>
