<svg width="201" height="36" viewBox="0 0 201 36" fill="none" xmlns="http://www.w3.org/2000/svg">
<path d="M3.85199 4.61288C3.83512 4.66982 3.82949 9.0045 3.83512 14.2503L3.85199 23.788L5.02167 23.8093L6.18573 23.8236V15.6738V7.52402H9.01433C13.1813 7.52402 14.2554 7.65926 15.875 8.37103C16.2067 8.5205 16.5385 8.59879 17.0671 8.66285C18.7261 8.85503 20.0251 9.38886 20.8292 10.2074C21.4141 10.8053 21.4141 10.8124 21.2341 10.4209C20.908 9.70916 20.5481 9.12551 19.9464 8.33544C18.2649 6.11471 16.6004 5.18229 13.4681 4.70541C12.4334 4.5417 3.89697 4.46341 3.85199 4.61288Z" fill="url(#paint0_linear)"/>
<path d="M0 18.5921V27.7384H6.01149C11.9667 27.7384 12.934 27.7099 13.9462 27.4893C16.0325 27.0337 17.354 25.8308 18.2707 23.5389C18.8105 22.1937 19.0186 21.2328 19.1198 19.5957C19.2267 17.9729 19.0748 16.3002 18.7149 14.9977C18.4112 13.9087 18.4056 13.9015 17.8714 13.7307C17.2359 13.5172 16.8029 13.4389 15.9425 13.3819L15.2115 13.3392L15.4421 13.6524C16.0213 14.4496 16.4712 15.5386 16.6567 16.5849C16.8254 17.5387 16.8254 19.6527 16.6511 20.6207C16.4262 21.909 15.8357 23.1546 15.1553 23.8023C14.2105 24.6991 13.2433 24.8201 6.7088 24.8201H2.41809L2.38998 24.6564C2.37311 24.571 2.36748 21.7951 2.37311 18.4853L2.38998 12.4709L2.74425 12.4495L3.09291 12.4282V10.9406V9.44585H1.54645H0V18.5921Z" fill="#0F555F"/>
<path d="M6.92813 10.9192L6.945 12.3997L11.8655 12.4424C15.3915 12.4709 16.9042 12.5065 17.2022 12.5705C17.7758 12.6915 18.5462 12.9833 18.7824 13.1684C19.1254 13.4318 19.5191 13.9442 19.7946 14.4781C20.3907 15.6169 20.6438 16.8483 20.6438 18.5494C20.6438 22.8129 19.3897 26.1226 17.0166 28.1014C16.4543 28.5711 15.8919 28.8701 15.0878 29.1192C13.6763 29.5676 12.6247 29.6601 8.9582 29.6601H6.18583V29.1619V28.6637L5.02177 28.6779L3.85209 28.6992L3.83522 30.6353L3.82397 32.5784H8.20466C12.5347 32.5784 13.069 32.557 14.3399 32.3222C16.9154 31.8453 18.7599 30.6495 20.2558 28.4786C22.0778 25.8237 23 22.4997 23 18.585C23 16.7344 22.7976 15.503 22.2184 13.8375C21.999 13.1898 21.3186 12.0296 20.835 11.453C19.9858 10.4494 19.1929 10.001 17.7702 9.70207C16.7186 9.48854 15.7064 9.44584 11.3201 9.44584H6.91688L6.92813 10.9192Z" fill="url(#paint1_linear)"/>
<path d="M44.512 9.248C46.272 9.248 47.816 9.592 49.144 10.28C50.488 10.968 51.52 11.952 52.24 13.232C52.976 14.496 53.344 15.968 53.344 17.648C53.344 19.328 52.976 20.8 52.24 22.064C51.52 23.312 50.488 24.28 49.144 24.968C47.816 25.656 46.272 26 44.512 26H38.656V9.248H44.512ZM44.392 23.144C46.152 23.144 47.512 22.664 48.472 21.704C49.432 20.744 49.912 19.392 49.912 17.648C49.912 15.904 49.432 14.544 48.472 13.568C47.512 12.576 46.152 12.08 44.392 12.08H42.016V23.144H44.392ZM57.5631 11.12C56.9711 11.12 56.4751 10.936 56.0751 10.568C55.6911 10.184 55.4991 9.712 55.4991 9.152C55.4991 8.592 55.6911 8.128 56.0751 7.76C56.4751 7.376 56.9711 7.184 57.5631 7.184C58.1551 7.184 58.6431 7.376 59.0271 7.76C59.4271 8.128 59.6271 8.592 59.6271 9.152C59.6271 9.712 59.4271 10.184 59.0271 10.568C58.6431 10.936 58.1551 11.12 57.5631 11.12ZM59.2191 12.704V26H55.8591V12.704H59.2191ZM61.6748 19.304C61.6748 17.96 61.9388 16.768 62.4668 15.728C63.0108 14.688 63.7388 13.888 64.6508 13.328C65.5788 12.768 66.6108 12.488 67.7468 12.488C68.7388 12.488 69.6028 12.688 70.3388 13.088C71.0908 13.488 71.6908 13.992 72.1388 14.6V12.704H75.5228V26H72.1388V24.056C71.7068 24.68 71.1068 25.2 70.3388 25.616C69.5868 26.016 68.7148 26.216 67.7228 26.216C66.6028 26.216 65.5788 25.928 64.6508 25.352C63.7388 24.776 63.0108 23.968 62.4668 22.928C61.9388 21.872 61.6748 20.664 61.6748 19.304ZM72.1388 19.352C72.1388 18.536 71.9788 17.84 71.6588 17.264C71.3388 16.672 70.9068 16.224 70.3628 15.92C69.8188 15.6 69.2348 15.44 68.6108 15.44C67.9868 15.44 67.4108 15.592 66.8828 15.896C66.3548 16.2 65.9228 16.648 65.5868 17.24C65.2668 17.816 65.1068 18.504 65.1068 19.304C65.1068 20.104 65.2668 20.808 65.5868 21.416C65.9228 22.008 66.3548 22.464 66.8828 22.784C67.4268 23.104 68.0028 23.264 68.6108 23.264C69.2348 23.264 69.8188 23.112 70.3628 22.808C70.9068 22.488 71.3388 22.04 71.6588 21.464C71.9788 20.872 72.1388 20.168 72.1388 19.352ZM86.1724 12.512C87.7564 12.512 89.0364 13.016 90.0124 14.024C90.9884 15.016 91.4764 16.408 91.4764 18.2V26H88.1164V18.656C88.1164 17.6 87.8524 16.792 87.3244 16.232C86.7964 15.656 86.0764 15.368 85.1644 15.368C84.2364 15.368 83.5004 15.656 82.9564 16.232C82.4284 16.792 82.1644 17.6 82.1644 18.656V26H78.8044V12.704H82.1644V14.36C82.6124 13.784 83.1804 13.336 83.8684 13.016C84.5724 12.68 85.3404 12.512 86.1724 12.512ZM93.8076 19.304C93.8076 17.96 94.0716 16.768 94.5996 15.728C95.1436 14.688 95.8716 13.888 96.7836 13.328C97.7116 12.768 98.7436 12.488 99.8796 12.488C100.872 12.488 101.736 12.688 102.472 13.088C103.224 13.488 103.824 13.992 104.272 14.6V12.704H107.656V26H104.272V24.056C103.84 24.68 103.24 25.2 102.472 25.616C101.72 26.016 100.848 26.216 99.8556 26.216C98.7356 26.216 97.7116 25.928 96.7836 25.352C95.8716 24.776 95.1436 23.968 94.5996 22.928C94.0716 21.872 93.8076 20.664 93.8076 19.304ZM104.272 19.352C104.272 18.536 104.112 17.84 103.792 17.264C103.472 16.672 103.04 16.224 102.496 15.92C101.952 15.6 101.368 15.44 100.744 15.44C100.12 15.44 99.5436 15.592 99.0156 15.896C98.4876 16.2 98.0556 16.648 97.7196 17.24C97.3996 17.816 97.2396 18.504 97.2396 19.304C97.2396 20.104 97.3996 20.808 97.7196 21.416C98.0556 22.008 98.4876 22.464 99.0156 22.784C99.5596 23.104 100.136 23.264 100.744 23.264C101.368 23.264 101.952 23.112 102.496 22.808C103.04 22.488 103.472 22.04 103.792 21.464C104.112 20.872 104.272 20.168 104.272 19.352ZM127.593 9.44V26H125.913V12.776L120.009 26H118.785L112.881 12.824V26H111.201V9.44H112.977L119.385 23.792L125.793 9.44H127.593ZM130.636 19.424C130.636 18.08 130.9 16.904 131.428 15.896C131.972 14.872 132.716 14.088 133.66 13.544C134.62 12.984 135.7 12.704 136.9 12.704C138.148 12.704 139.22 12.992 140.116 13.568C141.028 14.144 141.684 14.88 142.084 15.776V12.896H143.764V26H142.084V23.096C141.668 23.992 141.004 24.736 140.092 25.328C139.196 25.904 138.124 26.192 136.876 26.192C135.692 26.192 134.62 25.912 133.66 25.352C132.716 24.792 131.972 24 131.428 22.976C130.9 21.952 130.636 20.768 130.636 19.424ZM142.084 19.448C142.084 18.392 141.868 17.464 141.436 16.664C141.004 15.864 140.412 15.248 139.66 14.816C138.924 14.384 138.108 14.168 137.212 14.168C136.284 14.168 135.452 14.376 134.716 14.792C133.98 15.208 133.396 15.816 132.964 16.616C132.548 17.4 132.34 18.336 132.34 19.424C132.34 20.496 132.548 21.44 132.964 22.256C133.396 23.056 133.98 23.672 134.716 24.104C135.452 24.52 136.284 24.728 137.212 24.728C138.108 24.728 138.924 24.512 139.66 24.08C140.412 23.648 141.004 23.032 141.436 22.232C141.868 21.432 142.084 20.504 142.084 19.448ZM149.28 15.224C149.648 14.408 150.208 13.776 150.96 13.328C151.728 12.88 152.664 12.656 153.768 12.656V14.408H153.312C152.096 14.408 151.12 14.736 150.384 15.392C149.648 16.048 149.28 17.144 149.28 18.68V26H147.6V12.896H149.28V15.224ZM158.479 14.312V22.448C158.479 23.248 158.631 23.8 158.935 24.104C159.239 24.408 159.775 24.56 160.543 24.56H162.079V26H160.279C159.095 26 158.215 25.728 157.639 25.184C157.063 24.624 156.775 23.712 156.775 22.448V14.312H154.951V12.896H156.775V9.608H158.479V12.896H162.079V14.312H158.479ZM165.69 10.424C165.354 10.424 165.066 10.304 164.826 10.064C164.586 9.824 164.466 9.528 164.466 9.176C164.466 8.824 164.586 8.536 164.826 8.312C165.066 8.072 165.354 7.952 165.69 7.952C166.026 7.952 166.314 8.072 166.554 8.312C166.794 8.536 166.914 8.824 166.914 9.176C166.914 9.528 166.794 9.824 166.554 10.064C166.314 10.304 166.026 10.424 165.69 10.424ZM166.53 12.896V26H164.85V12.896H166.53ZM176.478 12.656C178.046 12.656 179.326 13.144 180.318 14.12C181.31 15.08 181.806 16.48 181.806 18.32V26H180.15V18.512C180.15 17.088 179.79 16 179.07 15.248C178.366 14.496 177.398 14.12 176.166 14.12C174.902 14.12 173.894 14.52 173.142 15.32C172.39 16.12 172.014 17.296 172.014 18.848V26H170.334V12.896H172.014V15.128C172.43 14.328 173.03 13.72 173.814 13.304C174.598 12.872 175.486 12.656 176.478 12.656ZM184.754 19.424C184.754 18.08 185.018 16.904 185.546 15.896C186.09 14.872 186.834 14.088 187.778 13.544C188.738 12.984 189.818 12.704 191.018 12.704C192.266 12.704 193.338 12.992 194.234 13.568C195.146 14.144 195.802 14.88 196.202 15.776V12.896H197.882V26H196.202V23.096C195.786 23.992 195.122 24.736 194.21 25.328C193.314 25.904 192.242 26.192 190.994 26.192C189.81 26.192 188.738 25.912 187.778 25.352C186.834 24.792 186.09 24 185.546 22.976C185.018 21.952 184.754 20.768 184.754 19.424ZM196.202 19.448C196.202 18.392 195.986 17.464 195.554 16.664C195.122 15.864 194.53 15.248 193.778 14.816C193.042 14.384 192.226 14.168 191.33 14.168C190.402 14.168 189.57 14.376 188.834 14.792C188.098 15.208 187.514 15.816 187.082 16.616C186.666 17.4 186.458 18.336 186.458 19.424C186.458 20.496 186.666 21.44 187.082 22.256C187.514 23.056 188.098 23.672 188.834 24.104C189.57 24.52 190.402 24.728 191.33 24.728C192.226 24.728 193.042 24.512 193.778 24.08C194.53 23.648 195.122 23.032 195.554 22.232C195.986 21.432 196.202 20.504 196.202 19.448Z" fill="#73105A"/>
<defs>
<linearGradient id="paint0_linear" x1="12.5863" y1="23.8236" x2="12.5863" y2="4.5333" gradientUnits="userSpaceOnUse">
<stop stop-color="#0F555F"/>
<stop offset="1" stop-color="#73105A"/>
</linearGradient>
<linearGradient id="paint1_linear" x1="13.412" y1="32.5784" x2="13.412" y2="9.44584" gradientUnits="userSpaceOnUse">
<stop stop-color="#73105A"/>
<stop offset="1" stop-color="#0F555F"/>
</linearGradient>
</defs>
</svg>
