<svg width="270" height="41" viewBox="0 0 270 41" fill="none" xmlns="http://www.w3.org/2000/svg">
<path d="M5.49387 0.691891C5.4698 0.773106 5.46178 6.95556 5.4698 14.4374L5.49387 28.0409L7.16215 28.0713L8.82242 28.0916V16.4678V4.84398H12.8568C18.8001 4.84398 20.332 5.03687 22.6419 6.05205C23.1151 6.26524 23.5884 6.37691 24.3423 6.46827C26.7084 6.74237 28.5611 7.50376 29.7081 8.67121C30.5422 9.52397 30.5422 9.53412 30.2856 8.97577C29.8204 7.96059 29.3071 7.12814 28.4489 6.00129C26.0507 2.83392 23.6766 1.50404 19.2091 0.823865C17.7333 0.590373 5.55803 0.478703 5.49387 0.691891Z" fill="url(#paint0_linear)"/>
<path d="M0 20.6301V33.6752H8.57404C17.0679 33.6752 18.4474 33.6346 19.8911 33.3199C22.8668 32.6702 24.7516 30.9545 26.059 27.6856C26.829 25.7669 27.1257 24.3964 27.2701 22.0615C27.4225 19.7469 27.2059 17.3612 26.6926 15.5034C26.2595 13.9502 26.2515 13.9401 25.4895 13.6964C24.5832 13.3919 23.9656 13.2802 22.7384 13.199L21.6958 13.1381L22.0246 13.5847C22.8507 14.7218 23.4924 16.275 23.7571 17.7673C23.9977 19.1276 23.9977 22.1427 23.749 23.5234C23.4282 25.3609 22.5861 27.1374 21.6156 28.0612C20.2681 29.3404 18.8886 29.5129 9.5686 29.5129H3.44886L3.40876 29.2795C3.3847 29.1576 3.37668 25.1984 3.3847 20.4778L3.40876 11.8995L3.91406 11.8691L4.41134 11.8386V9.71691V7.58503H2.20567H0V20.6301Z" fill="#0F555F"/>
<path d="M9.88099 9.68644L9.90506 11.798L16.9231 11.8589C21.952 11.8995 24.1096 11.9503 24.5347 12.0417C25.3528 12.2142 26.4516 12.6305 26.7885 12.8944C27.2777 13.27 27.8392 14.001 28.2322 14.7623C29.0823 16.3866 29.4433 18.1429 29.4433 20.5692C29.4433 26.6501 27.6547 31.3707 24.27 34.1929C23.4679 34.8629 22.6659 35.2893 21.5189 35.6446C19.5057 36.2842 18.0059 36.4162 12.7764 36.4162H8.82227V35.7055V34.9949L7.162 35.0152L5.49372 35.0457L5.46965 37.807L5.45361 40.5784H11.7017C17.8775 40.5784 18.6395 40.5479 20.4522 40.2129C24.1256 39.5328 26.7564 37.8273 28.8899 34.731C31.4885 30.9443 32.8039 26.2034 32.8039 20.6199C32.8039 17.9805 32.5152 16.2242 31.689 13.8487C31.3762 12.9249 30.4058 11.2701 29.716 10.4478C28.5049 9.01642 27.374 8.37685 25.3447 7.95048C23.8449 7.64592 22.4012 7.58501 16.1451 7.58501H9.86495L9.88099 9.68644Z" fill="url(#paint1_linear)"/>
<path d="M54.016 12.664C56.3627 12.664 58.4213 13.1227 60.192 14.04C61.984 14.9573 63.36 16.2693 64.32 17.976C65.3013 19.6613 65.792 21.624 65.792 23.864C65.792 26.104 65.3013 28.0667 64.32 29.752C63.36 31.416 61.984 32.7067 60.192 33.624C58.4213 34.5413 56.3627 35 54.016 35H46.208V12.664H54.016ZM53.856 31.192C56.2027 31.192 58.016 30.552 59.296 29.272C60.576 27.992 61.216 26.1893 61.216 23.864C61.216 21.5387 60.576 19.7253 59.296 18.424C58.016 17.1013 56.2027 16.44 53.856 16.44H50.688V31.192H53.856ZM71.4175 15.16C70.6282 15.16 69.9668 14.9147 69.4335 14.424C68.9215 13.912 68.6655 13.2827 68.6655 12.536C68.6655 11.7893 68.9215 11.1707 69.4335 10.68C69.9668 10.168 70.6282 9.912 71.4175 9.912C72.2068 9.912 72.8575 10.168 73.3695 10.68C73.9028 11.1707 74.1695 11.7893 74.1695 12.536C74.1695 13.2827 73.9028 13.912 73.3695 14.424C72.8575 14.9147 72.2068 15.16 71.4175 15.16ZM73.6255 17.272V35H69.1455V17.272H73.6255ZM76.8997 26.072C76.8997 24.28 77.2517 22.6907 77.9557 21.304C78.6811 19.9173 79.6518 18.8507 80.8678 18.104C82.1051 17.3573 83.4811 16.984 84.9958 16.984C86.3184 16.984 87.4704 17.2507 88.4518 17.784C89.4544 18.3173 90.2544 18.9893 90.8518 19.8V17.272H95.3638V35H90.8518V32.408C90.2758 33.24 89.4758 33.9333 88.4518 34.488C87.4491 35.0213 86.2864 35.288 84.9638 35.288C83.4704 35.288 82.1051 34.904 80.8678 34.136C79.6518 33.368 78.6811 32.2907 77.9557 30.904C77.2517 29.496 76.8997 27.8853 76.8997 26.072ZM90.8518 26.136C90.8518 25.048 90.6384 24.12 90.2118 23.352C89.7851 22.5627 89.2091 21.9653 88.4838 21.56C87.7584 21.1333 86.9798 20.92 86.1478 20.92C85.3158 20.92 84.5478 21.1227 83.8438 21.528C83.1398 21.9333 82.5638 22.5307 82.1158 23.32C81.6891 24.088 81.4758 25.0053 81.4758 26.072C81.4758 27.1387 81.6891 28.0773 82.1158 28.888C82.5638 29.6773 83.1398 30.2853 83.8438 30.712C84.5691 31.1387 85.3371 31.352 86.1478 31.352C86.9798 31.352 87.7584 31.1493 88.4838 30.744C89.2091 30.3173 89.7851 29.72 90.2118 28.952C90.6384 28.1627 90.8518 27.224 90.8518 26.136ZM109.563 17.016C111.675 17.016 113.382 17.688 114.683 19.032C115.985 20.3547 116.635 22.2107 116.635 24.6V35H112.155V25.208C112.155 23.8 111.803 22.7227 111.099 21.976C110.395 21.208 109.435 20.824 108.219 20.824C106.982 20.824 106.001 21.208 105.275 21.976C104.571 22.7227 104.219 23.8 104.219 25.208V35H99.7393V17.272H104.219V19.48C104.817 18.712 105.574 18.1147 106.491 17.688C107.43 17.24 108.454 17.016 109.563 17.016ZM119.743 26.072C119.743 24.28 120.095 22.6907 120.799 21.304C121.525 19.9173 122.496 18.8507 123.712 18.104C124.949 17.3573 126.325 16.984 127.84 16.984C129.162 16.984 130.314 17.2507 131.296 17.784C132.298 18.3173 133.098 18.9893 133.696 19.8V17.272H138.208V35H133.696V32.408C133.12 33.24 132.32 33.9333 131.296 34.488C130.293 35.0213 129.13 35.288 127.808 35.288C126.314 35.288 124.949 34.904 123.712 34.136C122.496 33.368 121.525 32.2907 120.799 30.904C120.095 29.496 119.743 27.8853 119.743 26.072ZM133.696 26.136C133.696 25.048 133.482 24.12 133.056 23.352C132.629 22.5627 132.053 21.9653 131.328 21.56C130.602 21.1333 129.824 20.92 128.992 20.92C128.16 20.92 127.392 21.1227 126.688 21.528C125.984 21.9333 125.408 22.5307 124.96 23.32C124.533 24.088 124.32 25.0053 124.32 26.072C124.32 27.1387 124.533 28.0773 124.96 28.888C125.408 29.6773 125.984 30.2853 126.688 30.712C127.413 31.1387 128.181 31.352 128.992 31.352C129.824 31.352 130.602 31.1493 131.328 30.744C132.053 30.3173 132.629 29.72 133.056 28.952C133.482 28.1627 133.696 27.224 133.696 26.136ZM164.791 12.92V35H162.551V17.368L154.679 35H153.047L145.175 17.432V35H142.935V12.92H145.303L153.847 32.056L162.391 12.92H164.791ZM168.849 26.232C168.849 24.44 169.201 22.872 169.905 21.528C170.63 20.1627 171.622 19.1173 172.881 18.392C174.161 17.6453 175.601 17.272 177.201 17.272C178.865 17.272 180.294 17.656 181.489 18.424C182.705 19.192 183.579 20.1733 184.113 21.368V17.528H186.353V35H184.113V31.128C183.558 32.3227 182.673 33.3147 181.457 34.104C180.262 34.872 178.833 35.256 177.169 35.256C175.59 35.256 174.161 34.8827 172.881 34.136C171.622 33.3893 170.63 32.3333 169.905 30.968C169.201 29.6027 168.849 28.024 168.849 26.232ZM184.113 26.264C184.113 24.856 183.825 23.6187 183.249 22.552C182.673 21.4853 181.883 20.664 180.881 20.088C179.899 19.512 178.811 19.224 177.617 19.224C176.379 19.224 175.27 19.5013 174.289 20.056C173.307 20.6107 172.529 21.4213 171.953 22.488C171.398 23.5333 171.121 24.7813 171.121 26.232C171.121 27.6613 171.398 28.92 171.953 30.008C172.529 31.0747 173.307 31.896 174.289 32.472C175.27 33.0267 176.379 33.304 177.617 33.304C178.811 33.304 179.899 33.016 180.881 32.44C181.883 31.864 182.673 31.0427 183.249 29.976C183.825 28.9093 184.113 27.672 184.113 26.264ZM193.706 20.632C194.197 19.544 194.944 18.7013 195.946 18.104C196.97 17.5067 198.218 17.208 199.69 17.208V19.544H199.082C197.461 19.544 196.16 19.9813 195.178 20.856C194.197 21.7307 193.706 23.192 193.706 25.24V35H191.466V17.528H193.706V20.632ZM205.972 19.416V30.264C205.972 31.3307 206.175 32.0667 206.58 32.472C206.985 32.8773 207.7 33.08 208.724 33.08H210.772V35H208.372C206.793 35 205.62 34.6373 204.852 33.912C204.084 33.1653 203.7 31.9493 203.7 30.264V19.416H201.268V17.528H203.7V13.144H205.972V17.528H210.772V19.416H205.972ZM215.586 14.232C215.138 14.232 214.754 14.072 214.434 13.752C214.114 13.432 213.954 13.0373 213.954 12.568C213.954 12.0987 214.114 11.7147 214.434 11.416C214.754 11.096 215.138 10.936 215.586 10.936C216.034 10.936 216.418 11.096 216.738 11.416C217.058 11.7147 217.218 12.0987 217.218 12.568C217.218 13.0373 217.058 13.432 216.738 13.752C216.418 14.072 216.034 14.232 215.586 14.232ZM216.706 17.528V35H214.466V17.528H216.706ZM229.971 17.208C232.061 17.208 233.768 17.8587 235.091 19.16C236.413 20.44 237.075 22.3067 237.075 24.76V35H234.867V25.016C234.867 23.1173 234.387 21.6667 233.427 20.664C232.488 19.6613 231.197 19.16 229.555 19.16C227.869 19.16 226.525 19.6933 225.523 20.76C224.52 21.8267 224.019 23.3947 224.019 25.464V35H221.779V17.528H224.019V20.504C224.573 19.4373 225.373 18.6267 226.419 18.072C227.464 17.496 228.648 17.208 229.971 17.208ZM241.005 26.232C241.005 24.44 241.357 22.872 242.061 21.528C242.786 20.1627 243.778 19.1173 245.037 18.392C246.317 17.6453 247.757 17.272 249.357 17.272C251.021 17.272 252.45 17.656 253.645 18.424C254.861 19.192 255.735 20.1733 256.269 21.368V17.528H258.509V35H256.269V31.128C255.714 32.3227 254.829 33.3147 253.613 34.104C252.418 34.872 250.989 35.256 249.325 35.256C247.746 35.256 246.317 34.8827 245.037 34.136C243.778 33.3893 242.786 32.3333 242.061 30.968C241.357 29.6027 241.005 28.024 241.005 26.232ZM256.269 26.264C256.269 24.856 255.981 23.6187 255.405 22.552C254.829 21.4853 254.039 20.664 253.037 20.088C252.055 19.512 250.967 19.224 249.773 19.224C248.535 19.224 247.426 19.5013 246.445 20.056C245.463 20.6107 244.685 21.4213 244.109 22.488C243.554 23.5333 243.277 24.7813 243.277 26.232C243.277 27.6613 243.554 28.92 244.109 30.008C244.685 31.0747 245.463 31.896 246.445 32.472C247.426 33.0267 248.535 33.304 249.773 33.304C250.967 33.304 252.055 33.016 253.037 32.44C254.039 31.864 254.829 31.0427 255.405 29.976C255.981 28.9093 256.269 27.672 256.269 26.264Z" fill="#73105A"/>
<defs>
<linearGradient id="paint0_linear" x1="17.9514" y1="28.0916" x2="17.9514" y2="0.578388" gradientUnits="userSpaceOnUse">
<stop stop-color="#0F555F"/>
<stop offset="1" stop-color="#73105A"/>
</linearGradient>
<linearGradient id="paint1_linear" x1="19.1288" y1="40.5784" x2="19.1288" y2="7.58501" gradientUnits="userSpaceOnUse">
<stop stop-color="#73105A"/>
<stop offset="1" stop-color="#0F555F"/>
</linearGradient>
</defs>
</svg>
