<svg width="26" height="26" viewBox="0 0 26 26" fill="none" xmlns="http://www.w3.org/2000/svg">
<rect x="0.5" y="0.5" width="25" height="25" rx="5.5" stroke="#73105A"/>
<path fill-rule="evenodd" clip-rule="evenodd" d="M7.40833 8.5C7.01875 8.5 6.7 8.1625 6.7 7.75C6.7 7.3375 7.01875 7 7.40833 7H18.7417C19.1312 7 19.45 7.3375 19.45 7.75C19.45 8.1625 19.1312 8.5 18.7417 8.5H7.40833ZM5.94444 13.5H21.0556C21.575 13.5 22 13.1625 22 12.75C22 12.3375 21.575 12 21.0556 12H5.94444C5.425 12 5 12.3375 5 12.75C5 13.1625 5.425 13.5 5.94444 13.5ZM7.40833 18.5H18.7417C19.1312 18.5 19.45 18.1625 19.45 17.75C19.45 17.3375 19.1312 17 18.7417 17H7.40833C7.01875 17 6.7 17.3375 6.7 17.75C6.7 18.1625 7.01875 18.5 7.40833 18.5Z" fill="#73105A"/>
</svg>
